<?xml version="1.0" standalone="no"?>
<!DOCTYPE svg PUBLIC "-//W3C//DTD SVG 20010904//EN"
 "http://www.w3.org/TR/2001/REC-SVG-20010904/DTD/svg10.dtd">
<svg version="1.0" xmlns="http://www.w3.org/2000/svg"
 width="300.000000pt" height="150.000000pt" viewBox="0 0 300.000000 150.000000"
 preserveAspectRatio="xMidYMid meet">
<metadata>
Created by potrace 1.10, written by Peter Selinger 2001-2011
</metadata>
<g transform="translate(0.000000,150.000000) scale(0.100000,-0.100000)"
fill="#000000" stroke="none">
<path d="M383 1097 c-112 -56 -203 -104 -203 -107 0 -3 20 -15 44 -27 l45 -20
166 83 167 83 165 -83 164 -83 45 20 c24 12 44 23 44 27 0 8 -413 211 -425
209 -5 -1 -101 -47 -212 -102z m408 -20 c139 -71 181 -101 122 -91 -15 3 -35
12 -44 20 -8 8 -19 14 -22 14 -4 0 -59 25 -122 55 -64 30 -120 55 -125 55 -5
0 -69 -29 -142 -64 -174 -83 -202 -94 -196 -74 4 11 248 140 248 131 0 -3 7 1
16 8 31 26 68 36 95 27 15 -5 91 -42 170 -81z"/>
<path d="M595 1050 c-39 -12 -97 -41 -92 -46 3 -3 25 5 48 17 37 18 48 20 73
11 37 -14 40 -12 13 9 -13 9 -30 13 -42 9z"/>
<path d="M671 1022 c3 -8 40 -33 84 -55 44 -23 79 -46 78 -52 -5 -22 -55 -14
-122 19 -78 40 -89 43 -71 21 7 -8 16 -13 20 -10 5 3 12 0 16 -6 6 -10 57 -35
79 -39 6 -1 18 -8 27 -17 15 -14 20 -13 45 5 15 11 31 19 35 18 3 0 9 2 13 6
6 5 -46 40 -65 43 -3 1 -25 11 -50 24 -25 13 -46 22 -46 20 -1 -2 -12 5 -24
16 -13 11 -21 14 -19 7z"/>
<path d="M455 992 c-16 -8 -35 -20 -41 -27 -6 -6 -30 -17 -53 -25 -23 -7 -40
-17 -39 -22 2 -5 6 -8 8 -6 3 1 20 -8 38 -21 32 -23 34 -23 54 -5 11 11 22 18
24 16 7 -4 71 26 78 37 4 6 11 9 16 6 4 -3 13 2 20 10 18 22 7 19 -70 -20 -69
-35 -113 -44 -125 -25 -6 9 45 45 98 68 15 6 27 16 27 22 0 5 -1 10 -2 9 -2
-1 -16 -8 -33 -17z"/>
<path d="M170 725 l0 -215 216 -107 215 -106 215 106 214 107 0 215 c0 118 -2
215 -5 215 -3 0 -24 -9 -45 -20 l-40 -20 0 -170 0 -170 -168 -84 -169 -84
-171 84 -172 84 0 170 0 170 -40 20 c-21 11 -42 20 -45 20 -3 0 -5 -97 -5
-215z m828 -22 c-1 -128 -5 -169 -16 -180 -24 -24 -357 -183 -383 -183 -32 0
-202 84 -192 95 4 4 3 5 -4 1 -13 -7 -156 63 -183 90 -20 20 -23 344 -2 344 9
0 12 -35 12 -142 0 -94 5 -151 13 -167 7 -16 46 -42 104 -71 50 -25 97 -51
105 -56 7 -6 41 -23 75 -37 48 -22 70 -26 102 -21 22 4 38 10 35 15 -3 5 4 9
14 9 11 0 25 7 32 15 7 8 16 13 20 10 5 -3 10 -2 12 2 6 15 109 63 120 57 6
-4 8 -3 5 3 -4 6 11 17 32 25 65 26 72 47 76 210 3 169 2 161 15 153 7 -4 10
-67 8 -172z"/>
<path d="M582 918 c-7 -7 -16 -13 -20 -14 -18 -2 -69 -27 -84 -41 -10 -9 -18
-13 -18 -8 0 4 -7 2 -15 -5 -23 -19 -20 -87 5 -100 11 -6 20 -7 20 -3 0 4 4 2
9 -5 4 -7 14 -14 22 -16 8 -1 33 -12 56 -24 l42 -22 58 27 c32 15 61 32 65 38
4 5 8 6 8 2 0 -4 9 -3 20 3 25 13 28 81 5 100 -8 7 -15 9 -15 5 0 -5 -8 -1
-18 8 -15 14 -66 39 -84 41 -4 1 -13 7 -19 14 -7 6 -16 12 -19 12 -3 0 -12 -6
-18 -12z m107 -52 c61 -31 68 -38 67 -63 -1 -24 -11 -33 -77 -67 l-76 -40 -57
25 c-129 56 -138 95 -34 147 35 17 73 31 86 32 12 0 53 -15 91 -34z"/>
<path d="M302 734 l3 -146 43 -24 42 -24 0 148 -1 147 -45 22 -45 22 3 -145z
m62 68 c2 -10 4 -59 4 -109 1 -71 -3 -93 -13 -93 -20 0 -25 24 -25 131 0 82 2
97 15 93 8 -3 16 -13 19 -22z"/>
<path d="M853 857 l-42 -22 -1 -146 0 -146 45 21 45 21 0 148 c0 81 -1 147 -2
146 -2 0 -22 -10 -45 -22z m27 -137 c0 -87 -2 -101 -19 -109 -25 -14 -29 -3
-27 79 4 127 4 130 26 130 19 0 20 -7 20 -100z"/>
<path d="M430 666 l1 -51 85 -40 86 -40 83 40 84 40 0 51 1 51 -85 -44 -85
-44 -85 44 -85 44 0 -51z m135 -41 c32 -14 38 -14 91 10 61 27 84 31 84 15 0
-5 -5 -10 -12 -10 -6 0 -8 -3 -5 -6 9 -10 -93 -63 -121 -64 -12 0 -49 14 -82
30 -43 22 -60 36 -60 50 0 22 -10 25 105 -25z"/>
</g>
</svg>
