<svg width="250" height="250" viewBox="0 0 250 250" fill="none" xmlns="http://www.w3.org/2000/svg">
<g clip-path="url(#clip0_2108_3946)">
<path fill-rule="evenodd" clip-rule="evenodd" d="M124.669 58.8164C124.669 58.938 124.47 59.0369 124.227 59.0369C123.984 59.0369 123.785 59.1363 123.785 59.2579C123.785 59.3795 123.587 59.479 123.344 59.479C123.1 59.479 122.902 59.5785 122.902 59.6995C122.902 59.8211 122.703 59.9205 122.46 59.9205C122.217 59.9205 122.018 59.9957 122.018 60.0874C122.018 60.3008 120.855 60.8191 120.28 60.8622C120.038 60.8805 119.889 60.9744 119.948 61.0706C120.044 61.2248 119.464 61.3331 119.308 61.1905C119.275 61.1601 119.01 61.3563 118.72 61.6265C118.43 61.8973 117.86 62.2278 117.455 62.3615C117.049 62.4953 116.718 62.6964 116.718 62.8086C116.718 62.9202 116.588 63.012 116.43 63.012C116.024 63.012 114.955 63.5315 114.953 63.7299C114.952 63.821 114.752 63.8956 114.509 63.8956C114.266 63.8956 114.068 63.9951 114.068 64.1161C114.068 64.2377 113.869 64.3372 113.626 64.3372C113.383 64.3372 113.184 64.4367 113.184 64.5577C113.184 64.6793 112.93 64.7787 112.619 64.7787C112.308 64.7787 112.107 64.8655 112.173 64.9722C112.239 65.0783 111.908 65.2269 111.437 65.3021C110.963 65.3778 110.523 65.5933 110.449 65.7851C110.376 65.9758 110.228 66.0769 110.12 66.0106C110.011 65.9437 109.688 66.068 109.4 66.2874C108.814 66.734 107.42 67.3408 107.166 67.2606C107.074 67.2313 107 67.3076 107 67.4286C107 67.5502 106.847 67.6497 106.659 67.6497C106.472 67.6497 106.105 67.8486 105.845 68.0912C105.584 68.3344 105.141 68.5328 104.86 68.5328C104.579 68.5328 104.35 68.6323 104.35 68.7539C104.35 68.8754 104.151 68.9744 103.908 68.9744C103.665 68.9744 103.466 69.0738 103.466 69.1954C103.466 69.317 103.267 69.4165 103.025 69.4165C102.782 69.4165 102.583 69.4911 102.582 69.5817C102.581 69.6729 102.035 69.9962 101.368 70.2996C100.701 70.6035 100.155 70.9263 100.154 71.0174C100.154 71.1086 99.9048 71.1832 99.6013 71.1832C99.2979 71.1832 99.0492 71.2822 99.0492 71.4037C99.0492 71.5253 98.9 71.6248 98.7181 71.6248C98.5357 71.6248 98.3865 71.7243 98.3865 71.8453C98.3865 71.9669 98.1881 72.0663 97.9449 72.0663C97.7017 72.0663 97.5033 72.1658 97.5033 72.2874C97.5033 72.4084 97.3043 72.5079 97.0617 72.5079C96.8185 72.5079 96.6195 72.6074 96.6195 72.729C96.6195 72.85 96.4211 72.9495 96.1779 72.9495C95.9353 72.9495 95.7363 73.0246 95.7363 73.1164C95.7363 73.2921 94.9007 73.6861 93.9694 73.9497C93.6659 74.0359 93.2431 74.2587 93.0309 74.4454C92.8181 74.6322 92.6445 74.7041 92.6445 74.6057C92.6445 74.5073 92.4456 74.6068 92.2024 74.8268C91.9597 75.0467 91.7608 75.1489 91.7608 75.055C91.7608 74.9605 91.6364 74.9848 91.485 75.1092C90.8964 75.5916 85.9154 78.0425 85.444 78.0812C85.1704 78.1039 84.9947 78.2006 85.0538 78.2962C85.145 78.4443 84.9571 78.4896 84.3579 78.4659C84.2949 78.4631 84.0274 78.662 83.7638 78.9074C83.5007 79.1528 83.2094 79.3539 83.1171 79.3539C83.0248 79.3539 82.035 79.8508 80.9174 80.4581C79.7993 81.0655 78.7464 81.5623 78.5773 81.5623C78.4082 81.5623 78.0566 81.7607 77.7958 82.0038C77.5349 82.2464 77.0922 82.4454 76.8114 82.4454C76.5306 82.4454 76.3007 82.5449 76.3007 82.6664C76.3007 82.788 76.1515 82.8869 75.9697 82.8869C75.7873 82.8869 75.638 82.9925 75.638 83.1213C75.638 83.2495 75.5468 83.2987 75.4352 83.2296C75.3236 83.1605 75.0997 83.2362 74.9383 83.3976C74.7764 83.5595 74.5708 83.712 74.4812 83.7369C74.3912 83.7623 74.1922 83.8237 74.0391 83.8739C73.886 83.9242 73.5621 84.0022 73.3195 84.0469C73.0763 84.0911 72.9049 84.2536 72.9381 84.4072C72.9713 84.5609 72.905 84.6288 72.7905 84.5576C72.6756 84.4868 72.4473 84.5542 72.2826 84.7068C72.1179 84.8598 71.8416 85.0168 71.6675 85.0555C71.3281 85.1306 69.7772 85.8546 69.2334 86.1917C69.051 86.3044 68.107 86.7742 67.1353 87.2351C64.8737 88.3083 64.447 88.6697 64.9041 89.1267C65.087 89.3097 65.1755 89.5213 65.1003 89.5965C65.0251 89.6716 65.0964 89.733 65.2589 89.733C65.684 89.733 68.5707 91.1229 68.5707 91.3273C68.5707 91.4224 68.7697 91.4998 69.0123 91.4998C69.2555 91.4998 69.4539 91.5932 69.4539 91.7076C69.4539 91.8225 69.6529 91.8778 69.8961 91.8308C70.1387 91.7838 70.3377 91.8396 70.3377 91.954C70.3377 92.0684 70.5366 92.1624 70.7793 92.1624C71.0225 92.1624 71.2209 92.2613 71.2209 92.3829C71.2209 92.5044 71.4199 92.6039 71.663 92.6039C71.9057 92.6039 72.1046 92.7034 72.1046 92.8244C72.1046 92.946 72.3091 93.0455 72.559 93.0455C72.8093 93.0455 72.9525 93.145 72.8773 93.2665C72.8021 93.3876 72.921 93.4903 73.1404 93.4942C73.6284 93.5025 74.3613 94.0281 74.1623 94.2265C74.0833 94.3055 74.2342 94.3707 74.4973 94.3707C74.7604 94.3707 74.9759 94.4696 74.9759 94.5912C74.9759 94.7128 75.05 94.8001 75.1412 94.7857C75.6248 94.7095 76.0454 94.8576 76.471 95.2538C76.7313 95.497 77.1077 95.6954 77.3066 95.6954C77.5056 95.6954 77.9317 95.8728 78.2545 96.0899C78.5767 96.3066 79.1388 96.6177 79.5031 96.7813C80.3354 97.1549 81.4856 97.7357 82.4804 98.285L83.2492 98.71L84.4353 98.0861C85.0881 97.7429 85.7607 97.4621 85.9304 97.4621C86.1006 97.4621 86.2393 97.3627 86.2393 97.2411C86.2393 97.1201 86.4383 97.0206 86.6809 97.0206C86.9241 97.0206 87.1236 96.946 87.1248 96.8548C87.1264 96.6531 88.1992 96.1369 88.6154 96.1369C88.7806 96.1369 88.8541 96.038 88.7795 95.9164C88.7044 95.7948 88.8475 95.6954 89.0973 95.6954C89.3477 95.6954 89.5522 95.5959 89.5522 95.4749C89.5522 95.3533 89.7512 95.2538 89.9938 95.2538C90.237 95.2538 90.436 95.1543 90.436 95.0328C90.436 94.9117 90.6145 94.8122 90.8334 94.8122C91.3269 94.8122 92.4196 94.3187 92.4218 94.0944C92.4229 94.0032 92.5528 93.9286 92.7109 93.9286C93.1171 93.9286 94.1866 93.4097 94.1888 93.2113C94.1893 93.1201 94.4447 93.0455 94.7553 93.0455C95.0759 93.0455 95.2616 92.9499 95.1842 92.8244C95.0631 92.6288 95.5274 92.4962 96.0287 92.5829C96.1287 92.6006 96.1481 92.5127 96.0707 92.3884C95.9939 92.264 96.0342 92.1624 96.1603 92.1624C96.2863 92.1624 97.1617 91.8004 98.1057 91.3588C99.0497 90.9167 99.8224 90.5934 99.8224 90.6399C99.8224 90.6868 100.136 90.5017 100.519 90.2287C100.902 89.9563 101.424 89.733 101.678 89.733C101.933 89.733 102.141 89.6335 102.141 89.5119C102.141 89.3909 102.34 89.2914 102.583 89.2914C102.826 89.2914 103.025 89.2168 103.026 89.1256C103.029 88.9322 104.094 88.4078 104.486 88.4078C104.634 88.4078 104.788 88.3287 104.828 88.2315C104.94 87.964 108.255 86.1994 108.646 86.1994C108.834 86.1994 108.988 86.1005 108.988 85.9789C108.988 85.8574 109.187 85.7579 109.429 85.7579C109.673 85.7579 109.871 85.6584 109.871 85.5374C109.871 85.4158 110.07 85.3163 110.313 85.3163C110.556 85.3163 110.755 85.2169 110.755 85.0953C110.755 84.9742 110.945 84.8748 111.178 84.8748C111.411 84.8748 111.635 84.7968 111.675 84.7012C111.764 84.4923 115.222 82.7665 115.427 82.8289C115.506 82.8532 115.692 82.7272 115.84 82.5487C115.988 82.3708 116.202 82.2249 116.315 82.2249C116.429 82.2249 117.105 81.9353 117.817 81.5816C118.53 81.2285 119.171 80.9964 119.24 81.0666C119.311 81.1367 119.368 81.0782 119.368 80.9367C119.368 80.7947 119.567 80.6786 119.81 80.6786C120.053 80.6786 120.252 80.5797 120.252 80.4581C120.252 80.3365 120.45 80.2371 120.693 80.2371C120.936 80.2371 121.136 80.1625 121.137 80.0713C121.139 79.8701 122.211 79.3539 122.628 79.3539C122.793 79.3539 122.867 79.2545 122.791 79.1329C122.716 79.0113 122.854 78.9124 123.097 78.9124C123.34 78.9124 123.6 78.8129 123.675 78.6913C123.75 78.5698 124.01 78.4703 124.253 78.4703C124.496 78.4703 124.634 78.3708 124.558 78.2498C124.481 78.1243 124.666 78.0287 124.987 78.0287C125.298 78.0287 125.552 78.1282 125.552 78.2498C125.552 78.3708 125.751 78.4703 125.994 78.4703C126.237 78.4703 126.435 78.5698 126.435 78.6913C126.435 78.8129 126.634 78.9124 126.878 78.9124C127.12 78.9124 127.319 79.0113 127.319 79.1329C127.319 79.2545 127.518 79.3539 127.761 79.3539C128.004 79.3539 128.202 79.4534 128.202 79.5744C128.202 79.696 128.352 79.7955 128.534 79.7955C128.716 79.7955 128.865 79.895 128.865 80.0166C128.865 80.1376 129.064 80.2371 129.307 80.2371C129.55 80.2371 129.748 80.3365 129.748 80.4581C129.748 80.5797 129.947 80.6786 130.19 80.6786C130.433 80.6786 130.632 80.7781 130.632 80.8997C130.632 81.0212 130.778 81.1207 130.958 81.1207C131.401 81.1207 133.282 82.0491 133.282 82.2685C133.282 82.3658 133.456 82.4459 133.669 82.447C133.881 82.4476 134.34 82.5968 134.688 82.7781C135.036 82.9593 135.458 83.108 135.626 83.108C135.795 83.108 135.932 83.2075 135.932 83.329C135.932 83.4501 136.091 83.5496 136.285 83.5496C136.479 83.5496 136.901 83.733 137.223 83.9568C137.546 84.1807 138.133 84.5028 138.528 84.6731C138.922 84.8433 139.245 85.0577 139.245 85.1494C139.245 85.2412 139.444 85.3163 139.687 85.3163C139.93 85.3163 140.129 85.4158 140.129 85.5374C140.129 85.6584 140.327 85.7579 140.571 85.7579C140.813 85.7579 141.012 85.8574 141.012 85.9789C141.012 86.1005 141.155 86.1994 141.33 86.1994C141.632 86.1994 144.092 87.4539 144.325 87.7264C144.386 87.7977 144.585 87.8877 144.767 87.927C144.949 87.9662 146.014 88.4453 147.133 88.9919C148.253 89.5385 149.231 89.9717 149.307 89.9551C149.383 89.938 149.582 90.1049 149.749 90.3254C149.917 90.5459 150.057 90.6365 150.06 90.5271C150.064 90.4171 150.266 90.5067 150.509 90.7266C150.752 90.9466 150.951 91.0577 150.951 90.9742C150.951 90.8902 151.175 90.9455 151.448 91.0969C151.721 91.2489 152.019 91.3517 152.11 91.3257C152.202 91.2997 152.276 91.3782 152.276 91.4998C152.276 91.6213 152.376 91.7203 152.499 91.7203C152.835 91.7203 154.805 92.6675 154.889 92.8692C154.93 92.9665 155.154 93.0455 155.386 93.0455C155.619 93.0455 155.81 93.145 155.81 93.2665C155.81 93.3876 156.058 93.487 156.362 93.487C156.666 93.487 156.914 93.5865 156.914 93.7081C156.914 93.8297 157.113 93.9286 157.355 93.9286C157.599 93.9286 157.798 94.0281 157.798 94.1496C157.798 94.2712 157.996 94.3707 158.239 94.3707C158.482 94.3707 158.681 94.4696 158.681 94.5912C158.681 94.7128 158.88 94.8122 159.122 94.8122C159.366 94.8122 159.564 94.9117 159.564 95.0328C159.564 95.1543 159.763 95.2538 160.006 95.2538C160.249 95.2538 160.448 95.3533 160.448 95.4749C160.448 95.5959 160.652 95.6954 160.903 95.6954C161.153 95.6954 161.296 95.7948 161.22 95.9164C161.146 96.038 161.23 96.1369 161.408 96.1369C161.785 96.1369 163.616 97.0532 163.724 97.2963C163.765 97.3875 163.988 97.4621 164.221 97.4621C164.454 97.4621 164.644 97.5616 164.644 97.6832C164.644 97.8042 164.843 97.9037 165.086 97.9037C165.329 97.9037 165.528 98.0032 165.528 98.1247C165.528 98.2463 165.718 98.3452 165.951 98.3452C166.184 98.3452 166.407 98.4397 166.448 98.5547C166.488 98.6702 166.993 98.5243 167.57 98.2314C168.147 97.938 168.619 97.7423 168.619 97.7959C168.619 97.8501 169.086 97.5981 169.657 97.2367C170.227 96.8747 170.823 96.579 170.982 96.579C171.14 96.579 171.27 96.4795 171.27 96.358C171.27 96.2364 171.463 96.1369 171.699 96.1369C171.934 96.1369 172.189 96.038 172.263 95.9164C172.339 95.7948 172.593 95.6954 172.829 95.6954C173.065 95.6954 173.258 95.5959 173.258 95.4749C173.258 95.3533 173.462 95.2538 173.712 95.2538C173.962 95.2538 174.106 95.1543 174.03 95.0328C173.955 94.9117 174.099 94.8122 174.349 94.8122C174.599 94.8122 174.804 94.7128 174.804 94.5912C174.804 94.4696 175.003 94.3707 175.245 94.3707C175.488 94.3707 175.687 94.2712 175.687 94.1496C175.687 94.0281 175.874 93.9286 176.102 93.9286C176.33 93.9286 176.639 93.781 176.789 93.5998C176.939 93.4191 177.15 93.3257 177.258 93.392C177.366 93.4589 177.454 93.408 177.454 93.2792C177.454 93.1505 177.609 93.0455 177.798 93.0455C177.988 93.0455 178.081 92.946 178.006 92.8244C177.931 92.7034 178.074 92.6039 178.324 92.6039C178.574 92.6039 178.779 92.5166 178.779 92.4105C178.779 92.3044 179.065 92.1602 179.415 92.09C179.765 92.0203 180.19 91.8341 180.359 91.676C180.528 91.5185 180.814 91.3561 180.993 91.3157C181.443 91.214 184.731 89.5749 185.103 89.2671C185.686 88.783 185.388 88.4636 183.472 87.5164C182.409 86.9908 181.49 86.5045 181.429 86.4354C181.369 86.3663 181.17 86.2779 180.988 86.2381C180.805 86.1989 180.623 86.0745 180.583 85.9624C180.542 85.8496 180.324 85.7579 180.099 85.7579C179.873 85.7579 179.632 85.6661 179.562 85.554C179.493 85.4418 179.139 85.2848 178.776 85.2052C178.413 85.1257 178.116 84.9709 178.116 84.8615C178.116 84.7515 177.868 84.6001 177.564 84.5238C177.26 84.4476 177.012 84.2901 177.012 84.174C177.012 84.0585 176.829 83.9944 176.604 84.0326C176.38 84.0707 176.032 83.9651 175.831 83.7988C175.63 83.6319 175.466 83.5645 175.466 83.649C175.466 83.733 175.309 83.6452 175.117 83.4528C174.925 83.2611 174.676 83.1605 174.565 83.2296C174.453 83.2987 174.362 83.2495 174.362 83.1213C174.362 82.9925 174.213 82.8869 174.03 82.8869C173.849 82.8869 173.699 82.788 173.699 82.6664C173.699 82.5449 173.5 82.4454 173.258 82.4454C173.014 82.4454 172.816 82.3459 172.816 82.2249C172.816 82.1033 172.561 82.0038 172.251 82.0038C171.93 82.0038 171.744 81.9082 171.822 81.7828C171.897 81.6618 171.754 81.5623 171.503 81.5623C171.254 81.5623 171.049 81.4628 171.049 81.3412C171.049 81.2196 170.85 81.1207 170.607 81.1207C170.364 81.1207 170.165 81.0212 170.165 80.8997C170.165 80.7781 169.967 80.6786 169.724 80.6786C169.481 80.6786 169.282 80.5797 169.282 80.4581C169.282 80.3365 169.185 80.2371 169.066 80.2371C168.621 80.2371 164.886 78.3017 165.038 78.1503C165.125 78.063 165.097 78.0121 164.976 78.0365C164.455 78.1415 163.966 78.0116 164.095 77.8027C164.172 77.6778 164.153 77.5905 164.053 77.6076C163.563 77.6927 163.138 77.5474 162.707 77.1456C162.446 76.9025 162.083 76.7041 161.899 76.7041C161.491 76.7041 159.957 75.8646 159.733 75.5187C159.644 75.3811 159.57 75.3457 159.568 75.4396C159.566 75.5341 159.241 75.4391 158.847 75.2285C158.451 75.0185 158.054 74.8666 157.963 74.892C157.872 74.9168 157.798 74.8444 157.798 74.7312C157.798 74.4941 156.938 74.1625 156.528 74.241C156.376 74.2703 156.251 74.1901 156.251 74.0636C156.251 73.9365 156.003 73.8331 155.699 73.8331C155.396 73.8331 155.147 73.7336 155.147 73.6121C155.147 73.4905 154.948 73.3916 154.705 73.3916C154.463 73.3916 154.264 73.2921 154.264 73.1705C154.264 73.0489 154.065 72.9495 153.822 72.9495C153.579 72.9495 153.38 72.85 153.38 72.729C153.38 72.6074 153.181 72.5079 152.938 72.5079C152.696 72.5079 152.497 72.4084 152.497 72.2874C152.497 72.1658 152.298 72.0663 152.055 72.0663C151.812 72.0663 151.613 71.9669 151.613 71.8453C151.613 71.7243 151.409 71.6248 151.159 71.6248C150.909 71.6248 150.765 71.5253 150.84 71.4037C150.915 71.2822 150.842 71.1832 150.677 71.1832C150.26 71.1832 149.188 70.6665 149.185 70.4654C149.185 70.3742 148.985 70.2996 148.742 70.2996C148.499 70.2996 148.301 70.2001 148.301 70.0791C148.301 69.9575 148.102 69.858 147.859 69.858C147.616 69.858 147.417 69.7585 147.417 69.637C147.417 69.5159 147.218 69.4165 146.975 69.4165C146.733 69.4165 146.534 69.317 146.534 69.1954C146.534 69.0738 146.335 68.9744 146.092 68.9744C145.849 68.9744 145.65 68.8754 145.65 68.7539C145.65 68.6323 145.531 68.5328 145.385 68.5328C145.016 68.5328 139.732 65.9128 139.569 65.6486C139.496 65.5309 139.351 65.4861 139.248 65.5502C139.145 65.6138 138.922 65.5281 138.754 65.3596C138.585 65.1916 138.13 64.9838 137.742 64.8987C137.354 64.8136 137.037 64.6522 137.037 64.5406C137.037 64.4284 136.838 64.3372 136.595 64.3372C136.352 64.3372 136.153 64.2377 136.153 64.1161C136.153 63.9951 135.954 63.8956 135.712 63.8956C135.469 63.8956 135.27 63.7962 135.27 63.6746C135.27 63.553 135.071 63.4535 134.828 63.4535C134.585 63.4535 134.386 63.3795 134.385 63.2883C134.383 63.0899 133.313 62.5704 132.907 62.5704C132.749 62.5704 132.619 62.4709 132.619 62.3494C132.619 62.2283 132.421 62.1289 132.178 62.1289C131.935 62.1289 131.736 62.0543 131.735 61.9631C131.735 61.8719 131.189 61.5492 130.521 61.2452C129.854 60.9418 129.308 60.6191 129.308 60.5279C129.307 60.4367 129.12 60.3621 128.892 60.3621C128.664 60.3621 127.731 59.9647 126.82 59.479C125.116 58.5705 124.669 58.4328 124.669 58.8164ZM124.227 87.3036C124.227 87.4252 124.028 87.5247 123.785 87.5247C123.543 87.5247 123.344 87.6241 123.344 87.7457C123.344 87.8667 123.145 87.9662 122.902 87.9662C122.659 87.9662 122.46 88.0657 122.46 88.1873C122.46 88.3088 122.261 88.4078 122.018 88.4078C121.776 88.4078 121.577 88.5072 121.577 88.6288C121.577 88.7504 121.378 88.8499 121.135 88.8499C120.892 88.8499 120.693 88.9488 120.693 89.0704C120.693 89.192 120.494 89.2914 120.252 89.2914C120.009 89.2914 119.81 89.3909 119.81 89.5119C119.81 89.6335 119.611 89.733 119.368 89.733C119.125 89.733 118.926 89.8325 118.926 89.954C118.926 90.0751 118.726 90.1745 118.481 90.1745C118.058 90.1745 117.174 90.5702 116.939 90.8653C116.878 90.9416 116.033 91.3682 115.061 91.8142C112.652 92.9189 106.276 96.1391 106.017 96.3823C105.902 96.4901 105.579 96.579 105.3 96.579C105.02 96.579 104.792 96.6779 104.792 96.7995C104.792 96.9211 104.593 97.0206 104.35 97.0206C104.107 97.0206 103.907 97.0952 103.906 97.1858C103.904 97.3842 102.835 97.9037 102.428 97.9037C102.27 97.9037 102.141 97.9783 102.14 98.0695C102.14 98.1607 101.594 98.4834 100.927 98.7874C100.259 99.0908 99.713 99.4135 99.7124 99.5047C99.7119 99.5959 99.5826 99.6705 99.4245 99.6705C99.0182 99.6705 97.9488 100.19 97.9466 100.388C97.9455 100.479 97.7459 100.554 97.5033 100.554C97.2601 100.554 97.0617 100.653 97.0617 100.775C97.0617 100.896 96.8627 100.996 96.6195 100.996C96.3769 100.996 96.1779 101.095 96.1779 101.216C96.1779 101.338 96.0038 101.438 95.7916 101.438C95.5788 101.439 95.1201 101.588 94.7724 101.77C94.4242 101.951 94.0445 102.1 93.9285 102.1C93.8124 102.1 93.567 102.25 93.3835 102.433C93.2006 102.616 92.9695 102.716 92.8706 102.655C92.7717 102.594 92.634 102.691 92.5655 102.87C92.4942 103.055 92.2936 103.14 92.1007 103.066C91.9139 102.995 91.7608 103.046 91.7608 103.18C91.7608 103.315 91.5563 103.425 91.3059 103.425C91.0561 103.425 90.9129 103.524 90.9881 103.646C91.0627 103.767 90.9279 103.866 90.688 103.866C90.4481 103.866 90.2143 103.978 90.169 104.115C90.1231 104.251 89.8169 104.363 89.4881 104.363H88.8895V113.042V121.721L90.1043 122.315C90.7726 122.642 91.3192 122.998 91.3192 123.104C91.3192 123.212 91.4435 123.299 91.595 123.298C91.9443 123.296 95.6004 125.115 95.6993 125.34C95.7402 125.433 95.8938 125.508 96.042 125.508C96.4338 125.508 97.4994 126.032 97.5016 126.226C97.5022 126.317 97.6426 126.391 97.8134 126.391C98.1301 126.391 99.9534 127.273 100.153 127.523C100.214 127.599 100.587 127.731 100.981 127.817C101.377 127.902 101.699 128.064 101.699 128.175C101.699 128.287 101.841 128.379 102.015 128.379C102.189 128.379 102.483 128.531 102.67 128.718C102.856 128.904 103.062 129.052 103.128 129.045C103.482 129.01 104.35 129.338 104.35 129.507C104.35 129.615 104.549 129.704 104.792 129.704C105.034 129.704 105.233 129.803 105.233 129.924C105.233 130.046 105.432 130.146 105.675 130.146C105.918 130.146 106.117 130.245 106.117 130.366C106.117 130.488 106.316 130.587 106.558 130.587C106.801 130.587 107 130.687 107 130.808C107 130.929 107.141 131.029 107.313 131.029C107.485 131.029 107.659 131.109 107.699 131.208C107.74 131.306 108.29 131.642 108.923 131.954C109.554 132.266 110.002 132.591 109.916 132.677C109.831 132.762 109.86 132.812 109.982 132.788C110.54 132.675 110.991 132.813 110.844 133.05C110.755 133.195 110.782 133.246 110.908 133.168C111.148 133.02 114.129 134.483 114.252 134.808C114.292 134.916 114.491 135.004 114.693 135.005C114.896 135.005 115.459 135.251 115.945 135.55C116.431 135.849 116.978 136.1 117.159 136.106C117.342 136.112 117.739 136.312 118.043 136.549C118.347 136.787 118.724 136.984 118.88 136.987C119.037 136.989 119.443 137.197 119.781 137.447C120.121 137.698 120.539 137.936 120.712 137.976C121.541 138.171 122.018 138.385 122.018 138.563C122.018 138.67 122.217 138.758 122.46 138.758C122.703 138.758 122.902 138.857 122.902 138.979C122.902 139.1 123.1 139.199 123.344 139.199C123.587 139.199 123.785 139.299 123.785 139.42C123.785 139.542 123.976 139.641 124.209 139.641C124.441 139.641 124.669 139.754 124.716 139.893C124.81 140.177 126.435 139.689 126.435 139.376C126.435 139.279 126.616 139.199 126.836 139.199C127.055 139.199 127.449 139.001 127.71 138.758C127.971 138.515 128.331 138.316 128.511 138.316C128.691 138.316 128.898 138.221 128.969 138.105C129.041 137.989 129.246 137.95 129.424 138.018C129.602 138.087 129.748 138.033 129.748 137.898C129.748 137.764 129.947 137.654 130.19 137.654C130.436 137.654 130.632 137.507 130.632 137.323C130.632 137.14 130.707 137.008 130.798 137.027C131.168 137.108 132.301 136.673 132.709 136.293C132.948 136.07 133.325 135.887 133.545 135.887C133.765 135.887 133.945 135.788 133.945 135.666C133.945 135.545 134.135 135.445 134.368 135.445C134.601 135.445 134.825 135.371 134.865 135.28C134.969 135.046 137.699 133.679 138.062 133.679C138.227 133.679 138.362 133.58 138.362 133.458C138.362 133.336 138.511 133.237 138.693 133.237C138.875 133.237 139.025 133.137 139.025 133.016C139.025 132.895 139.273 132.795 139.577 132.795C139.88 132.795 140.129 132.696 140.129 132.574C140.129 132.453 140.333 132.354 140.583 132.354C140.834 132.354 140.977 132.254 140.902 132.133C140.826 132.011 140.945 131.905 141.165 131.896C141.385 131.887 141.862 131.692 142.227 131.462C143.192 130.854 145.507 129.708 145.736 129.726C145.844 129.734 145.993 129.659 146.067 129.557C146.199 129.376 147.751 128.604 147.975 128.607C148.037 128.608 148.304 128.408 148.568 128.163C148.831 127.917 149.266 127.716 149.533 127.716C149.801 127.716 150.08 127.561 150.153 127.371C150.226 127.181 150.374 127.081 150.483 127.147C150.591 127.215 150.802 127.123 150.951 126.944C151.1 126.764 151.31 126.672 151.418 126.738C151.525 126.804 151.613 126.754 151.613 126.625C151.613 126.496 151.812 126.391 152.055 126.391C152.298 126.391 152.497 126.316 152.497 126.225C152.497 126.046 153.709 125.454 153.956 125.511C154.038 125.53 154.165 125.46 154.239 125.356C154.43 125.087 158.068 123.296 158.418 123.298C158.577 123.299 158.645 123.2 158.57 123.079C158.495 122.957 158.586 122.858 158.773 122.858C158.958 122.858 159.536 122.619 160.055 122.327L161 121.797L161.057 113.293L161.115 104.789L160.451 104.494C160.085 104.332 159.785 104.125 159.785 104.033C159.785 103.941 159.675 103.866 159.54 103.866C159.14 103.866 157.135 102.89 157.135 102.695C157.135 102.596 157.044 102.572 156.932 102.641C156.82 102.71 156.571 102.608 156.378 102.415C156.185 102.222 155.904 102.106 155.753 102.156C155.602 102.207 155.379 102.115 155.257 101.951C155.136 101.787 154.789 101.605 154.485 101.547C154.182 101.489 153.901 101.341 153.86 101.218C153.819 101.096 153.595 100.996 153.362 100.996C153.129 100.996 152.938 100.896 152.938 100.775C152.938 100.653 152.74 100.554 152.497 100.554C152.254 100.554 152.055 100.479 152.053 100.388C152.051 100.187 150.979 99.6705 150.562 99.6705C150.398 99.6705 150.323 99.571 150.399 99.4494C150.475 99.3251 150.296 99.2289 149.989 99.2289C149.688 99.2289 149.409 99.1543 149.368 99.0631C149.262 98.8244 147.433 97.9037 147.065 97.9037C146.894 97.9037 146.755 97.8042 146.755 97.6832C146.755 97.5616 146.606 97.4621 146.423 97.4621C146.241 97.4621 146.092 97.3461 146.092 97.2046C146.092 97.0626 146.03 97.0084 145.954 97.0841C145.826 97.2129 143.681 96.2392 143.442 95.9424C143.381 95.8672 143.182 95.7766 143 95.7412C142.458 95.6362 140.791 94.7172 140.791 94.5232C140.791 94.4249 140.686 94.4099 140.556 94.4901C140.426 94.5702 140.17 94.4514 139.988 94.227C139.804 94.0021 139.731 93.9673 139.823 94.1496C140.01 94.5149 139.316 94.0645 138.973 93.5976C138.883 93.476 138.809 93.4517 138.807 93.5434C138.805 93.6346 138.332 93.4682 137.755 93.1737C135.564 92.0546 133.378 91.0582 133.115 91.0582C132.964 91.0582 132.841 90.9587 132.841 90.8372C132.841 90.7156 132.642 90.6161 132.399 90.6161C132.156 90.6161 131.957 90.5172 131.957 90.3956C131.957 90.274 131.828 90.1745 131.67 90.1745C131.264 90.1745 130.194 89.6551 130.192 89.4567C130.191 89.366 129.991 89.2914 129.748 89.2914C129.506 89.2914 129.307 89.192 129.307 89.0704C129.307 88.9488 129.108 88.8499 128.865 88.8499C128.622 88.8499 128.423 88.7504 128.423 88.6288C128.423 88.5072 128.224 88.4078 127.982 88.4078C127.739 88.4078 127.54 88.3088 127.54 88.1873C127.54 88.0657 127.341 87.9662 127.098 87.9662C126.855 87.9662 126.656 87.8667 126.656 87.7457C126.656 87.6241 126.457 87.5247 126.215 87.5247C125.972 87.5247 125.773 87.4252 125.773 87.3036C125.773 87.1826 125.425 87.0831 125 87.0831C124.575 87.0831 124.227 87.1826 124.227 87.3036Z" fill="#ACCCFC"/>
<path fill-rule="evenodd" clip-rule="evenodd" d="M62.166 127.953C62.166 160.856 62.1246 159.516 63.1437 159.516C63.335 159.516 63.4908 159.615 63.4908 159.737C63.4908 159.858 63.6898 159.958 63.9324 159.958C64.1756 159.958 64.3746 160.057 64.3746 160.178C64.3746 160.3 64.573 160.399 64.8162 160.399C65.0588 160.399 65.2578 160.499 65.2578 160.62C65.2578 160.742 65.4032 160.841 65.5806 160.841C65.957 160.841 69.5296 162.639 69.6379 162.884C69.6788 162.975 69.838 163.049 69.9916 163.049C70.1459 163.049 70.709 163.279 71.2435 163.559C71.7774 163.839 72.5628 164.205 72.9878 164.373C73.4128 164.541 74.1336 164.91 74.589 165.192C75.0444 165.474 75.4175 165.634 75.4175 165.548C75.4175 165.461 75.5363 165.51 75.6822 165.656C75.8281 165.801 76.126 165.92 76.3449 165.92C76.5638 165.92 76.7423 166.02 76.7423 166.141C76.7423 166.262 76.9413 166.362 77.1845 166.362C77.4271 166.362 77.6261 166.461 77.6261 166.583C77.6261 166.704 77.8245 166.803 78.0677 166.803C78.3103 166.803 78.5093 166.903 78.5093 167.024C78.5093 167.146 78.7082 167.245 78.9509 167.245C79.1941 167.245 79.393 167.351 79.393 167.481C79.393 167.61 79.6434 167.685 79.9496 167.647L80.5062 167.577L80.5034 136.991C80.5006 108.072 80.4791 106.39 80.1121 106.114C79.8987 105.954 78.2335 105.083 76.4112 104.18C74.589 103.277 72.8496 102.397 72.5462 102.223C72.2422 102.05 71.6707 101.778 71.2761 101.618C70.8815 101.459 70.5587 101.254 70.5587 101.163C70.5587 101.07 70.3597 100.996 70.1166 100.996C69.8739 100.996 69.675 100.896 69.675 100.775C69.675 100.653 69.476 100.554 69.2333 100.554C68.9902 100.554 68.7917 100.455 68.7917 100.333C68.7917 100.211 68.5928 100.112 68.3496 100.112C68.1069 100.112 67.908 100.031 67.908 99.9323C67.908 99.8334 67.5603 99.6162 67.1353 99.4493C66.7097 99.283 66.3621 99.0653 66.3621 98.9669C66.3621 98.868 66.2217 98.7873 66.0498 98.7873C65.8779 98.7873 64.987 98.3894 64.0695 97.9036C63.1526 97.4179 62.3489 97.0205 62.2843 97.0205C62.2191 97.0205 62.166 110.94 62.166 127.953ZM187.392 97.225C187.392 97.3554 187.144 97.4621 186.84 97.4621C186.537 97.4621 186.288 97.5615 186.288 97.6831C186.288 97.8041 186.089 97.9036 185.846 97.9036C185.603 97.9036 185.405 97.9788 185.405 98.0705C185.405 98.1622 185.082 98.3767 184.687 98.5469C184.292 98.7171 183.705 99.0393 183.383 99.2637C183.06 99.4875 182.683 99.6704 182.545 99.6704C182.407 99.6704 182.081 99.8693 181.82 100.112C181.559 100.355 181.166 100.554 180.946 100.554C180.726 100.554 180.546 100.653 180.546 100.775C180.546 100.896 180.412 100.996 180.248 100.996C179.861 100.996 178.564 101.626 178.023 102.077C177.79 102.272 177.671 102.306 177.76 102.154C177.991 101.76 177.818 101.813 177.238 102.316C176.961 102.556 176.648 102.699 176.542 102.634C176.436 102.568 176.349 102.601 176.349 102.707C176.349 102.812 175.629 103.24 174.748 103.658C173.868 104.076 173.097 104.479 173.037 104.553C172.976 104.627 172.554 104.82 172.098 104.983C171.643 105.146 171.27 105.359 171.27 105.456C171.27 105.553 171.09 105.633 170.869 105.633C170.649 105.633 170.252 105.836 169.986 106.084L169.502 106.535L169.557 137.056L169.613 167.577L170.11 167.647C170.384 167.686 170.607 167.611 170.607 167.481C170.607 167.352 170.747 167.245 170.918 167.245C171.088 167.245 171.61 167.054 172.077 166.821C172.544 166.587 173.249 166.264 173.644 166.104C174.039 165.943 174.362 165.727 174.362 165.622C174.362 165.517 174.503 165.486 174.677 165.552C174.85 165.619 175.111 165.53 175.256 165.355C175.402 165.18 175.657 165.037 175.824 165.037C175.992 165.037 176.128 164.921 176.128 164.779C176.128 164.638 176.184 164.577 176.253 164.646C176.321 164.714 177.141 164.398 178.075 163.943C179.008 163.489 180.667 162.685 181.76 162.156C182.854 161.626 183.782 161.114 183.822 161.017C183.862 160.921 184.086 160.841 184.319 160.841C184.551 160.841 184.742 160.764 184.742 160.669C184.742 160.574 185.189 160.364 185.736 160.203C186.283 160.041 186.73 159.839 186.73 159.754C186.73 159.668 187.078 159.462 187.503 159.295L188.277 158.991L188.221 128.064C188.168 98.8105 188.145 97.1327 187.779 97.0625C187.566 97.0216 187.392 97.0946 187.392 97.225ZM159.384 131.61C158.86 131.88 158.193 132.257 157.901 132.448C157.61 132.639 157.219 132.795 157.032 132.795C156.846 132.795 156.693 132.895 156.693 133.016C156.693 133.137 156.569 133.237 156.417 133.236C156.147 133.236 154.261 134.118 154.043 134.347C153.982 134.411 153.137 134.866 152.166 135.359C150.071 136.421 149.732 136.595 148.828 137.064C148.451 137.261 148.078 137.357 148 137.28C147.923 137.202 147.859 137.243 147.859 137.37C147.859 137.599 145.529 138.848 145.349 138.716C145.297 138.678 145.046 138.837 144.79 139.068C144.535 139.299 144.322 139.399 144.318 139.289C144.314 139.179 144.161 139.288 143.977 139.531C143.794 139.773 143.615 139.923 143.58 139.862C143.494 139.714 141.166 140.791 140.96 141.074C140.871 141.197 140.797 141.216 140.795 141.117C140.793 141.017 140.503 141.142 140.15 141.393C139.797 141.644 139.375 141.852 139.211 141.855C139.048 141.857 138.665 142.054 138.362 142.291C138.058 142.529 137.685 142.725 137.533 142.728C137.382 142.731 137.258 142.832 137.258 142.954C137.258 143.075 137.101 143.174 136.911 143.174C136.72 143.174 136.414 143.325 136.23 143.508C136.047 143.691 135.805 143.784 135.694 143.715C135.582 143.646 135.491 143.695 135.491 143.824C135.491 143.952 135.361 144.058 135.203 144.058C134.797 144.058 133.728 144.577 133.725 144.775C133.725 144.867 133.525 144.941 133.282 144.941C133.039 144.941 132.839 145.016 132.839 145.107C132.837 145.305 131.767 145.824 131.361 145.824C131.203 145.824 131.074 145.912 131.074 146.019C131.074 146.229 129.743 146.846 129.472 146.76C129.381 146.732 129.307 146.807 129.307 146.928C129.307 147.05 129.102 147.149 128.852 147.149C128.602 147.149 128.459 147.249 128.534 147.371C128.609 147.492 128.465 147.591 128.216 147.591C127.965 147.591 127.761 147.691 127.761 147.812C127.761 147.934 127.629 148.033 127.467 148.033C127.305 148.033 126.703 148.271 126.13 148.561C125.143 149.06 124.368 149.102 124.1 148.669C124.034 148.562 123.787 148.475 123.551 148.475C123.315 148.475 123.122 148.391 123.122 148.289C123.122 148.187 122.728 147.973 122.246 147.814C121.764 147.655 121.423 147.441 121.486 147.337C121.551 147.234 121.398 147.149 121.148 147.149C120.898 147.149 120.693 147.05 120.693 146.928C120.693 146.807 120.619 146.732 120.528 146.76C120.257 146.846 118.926 146.229 118.926 146.019C118.926 145.912 118.852 145.847 118.761 145.874C118.513 145.947 117.159 145.3 117.159 145.108C117.159 145.016 116.961 144.941 116.718 144.941C116.475 144.941 116.276 144.854 116.276 144.748C116.276 144.642 115.99 144.497 115.64 144.428C115.29 144.358 114.855 144.151 114.673 143.969C114.49 143.786 114.295 143.683 114.238 143.74C114.183 143.796 113.769 143.592 113.319 143.287C112.869 142.983 112.443 142.733 112.372 142.733C112.3 142.733 110.665 141.937 108.737 140.965C106.81 139.992 105.23 139.272 105.227 139.364C105.223 139.456 105.121 139.361 105 139.153C104.878 138.946 104.434 138.711 104.012 138.632C103.591 138.553 103.245 138.418 103.245 138.333C103.245 138.248 102.898 138.041 102.473 137.875C102.048 137.708 101.699 137.491 101.699 137.392C101.699 137.293 101.56 137.212 101.389 137.212C101.021 137.212 99.1918 136.291 99.0862 136.053C99.0453 135.961 98.8811 135.887 98.7203 135.887C98.366 135.887 96.5388 134.959 96.4355 134.728C96.3951 134.637 96.2475 134.562 96.1083 134.562C95.6866 134.562 93.0861 133.201 93.0861 132.981C93.0861 132.868 92.9618 132.798 92.8098 132.824C92.4207 132.891 91.3191 132.327 91.3191 132.06C91.3191 131.938 91.2567 131.901 91.1804 131.977C91.1047 132.053 90.7615 131.97 90.4188 131.793C88.7812 130.946 88.8895 130.234 88.8895 141.805C88.8895 152.57 88.8983 152.67 89.8175 152.67C90.0358 152.67 90.2148 152.751 90.2148 152.85C90.2148 152.949 90.5625 153.166 90.9881 153.333C91.4131 153.5 91.7607 153.693 91.7607 153.762C91.7607 153.831 92.0841 154.021 92.4787 154.185C92.8733 154.348 93.5443 154.626 93.9693 154.801C94.3943 154.977 94.915 155.215 95.1261 155.331C95.3367 155.447 95.66 155.541 95.8435 155.541C96.0276 155.541 96.1779 155.641 96.1779 155.762C96.1779 155.883 96.3072 155.983 96.4653 155.983C96.6228 155.983 96.8765 156.107 97.0285 156.259C97.1799 156.411 97.3739 156.543 97.4591 156.553C98.0245 156.619 98.8281 156.947 98.8281 157.111C98.8281 157.219 99.0271 157.308 99.2702 157.308C99.5129 157.308 99.7119 157.407 99.7119 157.529C99.7119 157.65 99.9103 157.75 100.153 157.75C100.397 157.75 100.595 157.83 100.595 157.929C100.595 158.028 100.943 158.245 101.368 158.412C101.793 158.579 102.141 158.796 102.141 158.895C102.141 158.994 102.294 159.074 102.48 159.074C102.667 159.074 103.57 159.472 104.487 159.958C105.404 160.444 106.301 160.841 106.48 160.841C106.659 160.841 106.744 160.94 106.669 161.062C106.593 161.184 106.737 161.283 106.987 161.283C107.237 161.283 107.442 161.399 107.442 161.541C107.442 161.682 107.506 161.734 107.584 161.655C107.706 161.535 109.004 162.156 110.865 163.226C111.26 163.453 112.903 164.181 113.184 164.252C113.567 164.351 115.111 165.179 115.355 165.417C115.517 165.575 115.741 165.647 115.852 165.578C115.964 165.509 116.055 165.558 116.055 165.687C116.055 165.815 116.254 165.92 116.497 165.92C116.74 165.92 116.939 166.02 116.939 166.141C116.939 166.262 117.068 166.362 117.226 166.362C117.632 166.362 118.702 166.881 118.704 167.08C118.705 167.171 118.91 167.245 119.16 167.245C119.411 167.245 119.554 167.344 119.479 167.466C119.401 167.591 119.587 167.687 119.907 167.687C120.218 167.687 120.472 167.787 120.472 167.908C120.472 168.029 120.671 168.129 120.914 168.129C121.157 168.129 121.356 168.228 121.356 168.35C121.356 168.471 121.549 168.57 121.784 168.57C122.02 168.57 122.275 168.67 122.35 168.791C122.425 168.913 122.679 169.012 122.915 169.012C123.151 169.012 123.344 169.086 123.345 169.177C123.352 169.874 125.637 170.079 126.435 169.454C126.739 169.216 127.092 169.019 127.22 169.017C127.591 169.009 128.641 168.476 128.642 168.294C128.643 168.203 128.843 168.129 129.086 168.129C129.329 168.129 129.528 168.029 129.528 167.908C129.528 167.787 129.782 167.687 130.093 167.687C130.413 167.687 130.599 167.591 130.521 167.466C130.446 167.344 130.589 167.245 130.84 167.245C131.09 167.245 131.295 167.146 131.295 167.024C131.295 166.903 131.485 166.803 131.718 166.803C131.951 166.803 132.174 166.725 132.215 166.63C132.296 166.438 134.433 165.387 135.215 165.155C135.488 165.074 135.712 164.914 135.712 164.801C135.712 164.688 135.836 164.597 135.988 164.598C136.325 164.603 139.32 163.174 141.353 162.039C141.863 161.754 142.344 161.583 142.419 161.659C142.496 161.736 142.558 161.682 142.558 161.541C142.558 161.399 142.757 161.283 143 161.283C143.243 161.283 143.442 161.184 143.442 161.062C143.442 160.94 143.64 160.841 143.883 160.841C144.126 160.841 144.326 160.766 144.327 160.676C144.329 160.482 145.395 159.958 145.786 159.958C145.934 159.958 146.088 159.883 146.128 159.791C146.169 159.7 146.898 159.278 147.748 158.854C148.598 158.43 149.327 158.008 149.368 157.916C149.409 157.825 149.632 157.75 149.865 157.75C150.098 157.75 150.288 157.65 150.288 157.529C150.288 157.407 150.487 157.308 150.73 157.308C150.973 157.308 151.172 157.209 151.172 157.087C151.172 156.965 151.325 156.866 151.512 156.866C151.699 156.866 152.245 156.665 152.727 156.42C153.207 156.175 153.603 156.05 153.604 156.144C153.606 156.238 153.681 156.204 153.77 156.07C153.912 155.856 155.847 154.903 156.153 154.897C156.216 154.896 156.425 154.737 156.617 154.544C156.81 154.352 157.253 154.137 157.603 154.067C157.953 153.997 158.239 153.853 158.239 153.747C158.239 153.641 158.438 153.553 158.681 153.553C158.924 153.553 159.122 153.454 159.122 153.333C159.122 153.211 159.272 153.112 159.454 153.112C159.636 153.112 159.785 153.012 159.785 152.891C159.785 152.77 159.942 152.67 160.132 152.67C161.114 152.67 161.118 152.628 161.057 141.608C160.993 129.951 161.121 130.715 159.384 131.61Z" fill="#649CF4"/>
<path fill-rule="evenodd" clip-rule="evenodd" d="M122.82 29.7809C121.986 30.2037 121.165 30.5496 120.998 30.5496C120.83 30.5496 120.693 30.6491 120.693 30.7707C120.693 30.8917 120.494 30.9912 120.252 30.9912C120.009 30.9912 119.81 31.0791 119.81 31.1863C119.81 31.2935 119.586 31.4543 119.313 31.5433C119.04 31.6323 118.766 31.7223 118.705 31.7439C118.645 31.7654 118.285 31.9484 117.906 32.1512C117.526 32.354 117.153 32.4573 117.077 32.3811C117.001 32.3048 116.939 32.3584 116.939 32.5004C116.939 32.6419 116.74 32.758 116.497 32.758C116.254 32.758 116.055 32.8387 116.055 32.9376C116.055 33.0365 115.707 33.2537 115.282 33.4206C114.857 33.5875 114.509 33.8047 114.509 33.9036C114.509 34.002 114.359 34.0832 114.175 34.0832C113.814 34.0832 112.935 34.5242 112.722 34.8116C112.651 34.9088 112.38 35.0044 112.121 35.0238C111.862 35.0437 111.598 35.194 111.535 35.3581C111.472 35.5223 111.32 35.5952 111.198 35.5195C111.075 35.4438 110.975 35.4874 110.975 35.6156C110.975 35.7444 110.777 35.8494 110.534 35.8494C110.291 35.8494 110.092 35.9489 110.092 36.0705C110.092 36.192 109.918 36.2937 109.706 36.2965C109.493 36.2987 109.071 36.4954 108.767 36.7331C108.463 36.9707 108.041 37.1669 107.828 37.1697C107.615 37.1724 107.442 37.2619 107.442 37.3686C107.442 37.5305 106.26 38.1439 105.896 38.1716C105.835 38.176 105.513 38.3622 105.18 38.585C104.846 38.8077 104.419 38.9304 104.23 38.858C104.032 38.7817 103.943 38.8182 104.02 38.9436C104.145 39.1453 103.837 39.2608 103.388 39.1807C103.285 39.1619 103.019 39.3559 102.798 39.6106C102.577 39.866 102.334 40.0577 102.259 40.0373C101.993 39.9643 100.816 40.544 100.816 40.748C100.816 40.8618 100.731 40.9027 100.628 40.8386C100.524 40.7745 100.251 40.8651 100.02 41.0392C99.7898 41.2138 99.4272 41.3597 99.215 41.3636C99.0022 41.3675 98.8281 41.4697 98.8281 41.5913C98.8281 41.7129 98.6794 41.8123 98.4971 41.8123C98.3147 41.8123 98.166 41.9113 98.166 42.0328C98.166 42.1544 98.0168 42.2539 97.8344 42.2539C97.652 42.2539 97.5016 42.3782 97.5 42.5297C97.4972 42.7463 97.4591 42.7474 97.3242 42.5346C97.1977 42.3357 97.0683 42.3793 96.8373 42.7004C96.6588 42.948 96.2669 43.137 95.932 43.137C95.6075 43.137 95.2848 43.2862 95.2146 43.4686C95.1449 43.6504 94.9603 43.8029 94.8045 43.8074C94.3198 43.8201 92.8496 44.5943 93.0088 44.7529C93.0917 44.8358 92.9441 44.9038 92.681 44.9038C92.4179 44.9038 92.2024 45.0033 92.2024 45.1248C92.2024 45.2459 91.9481 45.3453 91.6375 45.3453C91.317 45.3453 91.1312 45.4409 91.2086 45.5664C91.286 45.6913 91.1003 45.7869 90.7803 45.7869C90.4691 45.7869 90.2149 45.8864 90.2149 46.0079C90.2149 46.1295 90.0159 46.229 89.7733 46.229C89.5301 46.229 89.3317 46.3279 89.3317 46.4495C89.3317 46.5711 89.1327 46.6706 88.8895 46.6706C88.6469 46.6706 88.4479 46.77 88.4479 46.8911C88.4479 47.0126 88.2561 47.1121 88.0218 47.1121C87.788 47.1121 87.447 47.2613 87.2646 47.4431C87.0827 47.6255 86.6782 47.7747 86.3653 47.7747C86.0531 47.7747 85.7977 47.8742 85.7977 47.9952C85.7977 48.1168 85.6673 48.2163 85.5081 48.2163C85.3489 48.2163 85.0052 48.4152 84.7443 48.6578C84.4834 48.901 84.0628 49.0994 83.8102 49.0994C83.5571 49.0994 83.1365 49.2983 82.8756 49.5415C82.6147 49.7841 82.2212 49.983 82.0012 49.983C81.7813 49.983 81.6016 50.0825 81.6016 50.2035C81.6016 50.3251 81.4027 50.4246 81.1595 50.4246C80.9168 50.4246 80.7179 50.5241 80.7179 50.6457C80.7179 50.7667 80.5189 50.8662 80.2763 50.8662C80.0331 50.8662 79.8347 50.9656 79.8347 51.0872C79.8347 51.2088 79.6357 51.3077 79.3931 51.3077C79.1499 51.3077 78.9509 51.4072 78.9509 51.5288C78.9509 51.6503 78.7525 51.7498 78.5093 51.7498C78.2667 51.7498 78.0677 51.8487 78.0677 51.9703C78.0677 52.0919 77.8687 52.1914 77.6261 52.1914C77.3829 52.1914 77.1845 52.2909 77.1845 52.4119C77.1845 52.5335 76.9855 52.6329 76.7423 52.6329C76.4997 52.6329 76.3002 52.7075 76.2991 52.7987C76.2969 52.9971 75.2274 53.516 74.8211 53.516C74.6631 53.516 74.5337 53.6155 74.5337 53.7371C74.5337 53.8587 74.3851 53.9582 74.2027 53.9582C74.0203 53.9582 73.8705 54.0328 73.8694 54.1234C73.8677 54.3218 72.7983 54.8413 72.3915 54.8413C72.234 54.8413 72.1046 54.9407 72.1046 55.0623C72.1046 55.1833 71.9057 55.2828 71.663 55.2828C71.4198 55.2828 71.2209 55.3823 71.2209 55.5039C71.2209 55.6255 71.0225 55.7244 70.7793 55.7244C70.5366 55.7244 70.3377 55.8239 70.3377 55.9454C70.3377 56.067 70.1448 56.1665 69.9088 56.1665C69.6733 56.1665 69.418 56.2671 69.3417 56.3909C69.2654 56.5141 69.1101 56.5577 68.9974 56.4881C68.8841 56.4185 68.7918 56.4666 68.7918 56.5948C68.7918 56.7235 68.7 56.8285 68.5878 56.8285C68.091 56.8285 66.1416 57.8509 66.1416 58.1118C66.1416 58.2704 66.0482 58.3433 65.9349 58.2731C65.7558 58.1626 63.797 58.9518 63.4908 59.2579C63.2272 59.5215 62.365 59.9205 62.0583 59.9205C61.8748 59.9205 61.7239 60.02 61.7239 60.141C61.7239 60.2626 61.5255 60.3621 61.2823 60.3621C61.0396 60.3621 60.8401 60.4367 60.839 60.5279C60.8368 60.7263 59.7673 61.2452 59.3611 61.2452C59.203 61.2452 59.0737 61.3447 59.0737 61.4663C59.0737 61.5878 58.8692 61.6873 58.6188 61.6873C58.369 61.6873 58.2259 61.7868 58.301 61.9078C58.3762 62.0294 58.2325 62.1289 57.9827 62.1289C57.7323 62.1289 57.5272 62.2035 57.5261 62.2947C57.5239 62.4925 56.4545 63.012 56.0482 63.012C55.8902 63.012 55.7608 63.1114 55.7608 63.233C55.7608 63.3546 55.5707 63.4535 55.3375 63.4535C55.1048 63.4535 54.8815 63.5524 54.8406 63.6729C54.8002 63.7934 54.5012 63.9133 54.1757 63.9404C53.8501 63.9675 53.6324 64.0675 53.6915 64.1631C53.7507 64.2587 53.6683 64.3372 53.5086 64.3372C53.3489 64.3372 51.7322 65.0827 49.9155 65.9934C48.0993 66.9042 46.4805 67.6497 46.3191 67.6497C46.1572 67.6497 45.8112 67.8486 45.5508 68.0912C45.138 68.4759 44.9373 68.551 44.3824 68.5284C44.2758 68.5239 43.9911 68.7389 43.3279 69.3236C43.1792 69.4546 42.9344 69.5209 42.7835 69.4706C42.6326 69.4203 42.5093 69.4872 42.5093 69.6187C42.5093 69.7502 42.3065 69.858 42.0583 69.858C41.8107 69.858 41.394 70.057 41.1337 70.2996C40.8728 70.5427 40.529 70.7411 40.3699 70.7411C40.2101 70.7411 40.0802 70.8406 40.0802 70.9622C40.0802 71.0838 39.8315 71.1832 39.5281 71.1832C39.2241 71.1832 38.976 71.2822 38.976 71.4037C38.976 71.5253 38.8267 71.6248 38.6443 71.6248C38.4625 71.6248 38.3133 71.7243 38.3133 71.8453C38.3133 71.9669 38.0646 72.0663 37.7611 72.0663C37.4571 72.0663 37.2079 72.1409 37.2073 72.2321C37.2051 72.4057 36.1566 72.9495 35.8239 72.9495C35.6006 72.9495 35.0004 73.5131 35.0004 73.7226C35.0004 73.9945 35.6338 74.4957 35.9781 74.4957C36.1694 74.4957 36.3252 74.5946 36.3252 74.7162C36.3252 74.8378 36.5242 74.9373 36.7674 74.9373C37.01 74.9373 37.209 75.0368 37.209 75.1578C37.209 75.2794 37.4571 75.3788 37.7611 75.3788C38.0646 75.3788 38.3133 75.4783 38.3133 75.5999C38.3133 75.7209 38.5366 75.822 38.8101 75.8237C39.212 75.8265 39.2435 75.8679 38.976 76.0414C38.7178 76.2083 38.7786 76.2559 39.2517 76.2586C39.5861 76.2608 39.8592 76.3614 39.8592 76.483C39.8592 76.6046 40.0581 76.7041 40.3008 76.7041C40.544 76.7041 40.7424 76.803 40.7424 76.9246C40.7424 77.0461 40.8916 77.1456 41.074 77.1456C41.2564 77.1456 41.4051 77.2451 41.4051 77.3661C41.4051 77.4877 41.604 77.5872 41.8467 77.5872C42.0899 77.5872 42.2888 77.6866 42.2888 77.8082C42.2888 77.9292 42.4182 78.0287 42.5757 78.0287C42.9825 78.0287 44.0519 78.5482 44.0536 78.7466C44.0547 78.8378 44.2542 78.9124 44.4974 78.9124C44.74 78.9124 44.939 79.0113 44.939 79.1329C44.939 79.2545 45.1297 79.3539 45.3624 79.3539C45.5951 79.3539 45.8189 79.4285 45.8592 79.5192C45.8996 79.6104 46.4296 79.9193 47.037 80.2061C47.6445 80.4929 48.3403 80.8339 48.5829 80.9643C50.0879 81.7728 51.3702 82.315 51.636 82.2547C51.7366 82.2321 51.7648 82.3006 51.699 82.4067C51.5769 82.604 52.0041 82.8549 53.2764 83.3335C53.6711 83.4816 53.9938 83.6905 53.9938 83.7971C53.9938 83.9038 54.1928 83.9911 54.436 83.9911C54.6786 83.9911 54.8776 84.0906 54.8776 84.2122C54.8776 84.3337 55.0268 84.4332 55.2087 84.4332C55.3911 84.4332 55.5403 84.3337 55.5403 84.2122C55.5403 84.0906 55.7387 83.9911 55.9819 83.9911C56.2245 83.9911 56.4235 83.8922 56.4235 83.7706C56.4235 83.649 56.6225 83.5495 56.8651 83.5495C57.1083 83.5495 57.3067 83.4501 57.3067 83.329C57.3067 83.2075 57.4808 83.1063 57.6936 83.1041C57.9058 83.1019 58.6144 82.8057 59.2671 82.4454C59.9204 82.0856 60.5345 81.8408 60.6323 81.901C60.7301 81.9613 60.8661 81.9204 60.9346 81.8093C61.1115 81.523 62.7784 80.6786 63.1664 80.6786C63.3449 80.6786 63.4908 80.5952 63.4908 80.4935C63.4908 80.3912 63.8888 80.1768 64.3746 80.0165C64.8604 79.8557 65.2578 79.6629 65.2578 79.5877C65.2578 79.5125 65.5314 79.3329 65.8652 79.1893C66.1991 79.0456 66.6219 78.8361 66.8037 78.7234C66.9861 78.6106 67.6322 78.2851 68.2396 78.0005C68.847 77.7159 69.3937 77.4319 69.4539 77.3694C69.5147 77.307 69.68 77.234 69.8214 77.207C69.9624 77.1804 70.4405 76.9124 70.8837 76.6118C71.3264 76.3111 71.8322 76.1199 72.0074 76.1873C72.182 76.2542 72.3252 76.1995 72.3252 76.0647C72.3252 75.9304 72.5302 75.8204 72.78 75.8204C73.0304 75.8204 73.1736 75.7209 73.0984 75.5999C72.9796 75.4076 73.4272 75.2738 73.9263 75.3529C74.0175 75.3672 74.0921 75.2794 74.0921 75.1578C74.0921 75.0368 74.2911 74.9373 74.5337 74.9373C74.7769 74.9373 74.9759 74.85 74.9759 74.7433C74.9759 74.6361 75.2987 74.425 75.6933 74.2736C77.2851 73.6623 77.6261 73.4971 77.6261 73.3374C77.6261 73.2457 77.7808 73.1705 77.9704 73.1705C78.1744 73.1705 78.2506 73.0666 78.1572 72.9157C78.0566 72.7533 78.097 72.7207 78.2678 72.8262C78.564 73.0097 79.8833 72.5449 79.7374 72.3084C79.6865 72.2266 79.9115 72.1382 80.237 72.1111C80.562 72.0846 80.8616 71.9641 80.9019 71.8436C80.9423 71.7232 81.1661 71.6248 81.3988 71.6248C81.6315 71.6248 81.8222 71.4756 81.8222 71.2932C81.8222 71.1114 81.8968 70.9804 81.988 71.0031C82.2361 71.0644 83.8854 70.3139 84.0357 70.0713C84.107 69.9553 84.4337 69.8381 84.7609 69.811C85.0881 69.784 85.3561 69.6839 85.3561 69.5889C85.3561 69.4938 85.5711 69.4165 85.8348 69.4165C86.0978 69.4165 86.2449 69.3485 86.1619 69.265C86.0066 69.1097 87.8958 68.1272 88.3926 68.104C88.5446 68.0968 88.669 67.9918 88.669 67.8702C88.669 67.7492 88.8735 67.6497 89.1239 67.6497C89.3737 67.6497 89.5168 67.5502 89.4417 67.4286C89.3643 67.3037 89.55 67.2081 89.8705 67.2081C90.1812 67.2081 90.436 67.1087 90.436 66.9871C90.436 66.8655 90.6261 66.766 90.8588 66.766C91.092 66.766 91.3153 66.692 91.3562 66.6008C91.4618 66.362 93.2912 65.4414 93.6593 65.4414C93.8295 65.4414 93.9694 65.3419 93.9694 65.2203C93.9694 65.0993 94.1683 64.9998 94.411 64.9998C94.6541 64.9998 94.8531 64.907 94.8531 64.7931C94.8531 64.6793 95.2008 64.461 95.6258 64.3068C96.0508 64.1532 96.399 63.9421 96.399 63.8382C96.399 63.7337 96.4863 63.7028 96.593 63.7685C96.8285 63.9139 98.166 63.275 98.166 63.0164C98.166 62.9153 98.3644 62.8849 98.6076 62.9484C98.9193 63.0297 99.0492 62.9551 99.0492 62.6937C99.0492 62.4903 99.126 62.3709 99.22 62.4289C99.3139 62.487 99.9821 62.2444 100.705 61.8901C101.428 61.5353 102.147 61.2452 102.301 61.2452C102.456 61.2452 102.583 61.1463 102.583 61.0247C102.583 60.9031 102.782 60.8036 103.025 60.8036C103.267 60.8036 103.466 60.7042 103.466 60.5831C103.466 60.4616 103.665 60.3621 103.908 60.3621C104.151 60.3621 104.35 60.2626 104.35 60.141C104.35 60.02 104.499 59.9205 104.681 59.9205C104.863 59.9205 105.012 59.8211 105.012 59.6995C105.012 59.5785 105.211 59.479 105.454 59.479C105.697 59.479 105.896 59.3795 105.896 59.2579C105.896 59.1363 106.094 59.0369 106.338 59.0369C106.58 59.0369 106.779 58.9379 106.779 58.8164C106.779 58.6948 106.978 58.5953 107.221 58.5953C107.464 58.5953 107.662 58.4958 107.662 58.3748C107.662 58.2532 107.861 58.1538 108.105 58.1538C108.347 58.1538 108.546 58.0543 108.546 57.9327C108.546 57.8117 108.702 57.7122 108.893 57.7122C109.084 57.7122 109.39 57.5619 109.574 57.379C109.757 57.1955 109.998 57.1021 110.11 57.1712C110.221 57.2402 110.313 57.1911 110.313 57.0629C110.313 56.9341 110.512 56.8285 110.755 56.8285C110.997 56.8285 111.196 56.7296 111.196 56.608C111.196 56.4865 111.401 56.387 111.651 56.387C111.901 56.387 112.044 56.2875 111.97 56.1665C111.892 56.041 112.077 55.9454 112.398 55.9454C112.709 55.9454 112.963 55.846 112.963 55.7244C112.963 55.6033 113.125 55.5039 113.324 55.5039C113.693 55.5039 115.23 54.6489 115.348 54.377C115.384 54.2942 115.608 54.2765 115.845 54.3384C116.082 54.4003 116.276 54.3406 116.276 54.2046C116.276 54.0687 116.475 53.9582 116.718 53.9582C116.961 53.9582 117.159 53.8587 117.159 53.7371C117.159 53.6155 117.268 53.516 117.402 53.516C117.535 53.516 117.909 53.327 118.234 53.096C118.558 52.865 119.021 52.6412 119.262 52.5992C119.502 52.5572 119.836 52.3936 120.002 52.2356C120.168 52.0781 120.591 51.8913 120.941 51.8217C121.29 51.7515 121.577 51.626 121.577 51.5426C121.577 51.4586 121.925 51.2541 122.35 51.0872C122.775 50.9203 123.122 50.7031 123.122 50.6042C123.122 50.5053 123.321 50.4246 123.565 50.4246C123.807 50.4246 124.006 50.3251 124.006 50.2035C124.006 50.0825 124.196 49.983 124.43 49.983C124.662 49.983 124.903 49.8587 124.964 49.7067C125.053 49.4862 125.079 49.4862 125.093 49.7067C125.103 49.8587 125.309 49.983 125.552 49.983C125.795 49.983 125.994 50.0825 125.994 50.2035C125.994 50.3251 126.241 50.4246 126.544 50.4246C126.855 50.4246 127.214 50.6164 127.371 50.8662C127.522 51.1093 127.752 51.3077 127.883 51.3077C128.013 51.3077 128.531 51.5067 129.034 51.7498C129.537 51.9924 130.058 52.1914 130.193 52.1914C130.327 52.1914 130.366 52.3058 130.279 52.4461C130.192 52.5876 130.218 52.6418 130.337 52.5677C130.456 52.4948 130.83 52.5788 131.17 52.7545C131.509 52.9308 131.882 53.0745 131.998 53.0745C132.114 53.0745 132.359 53.2248 132.543 53.4077C132.726 53.5912 132.968 53.6846 133.079 53.6155C133.191 53.5464 133.282 53.5956 133.282 53.7238C133.282 53.8526 133.431 53.9582 133.613 53.9582C133.796 53.9582 133.945 54.0681 133.945 54.203C133.945 54.3527 134.179 54.3992 134.552 54.3218C134.886 54.2527 135.035 54.2505 134.883 54.3163C134.505 54.4809 134.532 54.9175 134.912 54.7716C135.079 54.7075 135.342 54.7716 135.496 54.9137C135.715 55.1159 135.742 55.1005 135.617 54.8413C135.529 54.6589 135.654 54.7335 135.896 55.0071C136.137 55.2801 136.493 55.5039 136.686 55.5039C136.879 55.5039 137.037 55.6033 137.037 55.7244C137.037 55.846 137.236 55.9454 137.478 55.9454C137.721 55.9454 137.92 56.0206 137.92 56.1123C137.92 56.2046 138.336 56.4091 138.844 56.5677C139.352 56.7263 140.038 57.0485 140.369 57.2839C140.699 57.5193 141.184 57.7122 141.446 57.7122C141.707 57.7122 141.871 57.7945 141.808 57.8957C141.746 57.9968 142.038 58.214 142.458 58.3787C142.878 58.5434 143.221 58.7694 143.221 58.881C143.221 58.9927 143.356 59.033 143.52 58.9694C143.684 58.9064 144.077 59.0943 144.394 59.3878C144.71 59.6807 145.227 59.9205 145.543 59.9205C145.859 59.9205 146.063 60.0095 145.996 60.1178C145.929 60.2261 146.115 60.3753 146.409 60.4494C146.704 60.5235 147.076 60.7114 147.236 60.8672C147.396 61.0236 147.966 61.2806 148.501 61.4386C149.037 61.5967 149.617 61.8669 149.789 62.0399C149.961 62.2123 150.194 62.2974 150.306 62.2283C150.418 62.1593 150.509 62.1957 150.509 62.3096C150.509 62.424 150.807 62.6406 151.172 62.7915C151.536 62.9423 151.834 63.1413 151.834 63.2341C151.834 63.3264 152.058 63.4557 152.331 63.5204C153.188 63.7243 154.37 64.2112 154.984 64.6135C155.308 64.8257 155.676 64.9998 155.802 64.9998C155.928 64.9998 156.031 65.0993 156.031 65.2203C156.031 65.3419 156.224 65.4414 156.459 65.4414C156.695 65.4414 156.949 65.5408 157.024 65.6618C157.1 65.7834 157.354 65.8829 157.59 65.8829C157.825 65.8829 158.018 65.9824 158.018 66.104C158.018 66.225 158.223 66.3245 158.473 66.3245C158.723 66.3245 158.867 66.4239 158.791 66.5455C158.712 66.6743 158.936 66.766 159.33 66.766C159.702 66.766 160.006 66.8655 160.006 66.9871C160.006 67.1087 160.205 67.2081 160.448 67.2081C160.69 67.2081 160.889 67.3076 160.889 67.4286C160.889 67.5502 161.088 67.6497 161.331 67.6497C161.574 67.6497 161.773 67.7492 161.773 67.8702C161.773 67.9918 161.972 68.0912 162.215 68.0912C162.457 68.0912 162.657 68.1658 162.658 68.257C162.66 68.4554 163.73 68.9743 164.136 68.9743C164.294 68.9743 164.423 69.0738 164.423 69.1954C164.423 69.317 164.572 69.4165 164.754 69.4165C164.937 69.4165 165.085 69.5159 165.085 69.637C165.085 69.7585 165.202 69.858 165.344 69.858C165.743 69.858 168.619 71.2584 168.619 71.4524C168.619 71.5474 168.818 71.6248 169.061 71.6248C169.304 71.6248 169.503 71.7243 169.503 71.8453C169.503 71.9669 169.642 72.0663 169.812 72.0663C170.133 72.0663 172.486 73.2462 172.976 73.6535C173.131 73.7823 173.258 73.8055 173.258 73.7055C173.258 73.6054 173.376 73.643 173.522 73.7889C173.668 73.9348 173.966 74.0536 174.185 74.0536C174.404 74.0536 174.582 74.1531 174.582 74.2747C174.582 74.3963 174.781 74.4957 175.024 74.4957C175.267 74.4957 175.466 74.5946 175.466 74.7162C175.466 74.8378 175.665 74.9373 175.908 74.9373C176.15 74.9373 176.349 75.0368 176.349 75.1578C176.349 75.2794 176.548 75.3788 176.791 75.3788C177.034 75.3788 177.233 75.4783 177.233 75.5999C177.233 75.7209 177.432 75.8204 177.675 75.8204C177.917 75.8204 178.116 75.9199 178.116 76.0414C178.116 76.1625 178.315 76.2619 178.558 76.2619C178.801 76.2619 179 76.3614 179 76.483C179 76.6046 179.19 76.7041 179.423 76.7041C179.656 76.7041 179.88 76.7787 179.92 76.8704C179.961 76.9621 180.689 77.3838 181.54 77.8082C182.39 78.2321 183.119 78.6537 183.159 78.7455C183.2 78.8372 183.423 78.9124 183.656 78.9124C183.889 78.9124 184.079 79.0113 184.079 79.1329C184.079 79.2545 184.278 79.3539 184.521 79.3539C184.764 79.3539 184.963 79.4534 184.963 79.5744C184.963 79.696 185.042 79.7706 185.139 79.7402C185.357 79.6717 187.475 80.7272 187.576 80.9549C187.617 81.0461 187.835 81.1207 188.061 81.1207C188.286 81.1207 188.536 81.2268 188.617 81.3561C188.697 81.486 188.906 81.5368 189.083 81.4694C189.259 81.4015 189.349 81.4341 189.283 81.5413C189.137 81.7767 189.779 82.0563 190.062 81.8811C190.173 81.8126 190.264 81.9115 190.264 82.1011C190.264 82.2906 190.338 82.4244 190.429 82.3984C190.52 82.373 190.821 82.4769 191.097 82.6294C191.372 82.7825 191.711 82.8377 191.848 82.7526C192.002 82.6581 192.038 82.6968 191.941 82.8532C191.842 83.014 191.951 83.108 192.238 83.108C192.488 83.108 192.693 83.2075 192.693 83.329C192.693 83.4501 192.892 83.5495 193.135 83.5495C193.378 83.5495 193.576 83.6247 193.576 83.7164C193.576 84.0458 194.995 84.3315 195.509 84.1049C195.782 83.985 196.006 83.8109 196.006 83.7181C196.006 83.6253 196.205 83.5495 196.448 83.5495C196.69 83.5495 196.889 83.4501 196.889 83.329C196.889 83.2075 197.088 83.108 197.331 83.108C197.574 83.108 197.773 83.0024 197.773 82.8742C197.773 82.7455 197.872 82.7018 197.994 82.777C198.115 82.8516 198.215 82.8079 198.215 82.6791C198.215 82.5509 198.413 82.4454 198.656 82.4454C198.899 82.4454 199.098 82.3592 199.098 82.2531C199.098 82.1475 199.57 81.9309 200.147 81.7723C200.724 81.6131 201.345 81.3263 201.528 81.1345C201.709 80.9428 202.157 80.6493 202.521 80.4824C202.886 80.3155 203.545 79.9933 203.987 79.7662C204.429 79.5396 204.95 79.3539 205.146 79.3539C205.342 79.3539 205.503 79.2611 205.503 79.1473C205.503 79.0334 205.851 78.8151 206.276 78.6615C206.701 78.5073 207.049 78.3023 207.049 78.205C207.049 78.1083 207.198 78.0287 207.38 78.0287C207.562 78.0287 207.711 77.9292 207.711 77.8082C207.711 77.6866 207.916 77.5872 208.166 77.5872C208.416 77.5872 208.56 77.4877 208.484 77.3661C208.407 77.2412 208.593 77.1456 208.913 77.1456C209.224 77.1456 209.479 77.071 209.48 76.9798C209.482 76.7814 210.551 76.2619 210.958 76.2619C211.116 76.2619 211.245 76.1691 211.245 76.0558C211.245 75.942 211.593 75.7231 212.018 75.5695C212.443 75.4159 212.791 75.2108 212.791 75.1136C212.791 75.0163 212.99 74.9373 213.233 74.9373C213.476 74.9373 213.675 74.8378 213.675 74.7162C213.675 74.5946 213.831 74.4957 214.022 74.4957C214.366 74.4957 215 73.9945 215 73.7226C215 73.4501 214.366 72.9495 214.022 72.9495C213.831 72.9495 213.675 72.85 213.675 72.7289C213.675 72.6074 213.476 72.5079 213.233 72.5079C212.99 72.5079 212.791 72.4084 212.791 72.2874C212.791 72.1658 212.642 72.0663 212.46 72.0663C212.278 72.0663 212.128 71.9669 212.128 71.8453C212.128 71.7243 211.88 71.6248 211.576 71.6248C211.273 71.6248 211.024 71.5435 211.024 71.4452C211.024 71.3463 210.676 71.1291 210.251 70.9622C209.826 70.7953 209.478 70.5781 209.478 70.4792C209.478 70.3802 209.28 70.2996 209.037 70.2996C208.793 70.2996 208.595 70.2001 208.595 70.0791C208.595 69.9575 208.396 69.858 208.153 69.858C207.91 69.858 207.711 69.7585 207.711 69.637C207.711 69.5159 207.572 69.4165 207.401 69.4165C207.033 69.4165 205.204 68.4952 205.098 68.257C205.057 68.1658 204.853 68.0912 204.643 68.0912C204.433 68.0912 204.06 67.9039 203.814 67.6751C203.569 67.4463 203.034 67.186 202.626 67.0965C202.217 67.0064 201.757 66.8213 201.603 66.6842C200.812 65.9829 200.61 65.8829 199.984 65.8829C199.584 65.8829 199.253 65.747 199.178 65.5519C199.108 65.3695 198.863 65.2203 198.633 65.2203C198.403 65.2203 198.215 65.1208 198.215 64.9998C198.215 64.8782 198.016 64.7787 197.773 64.7787C197.53 64.7787 197.331 64.6793 197.331 64.5577C197.331 64.4367 197.132 64.3372 196.889 64.3372C196.646 64.3372 196.448 64.2377 196.448 64.1161C196.448 63.9951 196.318 63.8956 196.16 63.8956C195.754 63.8956 194.685 63.3762 194.682 63.1778C194.681 63.0866 194.534 63.012 194.355 63.012C194.021 63.012 191.648 61.8072 191.268 61.4453C191.153 61.3353 190.824 61.2452 190.538 61.2452C190.247 61.2452 190.077 61.1479 190.153 61.0247C190.228 60.9031 190.135 60.8036 189.945 60.8036C189.756 60.8036 189.601 60.7042 189.601 60.5831C189.601 60.4616 189.34 60.3621 189.02 60.3621C188.699 60.3621 188.266 60.1631 188.055 59.9205C187.844 59.6774 187.41 59.4569 187.091 59.4303C186.771 59.4044 186.509 59.3231 186.509 59.2507C186.509 59.0606 184.758 58.1538 184.39 58.1538C184.219 58.1538 184.079 58.0543 184.079 57.9327C184.079 57.8117 183.929 57.7122 183.744 57.7122C183.559 57.7122 183.014 57.4635 182.534 57.1601C182.053 56.8562 181.508 56.608 181.323 56.608C181.139 56.608 180.988 56.5086 180.988 56.387C180.988 56.2654 180.858 56.1665 180.7 56.1665C180.294 56.1665 179.225 55.647 179.222 55.4486C179.221 55.3574 179.081 55.2828 178.912 55.2828C178.742 55.2828 178.036 54.9849 177.343 54.6202C176.651 54.256 175.985 53.9582 175.865 53.9582C175.745 53.9582 175.393 53.7592 175.085 53.516C174.776 53.2734 174.384 53.0745 174.212 53.0745C174.041 53.0745 173.688 52.8761 173.427 52.6329C173.166 52.3903 172.793 52.1914 172.597 52.1914C172.402 52.1914 172.147 52.1052 172.032 52.0002C171.651 51.6537 169.385 50.4931 168.553 50.2185C168.104 50.0698 167.736 49.8465 167.736 49.7217C167.736 49.5962 167.594 49.5487 167.421 49.615C167.248 49.6813 166.987 49.5929 166.842 49.4177C166.697 49.2431 166.441 49.0994 166.273 49.0994C166.106 49.0994 165.969 49.0209 165.969 48.9248C165.969 48.8286 165.517 48.6285 164.964 48.4804C164.271 48.2953 164.007 48.1267 164.116 47.9377C164.202 47.7874 164.195 47.7344 164.1 47.8206C164.005 47.9062 163.546 47.7819 163.08 47.5443C162.613 47.3066 162.079 47.1121 161.892 47.1121C161.705 47.1121 161.552 47.0126 161.552 46.8911C161.552 46.77 161.353 46.6706 161.11 46.6706C160.867 46.6706 160.668 46.5711 160.668 46.4495C160.668 46.3279 160.47 46.229 160.227 46.229C159.984 46.229 159.785 46.1544 159.783 46.0632C159.781 45.8648 158.712 45.3453 158.306 45.3453C158.147 45.3453 158.018 45.2647 158.018 45.1657C158.018 45.0668 157.671 44.8496 157.245 44.6827C156.82 44.5164 156.472 44.2986 156.472 44.2003C156.472 44.1014 156.273 44.0207 156.031 44.0207C155.787 44.0207 155.589 43.9212 155.589 43.7996C155.589 43.678 155.334 43.5786 155.024 43.5786C154.703 43.5786 154.517 43.483 154.595 43.3581C154.67 43.2365 154.527 43.137 154.277 43.137C154.027 43.137 153.822 43.0375 153.822 42.9165C153.822 42.7949 153.623 42.6955 153.38 42.6955C153.137 42.6955 152.938 42.596 152.938 42.4744C152.938 42.3534 152.74 42.2539 152.497 42.2539C152.254 42.2539 152.055 42.1544 152.055 42.0328C152.055 41.9113 151.806 41.8123 151.503 41.8123C151.2 41.8123 150.951 41.7245 150.951 41.6173C150.951 41.42 150.235 41.1144 149.625 41.0525C149.444 41.0337 149.319 40.8988 149.35 40.7529C149.38 40.6065 149.212 40.4871 148.976 40.4871C148.741 40.4871 148.485 40.386 148.409 40.2628C148.333 40.1395 148.177 40.0953 148.065 40.1655C147.951 40.2351 147.859 40.1373 147.859 39.9483C147.859 39.7587 147.706 39.604 147.52 39.604C147.334 39.604 146.691 39.3553 146.092 39.0519C145.493 38.748 144.85 38.4998 144.664 38.4998C144.478 38.4998 144.325 38.4004 144.325 38.2788C144.325 38.1572 144.126 38.0577 143.883 38.0577C143.64 38.0577 143.442 37.9588 143.442 37.8372C143.442 37.7157 143.293 37.6162 143.11 37.6162C142.928 37.6162 142.779 37.5278 142.779 37.42C142.779 37.3117 142.332 37.0912 141.785 36.9298C141.239 36.7684 140.791 36.5772 140.791 36.5054C140.791 36.433 140.443 36.2374 140.018 36.0705C139.593 35.9036 139.245 35.6864 139.245 35.5875C139.245 35.4885 139.116 35.4079 138.958 35.4079C138.552 35.4079 137.482 34.8884 137.48 34.6905C137.479 34.5993 137.28 34.5247 137.037 34.5247C136.794 34.5247 136.595 34.4253 136.595 34.3037C136.595 34.1821 136.466 34.0832 136.308 34.0832C135.901 34.0832 134.832 33.5637 134.83 33.3653C134.829 33.2741 134.635 33.1995 134.4 33.1995C134.164 33.1995 133.909 33.1001 133.834 32.979C133.759 32.8574 133.505 32.758 133.269 32.758C133.033 32.758 132.841 32.6585 132.841 32.5369C132.841 32.4159 132.687 32.3164 132.5 32.3164C132.313 32.3164 131.946 32.1175 131.685 31.8743C131.425 31.6317 131.056 31.4576 130.866 31.488C130.677 31.5184 130.546 31.4189 130.577 31.2675C130.607 31.1155 130.433 30.9912 130.19 30.9912C129.947 30.9912 129.748 30.8862 129.748 30.7574C129.748 30.6287 129.665 30.5751 129.564 30.6375C129.462 30.7005 128.92 30.5076 128.359 30.2092C127.798 29.9108 127.198 29.6665 127.025 29.6665C126.852 29.6665 126.587 29.5173 126.435 29.3349C125.956 28.7574 124.48 28.9398 122.82 29.7809ZM35.0004 129.273C35.0004 178.237 34.9501 175.858 35.9781 175.858C36.1694 175.858 36.3252 175.957 36.3252 176.079C36.3252 176.2 36.5242 176.299 36.7674 176.299C37.01 176.299 37.209 176.399 37.209 176.52C37.209 176.642 37.4383 176.741 37.7191 176.741C38.0004 176.741 38.4432 176.94 38.704 177.183C38.9649 177.426 39.3872 177.625 39.642 177.625C39.8973 177.625 40.0449 177.724 39.9697 177.845C39.8945 177.967 40.0294 178.066 40.2693 178.066C40.5097 178.066 40.7402 178.17 40.7827 178.297C40.8247 178.424 41.0773 178.544 41.3437 178.564C41.6101 178.584 41.7809 178.648 41.7229 178.706C41.609 178.819 43.5744 179.799 43.9585 179.82C44.0873 179.827 44.4084 180.034 44.6721 180.279C44.9357 180.525 45.206 180.717 45.2728 180.706C45.4823 180.671 46.7071 181.226 49.0721 182.428C50.3267 183.065 51.4852 183.587 51.646 183.587C51.8063 183.587 52.1014 183.768 52.3009 183.988C52.5005 184.209 53.162 184.525 53.7706 184.691C54.3796 184.856 54.8776 185.073 54.8776 185.173C54.8776 185.273 55.0766 185.354 55.3192 185.354C55.5624 185.354 55.7614 185.428 55.7619 185.52C55.7619 185.61 56.3085 185.933 56.9756 186.237C57.6428 186.541 58.1894 186.864 58.1894 186.955C58.1899 187.046 58.3895 187.121 58.6321 187.121C58.8753 187.121 59.0737 187.22 59.0737 187.341C59.0737 187.463 59.2727 187.562 59.5153 187.562C59.7585 187.562 59.9575 187.662 59.9575 187.783C59.9575 187.904 60.1559 188.004 60.3991 188.004C60.6417 188.004 60.8407 188.103 60.8407 188.225C60.8407 188.346 61.0396 188.445 61.2823 188.445C61.5255 188.445 61.7239 188.545 61.7239 188.666C61.7239 188.788 61.9726 188.887 62.276 188.887C62.58 188.887 62.8282 188.986 62.8282 189.108C62.8282 189.229 62.9774 189.329 63.1598 189.329C63.3422 189.329 63.4908 189.428 63.4908 189.549C63.4908 189.671 63.6815 189.77 63.9142 189.77C64.1469 189.77 64.3707 189.846 64.4111 189.937C64.452 190.028 65.1804 190.451 66.031 190.875C66.8811 191.298 67.6101 191.721 67.6505 191.812C67.6908 191.904 67.8981 191.979 68.1108 191.979C68.3231 191.979 68.5718 192.053 68.663 192.145C68.7536 192.235 68.8946 192.314 68.9758 192.319C69.0565 192.324 69.4412 192.498 69.8297 192.705C70.2183 192.913 70.6903 193.083 70.8788 193.083C71.0672 193.083 71.2209 193.182 71.2209 193.304C71.2209 193.425 71.4198 193.524 71.663 193.524C71.9057 193.524 72.1046 193.624 72.1046 193.746C72.1046 193.867 72.2948 193.966 72.528 193.966C72.7607 193.966 72.984 194.041 73.0249 194.133C73.0652 194.225 73.7942 194.646 74.6443 195.07C75.4949 195.495 76.2233 195.916 76.2642 196.008C76.3046 196.1 76.5279 196.174 76.7611 196.174C76.9938 196.174 77.1845 196.274 77.1845 196.395C77.1845 196.517 77.4387 196.616 77.7493 196.616C78.0699 196.616 78.2556 196.712 78.1782 196.837C78.1031 196.959 78.1766 197.058 78.3418 197.058C78.7586 197.058 79.8308 197.574 79.833 197.775C79.8336 197.867 80.0331 197.941 80.2763 197.941C80.5189 197.941 80.7179 198.041 80.7179 198.162C80.7179 198.284 80.9168 198.383 81.1595 198.383C81.4027 198.383 81.6016 198.482 81.6016 198.604C81.6016 198.725 81.7503 198.825 81.9327 198.825C82.1151 198.825 82.2638 198.924 82.2638 199.045C82.2638 199.167 82.4721 199.266 82.7269 199.266C82.9812 199.266 83.4532 199.444 83.776 199.66C84.0982 199.878 84.6603 200.2 85.0245 200.378C85.3893 200.556 85.7369 200.751 85.7977 200.813C86.0481 201.067 87.5785 201.492 87.7841 201.365C87.9063 201.29 88.0063 201.382 88.0063 201.572C88.0063 201.761 88.0809 201.923 88.1721 201.933C88.8917 202.004 89.4538 202.184 89.5157 202.364C89.5561 202.482 89.7296 202.579 89.902 202.579C90.0739 202.579 90.2149 202.678 90.2149 202.799C90.2149 202.921 90.3641 203.02 90.5459 203.02C90.7283 203.02 90.8776 203.12 90.8776 203.241C90.8776 203.362 91.0295 203.462 91.2158 203.462C91.711 203.462 94.6425 204.924 94.4778 205.088C94.4005 205.166 94.6525 205.229 95.0372 205.229C95.4218 205.229 95.7369 205.303 95.7369 205.395C95.7374 205.485 96.2841 205.808 96.9512 206.112C97.6183 206.416 98.1643 206.739 98.1649 206.83C98.1654 206.921 98.3147 206.995 98.4971 206.995C98.6794 206.995 98.8281 207.095 98.8281 207.216C98.8281 207.338 99.0072 207.437 99.2261 207.437C99.4444 207.437 99.718 207.528 99.8335 207.64C100.305 208.097 102.584 209.137 102.598 208.902C102.606 208.764 102.722 208.879 102.857 209.157C102.996 209.447 103.229 209.614 103.402 209.548C103.568 209.484 103.76 209.579 103.829 209.758C103.898 209.938 104.048 210.027 104.162 209.957C104.276 209.886 104.533 209.961 104.733 210.123C105.044 210.375 105.07 210.37 104.912 210.087C104.81 209.905 104.946 209.981 105.214 210.258C105.482 210.533 105.795 210.701 105.909 210.631C106.023 210.561 106.117 210.614 106.117 210.75C106.117 210.885 106.205 210.942 106.312 210.876C106.42 210.809 106.631 210.903 106.781 211.083C106.931 211.264 107.191 211.412 107.358 211.412C107.526 211.412 107.662 211.528 107.662 211.67C107.662 211.811 107.727 211.863 107.806 211.784C107.955 211.635 109.707 212.505 109.835 212.792C109.875 212.883 110.13 212.958 110.4 212.958C110.671 212.958 111.106 213.157 111.367 213.399C111.627 213.643 111.991 213.841 112.174 213.841C112.358 213.841 112.859 214.04 113.288 214.283C113.717 214.526 114.419 214.923 114.847 215.166C115.276 215.409 115.773 215.608 115.952 215.608C116.13 215.608 116.277 215.682 116.278 215.774C116.28 215.96 117.34 216.491 117.712 216.491C117.845 216.491 118.079 216.615 118.231 216.767C118.383 216.919 118.577 217.057 118.661 217.073C119.239 217.184 119.81 217.456 119.81 217.621C119.81 217.728 119.956 217.816 120.135 217.816C120.313 217.816 120.811 218.013 121.241 218.255C121.67 218.496 122.046 218.694 122.075 218.695C122.364 218.701 123.565 219.278 123.565 219.41C123.565 219.505 123.713 219.583 123.896 219.583C124.078 219.583 124.227 219.657 124.227 219.749C124.228 220.164 126.046 220.033 126.429 219.59C126.644 219.343 126.967 219.141 127.148 219.141C127.33 219.141 127.832 218.901 128.264 218.608C128.696 218.315 129.108 218.133 129.178 218.203C129.249 218.274 129.307 218.216 129.307 218.074C129.307 217.932 129.481 217.816 129.694 217.816C129.906 217.815 130.405 217.616 130.803 217.373C131.201 217.131 131.7 216.933 131.914 216.933C132.127 216.933 132.444 216.734 132.619 216.491C132.795 216.248 133.065 216.049 133.22 216.049C133.376 216.049 133.503 215.972 133.503 215.877C133.503 215.782 133.776 215.682 134.111 215.654C134.444 215.627 134.751 215.506 134.792 215.385C134.832 215.265 135.006 215.166 135.178 215.166C135.35 215.166 135.491 215.067 135.491 214.945C135.491 214.824 135.731 214.725 136.025 214.725C136.318 214.725 136.591 214.65 136.632 214.559C136.738 214.32 138.567 213.399 138.935 213.399C139.105 213.399 139.245 213.3 139.245 213.179C139.245 213.057 139.444 212.958 139.687 212.958C139.93 212.958 140.129 212.858 140.129 212.737C140.129 212.616 140.327 212.516 140.571 212.516C140.813 212.516 141.012 212.417 141.012 212.295C141.012 212.174 141.217 212.075 141.467 212.075C141.717 212.075 141.86 211.975 141.785 211.854C141.71 211.732 141.853 211.633 142.103 211.633C142.354 211.633 142.558 211.543 142.558 211.433C142.558 211.323 142.757 211.285 143 211.348C143.243 211.412 143.442 211.365 143.442 211.244C143.442 211.014 144.755 210.385 145.043 210.476C145.134 210.505 145.208 210.43 145.208 210.308C145.208 210.186 145.365 210.087 145.555 210.087C145.747 210.087 146.052 209.938 146.234 209.756C146.415 209.574 146.831 209.36 147.157 209.281C147.482 209.201 147.798 209.077 147.859 209.004C148.077 208.743 148.964 208.32 149.292 208.32C149.475 208.32 149.625 208.221 149.625 208.1C149.625 207.978 149.814 207.879 150.044 207.879C150.274 207.879 150.519 207.729 150.59 207.545C150.66 207.362 150.795 207.224 150.889 207.238C151.225 207.289 152.055 206.941 152.055 206.749C152.055 206.641 152.254 206.554 152.497 206.554C152.74 206.554 152.939 206.479 152.941 206.388C152.942 206.19 154.012 205.67 154.418 205.67C154.576 205.67 154.705 205.571 154.705 205.45C154.705 205.328 154.896 205.229 155.129 205.229C155.361 205.229 155.585 205.154 155.626 205.063C155.729 204.829 158.459 203.462 158.822 203.462C158.988 203.462 159.122 203.362 159.122 203.241C159.122 203.12 159.321 203.02 159.564 203.02C159.807 203.02 160.006 202.925 160.006 202.809C160.006 202.694 160.354 202.534 160.779 202.454C161.204 202.374 161.552 202.223 161.552 202.118C161.552 201.934 163.611 200.956 163.869 201.018C163.94 201.035 164.151 200.895 164.338 200.708C164.526 200.52 164.771 200.423 164.883 200.492C164.994 200.561 165.085 200.512 165.085 200.383C165.085 200.255 165.284 200.149 165.528 200.149C165.77 200.149 165.97 200.075 165.971 199.984C165.973 199.786 167.043 199.266 167.449 199.266C167.607 199.266 167.736 199.183 167.736 199.081C167.736 198.836 168.747 198.383 169.293 198.383C169.53 198.383 169.724 198.284 169.724 198.162C169.724 198.041 169.865 197.941 170.037 197.941C170.209 197.941 170.383 197.867 170.423 197.775C170.464 197.685 171.391 197.178 172.484 196.651C173.578 196.124 174.671 195.583 174.914 195.45C176 194.856 177.922 193.966 178.12 193.966C178.24 193.966 178.337 193.867 178.337 193.746C178.337 193.624 178.536 193.524 178.779 193.524C179.022 193.524 179.221 193.419 179.221 193.291C179.221 193.162 179.309 193.111 179.416 193.178C179.524 193.244 179.731 193.156 179.876 192.981C180.021 192.807 180.504 192.544 180.95 192.398C181.396 192.251 182.131 191.899 182.584 191.613C183.038 191.328 183.501 191.096 183.615 191.096C183.729 191.096 183.872 190.971 183.933 190.819C184.019 190.608 184.049 190.612 184.062 190.834C184.075 191.041 184.266 190.993 184.721 190.669C185.074 190.418 185.471 190.212 185.604 190.212C185.738 190.212 185.846 190.112 185.846 189.991C185.846 189.87 186.039 189.77 186.275 189.77C186.511 189.77 186.765 189.671 186.84 189.549C186.915 189.428 187.148 189.329 187.356 189.329C187.566 189.329 187.88 189.13 188.055 188.887C188.23 188.644 188.606 188.445 188.89 188.445C189.178 188.445 189.346 188.348 189.27 188.225C189.195 188.103 189.338 188.004 189.588 188.004C189.838 188.004 190.043 187.899 190.043 187.77C190.043 187.641 190.134 187.592 190.246 187.662C190.358 187.731 190.611 187.625 190.81 187.426C191.008 187.228 191.408 187.065 191.698 187.065C191.988 187.065 192.28 186.922 192.347 186.747C192.414 186.573 192.569 186.492 192.692 186.567C192.814 186.643 192.915 186.624 192.915 186.526C192.918 186.318 193.974 185.795 194.393 185.795C194.551 185.795 194.681 185.696 194.681 185.575C194.681 185.453 194.929 185.354 195.233 185.354C195.536 185.354 195.785 185.254 195.785 185.133C195.785 185.012 195.934 184.912 196.116 184.912C196.299 184.912 196.448 184.813 196.448 184.691C196.448 184.57 196.638 184.471 196.871 184.471C197.104 184.471 197.333 184.355 197.38 184.215C197.427 184.074 197.703 183.922 197.996 183.878C198.288 183.833 198.602 183.675 198.694 183.526C198.787 183.378 198.99 183.244 199.146 183.229C200.17 183.133 200.879 182.838 200.769 182.552C200.703 182.38 200.744 182.298 200.861 182.37C200.977 182.442 201.361 182.352 201.714 182.169C202.066 181.987 202.417 181.884 202.493 181.94C202.569 181.995 202.584 181.977 202.526 181.899C202.403 181.733 204.33 180.716 204.767 180.716C204.929 180.716 205.061 180.617 205.061 180.496C205.061 180.374 205.26 180.274 205.503 180.274C205.746 180.274 205.945 180.175 205.945 180.054C205.945 179.932 206.143 179.833 206.386 179.833C206.629 179.833 206.828 179.733 206.828 179.612C206.828 179.491 207.027 179.391 207.27 179.391C207.513 179.391 207.711 179.292 207.711 179.17C207.711 179.049 207.91 178.949 208.153 178.949C208.396 178.949 208.595 178.85 208.595 178.729C208.595 178.607 208.793 178.508 209.037 178.508C209.28 178.508 209.479 178.433 209.479 178.342C209.479 178.251 210.026 177.928 210.693 177.625C211.36 177.321 211.907 176.998 211.907 176.907C211.907 176.816 212.057 176.741 212.239 176.741C212.421 176.741 212.57 176.642 212.57 176.52C212.57 176.399 212.819 176.299 213.123 176.299C213.426 176.299 213.675 176.2 213.675 176.079C213.675 175.957 213.831 175.858 214.022 175.858C215.05 175.858 215 178.237 215 129.278C215 88.5813 214.962 83.329 214.669 83.329C214.486 83.329 214.337 83.434 214.337 83.5628C214.337 83.691 214.246 83.7402 214.134 83.6711C214.022 83.602 213.779 83.6971 213.594 83.8828C213.408 84.0685 213.177 84.1983 213.079 84.1713C212.981 84.1447 212.479 84.3437 211.963 84.6134C211.447 84.8836 211.024 85.0455 211.024 84.9737C211.024 84.9018 210.867 85.0002 210.675 85.192C210.483 85.3843 210.235 85.4849 210.123 85.4158C210.012 85.3467 209.92 85.3953 209.92 85.5241C209.92 85.6529 209.721 85.7579 209.478 85.7579C209.236 85.7579 209.037 85.8452 209.037 85.9518C209.037 86.0585 208.738 86.2696 208.374 86.4205C208.01 86.5714 207.711 86.7609 207.711 86.8421C207.711 86.9228 207.489 87.0057 207.218 87.0262C206.946 87.0466 206.689 87.1671 206.647 87.2942C206.605 87.4207 206.374 87.5246 206.134 87.5246C205.894 87.5246 205.759 87.6241 205.834 87.7457C205.911 87.87 205.732 87.9662 205.424 87.9662C205.123 87.9662 204.844 88.0469 204.803 88.1458C204.763 88.2447 203.885 88.7493 202.852 89.2665C201.82 89.7838 200.881 90.2994 200.765 90.4116C200.65 90.5243 200.321 90.6161 200.035 90.6161C199.743 90.6161 199.574 90.7139 199.65 90.8371C199.725 90.9587 199.632 91.0582 199.442 91.0582C199.253 91.0582 199.098 91.1571 199.098 91.2787C199.098 91.4003 198.899 91.4997 198.656 91.4997C198.413 91.4997 198.215 91.5992 198.215 91.7202C198.215 91.8418 198.016 91.9413 197.773 91.9413C197.53 91.9413 197.331 92.0408 197.331 92.1624C197.331 92.2834 197.193 92.3829 197.023 92.3829C196.457 92.3829 196.448 92.9543 196.444 128.231C196.442 147.563 196.368 163.488 196.279 163.619C196.189 163.751 195.801 163.995 195.414 164.163C195.028 164.331 194.77 164.562 194.841 164.676C194.912 164.791 194.873 164.824 194.753 164.75C194.634 164.677 194.055 164.86 193.467 165.158C192.878 165.456 192.265 165.699 192.104 165.699C191.942 165.699 191.81 165.799 191.81 165.92C191.81 166.042 191.617 166.141 191.381 166.141C191.145 166.141 190.89 166.242 190.814 166.366C190.737 166.489 190.6 166.544 190.51 166.488C190.418 166.432 190.076 166.634 189.749 166.937C189.422 167.241 189.055 167.428 188.934 167.353C188.813 167.279 188.659 167.362 188.591 167.538C188.518 167.728 188.294 167.814 188.041 167.747C187.806 167.686 187.613 167.746 187.613 167.882C187.613 168.018 187.464 168.129 187.282 168.129C187.1 168.129 186.951 168.228 186.951 168.35C186.951 168.471 186.758 168.57 186.522 168.57C186.286 168.57 186.032 168.67 185.957 168.791C185.882 168.913 185.67 169.012 185.486 169.012C185.303 169.012 185.003 169.162 184.819 169.346C184.636 169.528 184.395 169.622 184.282 169.553C184.171 169.484 184.079 169.533 184.079 169.662C184.079 169.79 183.881 169.895 183.638 169.895C183.395 169.895 183.196 169.995 183.196 170.116C183.196 170.238 182.997 170.337 182.755 170.337C182.512 170.337 182.313 170.436 182.313 170.558C182.313 170.679 182.125 170.779 181.895 170.779C181.665 170.779 181.42 170.926 181.351 171.106C181.28 171.292 181.079 171.378 180.885 171.304C180.699 171.232 180.546 171.283 180.546 171.417C180.546 171.552 180.397 171.662 180.214 171.662C180.032 171.662 179.883 171.762 179.883 171.883C179.883 172.004 179.684 172.104 179.441 172.104C179.199 172.104 179 172.203 179 172.324C179 172.446 178.801 172.545 178.558 172.545C178.315 172.545 178.116 172.645 178.116 172.766C178.116 172.887 177.917 172.987 177.675 172.987C177.432 172.987 177.233 173.086 177.233 173.208C177.233 173.33 177.034 173.428 176.791 173.428C176.548 173.428 176.349 173.528 176.349 173.65C176.349 173.771 176.15 173.871 175.908 173.871C175.665 173.871 175.466 173.97 175.466 174.091C175.466 174.213 175.267 174.312 175.024 174.312C174.781 174.312 174.582 174.387 174.581 174.478C174.579 174.676 173.509 175.195 173.103 175.195C172.945 175.195 172.816 175.295 172.816 175.416C172.816 175.538 172.625 175.637 172.393 175.637C172.159 175.637 171.936 175.711 171.895 175.803C171.795 176.03 170.226 176.741 169.827 176.741C169.649 176.741 169.503 176.84 169.503 176.962C169.503 177.084 169.313 177.183 169.08 177.183C168.847 177.183 168.623 177.266 168.582 177.368C168.492 177.596 163.959 179.833 163.588 179.833C163.44 179.833 163.319 179.932 163.319 180.054C163.319 180.175 163.17 180.274 162.987 180.274C162.806 180.274 162.656 180.374 162.656 180.496C162.656 180.617 162.457 180.716 162.215 180.716C161.972 180.716 161.773 180.816 161.773 180.937C161.773 181.059 161.574 181.158 161.331 181.158C161.088 181.158 160.889 181.257 160.889 181.379C160.889 181.5 160.699 181.6 160.466 181.6C160.233 181.6 160.006 181.711 159.96 181.848C159.914 181.985 159.608 182.097 159.279 182.097C158.95 182.097 158.681 182.183 158.681 182.289C158.681 182.396 158.532 182.483 158.35 182.483C158.167 182.483 158.018 182.582 158.018 182.704C158.018 182.825 157.889 182.924 157.731 182.924C157.325 182.924 156.255 183.444 156.253 183.642C156.252 183.733 156.053 183.808 155.81 183.808C155.567 183.808 155.368 183.908 155.368 184.029C155.368 184.15 155.12 184.25 154.816 184.25C154.512 184.25 154.264 184.33 154.264 184.428C154.264 184.627 152.481 185.477 152.221 185.402C152.13 185.375 152.055 185.442 152.055 185.55C152.055 185.659 151.806 185.81 151.503 185.886C151.2 185.962 150.951 186.128 150.951 186.255C150.951 186.381 150.862 186.429 150.753 186.362C150.645 186.294 150.499 186.387 150.43 186.566C150.359 186.751 150.158 186.836 149.965 186.762C149.779 186.69 149.625 186.741 149.625 186.876C149.625 187.011 149.551 187.104 149.46 187.085C149.188 187.026 148.07 187.539 147.348 188.053C146.96 188.329 146.754 188.397 146.861 188.213C146.963 188.037 146.801 188.117 146.5 188.39C146.199 188.663 145.708 188.887 145.409 188.887C145.109 188.887 144.721 189.086 144.546 189.329C144.371 189.571 143.995 189.77 143.711 189.77C143.423 189.77 143.255 189.868 143.331 189.991C143.406 190.112 143.263 190.212 143.013 190.212C142.763 190.212 142.558 190.311 142.558 190.433C142.558 190.554 142.354 190.654 142.103 190.654C141.853 190.654 141.71 190.753 141.785 190.875C141.86 190.996 141.787 191.096 141.621 191.096C141.205 191.096 140.133 191.612 140.131 191.813C140.13 191.904 139.876 191.979 139.567 191.979C139.258 191.979 138.793 192.178 138.532 192.42C138.271 192.663 137.878 192.862 137.658 192.862C137.438 192.862 137.258 192.961 137.258 193.083C137.258 193.204 137.009 193.304 136.706 193.304C136.402 193.304 136.153 193.403 136.153 193.524C136.153 193.646 135.954 193.746 135.712 193.746C135.469 193.746 135.27 193.821 135.27 193.912C135.27 194.004 134.971 194.211 134.606 194.373C134.241 194.535 133.998 194.756 134.065 194.866C134.133 194.976 134.035 195.007 133.848 194.934C133.643 194.856 133.45 194.952 133.364 195.176C133.265 195.433 133.172 195.469 133.063 195.293C132.949 195.109 132.808 195.134 132.557 195.385C132.366 195.576 132.059 195.733 131.876 195.733C131.692 195.733 131.48 195.832 131.405 195.954C131.33 196.075 131.026 196.174 130.729 196.174C130.433 196.174 130.19 196.274 130.19 196.395C130.19 196.517 130.061 196.616 129.903 196.616C129.745 196.616 129.492 196.74 129.34 196.892C129.188 197.044 128.994 197.172 128.909 197.177C128.582 197.197 127.2 198.015 127.043 198.282C126.953 198.436 126.679 198.51 126.436 198.447C126.189 198.382 125.994 198.44 125.994 198.578C125.994 198.714 125.804 198.825 125.57 198.825C125.338 198.825 125.097 198.949 125.036 199.101C124.947 199.322 124.921 199.322 124.907 199.101C124.897 198.949 124.691 198.825 124.448 198.825C124.205 198.825 124.006 198.725 124.006 198.604C124.006 198.482 123.857 198.383 123.675 198.383C123.493 198.383 123.344 198.284 123.344 198.162C123.344 198.041 123.204 197.941 123.033 197.941C122.664 197.941 120.836 197.02 120.73 196.781C120.689 196.689 120.573 196.665 120.471 196.728C120.37 196.79 120.13 196.684 119.938 196.492C119.746 196.3 119.589 196.202 119.589 196.274C119.589 196.346 119.167 196.184 118.65 195.913C118.134 195.644 117.634 195.444 117.54 195.469C117.445 195.495 117.31 195.366 117.24 195.183C117.17 194.999 116.949 194.846 116.749 194.842C116.55 194.839 116.194 194.689 115.958 194.511C115.722 194.333 115.349 194.187 115.129 194.187C114.91 194.187 114.73 194.088 114.73 193.966C114.73 193.845 114.531 193.746 114.288 193.746C114.046 193.746 113.847 193.646 113.847 193.524C113.847 193.403 113.648 193.304 113.405 193.304C113.162 193.304 112.963 193.204 112.963 193.083C112.963 192.961 112.834 192.862 112.676 192.862C112.27 192.862 111.2 192.342 111.198 192.145C111.197 192.053 110.997 191.979 110.755 191.979C110.512 191.979 110.313 191.879 110.313 191.758C110.313 191.637 110.064 191.537 109.761 191.537C109.457 191.537 109.209 191.438 109.209 191.316C109.209 191.195 109.004 191.096 108.754 191.096C108.504 191.096 108.36 190.996 108.436 190.875C108.511 190.753 108.368 190.654 108.117 190.654C107.867 190.654 107.662 190.554 107.662 190.433C107.662 190.311 107.458 190.212 107.208 190.212C106.958 190.212 106.815 190.112 106.89 189.991C106.965 189.87 106.821 189.77 106.571 189.77C106.321 189.77 106.117 189.671 106.117 189.549C106.117 189.428 105.918 189.329 105.675 189.329C105.432 189.329 105.233 189.229 105.233 189.108C105.233 188.986 105.083 188.887 104.899 188.887C104.525 188.887 103.654 188.441 103.433 188.137C103.355 188.029 103.145 187.995 102.968 188.063C102.792 188.131 102.389 187.946 102.072 187.653C101.756 187.36 101.345 187.121 101.157 187.121C100.969 187.121 100.816 187.021 100.816 186.899C100.816 186.778 100.742 186.702 100.65 186.731C100.38 186.817 99.0492 186.2 99.0492 185.989C99.0492 185.883 98.8563 185.795 98.6203 185.795C98.3848 185.795 98.1295 185.694 98.0532 185.571C97.977 185.448 97.8217 185.403 97.7089 185.474C97.5956 185.543 97.5033 185.495 97.5033 185.366C97.5033 185.238 97.3043 185.133 97.0617 185.133C96.8185 185.133 96.6195 185.033 96.6195 184.912C96.6195 184.791 96.4211 184.691 96.1779 184.691C95.9353 184.691 95.7363 184.592 95.7363 184.471C95.7363 184.349 95.586 184.25 95.4019 184.25C95.2179 184.25 94.8951 184.162 94.684 184.055C94.4734 183.947 94.0025 183.723 93.6383 183.558C93.2735 183.392 92.9259 183.207 92.8651 183.146C92.8043 183.085 92.2344 182.787 91.5988 182.483C90.9627 182.179 90.4409 181.856 90.4393 181.765C90.4371 181.674 90.206 181.6 89.9253 181.6C89.6445 181.6 89.2012 181.401 88.9404 181.158C88.68 180.915 88.3628 180.716 88.2362 180.716C88.1097 180.716 88.0063 180.617 88.0063 180.496C88.0063 180.374 87.7764 180.274 87.4956 180.274C87.2148 180.274 86.7721 180.076 86.5113 179.833C86.2504 179.59 85.8397 179.391 85.5993 179.391C85.3583 179.391 85.0997 179.292 85.0245 179.17C84.9493 179.049 84.7376 178.949 84.5541 178.949C84.3707 178.949 84.0711 178.801 83.8893 178.619C83.7069 178.436 83.2918 178.222 82.9662 178.142C82.6407 178.061 82.2135 177.812 82.0173 177.589C81.8205 177.366 81.4977 177.183 81.2993 177.183C81.1009 177.183 80.939 177.087 80.939 176.969C80.939 176.851 80.7997 176.808 80.63 176.874C80.4598 176.939 80.2542 176.885 80.1729 176.753C80.0917 176.621 79.9325 176.57 79.8192 176.64C79.7064 176.71 79.6136 176.669 79.6136 176.55C79.6136 176.304 78.3783 175.637 77.9234 175.637C77.7598 175.637 77.6261 175.538 77.6261 175.416C77.6261 175.295 77.4758 175.195 77.2917 175.195C77.1077 175.195 76.7849 175.104 76.5738 174.993C76.3632 174.882 75.8674 174.671 75.4728 174.524C75.0776 174.378 74.7548 174.171 74.7548 174.065C74.7548 173.958 74.6056 173.871 74.4238 173.871C74.2414 173.871 74.0921 173.771 74.0921 173.65C74.0921 173.528 74.0142 173.453 73.9186 173.484C73.7357 173.542 70.7472 172.101 70.5587 171.863C70.4979 171.787 70.0707 171.589 69.6103 171.425C69.1494 171.259 68.5817 170.948 68.3496 170.731C68.1169 170.514 67.6941 170.337 67.4095 170.337C67.1248 170.337 66.7811 170.226 66.6456 170.091C66.3516 169.797 65.6469 169.388 64.6029 168.906C64.1823 168.712 63.7827 168.464 63.7152 168.355C63.6484 168.246 63.3438 168.124 63.0387 168.083C62.7337 168.042 62.0898 167.769 61.6073 167.475C61.1248 167.182 60.6135 166.963 60.4709 166.989C60.3283 167.015 60.1481 166.934 60.0713 166.81C59.9945 166.685 59.7811 166.583 59.5971 166.583C59.4136 166.583 59.1129 166.433 58.93 166.25C58.7465 166.066 58.505 165.973 58.3933 166.042C58.2817 166.111 58.1905 166.062 58.1905 165.934C58.1905 165.805 58.0611 165.699 57.9031 165.699C57.4968 165.699 56.4274 165.18 56.4252 164.982C56.4241 164.891 56.2942 164.816 56.1361 164.816C55.7299 164.816 54.6604 164.297 54.6582 164.098C54.6576 164.008 54.483 163.933 54.2702 163.933C53.9032 163.933 53.8866 162.104 53.9408 128.158C53.9916 96.2723 53.9618 92.3829 53.6622 92.3829C53.2427 92.3829 51.2597 91.4721 51.1596 91.2339C51.1193 91.1372 50.9452 91.0582 50.7733 91.0582C50.6014 91.0582 50.4605 90.9587 50.4605 90.8371C50.4605 90.7156 50.1841 90.6161 49.8464 90.6161C49.486 90.6161 49.1014 90.4337 48.9146 90.1745C48.7394 89.9319 48.4884 89.733 48.3574 89.733C47.9893 89.733 46.9304 89.2013 46.9282 89.0151C46.9276 88.9239 46.7281 88.8499 46.4849 88.8499C46.2417 88.8499 46.0433 88.7504 46.0433 88.6288C46.0433 88.5072 45.8941 88.4078 45.7117 88.4078C45.5298 88.4078 45.3806 88.3088 45.3806 88.1873C45.3806 88.0657 45.1816 87.9662 44.939 87.9662C44.6958 87.9662 44.4974 87.8667 44.4974 87.7457C44.4974 87.6241 44.2448 87.5246 43.9359 87.5246C43.6269 87.5246 43.1648 87.3296 42.9084 87.0908C42.6525 86.8521 42.3574 86.709 42.2534 86.7731C42.1495 86.8377 42.0053 86.7349 41.9323 86.5448C41.8594 86.3547 41.6786 86.1994 41.5311 86.1994C41.3835 86.1994 40.6473 85.9016 39.8945 85.5374C39.1423 85.1726 38.4293 84.8748 38.3094 84.8748C38.19 84.8748 38.0922 84.7753 38.0922 84.6537C38.0922 84.5321 37.9501 84.4332 37.7766 84.4332C37.6031 84.4332 37.33 84.3033 37.1692 84.1447C36.8414 83.8203 36.2362 83.5562 35.4973 83.4152L35.0004 83.3202V129.273Z" fill="#4484F4"/>
<path fill-rule="evenodd" clip-rule="evenodd" d="M167.736 49.7681C167.736 49.9599 168.593 50.3036 168.731 50.1666C168.773 50.124 168.567 49.9748 168.272 49.8361C167.977 49.6968 167.736 49.6664 167.736 49.7681ZM135.285 54.9695C135.428 55.1419 135.702 55.2829 135.893 55.2829C136.341 55.2829 135.886 54.7827 135.37 54.7065C135.096 54.6667 135.078 54.7203 135.285 54.9695ZM96.399 63.8161C96.399 63.9344 96.1254 64.146 95.7916 64.2864C95.2389 64.5185 95.2339 64.5301 95.7363 64.4146C96.3907 64.2643 96.7604 63.9625 96.5499 63.752C96.467 63.6691 96.399 63.6978 96.399 63.8161ZM199.319 65.6619C199.319 65.7835 199.468 65.8829 199.65 65.8829C199.832 65.8829 199.981 65.7835 199.981 65.6619C199.981 65.5409 199.832 65.4414 199.65 65.4414C199.468 65.4414 199.319 65.5409 199.319 65.6619ZM70.7483 76.6986L70.2271 77.1352L70.8329 76.8644C71.1661 76.7151 71.4392 76.519 71.4403 76.4278C71.443 76.1741 71.3154 76.2244 70.7483 76.6986ZM61.9648 81.1368C60.8075 81.7635 60.5991 82.1017 61.7239 81.5275C62.9431 80.9052 62.9226 80.919 62.8099 80.814C62.7596 80.7671 62.3788 80.9119 61.9648 81.1368ZM169.389 136.991C169.389 153.692 169.416 160.524 169.448 152.174C169.48 143.823 169.48 130.159 169.448 121.809C169.416 113.459 169.389 120.291 169.389 136.991ZM60.9523 167.026C61.1457 167.339 62.5927 168.111 62.6883 167.952C62.7397 167.867 62.3456 167.585 61.8128 167.325C61.28 167.064 60.8926 166.93 60.9523 167.026ZM79.6136 176.533C79.6136 176.662 79.7064 176.71 79.8192 176.64C79.9325 176.57 80.0872 176.614 80.1635 176.738C80.2398 176.861 80.415 176.962 80.552 176.962C80.6897 176.962 80.6095 176.816 80.3735 176.638C79.8606 176.25 79.6136 176.216 79.6136 176.533ZM47.5908 181.753C47.5925 181.934 48.7183 182.531 48.8361 182.414C48.872 182.378 48.6056 182.175 48.2452 181.962C47.8843 181.749 47.5897 181.655 47.5908 181.753ZM51.3624 183.668C51.8074 184.057 52.5319 184.29 52.2556 183.955C52.0887 183.752 51.7991 183.587 51.6111 183.587C51.4238 183.587 51.3116 183.623 51.3624 183.668ZM134.221 194.267C133.66 194.544 133.597 194.75 134 194.982C134.152 195.07 134.206 195.063 134.12 194.968C134.034 194.873 134.183 194.612 134.451 194.388C134.997 193.932 134.947 193.906 134.221 194.267ZM88.669 202.132C88.669 202.228 88.8674 202.358 89.1106 202.422C89.3532 202.485 89.5522 202.459 89.5522 202.363C89.5522 202.267 89.3532 202.137 89.1106 202.073C88.8674 202.01 88.669 202.036 88.669 202.132ZM142.558 211.375C142.558 211.517 142.335 211.644 142.061 211.659C141.652 211.68 141.637 211.703 141.974 211.79C142.415 211.903 142.958 211.518 142.709 211.268C142.626 211.186 142.558 211.234 142.558 211.375Z" fill="#4484FC"/>
<path fill-rule="evenodd" clip-rule="evenodd" d="M80.6046 136.881C80.6046 153.521 80.6305 160.295 80.6626 151.935C80.6946 143.576 80.6946 129.961 80.6626 121.681C80.6305 113.401 80.6046 120.241 80.6046 136.881Z" fill="#4884F4"/>
<path fill-rule="evenodd" clip-rule="evenodd" d="M80.6046 136.881C80.6046 153.521 80.6305 160.295 80.6626 151.935C80.6946 143.576 80.6946 129.961 80.6626 121.681C80.6305 113.401 80.6046 120.241 80.6046 136.881Z" fill="#4884F4"/>
</g>
<defs>
<clipPath id="clip0_2108_3946">
<rect width="180" height="191" fill="white" transform="translate(35 29)"/>
</clipPath>
</defs>
</svg>
