<svg height="40" width="40" xmlns="http://www.w3.org/2000/svg" xmlns:xlink="http://www.w3.org/1999/xlink"><linearGradient id="a" x1="0%" x2="100%" y1="100%" y2="0%"><stop offset="0" stop-color="#4d27a8"/><stop offset="1" stop-color="#a166ff"/></linearGradient><g fill="none" fill-rule="evenodd"><path d="m0 0h40v40h-40z" fill="url(#a)"/><path d="m18.726 14.285c1.8 0 2.982.285 3.42.5-.438.214-1.62.498-3.42.498s-2.982-.284-3.42-.499c.438-.214 1.62-.499 3.42-.499zm.014 3.198c-.088-.027-.164-.079-.164-.181 0-.14.114-.253.256-.253.042 0 .072.026.107.043zm2.939 4.156a1.203 1.203 0 0 1 -.303.156 4.024 4.024 0 0 1 -.566.166 9.261 9.261 0 0 1 -1.978.202c-1.542 0-2.616-.322-2.846-.522l-.688-5.794c1.187.401 2.937.433 3.428.433.496 0 2.275-.033 3.464-.445l-.202 2.298a34.447 34.447 0 0 1 -2.44-1.048.754.754 0 0 0 -1.475.216.753.753 0 0 0 1.041.69c1.178.56 2.09.944 2.781 1.186zm-7.525-6.797.822 6.891c0 1.411 3.698 1.427 3.856 1.427.78 0 1.564-.08 2.206-.226.269-.061.507-.133.71-.212.624-.241.94-.574.938-.946l.204-2.305c.299.068.534.098.715.098.478 0 .604-.189.69-.319l.077-.476c-.122-.492-1-1.187-1.297-1.404l.224-2.543-.005-.001c.001-.014.007-.027.007-.042 0-1.424-3.811-1.496-4.575-1.496s-4.575.072-4.575 1.496c0 .02.008.037.01.057h-.007zm4.591-5.448c4.765 0 8.643 3.803 8.643 8.478s-3.878 8.478-8.643 8.478-8.642-3.803-8.642-8.478 3.877-8.478 8.642-8.478zm-12.728 11.873v.998h4.177a9.69 9.69 0 0 0 8.551 5.082c5.326 0 9.66-4.25 9.66-9.475 0-5.224-4.334-9.475-9.66-9.475-4.41 0-8.132 2.917-9.283 6.886h-3.445v.997h3.217a9.236 9.236 0 0 0 -.148 1.592c0 .136.015.268.02.403h-4.106v.997h4.203c.105.693.285 1.36.535 1.995zm27.486 11.265c-.614.603-1.68.608-2.295.005l-5.253-5.152a12.068 12.068 0 0 0 2.34-2.246l5.214 5.142a1.566 1.566 0 0 1 -.006 2.25zm.726-2.955-5.334-5.26a11.64 11.64 0 0 0 1.953-6.445c0-6.546-5.43-11.872-12.103-11.872-4.795 0-9.145 2.782-11.08 7.087l.93.402c1.773-3.943 5.757-6.492 10.15-6.492 6.112 0 11.086 4.879 11.086 10.875s-4.974 10.876-11.086 10.876c-3.732 0-7.192-1.827-9.254-4.885l-.848.551c2.251 3.338 6.027 5.331 10.102 5.331 2.333 0 4.506-.662 6.356-1.788l5.388 5.286c.498.488 1.159.757 1.86.757a2.66 2.66 0 0 0 1.872-.761 2.55 2.55 0 0 0 .008-3.662z" fill="#fff"/></g></svg>