<svg fill="none" height="27" viewBox="0 0 27 27" width="27" xmlns="http://www.w3.org/2000/svg"><path d="m13.4997 23.8018-8.31043-1.8467c-1.18197-.2627-2.02293-1.311-2.02293-2.5219v-13.6832c0-1.42674 1.1566-2.58334 2.58333-2.58334h3.87501c.71332 0 1.29162-.5783 1.29162-1.29167 0-.71336-.5783-1.291662-1.29162-1.291662h-3.87501c-2.85347 0-5.166662 2.313192-5.166662 5.166672v13.6832c0 2.4217 1.681912 4.5184 4.045862 5.0437l8.87083 1.9713 8.8708-1.9713c2.3639-.5253 4.0458-2.622 4.0458-5.0437v-13.6832c0-2.85348-2.3132-5.166672-5.1666-5.166672h-3.875c-2.8535 0-5.1667 2.313192-5.1667 5.166672v14.2083c0 .7134.5783 1.2917 1.2917 1.2917.7133 0 1.2916-.5783 1.2916-1.2917v-14.2083c0-1.42674 1.1566-2.58334 2.5834-2.58334h3.875c1.4267 0 2.5833 1.1566 2.5833 2.58334v13.6832c0 1.2109-.8409 2.2592-2.0229 2.5219z" fill="#fff"/></svg>