<svg fill="none" height="27" viewBox="0 0 27 27" width="27" xmlns="http://www.w3.org/2000/svg"><path d="m24.2995 8.1c0-1.49117-1.2088-2.7-2.7-2.7h-16.19999c-1.49117 0-2.7 1.20883-2.7 2.7zm0 2.7h-21.59999v10.8c0 1.4912 1.20883 2.7 2.7 2.7h16.19999c1.4912 0 2.7-1.2088 2.7-2.7zm-5.4-8.1v-1.35c0-.745584.6044-1.35 1.35-1.35s1.35.604416 1.35 1.35v1.35c2.9823 0 5.4 2.41766 5.4 5.4v13.5c0 2.9823-2.4177 5.4-5.4 5.4h-16.19999c-2.98234 0-5.39999828-2.4177-5.39999828-5.4v-13.5c0-2.98234 2.41765828-5.4 5.39999828-5.4v-1.35c0-.745584.60442-1.35 1.35-1.35.74559 0 1.35.604416 1.35 1.35v1.35zm-10.79999 13.5c-.74558 0-1.35-.6044-1.35-1.35s.60442-1.35 1.35-1.35c.74559 0 1.35.6044 1.35 1.35s-.60441 1.35-1.35 1.35zm5.39999 0c-.7456 0-1.35-.6044-1.35-1.35s.6044-1.35 1.35-1.35 1.35.6044 1.35 1.35-.6044 1.35-1.35 1.35zm5.4 0c-.7456 0-1.35-.6044-1.35-1.35s.6044-1.35 1.35-1.35 1.35.6044 1.35 1.35-.6044 1.35-1.35 1.35zm0 5.4c-.7456 0-1.35-.6044-1.35-1.35s.6044-1.35 1.35-1.35 1.35.6044 1.35 1.35-.6044 1.35-1.35 1.35zm-5.4 0c-.7456 0-1.35-.6044-1.35-1.35s.6044-1.35 1.35-1.35 1.35.6044 1.35 1.35-.6044 1.35-1.35 1.35zm-5.39999 0c-.74558 0-1.35-.6044-1.35-1.35s.60442-1.35 1.35-1.35c.74559 0 1.35.6044 1.35 1.35s-.60441 1.35-1.35 1.35z" fill="#fff"/></svg>