<svg fill="none" height="26" viewBox="0 0 33 26" width="33" xmlns="http://www.w3.org/2000/svg"><path d="m27.6903 17.3333v-12.99997c0-.79774-.6475-1.44444-1.4463-1.44444h-20.24729c-.79873 0-1.44624.6467-1.44624 1.44444v12.99997zm.554 2.8889h-24.24787c-.01845.039-.03735.0779-.05669.1165l-.98819 1.9739c-.13644.2726-.02583.604.24705.7403.0767.0383.16128.0582.24704.0582h25.34946c.3051 0 .5524-.247.5524-.5517 0-.0857-.0199-.1701-.0583-.2468l-.9882-1.9739c-.0193-.0386-.0382-.0775-.0567-.1165zm-2.0003-20.2222c2.3962 0 4.3388 1.9401 4.3388 4.33333v13.42147c0 .4485.1045.8908.3053 1.292l.9882 1.9739c.2392.4777.3637 1.0045.3637 1.5387 0 1.9002-1.5423 3.4406-3.4449 3.4406h-25.34946c-.5348 0-1.06226-.1244-1.5406-.3632-1.701699-.8498-2.391449-2.9165-1.540599-4.6161l.988189-1.9739c.20082-.4012.30537-.8435.30537-1.292v-13.42147c0-2.39323 1.9425-4.33333 4.33871-4.33333z" fill="#fff"/></svg>