<svg fill="none" height="90" viewBox="0 0 404 90" width="404" xmlns="http://www.w3.org/2000/svg" xmlns:xlink="http://www.w3.org/1999/xlink"><clipPath id="a"><path d="m0 0h404v90h-404z"/></clipPath><g clip-path="url(#a)"><g fill="#fff"><path d="m256 48.2601c0-17.36 10.23-27.94 23.89-27.94 2.801.0162 5.568.619 8.122 1.7695 2.555 1.1505 4.84 2.8232 6.708 4.9105l-3.72 4.41c-1.366-1.5805-3.054-2.8506-4.952-3.7251-1.897-.8744-3.959-1.333-6.048-1.3449-10.17 0-16.93 8.33-16.93 21.73s6.45 22 16.66 22c5.14 0 9-2.23 12.47-6l3.8 4.26c-4.26 4.94-9.52 7.77-16.52 7.77-13.4 0-23.48-10.37-23.48-27.84z"/><path d="m299.6 55.24c0-13.3 8.7-21 18.47-21s18.47 7.67 18.47 21-8.7 20.86-18.47 20.86-18.47-7.66-18.47-20.86zm30 0c0-9.13-4.64-15.35-11.5-15.35s-11.5 6.22-11.5 15.35 4.65 15.25 11.5 15.25 11.47-6.12 11.47-15.25z"/><path d="m344.22 35.2599h6l.1 7.26c2.78-5.06 7.07-8.25 11.56-8.25 1.461-.064 2.917.2169 4.25.82l-1.22 5.91c-1.238-.4422-2.545-.6622-3.86-.65-3.37 0-7.39 2.42-10.09 9.16v25.6h-6.74z"/><path d="m366.1 55.24c0-13 8.75-21 17.92-21 10.17 0 15.91 7.3 15.91 18.71.011 1.2838-.096 2.5659-.32 3.83h-26.84c.48 8.44 5.64 13.92 13.24 13.92 3.555-.0263 7.016-1.1394 9.92-3.19l2.42 4.49c-3.875 2.6625-8.459 4.1012-13.16 4.13-10.63-.03-19.09-7.8-19.09-20.89zm27.9-3.24c0-8-3.6-12.33-9.83-12.33-5.6 0-10.61 4.5-11.43 12.33z"/><path d="m154.15 13.9199v61.45h-12.45v-6.27c-1.29 2.1982-3.186 3.979-5.46 5.13-2.487 1.2317-5.225 1.8717-8 1.87-3.448.085-6.837-.9116-9.69-2.85-2.906-1.9326-5.216-4.6372-6.67-7.81-1.629-3.6322-2.435-7.5798-2.36-11.56-.084-3.9552.722-7.8787 2.36-11.48 1.455-3.1054 3.734-5.7517 6.59-7.65 2.919-1.8426 6.32-2.7755 9.77-2.68 2.692-.0308 5.353.583 7.76 1.79 2.25 1.1224 4.138 2.8551 5.45 5v-20.79zm-15 49.32c1.63-2.12 2.53-5.21 2.53-9.2s-.82-7-2.53-9.11c-.901-1.0173-2.005-1.8333-3.243-2.395-1.237-.5617-2.578-.8564-3.937-.8649s-2.704.2694-3.948.8156-2.359 1.3484-3.272 2.3543c-1.71 2.12-2.61 5.13-2.61 9s.9 7.08 2.61 9.28c.861 1.0888 1.966 1.9608 3.225 2.546s2.637.8674 4.025.824c1.367.0666 2.731-.1935 3.978-.7587 1.247-.5651 2.341-1.4191 3.192-2.4913z"/><path d="m225 42.48v16.44c-.12.9014-.034 1.8183.252 2.6815s.764 1.6502 1.399 2.3013c.635.6512 1.409 1.1495 2.265 1.4574.855.3079 1.77.4172 2.674.3198 1.401-.022 2.795-.2134 4.15-.57v9.77c-2.313.8056-4.752 1.1851-7.2 1.12-5.207 0-9.207-1.4667-12-4.4s-4.177-7.0833-4.15-12.45v-36.04l12.61-4.11v14h10.74v9.44z"/></g><path d="m86.19 3.74c2.1287 2.02368 3.4774 4.73181 3.81 7.65-.0298 1.2675-.3734 2.5078-1 3.61-.74 1.54-9.77 17.17-12.46 21.48-1.5397 2.5573-2.3554 5.485-2.36 8.47-.0063 2.9834.8103 5.9107 2.36 8.46 2.65 4.29 11.68 20 12.46 21.59.6147 1.0527.9584 2.2416 1 3.46-.3807 2.8642-1.6934 5.5236-3.7357 7.5677-2.0422 2.044-4.7004 3.3591-7.5643 3.7423-1.2394-.0403-2.4465-.4058-3.5-1.06-1.46-.71-17.41-9.52-21.73-12.21-.32-.16-.65-.4-1.06-.57l-21.32-12.61c.4555 4.0943 2.2933 7.9109 5.21 10.82.559.5587 1.1572 1.0767 1.79 1.55-.5326.2383-1.0502.5088-1.55.81-4.31 2.69-20.02 11.72-21.54 12.5-1.0982.6362-2.341.9805-3.61 1-2.88954-.2908-5.57558-1.6196-7.56-3.74-2.13116-2.0202-3.486463-4.7237-3.83-7.64.0647854-1.2353.428539-2.4363 1.06-3.5.73-1.55 9.76-17.25 12.45-21.57 1.5541-2.5474 2.371-5.476 2.36-8.46.0097-2.987-.8071-5.9184-2.36-8.47-2.69-4.47-11.8-20.18-12.45-21.73-.634061-1.0625-.998014-2.2642-1.06-3.5.314569-2.90865 1.63782-5.6153 3.74-7.65 2.0347-2.10218 4.74135-3.425431 7.65-3.74 1.2688.0712787 2.5041.433998 3.61 1.06 1.3.57 12.77 7.24 18.88 10.82l1.38.82c.3933.2649.8006.5086 1.22.73l.65.41 21.71 12.86c-.2491-2.425-.9905-4.7738-2.1786-6.9024-1.1881-2.1287-2.7981-3.9926-4.7314-5.4776.5303-.2365 1.0447-.5071 1.54-.81 4.32-2.69 20-11.8 21.57-12.45 1.0878-.642821 2.3176-1.0069419 3.58-1.06 2.8803.332523 5.5558 1.65441 7.57 3.74zm-40 47.05 4.64-4.64c.1537-.1475.2759-.3245.3594-.5204.0836-.1959.1266-.4066.1266-.6196s-.043-.4237-.1266-.6196c-.0835-.1959-.2057-.3729-.3594-.5204l-4.64-4.64c-.1475-.1537-.3245-.2759-.5204-.3594-.1959-.0836-.4066-.1266-.6196-.1266s-.4237.043-.6196.1266c-.1959.0835-.3729.2057-.5204.3594l-4.64 4.64c-.1537.1475-.2759.3245-.3594.5204-.0836.1959-.1266.4066-.1266.6196s.043.4237.1266.6196c.0835.1959.2057.3729.3594.5204l4.64 4.64c.3127.2656.7097.4115 1.12.4115s.8073-.1459 1.12-.4115z" fill="#ff694a"/><path d="m205.26 42.32c-1.403-3.1385-3.694-5.7979-6.59-7.65-2.936-1.8031-6.325-2.7295-9.77-2.67-2.75-.0843-5.474.5536-7.9 1.85-2.266 1.1361-4.134 2.9315-5.36 5.15v-19.95h-12.64v56.23h12.54v-6.35c1.231 2.2126 3.103 4.001 5.37 5.13 2.458 1.3091 5.216 1.9536 8 1.87 3.436.0774 6.814-.8884 9.69-2.7699 2.908-1.9302 5.219-4.6355 6.67-7.8101 1.638-3.6294 2.444-7.5789 2.36-11.5599.08-3.9527-.73-7.8727-2.37-11.4701zm-12.78 20.8301c-.899 1.0243-2.006 1.8451-3.248 2.4073-1.242.5623-2.589.8531-3.952.8531s-2.71-.2908-3.952-.8531c-1.242-.5622-2.349-1.383-3.248-2.4073-1.71-2.1501-2.52-5.1501-2.52-9.1501s.81-6.9199 2.52-9.1199c.902-1.0153 2.008-1.8294 3.245-2.3893 1.238-.5599 2.579-.8532 3.937-.8607 1.358-.0076 2.703.2708 3.946.8169 1.244.5462 2.359 1.3479 3.272 2.353 1.71 2.12 2.53 5.13 2.53 9-.01 4.0601-.82 7.2-2.53 9.3501z" fill="#fff"/><path d="m175.64 13.9099v5.14h-12.62v-.98z" fill="#fff"/><path d="m401.31 75.89c1.09 0 1.98-.84 1.98-2.02s-.89-2.02-1.98-2.02c-1.1 0-1.99.84-1.99 2.02s.89 2.02 1.99 2.02zm0-.49c-.84 0-1.44-.6-1.44-1.53s.6-1.53 1.44-1.53 1.43.6 1.43 1.53-.59 1.53-1.43 1.53zm-.81-.56h.57v-.6h.29l.3.6h.6l-.41-.77c.23-.11.35-.31.35-.54 0-.45-.35-.66-.81-.66h-.89zm.57-1v-.54h.21c.2 0 .3.12.3.26 0 .15-.1.28-.3.28z" fill="#fff"/></g></svg>