<svg fill="none" height="27" viewBox="0 0 28 27" width="28" xmlns="http://www.w3.org/2000/svg"><path d="m14.426 25.65c0 .7456-.6044 1.35-1.35 1.35s-1.35-.6044-1.35-1.35v-1.35c0-2.9823 2.4177-5.4 5.4-5.4h5.4c1.4912 0 2.7-1.2088 2.7-2.7v-10.8c0-1.49117-1.2088-2.7-2.7-2.7h-16.19997c-1.49117 0-2.7 1.20883-2.7 2.7v10.8c0 1.4912 1.20883 2.7 2.7 2.7h1.35c.74558 0 1.35.6044 1.35 1.35s-.60442 1.35-1.35 1.35h-1.35c-2.98234 0-5.400005-2.4177-5.400005-5.4v-10.8c0-2.98234 2.417665-5.4 5.400005-5.4h16.19997c2.9824 0 5.4 2.41766 5.4 5.4v10.8c0 2.9823-2.4176 5.4-5.4 5.4h-5.4c-1.4911 0-2.7 1.2088-2.7 2.7zm0-13.5c-.7456 0-1.35-.6044-1.35-1.35s.6044-1.35 1.35-1.35 1.35.6044 1.35 1.35-.6044 1.35-1.35 1.35zm-5.39997 0c-.74559 0-1.35-.6044-1.35-1.35s.60441-1.35 1.35-1.35c.74558 0 1.34997.6044 1.34997 1.35s-.60439 1.35-1.34997 1.35zm10.79997 0c-.7456 0-1.35-.6044-1.35-1.35s.6044-1.35 1.35-1.35 1.35.6044 1.35 1.35-.6044 1.35-1.35 1.35z" fill="#fff"/></svg>