<svg fill="none" height="20" viewBox="0 0 20 20" width="20" xmlns="http://www.w3.org/2000/svg" xmlns:xlink="http://www.w3.org/1999/xlink"><linearGradient id="a" gradientUnits="userSpaceOnUse" x1="4.47496" x2="4.47496" y1="19.9989" y2="12.7276"><stop offset=".056" stop-color="#2aac94"/><stop offset=".155" stop-color="#239c87"/><stop offset=".372" stop-color="#177e71"/><stop offset=".588" stop-color="#0e6961"/><stop offset=".799" stop-color="#095d57"/><stop offset="1" stop-color="#085954"/></linearGradient><linearGradient id="b" gradientUnits="userSpaceOnUse" x1="13.6638" x2="6.64248" y1="14.7236" y2="7.08646"><stop offset=".042" stop-color="#abe88e"/><stop offset=".549" stop-color="#2aaa92"/><stop offset=".906" stop-color="#117865"/></linearGradient><linearGradient id="c" gradientUnits="userSpaceOnUse" x1="-3.59087" x2="3.09038" y1="14.3521" y2="12.0731"><stop offset="0" stop-color="#6ad6f9"/><stop offset="1" stop-color="#6ad6f9" stop-opacity="0"/></linearGradient><linearGradient id="d" gradientUnits="userSpaceOnUse" x1="1.50582" x2="19.292" y1="5.61052" y2="5.61052"><stop offset=".043" stop-color="#25ffd4"/><stop offset=".874" stop-color="#55ddb9"/></linearGradient><linearGradient id="e" gradientUnits="userSpaceOnUse" x1="1.50582" x2="17.5288" y1="3.12434" y2="10.5643"><stop offset="0" stop-color="#6ad6f9"/><stop offset=".23" stop-color="#60e9d0"/><stop offset=".651" stop-color="#6de9bb"/><stop offset=".994" stop-color="#abe88e"/></linearGradient><linearGradient id="f"><stop offset="0" stop-color="#fff" stop-opacity="0"/><stop offset=".459" stop-color="#fff"/><stop offset="1" stop-color="#fff" stop-opacity="0"/></linearGradient><linearGradient id="g" gradientUnits="userSpaceOnUse" x1="2.98896" x2="11.7006" xlink:href="#f" y1="4.51603" y2="6.44353"/><linearGradient id="h" gradientUnits="userSpaceOnUse" x1="5.87662" x2="6.08237" y1="11.9788" y2="5.86911"><stop offset=".205" stop-color="#063d3b" stop-opacity="0"/><stop offset=".586" stop-color="#063d3b" stop-opacity=".237"/><stop offset=".872" stop-color="#063d3b" stop-opacity=".75"/></linearGradient><linearGradient id="i" gradientUnits="userSpaceOnUse" x1="-.596021" x2="6.84966" xlink:href="#f" y1="11.3716" y2="12.7718"/><linearGradient id="j" gradientUnits="userSpaceOnUse" x1="4.78216" x2="3.33046" y1="17.9842" y2="10.8815"><stop offset=".064" stop-color="#063d3b" stop-opacity="0"/><stop offset=".17" stop-color="#063d3b" stop-opacity=".135"/><stop offset=".562" stop-color="#063d3b" stop-opacity=".599"/><stop offset=".85" stop-color="#063d3b" stop-opacity=".9"/><stop offset="1" stop-color="#063d3b"/></linearGradient><path clip-rule="evenodd" d="m.819991 13.7992-.292912 1.0716c-.110021.343-.262906.8473-.34435 1.2946-.1518364.4012-.2099588.8318-.1699273 1.2589s.1771573.8394.4009033 1.2055c.223745.366.52819.676.890075.9064.36189.2303.77164.3749 1.19795.4227.39579.0572.84302.0558 1.34454-.0185l2.30758-.3187c.58011-.08 1.05591-.4986 1.21022-1.063l1.58601-5.8297z" fill="url(#a)" fill-rule="evenodd"/><path d="m3.06895 14.0749c-2.430454.3772-2.929118 2.2118-2.929118 2.2118l2.327578-8.55584 12.16509-1.64602-1.6588 6.02546c-.0858.3229-.3572.5715-.6945.6229l-.0671.01-9.21173 1.3431.06858-.0128z" fill="url(#b)"/><path d="m3.06895 14.0749c-2.430454.3772-2.929118 2.2118-2.929118 2.2118l2.327578-8.55584 12.16509-1.64602-1.6588 6.02546c-.0858.3229-.3572.5715-.6945.6229l-.0671.01-9.21173 1.3431.06858-.0128z" fill="url(#c)" fill-opacity=".8"/><path d="m4.44923 8.6168 13.46677-1.98895c.1557-.02189.3014-.08912.419-.1933.1177-.10418.202-.2407.2426-.39252l1.3903-5.02951c.0355-.126871.0391-.260573.0103-.389157-.0287-.128584-.0889-.24804-.1751-.347687s-.1957-.1763776-.3188-.2233312c-.1231-.04695354-.2559-.0626661-.3866-.04573247l-12.84956 1.90035767c-.67985.10991-1.31377.41294-1.82625.87298s-.88191 1.0577-1.06429 1.72179l-1.85321 6.71556c.3715-1.35741.60155-2.17757 2.94484-2.6005z" fill="url(#d)"/><path d="m4.44923 8.6168 13.46677-1.98895c.1557-.02189.3014-.08912.419-.1933.1177-.10418.202-.2407.2426-.39252l1.3903-5.02951c.0355-.126871.0391-.260573.0103-.389157-.0287-.128584-.0889-.24804-.1751-.347687s-.1957-.1763776-.3188-.2233312c-.1231-.04695354-.2559-.0626661-.3866-.04573247l-12.84956 1.90035767c-.67985.10991-1.31377.41294-1.82625.87298s-.88191 1.0577-1.06429 1.72179l-1.85321 6.71556c.3715-1.35741.60155-2.17757 2.94484-2.6005z" fill="url(#e)"/><path d="m4.44923 8.6168 13.46677-1.98895c.1557-.02189.3014-.08912.419-.1933.1177-.10418.202-.2407.2426-.39252l1.3903-5.02951c.0355-.126871.0391-.260573.0103-.389157-.0287-.128584-.0889-.24804-.1751-.347687s-.1957-.1763776-.3188-.2233312c-.1231-.04695354-.2559-.0626661-.3866-.04573247l-12.84956 1.90035767c-.67985.10991-1.31377.41294-1.82625.87298s-.88191 1.0577-1.06429 1.72179l-1.85321 6.71556c.3715-1.35741.60155-2.17757 2.94484-2.6005z" fill="url(#g)" fill-opacity=".4"/><path d="m4.44921 8.61677c-1.95037.35435-2.43474.98161-2.75766 1.96613l-1.551718 5.7039s.495807-1.8146 2.897688-2.2033l9.17458-1.3374.0686-.0114c.1633-.0254.3157-.0976.4387-.2079.1231-.1104.2114-.2541.2543-.4137l1.3645-4.95661z" fill="url(#h)"/><path d="m4.44921 8.61677c-1.95037.35435-2.43474.98161-2.75766 1.96613l-1.551718 5.7039s.495807-1.8146 2.897688-2.2033l9.17458-1.3374.0686-.0114c.1633-.0254.3157-.0976.4387-.2079.1231-.1104.2114-.2541.2543-.4137l1.3645-4.95661z" fill="url(#i)" fill-opacity=".2"/><path clip-rule="evenodd" d="m3.03755 14.0835c-2.02895.3286-2.69622 1.6717-2.854821 2.0818-.1521045.4013-.2104365.8321-.1705363 1.2594.0399001.4273.1769753.8398.4007473 1.206.223771.3662.528313.6764.89034.9068.36203.2305.77196.3751 1.19845.4228.39579.0572.84302.0543 1.34454-.02l2.30758-.3186c.58011-.08 1.05591-.4987 1.21022-1.0631l1.44599-5.3153z" fill="url(#j)" fill-rule="evenodd"/></svg>