<svg fill="none" height="27" viewBox="0 0 33 27" width="33" xmlns="http://www.w3.org/2000/svg"><path d="m32.6401 11.055c-.1411-.174-.3193-.3142-.5216-.4102-.2023-.0961-.4235-.1455-.6474-.1448h-2.9972v-1.49998c0-1.19347-.4737-2.33806-1.3168-3.18197-.8432-.84392-1.9867-1.31802-3.1791-1.31802h-9.4114l-.4795-1.5c-.3109-.88015-.8876-1.64174-1.6502-2.179256-.7625-.537513-1.6732-.82433934-2.60592-.82074054h-5.3351c-1.19238 0-2.33593.47410554-3.17907 1.31801654-.843139.84391-1.31681 1.98851-1.31681 3.18198v17.99997c0 1.1935.473671 2.3381 1.31681 3.182.84314.8439 1.98669 1.318 3.17907 1.318h21.58022c1.0209-.003 2.0103-.3536 2.8057-.9943.7953-.6406 1.3491-1.5331 1.5703-2.5307l2.5177-11.145c.0455-.2236.0395-.4547-.0176-.6756-.0571-.221-.1639-.426-.3121-.5994zm-26.09111 11.775c-.07613.3384-.26707.6399-.5403.8532-.27324.2133-.6119.3253-.95832.3168h-.55449c-.39746 0-.77864-.158-1.05969-.4393s-.43894-.6629-.43894-1.0607v-17.99997c0-.39783.15789-.77936.43894-1.06066s.66223-.43934 1.05969-.43934h5.3351c.32682-.01707.65022.07339.92082.25757s.4735.45196.5778.76243l.8093 2.46c.0961.28611.2763.53653.5169.71851.2407.18198.5306.28705.8318.30148h10.4904c.3975 0 .7787.15804 1.0597.43934.281.28131.4389.66284.4389 1.06066v1.49998h-14.9862c-.3464-.0085-.6851.1035-.95834.3168s-.46417.5148-.54031.8532zm20.98081 0c-.0762.3384-.2671.6399-.5404.8532-.2732.2133-.6118.3253-.9583.3168h-16.72464c.0774-.1671.13282-.3436.16485-.525l2.21799-9.975h17.9835z" fill="#fff"/></svg>