<svg id="Layer_1" data-name="Layer 1" xmlns="http://www.w3.org/2000/svg"
    xmlns:xlink="http://www.w3.org/1999/xlink" viewBox="0 0 300 300">
    <defs>
        <style>.cls-1{fill:url(#linear-gradient);}.cls-2{fill:#fff;}</style>
        <linearGradient id="linear-gradient" x1="556.92" y1="15488.93" x2="134.07" y2="15066.08"
            gradientTransform="translate(15427.5 -195.5) rotate(90)" gradientUnits="userSpaceOnUse">
            <stop offset="0" stop-color="#4d27a8" />
            <stop offset="1" stop-color="#a166ff" />
        </linearGradient>
    </defs>
    <title>-icon-color</title>
    <rect id="Purple_Gradient" data-name="Purple Gradient" class="cls-1" x="0.5" y="0.5" width="299"
        height="299" />
    <g id="Icon_Test" data-name="Icon Test">
        <path class="cls-2"
            d="M150.24,249.67a4,4,0,0,1-2.54-.91l-24.16-19.94a4,4,0,0,1,2.54-7.06h12v-12h8v15.95a4,4,0,0,1-4,4h-4.86l13,10.76L163,229.73h-5a4,4,0,0,1-4-4V209.8h8v12h12a4,4,0,0,1,2.57,7L152.8,248.73A3.93,3.93,0,0,1,150.24,249.67Z" />
        <path class="cls-2"
            d="M185.76,100.13l-1,7.89c11.25,1.36,16.71,3,19.26,4.11-7.06,3.07-26.95,6-54.06,6-28,0-47.68-3.19-54.18-6,5.74-2.44,22.25-5.7,50.19-6v-8c-54.26.56-59.8,9.93-59.8,14a5.87,5.87,0,0,0,.08.79,4.47,4.47,0,0,0,.48,1.4l.8,1.39a4.49,4.49,0,0,0,.64.88,9.43,9.43,0,0,0,1.31,1.08l44.53,69.57v10.64a4,4,0,0,0,2.59,3.75,39.49,39.49,0,0,0,13.64,2.55,34.87,34.87,0,0,0,13.16-2.63,4,4,0,0,0,2.51-3.67V187.2l44.41-69.49a.21.21,0,0,0,.16-.08c2.71-1.92,3.27-4.07,3.27-5.5C213.79,107.86,210.48,103.12,185.76,100.13Zm-27.15,83.76A3.83,3.83,0,0,0,158,186v9A26.91,26.91,0,0,1,142,195V186a3.83,3.83,0,0,0-.64-2.15L101.8,122.05c12.52,2.75,31.06,4,48.2,4,16.82,0,35.52-1.28,48.12-4Z" />
        <path class="cls-2"
            d="M173.92,110.13H158a4,4,0,0,1-4-4v-16a4,4,0,0,1,4-4h15.95a4,4,0,0,1,4,4v16A4,4,0,0,1,173.92,110.13Zm-12-8h8v-8h-8Z" />
        <path class="cls-2"
            d="M166,74.25H150a4,4,0,0,1-4-4V54.32a4,4,0,0,1,4-4H166a4,4,0,0,1,4,4V70.27A4,4,0,0,1,166,74.25Zm-12-8h8v-8h-8Z" />
        <path class="cls-2"
            d="M134.05,94.19H118.11a4,4,0,0,1-4-4v-16a4,4,0,0,1,4-4h15.94a4,4,0,0,1,4,4v16A4,4,0,0,1,134.05,94.19Zm-12-8h8v-8h-8Z" />
    </g>
</svg>