<svg enable-background="new 0 0 400 400" viewBox="0 0 400 400" xmlns="http://www.w3.org/2000/svg"><path d="m.999997 382c.000003-120.355957.000003-240.711945.251186-361.196415.715227-.57369 1.380722-.932913 1.612924-1.477041 3.189525-7.474138 8.284804-13.041895 15.834061-16.296036.611986-.263799.876079-1.334667 1.301832-2.030508 120.355972 0 240.711945 0 361.196411.251165.57367.715199.932892 1.380708 1.47702 1.612873 7.474396 3.189147 13.041657 8.284922 16.296357 15.833687.263885.612086 1.334472.876372 2.030212 1.302271 0 120.355976 0 240.711949-.251221 361.196415-.71521.57367-1.384948.932922-1.612274 1.476959-3.142456 7.520905-8.484924 12.849152-15.834198 16.292633-.616455.288849-.876648 1.338044-1.302307 2.033997-120.355957 0-240.711945 0-361.196363-.25116-.573601-.71521-.932787-1.380737-1.476887-1.612945-7.474033-3.189514-13.041746-8.284851-16.296519-15.833618-.263915-.612091-1.334491-.876374-2.030234-1.302277m150.106342-166.060349h52.873992c-.281097 1.525361-.370834 2.176362-.522705 2.812546-6.255966 26.209717-12.617019 52.395264-18.640045 78.658356-.678512 2.958588-.379623 6.875458 1.065994 9.44931 4.33162 7.712281 14.287003 6.631592 19.223938-1.798706 25.644837-43.791076 51.241791-87.610183 76.922669-131.380081 2.480835-4.228256 4.290069-8.354828 1.587463-13.080688-2.767914-4.840119-7.269745-5.708222-12.421264-5.652192-13.636383.148331-27.275437.050278-41.541901.050278.647812-2.24353 1.077484-3.975052 1.645431-5.659958 4.517182-13.400512 9.094849-26.780723 13.58371-40.190681 2.914276-8.706085-1.458496-15.051117-10.685379-15.104408-22.153213-.127968-44.307846-.088799-66.461563-.013772-6.810455.023056-10.844208 3.69381-11.830414 10.360909-4.796585 32.42572-9.550049 64.857849-14.38858 97.277298-1.198074 8.027328.978699 11.745254 9.588654 14.271789z" fill="#7262ff"/><path d="m382.46936 401c-.043701-.695953.216492-1.745148.832947-2.033997 7.349274-3.443481 12.691742-8.771728 15.834198-16.292633.227326-.544037.897064-.903289 1.612274-1.010925.251221 6.596802.251221 12.856018.251221 19.337555-6.018616 0-12.039917 0-18.53064 0z"/><path d="m19.530624 1c.043623.695841-.22047 1.766709-.832456 2.030508-7.549257 3.254141-12.644536 8.821898-15.834061 16.296036-.232202.544128-.897697.903351-1.612924 1.010999-.251183-6.596777-.251183-12.856011-.251183-19.337543z"/><path d="m401 19.530621c-.69574.043476-1.766327-.22081-2.030212-.832896-3.2547-7.548765-8.821961-12.64454-16.296357-15.833687-.544128-.232165-.90335-.897674-1.010986-1.612873 6.596802-.251165 12.856018-.251165 19.337555-.251165z"/><path d="m.999997 382.46936c.695743-.043457 1.766319.220826 2.030234.832917 3.254773 7.548767 8.822486 12.644104 16.296519 15.833618.5441.232208.903286.897735 1.010845 1.612945-6.596828.25116-12.856061.25116-19.337595.25116 0-6.018616 0-12.039917-.000003-18.53064z"/><path d="m150.676132 215.887299c-8.179748-2.474183-10.356521-6.192109-9.158447-14.219437 4.838531-32.419449 9.591995-64.851578 14.38858-97.277298.986206-6.667099 5.019959-10.337853 11.830414-10.360909 22.153717-.075027 44.30835-.114196 66.461563.013772 9.226883.053291 13.599655 6.398323 10.685379 15.104408-4.488861 13.409958-9.066528 26.790169-13.58371 40.190681-.567947 1.684906-.997619 3.416428-1.645431 5.659958 14.266464 0 27.905518.098053 41.541901-.050278 5.151519-.05603 9.65335.812073 12.421264 5.652192 2.702606 4.72586.893372 8.852432-1.587463 13.080688-25.680878 43.769898-51.277832 87.589005-76.922669 131.380081-4.936935 8.430298-14.892318 9.510987-19.223938 1.798706-1.445617-2.573852-1.744506-6.490722-1.065994-9.44931 6.023026-26.263092 12.384079-52.448639 18.640045-78.658356.151871-.636184.241608-1.287185.522705-2.812546-17.816177 0-35.345092 0-53.304199-.052352z" fill="#fefeff"/></svg>