<svg enable-background="new 0 0 126 126" viewBox="0 0 126 126" xmlns="http://www.w3.org/2000/svg"><path d="m60 127c-20 0-39.5 0-59 0 0-42 0-84 0-126h126v126c-22.166664 0-44.333336 0-67 0m-12.871033-41.227592c9.482067.081893 18.964157.231925 28.44619.229187 13.129044-.0038 22.88147-9.132706 23.28125-21.658745.400314-12.542595-9.275925-22.698452-22.429069-23.142418-8.312516-.280575-16.645413-.204014-24.963295-.020874-12.499699.275207-21.351246 8.23101-22.736584 20.139698-1.334906 11.475185 5.551334 20.983806 18.401508 24.453152z" fill="#c74634"/><path d="m46.708 85.669083c-12.429207-3.366021-19.315447-12.874642-17.980541-24.349827 1.385338-11.908688 10.236885-19.864491 22.736584-20.139698 8.317882-.18314 16.650779-.259701 24.963295.020874 13.153144.443966 22.829383 10.599823 22.429069 23.142418-.39978 12.526039-10.152206 21.654945-23.28125 21.658745-9.482033.002738-18.964123-.147294-28.867157-.332512m42.020439-15.843903c3.971344-11.314262-2.171669-20.173462-14.118156-20.275837-7.331871-.062836-14.664978-.051754-21.997036-.001705-9.109356.062176-15.406551 5.857372-15.422691 14.103691-.016022 8.185692 6.339454 14.173157 15.396999 14.308907 7.330757.109871 14.664482.015731 21.996872.024665 5.950943.007256 10.664169-2.230766 14.144012-8.159721z" fill="#fdf8f7"/><path d="m88.517677 70.152954c-3.269081 5.601181-7.982307 7.839203-13.93325 7.831947-7.33239-.008934-14.666115.085206-21.996872-.024665-9.057545-.13575-15.413021-6.123215-15.396999-14.308907.01614-8.246319 6.313335-14.041515 15.422691-14.103691 7.332058-.050049 14.665165-.061131 21.997036.001705 11.946487.102375 18.0895 8.961575 13.907394 20.603611z" fill="#c74735"/></svg>