<svg fill="none" height="27" viewBox="0 0 27 27" width="27" xmlns="http://www.w3.org/2000/svg"><path d="m13.5 27c-7.45584 0-13.5-6.0442-13.5-13.5 0-7.45584 6.04416-13.5 13.5-13.5 7.4558 0 13.5 6.04416 13.5 13.5 0 7.4558-6.0442 13.5-13.5 13.5zm0-2.7c5.9647 0 10.8-4.8353 10.8-10.8 0-5.96468-4.8353-10.8-10.8-10.8-5.96468 0-10.8 4.83532-10.8 10.8 0 5.9647 4.83532 10.8 10.8 10.8zm0-6.75c-.7456 0-1.35-.6044-1.35-1.35s.6044-1.35 1.35-1.35c1.4912 0 2.7-1.2088 2.7-2.7s-1.2088-2.7-2.7-2.7-2.7 1.2088-2.7 2.7c0 .7456-.6044 1.35-1.35 1.35-.74558 0-1.35-.6044-1.35-1.35 0-2.98234 2.4177-5.4 5.4-5.4s5.4 2.41766 5.4 5.4c0 2.9823-2.4177 5.4-5.4 5.4zm0 4.05c-.7456 0-1.35-.6044-1.35-1.35s.6044-1.35 1.35-1.35 1.35.6044 1.35 1.35-.6044 1.35-1.35 1.35z" fill="#fff"/></svg>