<svg fill="none" height="27" viewBox="0 0 30 27" width="30" xmlns="http://www.w3.org/2000/svg"><path d="m7.10818 17.067-6.476467-5.1668c-.7258285-.5791-.843509-1.6353-.262846-2.35913.319393-.39814.802953-.62991 1.314233-.62991h8.489l3.2915-7.87787c.3575-.855642 1.3429-1.260264 2.2009-.903745.4098.17027.7355.495099.9063.903745l3.2915 7.87787h8.4547c.9295 0 1.683.75144 1.683 1.67844 0 .5369-.2576 1.0415-.6931 1.3573l-7.0576 5.1186 3.1661 7.5775c.3575.8557-.0483 1.8383-.9063 2.1949-.5194.2158-1.1127.1585-1.5809-.1528l-7.911-5.2595-7.96044 5.2923c-.7734.5142-1.81835.3058-2.33395-.4655-.28809-.4309-.36054-.9704-.1963-1.4617zm-1.49948-5.1042 5.0773 4.0506-1.98731 5.9453 6.31851-4.2007 5.8243 3.8722-2.3462-5.6153 5.5871-4.0521h-6.2601l-2.8051-6.71358-2.8051 6.71358z" fill="#fff"/></svg>