<svg width="147" height="147" xmlns="http://www.w3.org/2000/svg" data-name="Layer 1">
 <defs>
  <radialGradient gradientTransform="matrix(1,0,0,1,-99.45999908447266,-56.230003356933594)" gradientUnits="userSpaceOnUse" r="165.51" fy="71.71802" fx="140.12927" cy="131.82" cx="179.64" id="radial-gradient">
   <stop stop-color="#02c5a7" offset="0.02"/>
   <stop stop-color="#02b9a4" offset="0.07"/>
   <stop stop-color="#049a9e" offset="0.15"/>
   <stop stop-color="#056793" offset="0.26"/>
   <stop stop-color="#082284" offset="0.39"/>
   <stop stop-color="#081f83" offset="0.39"/>
   <stop stop-color="#bb0268" offset="0.62"/>
  </radialGradient>
 </defs>
 <g>
  <title>Layer 1</title>
  <circle id="svg_1" fill="url(#radial-gradient)" r="73.68" cy="73.68" cx="73.68" class="cls-1"/>
  <path id="svg_2" fill="#fff" d="m75.17001,24.1a13.82,13.82 0 0 1 11.81999,-4.69a26,26 0 0 1 14.87001,6.53a38.5,38.5 0 0 1 5.37999,48a38.61,38.61 0 0 1 -29,17.77c0,7.23 0,14.45999 0,21.69a3.55,3.55 0 0 1 -7.09,0.42999c0,-7.38 0,-14.75 0,-22.12a38.58,38.58 0 0 1 -20.61,-68.45c1.3,-1 2.72,-2.39 4.53,-2a3.55,3.55 0 0 1 3,4.35a4.25,4.25 0 0 1 -2.09,2.64001a31.47,31.47 0 0 0 -12.44,21.10999a30.93,30.93 0 0 0 4.52,20.41a31.73,31.73 0 0 0 23.09,14.73q0,-23.84 0,-47.67c0.14,-4.45 1.09,-9.18 4.02,-12.73zm5.93001,4.25c-2.16,2.29 -2.63,5.62 -2.79001,8.64q0,23.77 0,47.55a31.4,31.4 0 0 0 21,-50.78001a18.53,18.53 0 0 0 -11.40999,-7c-2.36002,-0.41 -5.09001,-0.23 -6.80002,1.59l0.00002,0z" class="cls-2"/>
 </g>
</svg>