<svg xmlns="http://www.w3.org/2000/svg" xmlns:xlink="http://www.w3.org/1999/xlink" viewBox="0 0 1600 800.992"><defs><linearGradient id="linear-gradient" y1="400.496" x2="1600" y2="400.496" gradientUnits="userSpaceOnUse"><stop offset="0.4" stop-color="#f9fafb"></stop><stop offset="0.9" stop-color="#f9fafb" stop-opacity="0"></stop></linearGradient><linearGradient id="linear-gradient-2" x1="800" y1="800.496" x2="800" y2="0.496" gradientUnits="userSpaceOnUse"><stop offset="0" stop-color="#f9fafb"></stop><stop offset="0.9" stop-color="#f9fafb" stop-opacity="0"></stop></linearGradient></defs><title>banner</title><g id="lines"><rect y="0.496" width="1600" height="800" fill="#f9fafb"></rect><path d="M694.057,304.688l12.42-21.736a7.256,7.256,0,0,1,6.3-3.655h20.6a7.256,7.256,0,0,0,6.3-3.655l12.42-21.736" transform="translate(0 0.496)" fill="none" stroke="#ff694b" stroke-miterlimit="10" stroke-width="2"></path><path d="M696.342,305.993a2.632,2.632,0,1,1-.979-3.591A2.632,2.632,0,0,1,696.342,305.993Z" transform="translate(0 0.496)" fill="#ff694b"></path><polygon points="754.617 257.021 754.585 250.041 748.556 253.557 754.617 257.021" fill="#ff694b"></polygon><path d="M781.111,355.469l12.42-21.736a7.255,7.255,0,0,1,6.3-3.655h20.6a7.254,7.254,0,0,0,6.3-3.655l10.364-18.136a7.258,7.258,0,0,0,0-7.2l-10.364-18.136a7.254,7.254,0,0,0-6.3-3.655h-20.6a7.255,7.255,0,0,1-6.3-3.655l-10.364-18.137a7.256,7.256,0,0,1,0-7.2l12.453-21.791" transform="translate(0 0.496)" fill="none" stroke="#01bbbb" stroke-miterlimit="10" stroke-width="2"></path><path d="M783.4,356.775a2.632,2.632,0,1,1-.98-3.591A2.633,2.633,0,0,1,783.4,356.775Z" transform="translate(0 0.496)" fill="#01bbbb"></path><polygon points="798.143 231.63 798.112 224.65 792.082 228.167 798.143 231.63" fill="#01bbbb"></polygon><path d="M868.164,253.906l12.421-21.735a7.254,7.254,0,0,1,6.3-3.655h20.6a7.255,7.255,0,0,0,6.3-3.656l10.363-18.136a7.251,7.251,0,0,0,0-7.2l-12.452-21.792" transform="translate(0 0.496)" fill="none" stroke="#01bbbb" stroke-miterlimit="10" stroke-width="2"></path><path d="M870.449,255.212a2.632,2.632,0,1,1-.979-3.591A2.631,2.631,0,0,1,870.449,255.212Z" transform="translate(0 0.496)" fill="#01bbbb"></path><polygon points="915.228 177.386 909.199 173.869 909.167 180.849 915.228 177.386" fill="#01bbbb"></polygon><path d="M737.584,279.3,750,301.032a7.254,7.254,0,0,0,6.3,3.656h24.808" transform="translate(0 0.496)" fill="none" stroke="#ff694b" stroke-miterlimit="10" stroke-width="2"></path><path d="M735.3,280.6a2.632,2.632,0,1,1,3.591.979A2.632,2.632,0,0,1,735.3,280.6Z" transform="translate(0 0.496)" fill="#ff694b"></path><polygon points="780.089 308.674 786.134 305.184 780.089 301.693 780.089 308.674" fill="#ff694b"></polygon><path d="M868.164,304.688l12.421,21.735a7.254,7.254,0,0,0,6.3,3.655h24.808" transform="translate(0 0.496)" fill="none" stroke="#ff694b" stroke-miterlimit="10" stroke-width="2"></path><path d="M865.879,305.993a2.632,2.632,0,1,1,3.591.98A2.632,2.632,0,0,1,865.879,305.993Z" transform="translate(0 0.496)" fill="#ff694b"></path><polygon points="910.67 334.065 916.714 330.574 910.67 327.084 910.67 334.065" fill="#ff694b"></polygon><path d="M824.638,330.078,837.09,351.87a7.256,7.256,0,0,1,0,7.2l-10.4,18.192a7.258,7.258,0,0,0,0,7.2L837.058,402.6a7.254,7.254,0,0,0,6.3,3.655h20.6a7.255,7.255,0,0,1,6.3,3.655l12.42,21.736" transform="translate(0 0.496)" fill="none" stroke="#01bbbb" stroke-miterlimit="10" stroke-width="2"></path><path d="M822.352,331.384a2.632,2.632,0,1,1,3.591.979A2.632,2.632,0,0,1,822.352,331.384Z" transform="translate(0 0.496)" fill="#01bbbb"></path><polygon points="879.136 432.982 885.166 436.498 885.197 429.518 879.136 432.982" fill="#01bbbb"></polygon><path d="M694.057,304.688l12.42,21.735a7.256,7.256,0,0,0,6.3,3.655h20.6a7.256,7.256,0,0,1,6.3,3.655l12.42,21.736" transform="translate(0 0.496)" fill="none" stroke="#ff694b" stroke-miterlimit="10" stroke-width="2"></path><circle cx="694.057" cy="304.687" r="2.632" transform="translate(-47.324 147.376) rotate(-11.685)" fill="#ff694b"></circle><polygon points="748.556 356.81 754.585 360.326 754.617 353.346 748.556 356.81" fill="#ff694b"></polygon><path d="M955.218,304.688l12.42-21.736a7.255,7.255,0,0,1,6.3-3.655h20.6a7.254,7.254,0,0,0,6.3-3.655l10.364-18.137a7.256,7.256,0,0,0,0-7.2l-10.364-18.136a7.254,7.254,0,0,0-6.3-3.655h-20.6a7.254,7.254,0,0,1-6.3-3.656l-12.42-21.735" transform="translate(0 0.496)" fill="none" stroke="#fff" stroke-miterlimit="10" stroke-width="2"></path><path d="M957.5,305.993a2.632,2.632,0,1,1-.979-3.591A2.632,2.632,0,0,1,957.5,305.993Z" transform="translate(0 0.496)" fill="#fff"></path><polygon points="958.755 202.776 952.726 199.26 952.694 206.24 958.755 202.776" fill="#fff"></polygon><path d="M998.745,279.3l12.42,21.735a7.253,7.253,0,0,0,6.3,3.656h20.6a7.254,7.254,0,0,0,6.3-3.656l10.332-18.08a7.254,7.254,0,0,1,6.3-3.655H1085.8" transform="translate(0 0.496)" fill="none" stroke="#fff" stroke-miterlimit="10" stroke-width="2"></path><circle cx="998.745" cy="279.297" r="2.632" transform="translate(-35.868 208.558) rotate(-11.685)" fill="#fff"></circle><polygon points="1084.777 283.283 1090.822 279.793 1084.777 276.303 1084.777 283.283" fill="#fff"></polygon><path d="M868.164,253.906l12.421,21.736a7.254,7.254,0,0,0,6.3,3.655h20.6a7.256,7.256,0,0,1,6.3,3.655l12.42,21.736" transform="translate(0 0.496)" fill="none" stroke="#01bbbb" stroke-miterlimit="10" stroke-width="2"></path><path d="M865.879,255.212a2.632,2.632,0,1,1,3.591.979A2.632,2.632,0,0,1,865.879,255.212Z" transform="translate(0 0.496)" fill="#01bbbb"></path><polygon points="922.663 306.029 928.692 309.545 928.724 302.565 922.663 306.029" fill="#01bbbb"></polygon><path d="M839.146,253.906l-12.452-21.791a7.258,7.258,0,0,1,0-7.2l10.364-18.136a7.254,7.254,0,0,1,6.3-3.655h24.808" transform="translate(0 0.496)" fill="none" stroke="#fff" stroke-miterlimit="10" stroke-width="2"></path><path d="M841.432,252.6a2.632,2.632,0,1,1-3.591-.979A2.632,2.632,0,0,1,841.432,252.6Z" transform="translate(0 0.496)" fill="#fff"></path><polygon points="867.143 207.112 873.188 203.621 867.143 200.131 867.143 207.112" fill="#fff"></polygon><path d="M839.146,203.125l-12.42-21.735a7.252,7.252,0,0,0-6.3-3.656H795.62" transform="translate(0 0.496)" fill="none" stroke="#fff" stroke-miterlimit="10" stroke-width="2"></path><path d="M841.432,201.819a2.632,2.632,0,1,1-3.591-.979A2.632,2.632,0,0,1,841.432,201.819Z" transform="translate(0 0.496)" fill="#fff"></path><polygon points="796.641 174.74 790.596 178.231 796.641 181.721 796.641 174.74" fill="#fff"></polygon><path d="M955.218,152.344H930.41a7.256,7.256,0,0,1-6.3-3.655l-12.42-21.736" transform="translate(0 0.496)" fill="none" stroke="#ff694b" stroke-miterlimit="10" stroke-width="2"></path><path d="M955.218,149.712a2.632,2.632,0,1,1-2.632,2.632A2.632,2.632,0,0,1,955.218,149.712Z" transform="translate(0 0.496)" fill="#ff694b"></path><polygon points="915.228 126.604 909.199 123.088 909.167 130.068 915.228 126.604" fill="#ff694b"></polygon><path d="M868.164,406.25l12.453-21.791a7.258,7.258,0,0,0,0-7.2l-12.453-21.791" transform="translate(0 0.496)" fill="none" stroke="#01bbbb" stroke-miterlimit="10" stroke-width="2"></path><circle cx="868.164" cy="406.25" r="2.632" transform="translate(157.942 1050.432) rotate(-67.263)" fill="#01bbbb"></circle><polygon points="871.702 355.12 865.672 351.603 865.64 358.583 871.702 355.12" fill="#01bbbb"></polygon><path d="M911.691,431.641l12.42-21.736a7.256,7.256,0,0,1,6.3-3.655h20.6a7.256,7.256,0,0,0,6.3-3.655l12.42-21.736" transform="translate(0 0.496)" fill="none" stroke="#01bbbb" stroke-miterlimit="10" stroke-width="2"></path><path d="M913.976,432.946a2.632,2.632,0,1,1-.979-3.59A2.632,2.632,0,0,1,913.976,432.946Z" transform="translate(0 0.496)" fill="#01bbbb"></path><polygon points="972.251 383.974 972.219 376.994 966.19 380.511 972.251 383.974" fill="#01bbbb"></polygon><path d="M998.745,482.422l12.42-21.736a7.254,7.254,0,0,1,6.3-3.655h20.6a7.255,7.255,0,0,0,6.3-3.655l10.364-18.136a7.258,7.258,0,0,0,0-7.2l-10.364-18.136a7.255,7.255,0,0,0-6.3-3.655h-20.6a7.254,7.254,0,0,1-6.3-3.655L1000.8,384.459a7.258,7.258,0,0,1,0-7.2l12.453-21.791" transform="translate(0 0.496)" fill="none" stroke="#ff694b" stroke-miterlimit="10" stroke-width="2"></path><path d="M1001.03,483.728a2.632,2.632,0,1,1-.98-3.591A2.633,2.633,0,0,1,1001.03,483.728Z" transform="translate(0 0.496)" fill="#ff694b"></path><polygon points="1015.777 358.583 1015.746 351.603 1009.716 355.12 1015.777 358.583" fill="#ff694b"></polygon><path d="M1085.8,380.859l12.42-21.735a7.256,7.256,0,0,1,6.3-3.655h20.6a7.256,7.256,0,0,0,6.3-3.655l10.363-18.137a7.251,7.251,0,0,0,0-7.2l-12.452-21.791" transform="translate(0 0.496)" fill="none" stroke="#01bbbb" stroke-miterlimit="10" stroke-width="2"></path><path d="M1088.083,382.165a2.632,2.632,0,1,1-.979-3.591A2.631,2.631,0,0,1,1088.083,382.165Z" transform="translate(0 0.496)" fill="#01bbbb"></path><polygon points="1132.862 304.339 1126.833 300.822 1126.801 307.802 1132.862 304.339" fill="#01bbbb"></polygon><path d="M955.218,406.25l12.42,21.735a7.254,7.254,0,0,0,6.3,3.656h24.808" transform="translate(0 0.496)" fill="none" stroke="#01bbbb" stroke-miterlimit="10" stroke-width="2"></path><path d="M952.933,407.556a2.632,2.632,0,1,1,3.591.979A2.632,2.632,0,0,1,952.933,407.556Z" transform="translate(0 0.496)" fill="#01bbbb"></path><polygon points="997.723 435.627 1003.768 432.137 997.723 428.646 997.723 435.627" fill="#01bbbb"></polygon><path d="M1085.8,431.641l12.42,21.735a7.256,7.256,0,0,0,6.3,3.655h20.6a7.256,7.256,0,0,1,6.3,3.655l10.331,18.081a7.256,7.256,0,0,0,6.3,3.655h24.808" transform="translate(0 0.496)" fill="none" stroke="#fff" stroke-miterlimit="10" stroke-width="2"></path><path d="M1083.513,432.946a2.632,2.632,0,1,1,3.591.98A2.632,2.632,0,0,1,1083.513,432.946Z" transform="translate(0 0.496)" fill="#fff"></path><polygon points="1171.83 486.408 1177.875 482.918 1171.83 479.428 1171.83 486.408" fill="#fff"></polygon><path d="M1042.271,457.031l12.453,21.792a7.256,7.256,0,0,1,0,7.2l-10.4,18.192a7.258,7.258,0,0,0,0,7.2l10.364,18.136a7.254,7.254,0,0,0,6.3,3.655h20.6a7.255,7.255,0,0,1,6.3,3.655L1098.25,555a7.251,7.251,0,0,1,0,7.2l-10.363,18.136a7.255,7.255,0,0,1-6.3,3.655H1056.78" transform="translate(0 0.496)" fill="none" stroke="#ff694b" stroke-miterlimit="10" stroke-width="2"></path><path d="M1039.986,458.337a2.632,2.632,0,1,1,3.591.979A2.632,2.632,0,0,1,1039.986,458.337Z" transform="translate(0 0.496)" fill="#ff694b"></path><polygon points="1057.802 580.99 1051.757 584.481 1057.802 587.971 1057.802 580.99" fill="#ff694b"></polygon><path d="M911.691,431.641l12.42,21.735a7.256,7.256,0,0,0,6.3,3.655h20.6a7.256,7.256,0,0,1,6.3,3.655l12.42,21.736" transform="translate(0 0.496)" fill="none" stroke="#01bbbb" stroke-miterlimit="10" stroke-width="2"></path><path d="M909.406,432.946a2.632,2.632,0,1,1,3.591.98A2.631,2.631,0,0,1,909.406,432.946Z" transform="translate(0 0.496)" fill="#01bbbb"></path><polygon points="966.19 483.763 972.219 487.28 972.251 480.3 966.19 483.763" fill="#01bbbb"></polygon><path d="M1085.8,380.859l12.42,21.736a7.256,7.256,0,0,0,6.3,3.655h20.6a7.256,7.256,0,0,1,6.3,3.655l12.42,21.736" transform="translate(0 0.496)" fill="none" stroke="#01bbbb" stroke-miterlimit="10" stroke-width="2"></path><path d="M1083.513,382.165a2.632,2.632,0,1,1,3.591.979A2.633,2.633,0,0,1,1083.513,382.165Z" transform="translate(0 0.496)" fill="#01bbbb"></path><polygon points="1140.297 432.982 1146.326 436.498 1146.358 429.518 1140.297 432.982" fill="#01bbbb"></polygon><path d="M1056.78,380.859l-12.452-21.791a7.256,7.256,0,0,1,0-7.2l10.364-18.137a7.254,7.254,0,0,1,6.3-3.655H1085.8" transform="translate(0 0.496)" fill="none" stroke="#01bbbb" stroke-miterlimit="10" stroke-width="2"></path><path d="M1059.065,379.554a2.632,2.632,0,1,1-3.59-.98A2.631,2.631,0,0,1,1059.065,379.554Z" transform="translate(0 0.496)" fill="#01bbbb"></path><polygon points="1084.777 334.065 1090.822 330.574 1084.777 327.084 1084.777 334.065" fill="#01bbbb"></polygon><path d="M1492.048,279.3,1479.6,257.505a7.256,7.256,0,0,1,0-7.2l10.363-18.136a7.256,7.256,0,0,1,6.3-3.655h24.808" transform="translate(0 0.496)" fill="none" stroke="#01bbbb" stroke-miterlimit="10" stroke-width="2"></path><path d="M1494.333,277.991a2.632,2.632,0,1,1-3.591-.979A2.632,2.632,0,0,1,1494.333,277.991Z" transform="translate(0 0.496)" fill="#01bbbb"></path><polygon points="1520.045 232.502 1526.089 229.012 1520.045 225.521 1520.045 232.502" fill="#01bbbb"></polygon><path d="M1085.8,533.2l12.452-21.791a7.253,7.253,0,0,0,0-7.2L1085.8,482.422" transform="translate(0 0.496)" fill="none" stroke="#ff694b" stroke-miterlimit="10" stroke-width="2"></path><path d="M1088.083,534.509a2.632,2.632,0,1,1-.979-3.591A2.632,2.632,0,0,1,1088.083,534.509Z" transform="translate(0 0.496)" fill="#ff694b"></path><polygon points="1089.335 482.073 1083.306 478.557 1083.274 485.536 1089.335 482.073" fill="#ff694b"></polygon><path d="M955.218,152.344l12.42-21.736a7.255,7.255,0,0,1,6.3-3.655h20.6a7.254,7.254,0,0,0,6.3-3.655l12.421-21.736" transform="translate(0 0.496)" fill="none" stroke="#ff694b" stroke-miterlimit="10" stroke-width="2"></path><path d="M957.5,153.65a2.632,2.632,0,1,1-.979-3.591A2.633,2.633,0,0,1,957.5,153.65Z" transform="translate(0 0.496)" fill="#ff694b"></path><polygon points="1015.777 104.677 1015.746 97.697 1009.716 101.214 1015.777 104.677" fill="#ff694b"></polygon><path d="M1042.271,203.125l12.421-21.735a7.252,7.252,0,0,1,6.3-3.656h20.6a7.255,7.255,0,0,0,6.3-3.655l10.363-18.136a7.251,7.251,0,0,0,0-7.2l-10.363-18.137a7.255,7.255,0,0,0-6.3-3.655h-20.6a7.254,7.254,0,0,1-6.3-3.655l-10.364-18.136a7.258,7.258,0,0,1,0-7.2l12.452-21.791" transform="translate(0 0.496)" fill="none" stroke="#01bbbb" stroke-miterlimit="10" stroke-width="2"></path><path d="M1044.557,204.431a2.632,2.632,0,1,1-.98-3.591A2.632,2.632,0,0,1,1044.557,204.431Z" transform="translate(0 0.496)" fill="#01bbbb"></path><polygon points="1059.304 79.286 1059.273 72.307 1053.243 75.823 1059.304 79.286" fill="#01bbbb"></polygon><path d="M1129.325,101.562l12.42-21.735a7.256,7.256,0,0,1,6.3-3.655h20.6a7.256,7.256,0,0,0,6.3-3.655L1185.3,54.38a7.256,7.256,0,0,0,0-7.2l-12.452-21.791" transform="translate(0 0.496)" fill="none" stroke="#ff694b" stroke-miterlimit="10" stroke-width="2"></path><path d="M1131.61,102.868a2.632,2.632,0,1,1-.979-3.591A2.632,2.632,0,0,1,1131.61,102.868Z" transform="translate(0 0.496)" fill="#ff694b"></path><polygon points="1176.389 25.042 1170.359 21.525 1170.328 28.505 1176.389 25.042" fill="#ff694b"></polygon><path d="M998.745,126.953l12.42,21.736a7.254,7.254,0,0,0,6.3,3.655h24.807" transform="translate(0 0.496)" fill="none" stroke="#ff694b" stroke-miterlimit="10" stroke-width="2"></path><path d="M996.46,128.259a2.632,2.632,0,1,1,3.59.979A2.632,2.632,0,0,1,996.46,128.259Z" transform="translate(0 0.496)" fill="#ff694b"></path><polygon points="1041.25 156.33 1047.295 152.84 1041.25 149.349 1041.25 156.33" fill="#ff694b"></polygon><path d="M1129.325,152.344l12.42,21.735a7.256,7.256,0,0,0,6.3,3.655h24.808" transform="translate(0 0.496)" fill="none" stroke="#fff" stroke-miterlimit="10" stroke-width="2"></path><path d="M1127.04,153.65a2.632,2.632,0,1,1,3.591.979A2.632,2.632,0,0,1,1127.04,153.65Z" transform="translate(0 0.496)" fill="#fff"></path><polygon points="1171.83 181.721 1177.875 178.231 1171.83 174.74 1171.83 181.721" fill="#fff"></polygon><path d="M1085.8,177.734l12.452,21.792a7.251,7.251,0,0,1,0,7.2l-10.395,18.192a7.253,7.253,0,0,0,0,7.2l10.363,18.136a7.256,7.256,0,0,0,6.3,3.655h20.6a7.256,7.256,0,0,1,6.3,3.655l12.42,21.736" transform="translate(0 0.496)" fill="none" stroke="#01bbbb" stroke-miterlimit="10" stroke-width="2"></path><path d="M1083.513,179.04a2.632,2.632,0,1,1,3.591.979A2.633,2.633,0,0,1,1083.513,179.04Z" transform="translate(0 0.496)" fill="#01bbbb"></path><polygon points="1140.297 280.638 1146.326 284.155 1146.358 277.175 1140.297 280.638" fill="#01bbbb"></polygon><path d="M955.218,152.344l12.42,21.735a7.255,7.255,0,0,0,6.3,3.655h20.6a7.252,7.252,0,0,1,6.3,3.656l12.421,21.735" transform="translate(0 0.496)" fill="none" stroke="#ff694b" stroke-miterlimit="10" stroke-width="2"></path><path d="M952.933,153.65a2.632,2.632,0,1,1,3.591.979A2.632,2.632,0,0,1,952.933,153.65Z" transform="translate(0 0.496)" fill="#ff694b"></path><polygon points="1009.716 204.466 1015.746 207.983 1015.777 201.003 1009.716 204.466" fill="#ff694b"></polygon><path d="M1129.325,101.562l12.42,21.736a7.256,7.256,0,0,0,6.3,3.655h20.6a7.256,7.256,0,0,1,6.3,3.655l12.42,21.736" transform="translate(0 0.496)" fill="none" stroke="#ff694b" stroke-miterlimit="10" stroke-width="2"></path><path d="M1127.04,102.868a2.632,2.632,0,1,1,3.591.98A2.632,2.632,0,0,1,1127.04,102.868Z" transform="translate(0 0.496)" fill="#ff694b"></path><polygon points="1183.823 153.685 1189.853 157.201 1189.885 150.221 1183.823 153.685" fill="#ff694b"></polygon><path d="M1100.307,101.562l-12.452-21.791a7.251,7.251,0,0,1,0-7.2l10.363-18.137a7.256,7.256,0,0,1,6.3-3.655h24.808" transform="translate(0 0.496)" fill="none" stroke="#01bbbb" stroke-miterlimit="10" stroke-width="2"></path><path d="M1102.592,100.257a2.632,2.632,0,1,1-3.591-.98A2.632,2.632,0,0,1,1102.592,100.257Z" transform="translate(0 0.496)" fill="#01bbbb"></path><polygon points="1128.304 54.768 1134.348 51.277 1128.304 47.787 1128.304 54.768" fill="#01bbbb"></polygon><path d="M1129.325,253.906l12.452-21.791a7.253,7.253,0,0,0,0-7.2l-12.452-21.791" transform="translate(0 0.496)" fill="none" stroke="#01bbbb" stroke-miterlimit="10" stroke-width="2"></path><path d="M1131.61,255.212a2.632,2.632,0,1,1-.979-3.591A2.632,2.632,0,0,1,1131.61,255.212Z" transform="translate(0 0.496)" fill="#01bbbb"></path><polygon points="1132.862 202.776 1126.833 199.26 1126.801 206.24 1132.862 202.776" fill="#01bbbb"></polygon><path d="M955.218,304.688l12.452,21.791a7.251,7.251,0,0,1,0,7.2l-10.363,18.137a7.256,7.256,0,0,1-6.3,3.655H926.2" transform="translate(0 0.496)" fill="none" stroke="#fff" stroke-miterlimit="10" stroke-width="2"></path><path d="M952.933,305.993a2.632,2.632,0,1,1,3.591.98A2.632,2.632,0,0,1,952.933,305.993Z" transform="translate(0 0.496)" fill="#fff"></path><polygon points="927.221 352.474 921.177 355.965 927.221 359.455 927.221 352.474" fill="#fff"></polygon><path d="M1129.325,558.594l12.42-21.736a7.256,7.256,0,0,1,6.3-3.655h20.6a7.256,7.256,0,0,0,6.3-3.655l12.42-21.736" transform="translate(0 0.496)" fill="none" stroke="#01bbbb" stroke-miterlimit="10" stroke-width="2"></path><path d="M1131.61,559.9a2.632,2.632,0,1,1-.979-3.591A2.633,2.633,0,0,1,1131.61,559.9Z" transform="translate(0 0.496)" fill="#01bbbb"></path><polygon points="1189.885 510.927 1189.853 503.947 1183.823 507.464 1189.885 510.927" fill="#01bbbb"></polygon><path d="M1216.379,609.375l12.42-21.735a7.252,7.252,0,0,1,6.3-3.656h20.6a7.254,7.254,0,0,0,6.3-3.655l10.364-18.136a7.256,7.256,0,0,0,0-7.2l-10.364-18.137a7.254,7.254,0,0,0-6.3-3.655h-20.6a7.254,7.254,0,0,1-6.3-3.655l-10.364-18.136a7.258,7.258,0,0,1,0-7.2l12.452-21.791" transform="translate(0 0.496)" fill="none" stroke="#01bbbb" stroke-miterlimit="10" stroke-width="2"></path><path d="M1218.664,610.681a2.632,2.632,0,1,1-.98-3.591A2.632,2.632,0,0,1,1218.664,610.681Z" transform="translate(0 0.496)" fill="#01bbbb"></path><polygon points="1233.411 485.536 1233.38 478.557 1227.35 482.073 1233.411 485.536" fill="#01bbbb"></polygon><path d="M1303.432,507.812l12.42-21.735a7.256,7.256,0,0,1,6.3-3.655h20.6a7.256,7.256,0,0,0,6.3-3.655l10.363-18.137a7.251,7.251,0,0,0,0-7.2l-12.452-21.791" transform="translate(0 0.496)" fill="none" stroke="#01bbbb" stroke-miterlimit="10" stroke-width="2"></path><path d="M1305.717,509.118a2.632,2.632,0,1,1-.979-3.591A2.632,2.632,0,0,1,1305.717,509.118Z" transform="translate(0 0.496)" fill="#01bbbb"></path><polygon points="1350.496 431.292 1344.467 427.775 1344.435 434.755 1350.496 431.292" fill="#01bbbb"></polygon><path d="M1172.852,533.2l12.42,21.736a7.255,7.255,0,0,0,6.3,3.655h24.808" transform="translate(0 0.496)" fill="none" stroke="#01bbbb" stroke-miterlimit="10" stroke-width="2"></path><path d="M1170.567,534.509a2.632,2.632,0,1,1,3.59.979A2.632,2.632,0,0,1,1170.567,534.509Z" transform="translate(0 0.496)" fill="#01bbbb"></path><polygon points="1215.357 562.58 1221.402 559.09 1215.357 555.599 1215.357 562.58" fill="#01bbbb"></polygon><path d="M1303.432,558.594l12.42,21.735a7.256,7.256,0,0,0,6.3,3.655h24.808" transform="translate(0 0.496)" fill="none" stroke="#fff" stroke-miterlimit="10" stroke-width="2"></path><path d="M1301.147,559.9a2.632,2.632,0,1,1,3.591.979A2.633,2.633,0,0,1,1301.147,559.9Z" transform="translate(0 0.496)" fill="#fff"></path><polygon points="1345.938 587.971 1351.982 584.481 1345.938 580.99 1345.938 587.971" fill="#fff"></polygon><path d="M1259.905,583.984l12.453,21.792a7.256,7.256,0,0,1,0,7.2l-10.4,18.192a7.258,7.258,0,0,0,0,7.2l10.364,18.136a7.254,7.254,0,0,0,6.3,3.655h20.6a7.255,7.255,0,0,1,6.3,3.655l12.42,21.736" transform="translate(0 0.496)" fill="none" stroke="#01bbbb" stroke-miterlimit="10" stroke-width="2"></path><path d="M1257.62,585.29a2.632,2.632,0,1,1,3.591.979A2.632,2.632,0,0,1,1257.62,585.29Z" transform="translate(0 0.496)" fill="#01bbbb"></path><polygon points="1314.404 686.888 1320.433 690.405 1320.465 683.425 1314.404 686.888" fill="#01bbbb"></polygon><path d="M1129.325,558.594l12.42,21.735a7.256,7.256,0,0,0,6.3,3.655h20.6a7.255,7.255,0,0,1,6.3,3.656l12.42,21.735" transform="translate(0 0.496)" fill="none" stroke="#01bbbb" stroke-miterlimit="10" stroke-width="2"></path><path d="M1127.04,559.9a2.632,2.632,0,1,1,3.591.979A2.632,2.632,0,0,1,1127.04,559.9Z" transform="translate(0 0.496)" fill="#01bbbb"></path><polygon points="1183.823 610.716 1189.853 614.233 1189.885 607.253 1183.823 610.716" fill="#01bbbb"></polygon><path d="M1390.486,558.594l12.42-21.736a7.255,7.255,0,0,1,6.3-3.655h20.6a7.254,7.254,0,0,0,6.3-3.655l10.364-18.136a7.258,7.258,0,0,0,0-7.2L1436.1,486.077a7.254,7.254,0,0,0-6.3-3.655h-20.6a7.255,7.255,0,0,1-6.3-3.655l-12.42-21.736" transform="translate(0 0.496)" fill="none" stroke="#ff694b" stroke-miterlimit="10" stroke-width="2"></path><path d="M1392.771,559.9a2.632,2.632,0,1,1-.979-3.591A2.633,2.633,0,0,1,1392.771,559.9Z" transform="translate(0 0.496)" fill="#ff694b"></path><polygon points="1394.023 456.682 1387.993 453.166 1387.962 460.146 1394.023 456.682" fill="#ff694b"></polygon><path d="M1434.012,533.2l12.421,21.736a7.254,7.254,0,0,0,6.3,3.655h20.6a7.255,7.255,0,0,0,6.3-3.655l10.331-18.081a7.256,7.256,0,0,1,6.3-3.655h24.808" transform="translate(0 0.496)" fill="none" stroke="#ff694b" stroke-miterlimit="10" stroke-width="2"></path><path d="M1431.727,534.509a2.632,2.632,0,1,1,3.591.979A2.632,2.632,0,0,1,1431.727,534.509Z" transform="translate(0 0.496)" fill="#ff694b"></path><polygon points="1520.045 537.19 1526.089 533.699 1520.045 530.209 1520.045 537.19" fill="#ff694b"></polygon><path d="M1303.432,507.812l12.42,21.736a7.256,7.256,0,0,0,6.3,3.655h20.6a7.256,7.256,0,0,1,6.3,3.655l12.42,21.736" transform="translate(0 0.496)" fill="none" stroke="#01bbbb" stroke-miterlimit="10" stroke-width="2"></path><path d="M1301.147,509.118a2.632,2.632,0,1,1,3.591.98A2.633,2.633,0,0,1,1301.147,509.118Z" transform="translate(0 0.496)" fill="#01bbbb"></path><polygon points="1357.931 559.935 1363.96 563.451 1363.992 556.471 1357.931 559.935" fill="#01bbbb"></polygon><path d="M1274.414,507.812l-12.452-21.791a7.256,7.256,0,0,1,0-7.2l10.364-18.137a7.254,7.254,0,0,1,6.3-3.655h24.808" transform="translate(0 0.496)" fill="none" stroke="#fff" stroke-miterlimit="10" stroke-width="2"></path><path d="M1276.7,506.507a2.632,2.632,0,1,1-3.59-.98A2.632,2.632,0,0,1,1276.7,506.507Z" transform="translate(0 0.496)" fill="#fff"></path><polygon points="1302.411 461.018 1308.455 457.527 1302.411 454.037 1302.411 461.018" fill="#fff"></polygon><path d="M1303.432,660.156l12.452-21.791a7.253,7.253,0,0,0,0-7.2l-12.452-21.791" transform="translate(0 0.496)" fill="none" stroke="#01bbbb" stroke-miterlimit="10" stroke-width="2"></path><path d="M1305.717,661.462a2.632,2.632,0,1,1-.979-3.591A2.632,2.632,0,0,1,1305.717,661.462Z" transform="translate(0 0.496)" fill="#01bbbb"></path><polygon points="1306.969 609.026 1300.94 605.51 1300.908 612.49 1306.969 609.026" fill="#01bbbb"></polygon><path d="M1346.959,685.547l12.42-21.736a7.255,7.255,0,0,1,6.3-3.655h20.6a7.254,7.254,0,0,0,6.3-3.655L1405,634.766" transform="translate(0 0.496)" fill="none" stroke="#fff" stroke-miterlimit="10" stroke-width="2"></path><path d="M1349.244,686.853a2.632,2.632,0,1,1-.979-3.591A2.632,2.632,0,0,1,1349.244,686.853Z" transform="translate(0 0.496)" fill="#fff"></path><polygon points="1407.518 637.88 1407.487 630.9 1401.457 634.417 1407.518 637.88" fill="#fff"></polygon><path d="M1434.012,736.328l12.421-21.735a7.251,7.251,0,0,1,6.3-3.655h20.6a7.254,7.254,0,0,0,6.3-3.656l10.363-18.136a7.251,7.251,0,0,0,0-7.2l-10.363-18.137a7.255,7.255,0,0,0-6.3-3.655h-20.6a7.254,7.254,0,0,1-6.3-3.655l-10.364-18.136a7.258,7.258,0,0,1,0-7.2l12.452-21.791" transform="translate(0 0.496)" fill="none" stroke="#01bbbb" stroke-miterlimit="10" stroke-width="2"></path><path d="M1436.3,737.634a2.632,2.632,0,1,1-.98-3.591A2.632,2.632,0,0,1,1436.3,737.634Z" transform="translate(0 0.496)" fill="#01bbbb"></path><polygon points="1451.045 612.49 1451.014 605.51 1444.984 609.026 1451.045 612.49" fill="#01bbbb"></polygon><path d="M1521.066,634.766l12.42-21.736a7.256,7.256,0,0,1,6.3-3.655h20.6a7.256,7.256,0,0,0,6.3-3.655l10.363-18.136a7.253,7.253,0,0,0,0-7.2l-12.452-21.791" transform="translate(0 0.496)" fill="none" stroke="#ff694b" stroke-miterlimit="10" stroke-width="2"></path><path d="M1523.351,636.071a2.632,2.632,0,1,1-.979-3.59A2.632,2.632,0,0,1,1523.351,636.071Z" transform="translate(0 0.496)" fill="#ff694b"></path><polygon points="1568.13 558.245 1562.101 554.728 1562.069 561.708 1568.13 558.245" fill="#ff694b"></polygon><path d="M1390.486,660.156l12.42,21.736a7.255,7.255,0,0,0,6.3,3.655h24.807" transform="translate(0 0.496)" fill="none" stroke="#fff" stroke-miterlimit="10" stroke-width="2"></path><path d="M1388.2,661.462a2.632,2.632,0,1,1,3.591.979A2.632,2.632,0,0,1,1388.2,661.462Z" transform="translate(0 0.496)" fill="#fff"></path><polygon points="1432.991 689.533 1439.036 686.043 1432.991 682.553 1432.991 689.533" fill="#fff"></polygon><path d="M1521.066,685.547l12.42,21.735a7.255,7.255,0,0,0,6.3,3.656h24.808" transform="translate(0 0.496)" fill="none" stroke="#fff" stroke-miterlimit="10" stroke-width="2"></path><path d="M1518.781,686.853a2.632,2.632,0,1,1,3.591.979A2.632,2.632,0,0,1,1518.781,686.853Z" transform="translate(0 0.496)" fill="#fff"></path><polygon points="1563.572 714.924 1569.616 711.434 1563.572 707.943 1563.572 714.924" fill="#fff"></polygon><path d="M1477.539,710.938l12.452,21.791a7.251,7.251,0,0,1,0,7.2L1479.6,758.12a7.256,7.256,0,0,0,0,7.2l10.363,18.136a7.256,7.256,0,0,0,6.3,3.655h20.6a7.255,7.255,0,0,1,6.3,3.656l5.277,9.235" transform="translate(0 0.496)" fill="none" stroke="#01bbbb" stroke-miterlimit="10" stroke-width="2"></path><path d="M1475.254,712.243a2.632,2.632,0,1,1,3.591.98A2.632,2.632,0,0,1,1475.254,712.243Z" transform="translate(0 0.496)" fill="#01bbbb"></path><path d="M1346.959,685.547l12.42,21.735a7.254,7.254,0,0,0,6.3,3.656h20.6a7.251,7.251,0,0,1,6.3,3.655L1405,736.328" transform="translate(0 0.496)" fill="none" stroke="#fff" stroke-miterlimit="10" stroke-width="2"></path><path d="M1344.674,686.853a2.632,2.632,0,1,1,3.591.979A2.632,2.632,0,0,1,1344.674,686.853Z" transform="translate(0 0.496)" fill="#fff"></path><polygon points="1401.457 737.669 1407.487 741.186 1407.518 734.206 1401.457 737.669" fill="#fff"></polygon><path d="M1521.066,634.766l12.42,21.735a7.256,7.256,0,0,0,6.3,3.655h20.6a7.256,7.256,0,0,1,6.3,3.655l12.42,21.736" transform="translate(0 0.496)" fill="none" stroke="#ff694b" stroke-miterlimit="10" stroke-width="2"></path><path d="M1518.781,636.071a2.632,2.632,0,1,1,3.591.98A2.631,2.631,0,0,1,1518.781,636.071Z" transform="translate(0 0.496)" fill="#ff694b"></path><polygon points="1575.565 686.888 1581.594 690.405 1581.626 683.425 1575.565 686.888" fill="#ff694b"></polygon><path d="M1492.048,634.766,1479.6,612.974a7.256,7.256,0,0,1,0-7.2l10.363-18.136a7.255,7.255,0,0,1,6.3-3.656h24.808" transform="translate(0 0.496)" fill="none" stroke="#01bbbb" stroke-miterlimit="10" stroke-width="2"></path><path d="M1494.333,633.46a2.632,2.632,0,1,1-3.591-.979A2.632,2.632,0,0,1,1494.333,633.46Z" transform="translate(0 0.496)" fill="#01bbbb"></path><polygon points="1520.045 587.971 1526.089 584.481 1520.045 580.99 1520.045 587.971" fill="#01bbbb"></polygon><path d="M1303.432,0l12.42,21.735a7.255,7.255,0,0,0,6.3,3.656h20.6a7.256,7.256,0,0,1,6.3,3.655l10.363,18.136a7.251,7.251,0,0,1,0,7.2l-12.452,21.792" transform="translate(0 0.496)" fill="none" stroke="#fff" stroke-miterlimit="10" stroke-width="2"></path><polygon points="1344.435 74.05 1344.467 81.03 1350.496 77.513 1344.435 74.05" fill="#fff"></polygon><path d="M1521.066,787.109l12.452-21.791a7.251,7.251,0,0,0,0-7.2l-12.452-21.792" transform="translate(0 0.496)" fill="none" stroke="#01bbbb" stroke-miterlimit="10" stroke-width="2"></path><path d="M1523.351,788.415a2.632,2.632,0,1,1-.979-3.591A2.631,2.631,0,0,1,1523.351,788.415Z" transform="translate(0 0.496)" fill="#01bbbb"></path><polygon points="1524.603 735.979 1518.574 732.463 1518.542 739.443 1524.603 735.979" fill="#01bbbb"></polygon><path d="M1390.486,406.25l12.42-21.735a7.254,7.254,0,0,1,6.3-3.656h20.6a7.254,7.254,0,0,0,6.3-3.655l12.42-21.735" transform="translate(0 0.496)" fill="none" stroke="#fff" stroke-miterlimit="10" stroke-width="2"></path><path d="M1392.771,407.556a2.632,2.632,0,1,1-.979-3.591A2.632,2.632,0,0,1,1392.771,407.556Z" transform="translate(0 0.496)" fill="#fff"></path><polygon points="1451.045 358.583 1451.014 351.603 1444.984 355.12 1451.045 358.583" fill="#fff"></polygon><path d="M1477.539,457.031l12.42-21.735a7.256,7.256,0,0,1,6.3-3.655h20.6a7.255,7.255,0,0,0,6.3-3.656l10.363-18.136a7.251,7.251,0,0,0,0-7.2l-10.363-18.136a7.255,7.255,0,0,0-6.3-3.656h-20.6a7.256,7.256,0,0,1-6.3-3.655L1479.6,359.068a7.256,7.256,0,0,1,0-7.2l12.452-21.792" transform="translate(0 0.496)" fill="none" stroke="#01bbbb" stroke-miterlimit="10" stroke-width="2"></path><path d="M1479.824,458.337a2.632,2.632,0,1,1-.979-3.591A2.631,2.631,0,0,1,1479.824,458.337Z" transform="translate(0 0.496)" fill="#01bbbb"></path><polygon points="1494.572 333.193 1494.541 326.213 1488.511 329.729 1494.572 333.193" fill="#01bbbb"></polygon><path d="M1564.593,355.469l12.42-21.736a7.255,7.255,0,0,1,6.3-3.655H1600" transform="translate(0 0.496)" fill="none" stroke="#01bbbb" stroke-miterlimit="10" stroke-width="2"></path><path d="M1566.878,356.775a2.632,2.632,0,1,1-.979-3.591A2.633,2.633,0,0,1,1566.878,356.775Z" transform="translate(0 0.496)" fill="#01bbbb"></path><path d="M1434.012,380.859l12.421,21.736a7.254,7.254,0,0,0,6.3,3.655h24.808" transform="translate(0 0.496)" fill="none" stroke="#fff" stroke-miterlimit="10" stroke-width="2"></path><path d="M1431.727,382.165a2.632,2.632,0,1,1,3.591.979A2.632,2.632,0,0,1,1431.727,382.165Z" transform="translate(0 0.496)" fill="#fff"></path><polygon points="1476.518 410.237 1482.563 406.746 1476.518 403.256 1476.518 410.237" fill="#fff"></polygon><path d="M1564.593,406.25l12.42,21.735a7.254,7.254,0,0,0,6.3,3.656H1600" transform="translate(0 0.496)" fill="none" stroke="#01bbbb" stroke-miterlimit="10" stroke-width="2"></path><path d="M1562.308,407.556a2.632,2.632,0,1,1,3.591.979A2.632,2.632,0,0,1,1562.308,407.556Z" transform="translate(0 0.496)" fill="#01bbbb"></path><path d="M1521.066,431.641l12.452,21.791a7.251,7.251,0,0,1,0,7.2l-10.395,18.193a7.251,7.251,0,0,0,0,7.2l10.363,18.136a7.254,7.254,0,0,0,6.3,3.655h20.6a7.255,7.255,0,0,1,6.3,3.656L1579.1,533.2" transform="translate(0 0.496)" fill="none" stroke="#01bbbb" stroke-miterlimit="10" stroke-width="2"></path><path d="M1518.781,432.946a2.632,2.632,0,1,1,3.591.98A2.631,2.631,0,0,1,1518.781,432.946Z" transform="translate(0 0.496)" fill="#01bbbb"></path><polygon points="1575.565 534.544 1581.594 538.061 1581.626 531.081 1575.565 534.544" fill="#01bbbb"></polygon><path d="M1390.486,406.25l12.42,21.735a7.254,7.254,0,0,0,6.3,3.656h20.6a7.254,7.254,0,0,1,6.3,3.655l12.42,21.735" transform="translate(0 0.496)" fill="none" stroke="#fff" stroke-miterlimit="10" stroke-width="2"></path><path d="M1388.2,407.556a2.632,2.632,0,1,1,3.591.979A2.632,2.632,0,0,1,1388.2,407.556Z" transform="translate(0 0.496)" fill="#fff"></path><polygon points="1444.984 458.372 1451.014 461.889 1451.045 454.909 1444.984 458.372" fill="#fff"></polygon><path d="M1564.593,355.469l12.42,21.735a7.255,7.255,0,0,0,6.3,3.655H1600" transform="translate(0 0.496)" fill="none" stroke="#01bbbb" stroke-miterlimit="10" stroke-width="2"></path><path d="M1562.308,356.775a2.632,2.632,0,1,1,3.591.979A2.632,2.632,0,0,1,1562.308,356.775Z" transform="translate(0 0.496)" fill="#01bbbb"></path><path d="M1535.575,355.469l-12.452-21.792a7.251,7.251,0,0,1,0-7.2l10.363-18.136a7.254,7.254,0,0,1,6.3-3.655h24.808" transform="translate(0 0.496)" fill="none" stroke="#fff" stroke-miterlimit="10" stroke-width="2"></path><path d="M1537.86,354.163a2.632,2.632,0,1,1-3.591-.979A2.632,2.632,0,0,1,1537.86,354.163Z" transform="translate(0 0.496)" fill="#fff"></path><polygon points="1563.572 308.674 1569.616 305.184 1563.572 301.693 1563.572 308.674" fill="#fff"></polygon><path d="M1564.593,507.812l12.452-21.791a7.251,7.251,0,0,0,0-7.2l-12.452-21.792" transform="translate(0 0.496)" fill="none" stroke="#01bbbb" stroke-miterlimit="10" stroke-width="2"></path><path d="M1566.878,509.118a2.632,2.632,0,1,1-.979-3.591A2.632,2.632,0,0,1,1566.878,509.118Z" transform="translate(0 0.496)" fill="#01bbbb"></path><polygon points="1568.13 456.682 1562.101 453.166 1562.069 460.146 1568.13 456.682" fill="#01bbbb"></polygon><path d="M1390.486,558.594l12.452,21.791a7.258,7.258,0,0,1,0,7.2l-10.364,18.136a7.254,7.254,0,0,1-6.3,3.655h-24.808" transform="translate(0 0.496)" fill="none" stroke="#ff694b" stroke-miterlimit="10" stroke-width="2"></path><path d="M1388.2,559.9a2.632,2.632,0,1,1,3.591.979A2.632,2.632,0,0,1,1388.2,559.9Z" transform="translate(0 0.496)" fill="#ff694b"></path><polygon points="1362.489 606.381 1356.444 609.871 1362.489 613.362 1362.489 606.381" fill="#ff694b"></polygon><path d="M926.2,457.031l-12.452,21.792a7.251,7.251,0,0,0,0,7.2L926.2,507.812" transform="translate(0 0.496)" fill="none" stroke="#01bbbb" stroke-miterlimit="10" stroke-width="2"></path><path d="M923.915,455.725a2.632,2.632,0,1,1,.979,3.591A2.633,2.633,0,0,1,923.915,455.725Z" transform="translate(0 0.496)" fill="#01bbbb"></path><polygon points="922.663 509.154 928.692 512.67 928.724 505.69 922.663 509.154" fill="#01bbbb"></polygon><path d="M1172.852,380.859l12.42-21.735a7.255,7.255,0,0,1,6.3-3.655h20.6a7.254,7.254,0,0,0,6.3-3.655l12.42-21.736" transform="translate(0 0.496)" fill="none" stroke="#ff694b" stroke-miterlimit="10" stroke-width="2"></path><path d="M1175.137,382.165a2.632,2.632,0,1,1-.98-3.591A2.631,2.631,0,0,1,1175.137,382.165Z" transform="translate(0 0.496)" fill="#ff694b"></path><polygon points="1233.411 333.193 1233.38 326.213 1227.35 329.729 1233.411 333.193" fill="#ff694b"></polygon><path d="M1216.379,355.469,1228.8,377.2a7.254,7.254,0,0,0,6.3,3.655h24.808" transform="translate(0 0.496)" fill="none" stroke="#ff694b" stroke-miterlimit="10" stroke-width="2"></path><path d="M1214.094,356.775a2.632,2.632,0,1,1,3.59.979A2.631,2.631,0,0,1,1214.094,356.775Z" transform="translate(0 0.496)" fill="#ff694b"></path><polygon points="1258.884 384.846 1264.929 381.356 1258.884 377.865 1258.884 384.846" fill="#ff694b"></polygon><path d="M1172.852,380.859l12.42,21.736a7.255,7.255,0,0,0,6.3,3.655h20.6a7.254,7.254,0,0,1,6.3,3.655l12.42,21.736" transform="translate(0 0.496)" fill="none" stroke="#ff694b" stroke-miterlimit="10" stroke-width="2"></path><path d="M1170.567,382.165a2.632,2.632,0,1,1,3.59.979A2.632,2.632,0,0,1,1170.567,382.165Z" transform="translate(0 0.496)" fill="#ff694b"></path><polygon points="1227.35 432.982 1233.38 436.498 1233.411 429.518 1227.35 432.982" fill="#ff694b"></polygon><path d="M1187.361,406.25l-12.453,21.791a7.258,7.258,0,0,0,0,7.2l12.453,21.791" transform="translate(0 0.496)" fill="none" stroke="#ff694b" stroke-miterlimit="10" stroke-width="2"></path><path d="M1185.076,404.944a2.632,2.632,0,1,1,.979,3.591A2.632,2.632,0,0,1,1185.076,404.944Z" transform="translate(0 0.496)" fill="#ff694b"></path><polygon points="1183.823 458.372 1189.853 461.889 1189.885 454.909 1183.823 458.372" fill="#ff694b"></polygon><line x1="795.62" y1="381.356" x2="781.111" y2="406.746" fill="none" stroke="#fff" stroke-miterlimit="10" stroke-width="2"></line><path d="M793.335,379.554a2.632,2.632,0,1,1,.979,3.59A2.631,2.631,0,0,1,793.335,379.554Z" transform="translate(0 0.496)" fill="#fff"></path><polygon points="778.587 404.128 778.618 411.108 784.648 407.591 778.587 404.128" fill="#fff"></polygon><path d="M1172.852,228.516l12.42-21.736a7.255,7.255,0,0,1,6.3-3.655h20.6a7.254,7.254,0,0,0,6.3-3.655l12.42-21.736" transform="translate(0 0.496)" fill="none" stroke="#01bbbb" stroke-miterlimit="10" stroke-width="2"></path><path d="M1175.137,229.821a2.632,2.632,0,1,1-.98-3.59A2.632,2.632,0,0,1,1175.137,229.821Z" transform="translate(0 0.496)" fill="#01bbbb"></path><polygon points="1233.411 180.849 1233.38 173.869 1227.35 177.386 1233.411 180.849" fill="#01bbbb"></polygon><path d="M1259.905,279.3l12.421-21.736a7.254,7.254,0,0,1,6.3-3.655h20.6a7.255,7.255,0,0,0,6.3-3.655l10.363-18.136a7.253,7.253,0,0,0,0-7.2l-10.363-18.136a7.255,7.255,0,0,0-6.3-3.655h-20.6a7.254,7.254,0,0,1-6.3-3.655l-10.364-18.136a7.258,7.258,0,0,1,0-7.2l12.452-21.791" transform="translate(0 0.496)" fill="none" stroke="#01bbbb" stroke-miterlimit="10" stroke-width="2"></path><path d="M1262.19,280.6a2.632,2.632,0,1,1-.979-3.591A2.632,2.632,0,0,1,1262.19,280.6Z" transform="translate(0 0.496)" fill="#01bbbb"></path><polygon points="1276.938 155.458 1276.907 148.478 1270.877 151.995 1276.938 155.458" fill="#01bbbb"></polygon><path d="M1346.959,177.734,1359.379,156a7.255,7.255,0,0,1,6.3-3.655h20.6a7.254,7.254,0,0,0,6.3-3.655l10.364-18.137a7.256,7.256,0,0,0,0-7.2l-12.452-21.792" transform="translate(0 0.496)" fill="none" stroke="#fff" stroke-miterlimit="10" stroke-width="2"></path><path d="M1349.244,179.04a2.632,2.632,0,1,1-.979-3.591A2.631,2.631,0,0,1,1349.244,179.04Z" transform="translate(0 0.496)" fill="#fff"></path><polygon points="1394.023 101.214 1387.993 97.697 1387.962 104.677 1394.023 101.214" fill="#fff"></polygon><path d="M1216.379,203.125l12.42,21.735a7.252,7.252,0,0,0,6.3,3.656h24.808" transform="translate(0 0.496)" fill="none" stroke="#01bbbb" stroke-miterlimit="10" stroke-width="2"></path><path d="M1214.094,204.431a2.632,2.632,0,1,1,3.59.979A2.631,2.631,0,0,1,1214.094,204.431Z" transform="translate(0 0.496)" fill="#01bbbb"></path><polygon points="1258.884 232.502 1264.929 229.012 1258.884 225.521 1258.884 232.502" fill="#01bbbb"></polygon><path d="M1346.959,228.516l12.42,21.735a7.255,7.255,0,0,0,6.3,3.655h24.808" transform="translate(0 0.496)" fill="none" stroke="#01bbbb" stroke-miterlimit="10" stroke-width="2"></path><path d="M1344.674,229.821a2.632,2.632,0,1,1,3.591.98A2.631,2.631,0,0,1,1344.674,229.821Z" transform="translate(0 0.496)" fill="#01bbbb"></path><polygon points="1389.464 257.893 1395.509 254.402 1389.464 250.912 1389.464 257.893" fill="#01bbbb"></polygon><path d="M1303.432,253.906l12.452,21.792a7.251,7.251,0,0,1,0,7.2l-10.395,18.192a7.253,7.253,0,0,0,0,7.2l10.363,18.136a7.256,7.256,0,0,0,6.3,3.655h20.6a7.256,7.256,0,0,1,6.3,3.655l12.42,21.736" transform="translate(0 0.496)" fill="none" stroke="#01bbbb" stroke-miterlimit="10" stroke-width="2"></path><path d="M1301.147,255.212a2.632,2.632,0,1,1,3.591.979A2.633,2.633,0,0,1,1301.147,255.212Z" transform="translate(0 0.496)" fill="#01bbbb"></path><polygon points="1357.931 356.81 1363.96 360.326 1363.992 353.346 1357.931 356.81" fill="#01bbbb"></polygon><path d="M1172.852,228.516l12.42,21.735a7.255,7.255,0,0,0,6.3,3.655h20.6a7.254,7.254,0,0,1,6.3,3.655l12.42,21.736" transform="translate(0 0.496)" fill="none" stroke="#01bbbb" stroke-miterlimit="10" stroke-width="2"></path><path d="M1170.567,229.821a2.632,2.632,0,1,1,3.59.98A2.631,2.631,0,0,1,1170.567,229.821Z" transform="translate(0 0.496)" fill="#01bbbb"></path><polygon points="1227.35 280.638 1233.38 284.155 1233.411 277.175 1227.35 280.638" fill="#01bbbb"></polygon><path d="M1434.012,228.516l12.421-21.736a7.254,7.254,0,0,1,6.3-3.655h20.6a7.255,7.255,0,0,0,6.3-3.655l10.363-18.136a7.253,7.253,0,0,0,0-7.2L1479.628,156a7.255,7.255,0,0,0-6.3-3.655h-20.6a7.254,7.254,0,0,1-6.3-3.655l-12.421-21.736" transform="translate(0 0.496)" fill="none" stroke="#ff694b" stroke-miterlimit="10" stroke-width="2"></path><path d="M1436.3,229.821a2.632,2.632,0,1,1-.98-3.59A2.632,2.632,0,0,1,1436.3,229.821Z" transform="translate(0 0.496)" fill="#ff694b"></path><polygon points="1437.55 126.604 1431.52 123.088 1431.489 130.068 1437.55 126.604" fill="#ff694b"></polygon><path d="M1346.959,177.734l12.42,21.736a7.255,7.255,0,0,0,6.3,3.655h20.6a7.254,7.254,0,0,1,6.3,3.655L1405,228.516" transform="translate(0 0.496)" fill="none" stroke="#fff" stroke-miterlimit="10" stroke-width="2"></path><path d="M1344.674,179.04a2.632,2.632,0,1,1,3.591.979A2.632,2.632,0,0,1,1344.674,179.04Z" transform="translate(0 0.496)" fill="#fff"></path><polygon points="1401.457 229.857 1407.487 233.373 1407.518 226.393 1401.457 229.857" fill="#fff"></polygon><path d="M1317.941,177.734l-12.452-21.791a7.251,7.251,0,0,1,0-7.2l10.363-18.137a7.256,7.256,0,0,1,6.3-3.655h24.808" transform="translate(0 0.496)" fill="none" stroke="#01bbbb" stroke-miterlimit="10" stroke-width="2"></path><path d="M1320.226,176.429a2.632,2.632,0,1,1-3.591-.98A2.631,2.631,0,0,1,1320.226,176.429Z" transform="translate(0 0.496)" fill="#01bbbb"></path><polygon points="1345.938 130.94 1351.982 127.449 1345.938 123.959 1345.938 130.94" fill="#01bbbb"></polygon><path d="M1317.941,126.953l-12.42-21.735a7.254,7.254,0,0,0-6.3-3.656h-24.808" transform="translate(0 0.496)" fill="none" stroke="#01bbbb" stroke-miterlimit="10" stroke-width="2"></path><path d="M1320.226,125.647a2.632,2.632,0,1,1-3.591-.979A2.632,2.632,0,0,1,1320.226,125.647Z" transform="translate(0 0.496)" fill="#01bbbb"></path><polygon points="1275.436 98.568 1269.391 102.059 1275.436 105.549 1275.436 98.568" fill="#01bbbb"></polygon><path d="M1434.012,76.172h-24.807a7.255,7.255,0,0,1-6.3-3.655l-12.42-21.736" transform="translate(0 0.496)" fill="none" stroke="#01bbbb" stroke-miterlimit="10" stroke-width="2"></path><path d="M1434.012,73.54a2.632,2.632,0,1,1-2.631,2.632A2.632,2.632,0,0,1,1434.012,73.54Z" transform="translate(0 0.496)" fill="#01bbbb"></path><polygon points="1394.023 50.432 1387.993 46.916 1387.962 53.896 1394.023 50.432" fill="#01bbbb"></polygon><path d="M1346.959,330.078l12.452-21.791a7.253,7.253,0,0,0,0-7.2L1346.959,279.3" transform="translate(0 0.496)" fill="none" stroke="#01bbbb" stroke-miterlimit="10" stroke-width="2"></path><path d="M1349.244,331.384a2.632,2.632,0,1,1-.979-3.591A2.632,2.632,0,0,1,1349.244,331.384Z" transform="translate(0 0.496)" fill="#01bbbb"></path><polygon points="1350.496 278.948 1344.467 275.432 1344.435 282.411 1350.496 278.948" fill="#01bbbb"></polygon><path d="M1216.379,50.781l12.42-21.735a7.254,7.254,0,0,1,6.3-3.655h20.6a7.253,7.253,0,0,0,6.3-3.656L1274.414,0" transform="translate(0 0.496)" fill="none" stroke="#fff" stroke-miterlimit="10" stroke-width="2"></path><path d="M1218.664,52.087a2.632,2.632,0,1,1-.98-3.591A2.632,2.632,0,0,1,1218.664,52.087Z" transform="translate(0 0.496)" fill="#fff"></path><path d="M1259.905,25.391l12.421,21.735a7.254,7.254,0,0,0,6.3,3.655h24.808" transform="translate(0 0.496)" fill="none" stroke="#fff" stroke-miterlimit="10" stroke-width="2"></path><path d="M1257.62,26.7a2.632,2.632,0,1,1,3.591.98A2.631,2.631,0,0,1,1257.62,26.7Z" transform="translate(0 0.496)" fill="#fff"></path><polygon points="1302.411 54.768 1308.455 51.277 1302.411 47.787 1302.411 54.768" fill="#fff"></polygon><path d="M1216.379,50.781l12.452,21.792a7.256,7.256,0,0,1,0,7.2l-10.4,18.192a7.258,7.258,0,0,0,0,7.2l12.452,21.791" transform="translate(0 0.496)" fill="none" stroke="#fff" stroke-miterlimit="10" stroke-width="2"></path><path d="M1214.094,52.087a2.632,2.632,0,1,1,3.59.979A2.631,2.631,0,0,1,1214.094,52.087Z" transform="translate(0 0.496)" fill="#fff"></path><polygon points="1227.35 128.294 1233.38 131.811 1233.411 124.831 1227.35 128.294" fill="#fff"></polygon><path d="M1434.012,76.172l12.421-21.736a7.254,7.254,0,0,1,6.3-3.655h20.6a7.255,7.255,0,0,0,6.3-3.655l12.42-21.735" transform="translate(0 0.496)" fill="none" stroke="#01bbbb" stroke-miterlimit="10" stroke-width="2"></path><path d="M1436.3,77.478a2.632,2.632,0,1,1-.98-3.591A2.633,2.633,0,0,1,1436.3,77.478Z" transform="translate(0 0.496)" fill="#01bbbb"></path><polygon points="1494.572 28.505 1494.541 21.525 1488.511 25.042 1494.572 28.505" fill="#01bbbb"></polygon><path d="M1434.012,76.172l12.421,21.735a7.251,7.251,0,0,0,6.3,3.655h20.6a7.254,7.254,0,0,1,6.3,3.656l12.42,21.735" transform="translate(0 0.496)" fill="none" stroke="#01bbbb" stroke-miterlimit="10" stroke-width="2"></path><path d="M1431.727,77.478a2.632,2.632,0,1,1,3.591.979A2.632,2.632,0,0,1,1431.727,77.478Z" transform="translate(0 0.496)" fill="#01bbbb"></path><polygon points="1488.511 128.294 1494.541 131.811 1494.572 124.831 1488.511 128.294" fill="#01bbbb"></polygon><path d="M1434.012,228.516l12.453,21.791a7.256,7.256,0,0,1,0,7.2L1436.1,275.642a7.254,7.254,0,0,1-6.3,3.655H1405" transform="translate(0 0.496)" fill="none" stroke="#ff694b" stroke-miterlimit="10" stroke-width="2"></path><path d="M1431.727,229.821a2.632,2.632,0,1,1,3.591.98A2.631,2.631,0,0,1,1431.727,229.821Z" transform="translate(0 0.496)" fill="#ff694b"></path><polygon points="1406.016 276.303 1399.971 279.793 1406.016 283.283 1406.016 276.303" fill="#ff694b"></polygon><line x1="1274.414" y1="305.184" x2="1259.905" y2="330.574" fill="none" stroke="#fff" stroke-miterlimit="10" stroke-width="2"></line><path d="M1272.129,303.382a2.632,2.632,0,1,1,.98,3.591A2.632,2.632,0,0,1,1272.129,303.382Z" transform="translate(0 0.496)" fill="#fff"></path><polygon points="1257.381 327.956 1257.413 334.936 1263.443 331.419 1257.381 327.956" fill="#fff"></polygon><line x1="1143.834" y1="482.918" x2="1129.325" y2="508.309" fill="none" stroke="#fff" stroke-miterlimit="10" stroke-width="2"></line><path d="M1141.549,481.116a2.632,2.632,0,1,1,.979,3.591A2.632,2.632,0,0,1,1141.549,481.116Z" transform="translate(0 0.496)" fill="#fff"></path><polygon points="1126.801 505.69 1126.833 512.67 1132.862 509.154 1126.801 505.69" fill="#fff"></polygon><path d="M1361.468,406.25l-12.42-21.735a7.255,7.255,0,0,0-6.3-3.656h-20.6a7.256,7.256,0,0,1-6.3-3.655l-12.42-21.735" transform="translate(0 0.496)" fill="none" stroke="#01bbbb" stroke-miterlimit="10" stroke-width="2"></path><path d="M1363.753,404.944a2.632,2.632,0,1,1-3.591-.979A2.633,2.633,0,0,1,1363.753,404.944Z" transform="translate(0 0.496)" fill="#01bbbb"></path><polygon points="1306.969 355.12 1300.94 351.603 1300.908 358.583 1306.969 355.12" fill="#01bbbb"></polygon><path d="M1390.486,355.469l12.42-21.736a7.255,7.255,0,0,1,6.3-3.655h20.6a7.254,7.254,0,0,0,6.3-3.655l12.42-21.735" transform="translate(0 0.496)" fill="none" stroke="#01bbbb" stroke-miterlimit="10" stroke-width="2"></path><path d="M1392.771,356.775a2.632,2.632,0,1,1-.979-3.591A2.633,2.633,0,0,1,1392.771,356.775Z" transform="translate(0 0.496)" fill="#01bbbb"></path><polygon points="1451.045 307.802 1451.014 300.822 1444.984 304.339 1451.045 307.802" fill="#01bbbb"></polygon><line x1="1317.941" y1="381.356" x2="1303.432" y2="406.746" fill="none" stroke="#01bbbb" stroke-miterlimit="10" stroke-width="2"></line><path d="M1315.656,379.554a2.632,2.632,0,1,1,.979,3.59A2.632,2.632,0,0,1,1315.656,379.554Z" transform="translate(0 0.496)" fill="#01bbbb"></path><polygon points="1300.908 404.128 1300.94 411.108 1306.969 407.591 1300.908 404.128" fill="#01bbbb"></polygon></g><g id="mask"><rect y="0.496" width="1600" height="800" fill="url(#linear-gradient)"></rect><rect y="0.496" width="1600" height="800" fill="url(#linear-gradient-2)"></rect></g></svg>
