<svg viewBox="0 0 1600 800.992" xmlns="http://www.w3.org/2000/svg" xmlns:xlink="http://www.w3.org/1999/xlink"><linearGradient id="a" gradientUnits="userSpaceOnUse" x2="1600" y1="400.496" y2="400.496"><stop offset=".4" stop-color="#f9fafb"/><stop offset=".9" stop-color="#f9fafb" stop-opacity="0"/></linearGradient><linearGradient id="b" gradientUnits="userSpaceOnUse" x1="800" x2="800" y1="800.496" y2=".496"><stop offset="0" stop-color="#f9fafb"/><stop offset=".9" stop-color="#f9fafb" stop-opacity="0"/></linearGradient><path d="m0 .496h1600v800h-1600z" fill="#f9fafb"/><path d="m694.057 304.688 12.42-21.736a7.256 7.256 0 0 1 6.3-3.655h20.6a7.256 7.256 0 0 0 6.3-3.655l12.42-21.736" fill="none" stroke="#ff694b" stroke-miterlimit="10" stroke-width="2" transform="translate(0 .496)"/><path d="m696.342 305.993a2.632 2.632 0 1 1 -.979-3.591 2.632 2.632 0 0 1 .979 3.591z" fill="#ff694b" transform="translate(0 .496)"/><path d="m754.617 257.021-.032-6.98-6.029 3.516z" fill="#ff694b"/><path d="m781.111 355.469 12.42-21.736a7.255 7.255 0 0 1 6.3-3.655h20.6a7.254 7.254 0 0 0 6.3-3.655l10.364-18.136a7.258 7.258 0 0 0 0-7.2l-10.364-18.136a7.254 7.254 0 0 0 -6.3-3.655h-20.6a7.255 7.255 0 0 1 -6.3-3.655l-10.364-18.137a7.256 7.256 0 0 1 0-7.2l12.453-21.791" fill="none" stroke="#01bbbb" stroke-miterlimit="10" stroke-width="2" transform="translate(0 .496)"/><path d="m783.4 356.775a2.632 2.632 0 1 1 -.98-3.591 2.633 2.633 0 0 1 .98 3.591z" fill="#01bbbb" transform="translate(0 .496)"/><path d="m798.143 231.63-.031-6.98-6.03 3.517z" fill="#01bbbb"/><path d="m868.164 253.906 12.421-21.735a7.254 7.254 0 0 1 6.3-3.655h20.6a7.255 7.255 0 0 0 6.3-3.656l10.363-18.136a7.251 7.251 0 0 0 0-7.2l-12.452-21.792" fill="none" stroke="#01bbbb" stroke-miterlimit="10" stroke-width="2" transform="translate(0 .496)"/><path d="m870.449 255.212a2.632 2.632 0 1 1 -.979-3.591 2.631 2.631 0 0 1 .979 3.591z" fill="#01bbbb" transform="translate(0 .496)"/><path d="m915.228 177.386-6.029-3.517-.032 6.98z" fill="#01bbbb"/><path d="m737.584 279.3 12.416 21.732a7.254 7.254 0 0 0 6.3 3.656h24.808" fill="none" stroke="#ff694b" stroke-miterlimit="10" stroke-width="2" transform="translate(0 .496)"/><path d="m735.3 280.6a2.632 2.632 0 1 1 3.591.979 2.632 2.632 0 0 1 -3.591-.979z" fill="#ff694b" transform="translate(0 .496)"/><path d="m780.089 308.674 6.045-3.49-6.045-3.491z" fill="#ff694b"/><path d="m868.164 304.688 12.421 21.735a7.254 7.254 0 0 0 6.3 3.655h24.808" fill="none" stroke="#ff694b" stroke-miterlimit="10" stroke-width="2" transform="translate(0 .496)"/><path d="m865.879 305.993a2.632 2.632 0 1 1 3.591.98 2.632 2.632 0 0 1 -3.591-.98z" fill="#ff694b" transform="translate(0 .496)"/><path d="m910.67 334.065 6.044-3.491-6.044-3.49z" fill="#ff694b"/><path d="m824.638 330.078 12.452 21.792a7.256 7.256 0 0 1 0 7.2l-10.4 18.192a7.258 7.258 0 0 0 0 7.2l10.368 18.138a7.254 7.254 0 0 0 6.3 3.655h20.6a7.255 7.255 0 0 1 6.3 3.655l12.42 21.736" fill="none" stroke="#01bbbb" stroke-miterlimit="10" stroke-width="2" transform="translate(0 .496)"/><path d="m822.352 331.384a2.632 2.632 0 1 1 3.591.979 2.632 2.632 0 0 1 -3.591-.979z" fill="#01bbbb" transform="translate(0 .496)"/><path d="m879.136 432.982 6.03 3.516.031-6.98z" fill="#01bbbb"/><path d="m694.057 304.688 12.42 21.735a7.256 7.256 0 0 0 6.3 3.655h20.6a7.256 7.256 0 0 1 6.3 3.655l12.42 21.736" fill="none" stroke="#ff694b" stroke-miterlimit="10" stroke-width="2" transform="translate(0 .496)"/><circle cx="694.057" cy="304.687" fill="#ff694b" r="2.632" transform="matrix(.97927587 -.20253093 .20253093 .97927587 -47.324 147.376)"/><path d="m748.556 356.81 6.029 3.516.032-6.98z" fill="#ff694b"/><path d="m955.218 304.688 12.42-21.736a7.255 7.255 0 0 1 6.3-3.655h20.6a7.254 7.254 0 0 0 6.3-3.655l10.364-18.137a7.256 7.256 0 0 0 0-7.2l-10.364-18.136a7.254 7.254 0 0 0 -6.3-3.655h-20.6a7.254 7.254 0 0 1 -6.3-3.656l-12.42-21.735" fill="none" stroke="#fff" stroke-miterlimit="10" stroke-width="2" transform="translate(0 .496)"/><path d="m957.5 305.993a2.632 2.632 0 1 1 -.979-3.591 2.632 2.632 0 0 1 .979 3.591z" fill="#fff" transform="translate(0 .496)"/><path d="m958.755 202.776-6.029-3.516-.032 6.98z" fill="#fff"/><path d="m998.745 279.3 12.42 21.735a7.253 7.253 0 0 0 6.3 3.656h20.6a7.254 7.254 0 0 0 6.3-3.656l10.332-18.08a7.254 7.254 0 0 1 6.3-3.655h24.803" fill="none" stroke="#fff" stroke-miterlimit="10" stroke-width="2" transform="translate(0 .496)"/><circle cx="998.745" cy="279.297" fill="#fff" r="2.632" transform="matrix(.97927587 -.20253093 .20253093 .97927587 -35.868 208.558)"/><path d="m1084.777 283.283 6.045-3.49-6.045-3.49z" fill="#fff"/><path d="m868.164 253.906 12.421 21.736a7.254 7.254 0 0 0 6.3 3.655h20.6a7.256 7.256 0 0 1 6.3 3.655l12.42 21.736" fill="none" stroke="#01bbbb" stroke-miterlimit="10" stroke-width="2" transform="translate(0 .496)"/><path d="m865.879 255.212a2.632 2.632 0 1 1 3.591.979 2.632 2.632 0 0 1 -3.591-.979z" fill="#01bbbb" transform="translate(0 .496)"/><path d="m922.663 306.029 6.029 3.516.032-6.98z" fill="#01bbbb"/><path d="m839.146 253.906-12.452-21.791a7.258 7.258 0 0 1 0-7.2l10.364-18.136a7.254 7.254 0 0 1 6.3-3.655h24.808" fill="none" stroke="#fff" stroke-miterlimit="10" stroke-width="2" transform="translate(0 .496)"/><path d="m841.432 252.6a2.632 2.632 0 1 1 -3.591-.979 2.632 2.632 0 0 1 3.591.979z" fill="#fff" transform="translate(0 .496)"/><path d="m867.143 207.112 6.045-3.491-6.045-3.49z" fill="#fff"/><path d="m839.146 203.125-12.42-21.735a7.252 7.252 0 0 0 -6.3-3.656h-24.806" fill="none" stroke="#fff" stroke-miterlimit="10" stroke-width="2" transform="translate(0 .496)"/><path d="m841.432 201.819a2.632 2.632 0 1 1 -3.591-.979 2.632 2.632 0 0 1 3.591.979z" fill="#fff" transform="translate(0 .496)"/><path d="m796.641 174.74-6.045 3.491 6.045 3.49z" fill="#fff"/><path d="m955.218 152.344h-24.808a7.256 7.256 0 0 1 -6.3-3.655l-12.42-21.736" fill="none" stroke="#ff694b" stroke-miterlimit="10" stroke-width="2" transform="translate(0 .496)"/><path d="m955.218 149.712a2.632 2.632 0 1 1 -2.632 2.632 2.632 2.632 0 0 1 2.632-2.632z" fill="#ff694b" transform="translate(0 .496)"/><path d="m915.228 126.604-6.029-3.516-.032 6.98z" fill="#ff694b"/><path d="m868.164 406.25 12.453-21.791a7.258 7.258 0 0 0 0-7.2l-12.453-21.791" fill="none" stroke="#01bbbb" stroke-miterlimit="10" stroke-width="2" transform="translate(0 .496)"/><circle cx="868.164" cy="406.25" fill="#01bbbb" r="2.632" transform="matrix(.38650171 -.92228869 .92228869 .38650171 157.942 1050.432)"/><path d="m871.702 355.12-6.03-3.517-.032 6.98z" fill="#01bbbb"/><path d="m911.691 431.641 12.42-21.736a7.256 7.256 0 0 1 6.3-3.655h20.6a7.256 7.256 0 0 0 6.3-3.655l12.42-21.736" fill="none" stroke="#01bbbb" stroke-miterlimit="10" stroke-width="2" transform="translate(0 .496)"/><path d="m913.976 432.946a2.632 2.632 0 1 1 -.979-3.59 2.632 2.632 0 0 1 .979 3.59z" fill="#01bbbb" transform="translate(0 .496)"/><path d="m972.251 383.974-.032-6.98-6.029 3.517z" fill="#01bbbb"/><path d="m998.745 482.422 12.42-21.736a7.254 7.254 0 0 1 6.3-3.655h20.6a7.255 7.255 0 0 0 6.3-3.655l10.364-18.136a7.258 7.258 0 0 0 0-7.2l-10.364-18.136a7.255 7.255 0 0 0 -6.3-3.655h-20.6a7.254 7.254 0 0 1 -6.3-3.655l-10.365-18.135a7.258 7.258 0 0 1 0-7.2l12.453-21.791" fill="none" stroke="#ff694b" stroke-miterlimit="10" stroke-width="2" transform="translate(0 .496)"/><path d="m1001.03 483.728a2.632 2.632 0 1 1 -.98-3.591 2.633 2.633 0 0 1 .98 3.591z" fill="#ff694b" transform="translate(0 .496)"/><path d="m1015.777 358.583-.031-6.98-6.03 3.517z" fill="#ff694b"/><path d="m1085.8 380.859 12.42-21.735a7.256 7.256 0 0 1 6.3-3.655h20.6a7.256 7.256 0 0 0 6.3-3.655l10.363-18.137a7.251 7.251 0 0 0 0-7.2l-12.452-21.791" fill="none" stroke="#01bbbb" stroke-miterlimit="10" stroke-width="2" transform="translate(0 .496)"/><path d="m1088.083 382.165a2.632 2.632 0 1 1 -.979-3.591 2.631 2.631 0 0 1 .979 3.591z" fill="#01bbbb" transform="translate(0 .496)"/><path d="m1132.862 304.339-6.029-3.517-.032 6.98z" fill="#01bbbb"/><path d="m955.218 406.25 12.42 21.735a7.254 7.254 0 0 0 6.3 3.656h24.808" fill="none" stroke="#01bbbb" stroke-miterlimit="10" stroke-width="2" transform="translate(0 .496)"/><path d="m952.933 407.556a2.632 2.632 0 1 1 3.591.979 2.632 2.632 0 0 1 -3.591-.979z" fill="#01bbbb" transform="translate(0 .496)"/><path d="m997.723 435.627 6.045-3.49-6.045-3.491z" fill="#01bbbb"/><path d="m1085.8 431.641 12.42 21.735a7.256 7.256 0 0 0 6.3 3.655h20.6a7.256 7.256 0 0 1 6.3 3.655l10.331 18.081a7.256 7.256 0 0 0 6.3 3.655h24.808" fill="none" stroke="#fff" stroke-miterlimit="10" stroke-width="2" transform="translate(0 .496)"/><path d="m1083.513 432.946a2.632 2.632 0 1 1 3.591.98 2.632 2.632 0 0 1 -3.591-.98z" fill="#fff" transform="translate(0 .496)"/><path d="m1171.83 486.408 6.045-3.49-6.045-3.49z" fill="#fff"/><path d="m1042.271 457.031 12.453 21.792a7.256 7.256 0 0 1 0 7.2l-10.4 18.192a7.258 7.258 0 0 0 0 7.2l10.364 18.136a7.254 7.254 0 0 0 6.3 3.655h20.6a7.255 7.255 0 0 1 6.3 3.655l10.362 18.139a7.251 7.251 0 0 1 0 7.2l-10.363 18.136a7.255 7.255 0 0 1 -6.3 3.655h-24.807" fill="none" stroke="#ff694b" stroke-miterlimit="10" stroke-width="2" transform="translate(0 .496)"/><path d="m1039.986 458.337a2.632 2.632 0 1 1 3.591.979 2.632 2.632 0 0 1 -3.591-.979z" fill="#ff694b" transform="translate(0 .496)"/><path d="m1057.802 580.99-6.045 3.491 6.045 3.49z" fill="#ff694b"/><path d="m911.691 431.641 12.42 21.735a7.256 7.256 0 0 0 6.3 3.655h20.6a7.256 7.256 0 0 1 6.3 3.655l12.42 21.736" fill="none" stroke="#01bbbb" stroke-miterlimit="10" stroke-width="2" transform="translate(0 .496)"/><path d="m909.406 432.946a2.632 2.632 0 1 1 3.591.98 2.631 2.631 0 0 1 -3.591-.98z" fill="#01bbbb" transform="translate(0 .496)"/><path d="m966.19 483.763 6.029 3.517.032-6.98z" fill="#01bbbb"/><path d="m1085.8 380.859 12.42 21.736a7.256 7.256 0 0 0 6.3 3.655h20.6a7.256 7.256 0 0 1 6.3 3.655l12.42 21.736" fill="none" stroke="#01bbbb" stroke-miterlimit="10" stroke-width="2" transform="translate(0 .496)"/><path d="m1083.513 382.165a2.632 2.632 0 1 1 3.591.979 2.633 2.633 0 0 1 -3.591-.979z" fill="#01bbbb" transform="translate(0 .496)"/><path d="m1140.297 432.982 6.029 3.516.032-6.98z" fill="#01bbbb"/><path d="m1056.78 380.859-12.452-21.791a7.256 7.256 0 0 1 0-7.2l10.364-18.137a7.254 7.254 0 0 1 6.3-3.655h24.808" fill="none" stroke="#01bbbb" stroke-miterlimit="10" stroke-width="2" transform="translate(0 .496)"/><path d="m1059.065 379.554a2.632 2.632 0 1 1 -3.59-.98 2.631 2.631 0 0 1 3.59.98z" fill="#01bbbb" transform="translate(0 .496)"/><path d="m1084.777 334.065 6.045-3.491-6.045-3.49z" fill="#01bbbb"/><path d="m1492.048 279.3-12.448-21.795a7.256 7.256 0 0 1 0-7.2l10.363-18.136a7.256 7.256 0 0 1 6.3-3.655h24.808" fill="none" stroke="#01bbbb" stroke-miterlimit="10" stroke-width="2" transform="translate(0 .496)"/><path d="m1494.333 277.991a2.632 2.632 0 1 1 -3.591-.979 2.632 2.632 0 0 1 3.591.979z" fill="#01bbbb" transform="translate(0 .496)"/><path d="m1520.045 232.502 6.044-3.49-6.044-3.491z" fill="#01bbbb"/><path d="m1085.8 533.2 12.452-21.791a7.253 7.253 0 0 0 0-7.2l-12.452-21.787" fill="none" stroke="#ff694b" stroke-miterlimit="10" stroke-width="2" transform="translate(0 .496)"/><path d="m1088.083 534.509a2.632 2.632 0 1 1 -.979-3.591 2.632 2.632 0 0 1 .979 3.591z" fill="#ff694b" transform="translate(0 .496)"/><path d="m1089.335 482.073-6.029-3.516-.032 6.979z" fill="#ff694b"/><path d="m955.218 152.344 12.42-21.736a7.255 7.255 0 0 1 6.3-3.655h20.6a7.254 7.254 0 0 0 6.3-3.655l12.421-21.736" fill="none" stroke="#ff694b" stroke-miterlimit="10" stroke-width="2" transform="translate(0 .496)"/><path d="m957.5 153.65a2.632 2.632 0 1 1 -.979-3.591 2.633 2.633 0 0 1 .979 3.591z" fill="#ff694b" transform="translate(0 .496)"/><path d="m1015.777 104.677-.031-6.98-6.03 3.517z" fill="#ff694b"/><path d="m1042.271 203.125 12.421-21.735a7.252 7.252 0 0 1 6.3-3.656h20.6a7.255 7.255 0 0 0 6.3-3.655l10.363-18.136a7.251 7.251 0 0 0 0-7.2l-10.363-18.137a7.255 7.255 0 0 0 -6.3-3.655h-20.6a7.254 7.254 0 0 1 -6.3-3.655l-10.364-18.136a7.258 7.258 0 0 1 0-7.2l12.452-21.791" fill="none" stroke="#01bbbb" stroke-miterlimit="10" stroke-width="2" transform="translate(0 .496)"/><path d="m1044.557 204.431a2.632 2.632 0 1 1 -.98-3.591 2.632 2.632 0 0 1 .98 3.591z" fill="#01bbbb" transform="translate(0 .496)"/><path d="m1059.304 79.286-.031-6.979-6.03 3.516z" fill="#01bbbb"/><path d="m1129.325 101.562 12.42-21.735a7.256 7.256 0 0 1 6.3-3.655h20.6a7.256 7.256 0 0 0 6.3-3.655l10.355-18.137a7.256 7.256 0 0 0 0-7.2l-12.452-21.791" fill="none" stroke="#ff694b" stroke-miterlimit="10" stroke-width="2" transform="translate(0 .496)"/><path d="m1131.61 102.868a2.632 2.632 0 1 1 -.979-3.591 2.632 2.632 0 0 1 .979 3.591z" fill="#ff694b" transform="translate(0 .496)"/><path d="m1176.389 25.042-6.03-3.517-.031 6.98z" fill="#ff694b"/><path d="m998.745 126.953 12.42 21.736a7.254 7.254 0 0 0 6.3 3.655h24.807" fill="none" stroke="#ff694b" stroke-miterlimit="10" stroke-width="2" transform="translate(0 .496)"/><path d="m996.46 128.259a2.632 2.632 0 1 1 3.59.979 2.632 2.632 0 0 1 -3.59-.979z" fill="#ff694b" transform="translate(0 .496)"/><path d="m1041.25 156.33 6.045-3.49-6.045-3.491z" fill="#ff694b"/><path d="m1129.325 152.344 12.42 21.735a7.256 7.256 0 0 0 6.3 3.655h24.808" fill="none" stroke="#fff" stroke-miterlimit="10" stroke-width="2" transform="translate(0 .496)"/><path d="m1127.04 153.65a2.632 2.632 0 1 1 3.591.979 2.632 2.632 0 0 1 -3.591-.979z" fill="#fff" transform="translate(0 .496)"/><path d="m1171.83 181.721 6.045-3.49-6.045-3.491z" fill="#fff"/><path d="m1085.8 177.734 12.452 21.792a7.251 7.251 0 0 1 0 7.2l-10.395 18.192a7.253 7.253 0 0 0 0 7.2l10.363 18.136a7.256 7.256 0 0 0 6.3 3.655h20.6a7.256 7.256 0 0 1 6.3 3.655l12.42 21.736" fill="none" stroke="#01bbbb" stroke-miterlimit="10" stroke-width="2" transform="translate(0 .496)"/><path d="m1083.513 179.04a2.632 2.632 0 1 1 3.591.979 2.633 2.633 0 0 1 -3.591-.979z" fill="#01bbbb" transform="translate(0 .496)"/><path d="m1140.297 280.638 6.029 3.517.032-6.98z" fill="#01bbbb"/><path d="m955.218 152.344 12.42 21.735a7.255 7.255 0 0 0 6.3 3.655h20.6a7.252 7.252 0 0 1 6.3 3.656l12.421 21.735" fill="none" stroke="#ff694b" stroke-miterlimit="10" stroke-width="2" transform="translate(0 .496)"/><path d="m952.933 153.65a2.632 2.632 0 1 1 3.591.979 2.632 2.632 0 0 1 -3.591-.979z" fill="#ff694b" transform="translate(0 .496)"/><path d="m1009.716 204.466 6.03 3.517.031-6.98z" fill="#ff694b"/><path d="m1129.325 101.562 12.42 21.736a7.256 7.256 0 0 0 6.3 3.655h20.6a7.256 7.256 0 0 1 6.3 3.655l12.42 21.736" fill="none" stroke="#ff694b" stroke-miterlimit="10" stroke-width="2" transform="translate(0 .496)"/><path d="m1127.04 102.868a2.632 2.632 0 1 1 3.591.98 2.632 2.632 0 0 1 -3.591-.98z" fill="#ff694b" transform="translate(0 .496)"/><path d="m1183.823 153.685 6.03 3.516.032-6.98z" fill="#ff694b"/><path d="m1100.307 101.562-12.452-21.791a7.251 7.251 0 0 1 0-7.2l10.363-18.137a7.256 7.256 0 0 1 6.3-3.655h24.808" fill="none" stroke="#01bbbb" stroke-miterlimit="10" stroke-width="2" transform="translate(0 .496)"/><path d="m1102.592 100.257a2.632 2.632 0 1 1 -3.591-.98 2.632 2.632 0 0 1 3.591.98z" fill="#01bbbb" transform="translate(0 .496)"/><path d="m1128.304 54.768 6.044-3.491-6.044-3.49z" fill="#01bbbb"/><path d="m1129.325 253.906 12.452-21.791a7.253 7.253 0 0 0 0-7.2l-12.452-21.791" fill="none" stroke="#01bbbb" stroke-miterlimit="10" stroke-width="2" transform="translate(0 .496)"/><path d="m1131.61 255.212a2.632 2.632 0 1 1 -.979-3.591 2.632 2.632 0 0 1 .979 3.591z" fill="#01bbbb" transform="translate(0 .496)"/><path d="m1132.862 202.776-6.029-3.516-.032 6.98z" fill="#01bbbb"/><path d="m955.218 304.688 12.452 21.791a7.251 7.251 0 0 1 0 7.2l-10.363 18.137a7.256 7.256 0 0 1 -6.3 3.655h-24.807" fill="none" stroke="#fff" stroke-miterlimit="10" stroke-width="2" transform="translate(0 .496)"/><path d="m952.933 305.993a2.632 2.632 0 1 1 3.591.98 2.632 2.632 0 0 1 -3.591-.98z" fill="#fff" transform="translate(0 .496)"/><path d="m927.221 352.474-6.044 3.491 6.044 3.49z" fill="#fff"/><path d="m1129.325 558.594 12.42-21.736a7.256 7.256 0 0 1 6.3-3.655h20.6a7.256 7.256 0 0 0 6.3-3.655l12.42-21.736" fill="none" stroke="#01bbbb" stroke-miterlimit="10" stroke-width="2" transform="translate(0 .496)"/><path d="m1131.61 559.9a2.632 2.632 0 1 1 -.979-3.591 2.633 2.633 0 0 1 .979 3.591z" fill="#01bbbb" transform="translate(0 .496)"/><path d="m1189.885 510.927-.032-6.98-6.03 3.517z" fill="#01bbbb"/><path d="m1216.379 609.375 12.42-21.735a7.252 7.252 0 0 1 6.3-3.656h20.6a7.254 7.254 0 0 0 6.3-3.655l10.364-18.136a7.256 7.256 0 0 0 0-7.2l-10.364-18.137a7.254 7.254 0 0 0 -6.3-3.655h-20.6a7.254 7.254 0 0 1 -6.3-3.655l-10.364-18.136a7.258 7.258 0 0 1 0-7.2l12.452-21.791" fill="none" stroke="#01bbbb" stroke-miterlimit="10" stroke-width="2" transform="translate(0 .496)"/><path d="m1218.664 610.681a2.632 2.632 0 1 1 -.98-3.591 2.632 2.632 0 0 1 .98 3.591z" fill="#01bbbb" transform="translate(0 .496)"/><path d="m1233.411 485.536-.031-6.979-6.03 3.516z" fill="#01bbbb"/><path d="m1303.432 507.812 12.42-21.735a7.256 7.256 0 0 1 6.3-3.655h20.6a7.256 7.256 0 0 0 6.3-3.655l10.363-18.137a7.251 7.251 0 0 0 0-7.2l-12.452-21.791" fill="none" stroke="#01bbbb" stroke-miterlimit="10" stroke-width="2" transform="translate(0 .496)"/><path d="m1305.717 509.118a2.632 2.632 0 1 1 -.979-3.591 2.632 2.632 0 0 1 .979 3.591z" fill="#01bbbb" transform="translate(0 .496)"/><path d="m1350.496 431.292-6.029-3.517-.032 6.98z" fill="#01bbbb"/><path d="m1172.852 533.2 12.42 21.736a7.255 7.255 0 0 0 6.3 3.655h24.808" fill="none" stroke="#01bbbb" stroke-miterlimit="10" stroke-width="2" transform="translate(0 .496)"/><path d="m1170.567 534.509a2.632 2.632 0 1 1 3.59.979 2.632 2.632 0 0 1 -3.59-.979z" fill="#01bbbb" transform="translate(0 .496)"/><path d="m1215.357 562.58 6.045-3.49-6.045-3.491z" fill="#01bbbb"/><path d="m1303.432 558.594 12.42 21.735a7.256 7.256 0 0 0 6.3 3.655h24.808" fill="none" stroke="#fff" stroke-miterlimit="10" stroke-width="2" transform="translate(0 .496)"/><path d="m1301.147 559.9a2.632 2.632 0 1 1 3.591.979 2.633 2.633 0 0 1 -3.591-.979z" fill="#fff" transform="translate(0 .496)"/><path d="m1345.938 587.971 6.044-3.49-6.044-3.491z" fill="#fff"/><path d="m1259.905 583.984 12.453 21.792a7.256 7.256 0 0 1 0 7.2l-10.4 18.192a7.258 7.258 0 0 0 0 7.2l10.364 18.136a7.254 7.254 0 0 0 6.3 3.655h20.6a7.255 7.255 0 0 1 6.3 3.655l12.42 21.736" fill="none" stroke="#01bbbb" stroke-miterlimit="10" stroke-width="2" transform="translate(0 .496)"/><path d="m1257.62 585.29a2.632 2.632 0 1 1 3.591.979 2.632 2.632 0 0 1 -3.591-.979z" fill="#01bbbb" transform="translate(0 .496)"/><path d="m1314.404 686.888 6.029 3.517.032-6.98z" fill="#01bbbb"/><path d="m1129.325 558.594 12.42 21.735a7.256 7.256 0 0 0 6.3 3.655h20.6a7.255 7.255 0 0 1 6.3 3.656l12.42 21.735" fill="none" stroke="#01bbbb" stroke-miterlimit="10" stroke-width="2" transform="translate(0 .496)"/><path d="m1127.04 559.9a2.632 2.632 0 1 1 3.591.979 2.632 2.632 0 0 1 -3.591-.979z" fill="#01bbbb" transform="translate(0 .496)"/><path d="m1183.823 610.716 6.03 3.517.032-6.98z" fill="#01bbbb"/><path d="m1390.486 558.594 12.42-21.736a7.255 7.255 0 0 1 6.3-3.655h20.6a7.254 7.254 0 0 0 6.3-3.655l10.364-18.136a7.258 7.258 0 0 0 0-7.2l-10.37-18.135a7.254 7.254 0 0 0 -6.3-3.655h-20.6a7.255 7.255 0 0 1 -6.3-3.655l-12.42-21.736" fill="none" stroke="#ff694b" stroke-miterlimit="10" stroke-width="2" transform="translate(0 .496)"/><path d="m1392.771 559.9a2.632 2.632 0 1 1 -.979-3.591 2.633 2.633 0 0 1 .979 3.591z" fill="#ff694b" transform="translate(0 .496)"/><path d="m1394.023 456.682-6.03-3.516-.031 6.98z" fill="#ff694b"/><path d="m1434.012 533.2 12.421 21.736a7.254 7.254 0 0 0 6.3 3.655h20.6a7.255 7.255 0 0 0 6.3-3.655l10.331-18.081a7.256 7.256 0 0 1 6.3-3.655h24.808" fill="none" stroke="#ff694b" stroke-miterlimit="10" stroke-width="2" transform="translate(0 .496)"/><path d="m1431.727 534.509a2.632 2.632 0 1 1 3.591.979 2.632 2.632 0 0 1 -3.591-.979z" fill="#ff694b" transform="translate(0 .496)"/><path d="m1520.045 537.19 6.044-3.491-6.044-3.49z" fill="#ff694b"/><path d="m1303.432 507.812 12.42 21.736a7.256 7.256 0 0 0 6.3 3.655h20.6a7.256 7.256 0 0 1 6.3 3.655l12.42 21.736" fill="none" stroke="#01bbbb" stroke-miterlimit="10" stroke-width="2" transform="translate(0 .496)"/><path d="m1301.147 509.118a2.632 2.632 0 1 1 3.591.98 2.633 2.633 0 0 1 -3.591-.98z" fill="#01bbbb" transform="translate(0 .496)"/><path d="m1357.931 559.935 6.029 3.516.032-6.98z" fill="#01bbbb"/><path d="m1274.414 507.812-12.452-21.791a7.256 7.256 0 0 1 0-7.2l10.364-18.137a7.254 7.254 0 0 1 6.3-3.655h24.808" fill="none" stroke="#fff" stroke-miterlimit="10" stroke-width="2" transform="translate(0 .496)"/><path d="m1276.7 506.507a2.632 2.632 0 1 1 -3.59-.98 2.632 2.632 0 0 1 3.59.98z" fill="#fff" transform="translate(0 .496)"/><path d="m1302.411 461.018 6.044-3.491-6.044-3.49z" fill="#fff"/><path d="m1303.432 660.156 12.452-21.791a7.253 7.253 0 0 0 0-7.2l-12.452-21.791" fill="none" stroke="#01bbbb" stroke-miterlimit="10" stroke-width="2" transform="translate(0 .496)"/><path d="m1305.717 661.462a2.632 2.632 0 1 1 -.979-3.591 2.632 2.632 0 0 1 .979 3.591z" fill="#01bbbb" transform="translate(0 .496)"/><path d="m1306.969 609.026-6.029-3.516-.032 6.98z" fill="#01bbbb"/><path d="m1346.959 685.547 12.42-21.736a7.255 7.255 0 0 1 6.3-3.655h20.6a7.254 7.254 0 0 0 6.3-3.655l12.421-21.735" fill="none" stroke="#fff" stroke-miterlimit="10" stroke-width="2" transform="translate(0 .496)"/><path d="m1349.244 686.853a2.632 2.632 0 1 1 -.979-3.591 2.632 2.632 0 0 1 .979 3.591z" fill="#fff" transform="translate(0 .496)"/><path d="m1407.518 637.88-.031-6.98-6.03 3.517z" fill="#fff"/><path d="m1434.012 736.328 12.421-21.735a7.251 7.251 0 0 1 6.3-3.655h20.6a7.254 7.254 0 0 0 6.3-3.656l10.363-18.136a7.251 7.251 0 0 0 0-7.2l-10.363-18.137a7.255 7.255 0 0 0 -6.3-3.655h-20.6a7.254 7.254 0 0 1 -6.3-3.655l-10.364-18.136a7.258 7.258 0 0 1 0-7.2l12.452-21.791" fill="none" stroke="#01bbbb" stroke-miterlimit="10" stroke-width="2" transform="translate(0 .496)"/><path d="m1436.3 737.634a2.632 2.632 0 1 1 -.98-3.591 2.632 2.632 0 0 1 .98 3.591z" fill="#01bbbb" transform="translate(0 .496)"/><path d="m1451.045 612.49-.031-6.98-6.03 3.516z" fill="#01bbbb"/><path d="m1521.066 634.766 12.42-21.736a7.256 7.256 0 0 1 6.3-3.655h20.6a7.256 7.256 0 0 0 6.3-3.655l10.363-18.136a7.253 7.253 0 0 0 0-7.2l-12.452-21.791" fill="none" stroke="#ff694b" stroke-miterlimit="10" stroke-width="2" transform="translate(0 .496)"/><path d="m1523.351 636.071a2.632 2.632 0 1 1 -.979-3.59 2.632 2.632 0 0 1 .979 3.59z" fill="#ff694b" transform="translate(0 .496)"/><path d="m1568.13 558.245-6.029-3.517-.032 6.98z" fill="#ff694b"/><path d="m1390.486 660.156 12.42 21.736a7.255 7.255 0 0 0 6.3 3.655h24.807" fill="none" stroke="#fff" stroke-miterlimit="10" stroke-width="2" transform="translate(0 .496)"/><path d="m1388.2 661.462a2.632 2.632 0 1 1 3.591.979 2.632 2.632 0 0 1 -3.591-.979z" fill="#fff" transform="translate(0 .496)"/><path d="m1432.991 689.533 6.045-3.49-6.045-3.49z" fill="#fff"/><path d="m1521.066 685.547 12.42 21.735a7.255 7.255 0 0 0 6.3 3.656h24.808" fill="none" stroke="#fff" stroke-miterlimit="10" stroke-width="2" transform="translate(0 .496)"/><path d="m1518.781 686.853a2.632 2.632 0 1 1 3.591.979 2.632 2.632 0 0 1 -3.591-.979z" fill="#fff" transform="translate(0 .496)"/><path d="m1563.572 714.924 6.044-3.49-6.044-3.491z" fill="#fff"/><g transform="translate(0 .496)"><path d="m1477.539 710.938 12.452 21.791a7.251 7.251 0 0 1 0 7.2l-10.391 18.191a7.256 7.256 0 0 0 0 7.2l10.363 18.136a7.256 7.256 0 0 0 6.3 3.655h20.6a7.255 7.255 0 0 1 6.3 3.656l5.277 9.235" fill="none" stroke="#01bbbb" stroke-miterlimit="10" stroke-width="2"/><path d="m1475.254 712.243a2.632 2.632 0 1 1 3.591.98 2.632 2.632 0 0 1 -3.591-.98z" fill="#01bbbb"/><path d="m1346.959 685.547 12.42 21.735a7.254 7.254 0 0 0 6.3 3.656h20.6a7.251 7.251 0 0 1 6.3 3.655l12.421 21.735" fill="none" stroke="#fff" stroke-miterlimit="10" stroke-width="2"/><path d="m1344.674 686.853a2.632 2.632 0 1 1 3.591.979 2.632 2.632 0 0 1 -3.591-.979z" fill="#fff"/></g><path d="m1401.457 737.669 6.03 3.517.031-6.98z" fill="#fff"/><path d="m1521.066 634.766 12.42 21.735a7.256 7.256 0 0 0 6.3 3.655h20.6a7.256 7.256 0 0 1 6.3 3.655l12.42 21.736" fill="none" stroke="#ff694b" stroke-miterlimit="10" stroke-width="2" transform="translate(0 .496)"/><path d="m1518.781 636.071a2.632 2.632 0 1 1 3.591.98 2.631 2.631 0 0 1 -3.591-.98z" fill="#ff694b" transform="translate(0 .496)"/><path d="m1575.565 686.888 6.029 3.517.032-6.98z" fill="#ff694b"/><path d="m1492.048 634.766-12.448-21.792a7.256 7.256 0 0 1 0-7.2l10.363-18.136a7.255 7.255 0 0 1 6.3-3.656h24.808" fill="none" stroke="#01bbbb" stroke-miterlimit="10" stroke-width="2" transform="translate(0 .496)"/><path d="m1494.333 633.46a2.632 2.632 0 1 1 -3.591-.979 2.632 2.632 0 0 1 3.591.979z" fill="#01bbbb" transform="translate(0 .496)"/><path d="m1520.045 587.971 6.044-3.49-6.044-3.491z" fill="#01bbbb"/><path d="m1303.432 0 12.42 21.735a7.255 7.255 0 0 0 6.3 3.656h20.6a7.256 7.256 0 0 1 6.3 3.655l10.363 18.136a7.251 7.251 0 0 1 0 7.2l-12.452 21.792" fill="none" stroke="#fff" stroke-miterlimit="10" stroke-width="2" transform="translate(0 .496)"/><path d="m1344.435 74.05.032 6.98 6.029-3.517z" fill="#fff"/><path d="m1521.066 787.109 12.452-21.791a7.251 7.251 0 0 0 0-7.2l-12.452-21.792" fill="none" stroke="#01bbbb" stroke-miterlimit="10" stroke-width="2" transform="translate(0 .496)"/><path d="m1523.351 788.415a2.632 2.632 0 1 1 -.979-3.591 2.631 2.631 0 0 1 .979 3.591z" fill="#01bbbb" transform="translate(0 .496)"/><path d="m1524.603 735.979-6.029-3.516-.032 6.98z" fill="#01bbbb"/><path d="m1390.486 406.25 12.42-21.735a7.254 7.254 0 0 1 6.3-3.656h20.6a7.254 7.254 0 0 0 6.3-3.655l12.42-21.735" fill="none" stroke="#fff" stroke-miterlimit="10" stroke-width="2" transform="translate(0 .496)"/><path d="m1392.771 407.556a2.632 2.632 0 1 1 -.979-3.591 2.632 2.632 0 0 1 .979 3.591z" fill="#fff" transform="translate(0 .496)"/><path d="m1451.045 358.583-.031-6.98-6.03 3.517z" fill="#fff"/><path d="m1477.539 457.031 12.42-21.735a7.256 7.256 0 0 1 6.3-3.655h20.6a7.255 7.255 0 0 0 6.3-3.656l10.363-18.136a7.251 7.251 0 0 0 0-7.2l-10.363-18.136a7.255 7.255 0 0 0 -6.3-3.656h-20.6a7.256 7.256 0 0 1 -6.3-3.655l-10.359-18.134a7.256 7.256 0 0 1 0-7.2l12.452-21.792" fill="none" stroke="#01bbbb" stroke-miterlimit="10" stroke-width="2" transform="translate(0 .496)"/><path d="m1479.824 458.337a2.632 2.632 0 1 1 -.979-3.591 2.631 2.631 0 0 1 .979 3.591z" fill="#01bbbb" transform="translate(0 .496)"/><path d="m1494.572 333.193-.031-6.98-6.03 3.516z" fill="#01bbbb"/><path d="m1564.593 355.469 12.42-21.736a7.255 7.255 0 0 1 6.3-3.655h16.687" fill="none" stroke="#01bbbb" stroke-miterlimit="10" stroke-width="2" transform="translate(0 .496)"/><path d="m1566.878 356.775a2.632 2.632 0 1 1 -.979-3.591 2.633 2.633 0 0 1 .979 3.591z" fill="#01bbbb" transform="translate(0 .496)"/><path d="m1434.012 380.859 12.421 21.736a7.254 7.254 0 0 0 6.3 3.655h24.808" fill="none" stroke="#fff" stroke-miterlimit="10" stroke-width="2" transform="translate(0 .496)"/><path d="m1431.727 382.165a2.632 2.632 0 1 1 3.591.979 2.632 2.632 0 0 1 -3.591-.979z" fill="#fff" transform="translate(0 .496)"/><path d="m1476.518 410.237 6.045-3.491-6.045-3.49z" fill="#fff"/><path d="m1564.593 406.25 12.42 21.735a7.254 7.254 0 0 0 6.3 3.656h16.687" fill="none" stroke="#01bbbb" stroke-miterlimit="10" stroke-width="2" transform="translate(0 .496)"/><path d="m1562.308 407.556a2.632 2.632 0 1 1 3.591.979 2.632 2.632 0 0 1 -3.591-.979z" fill="#01bbbb" transform="translate(0 .496)"/><path d="m1521.066 431.641 12.452 21.791a7.251 7.251 0 0 1 0 7.2l-10.395 18.193a7.251 7.251 0 0 0 0 7.2l10.363 18.136a7.254 7.254 0 0 0 6.3 3.655h20.6a7.255 7.255 0 0 1 6.3 3.656l12.414 21.728" fill="none" stroke="#01bbbb" stroke-miterlimit="10" stroke-width="2" transform="translate(0 .496)"/><path d="m1518.781 432.946a2.632 2.632 0 1 1 3.591.98 2.631 2.631 0 0 1 -3.591-.98z" fill="#01bbbb" transform="translate(0 .496)"/><path d="m1575.565 534.544 6.029 3.517.032-6.98z" fill="#01bbbb"/><path d="m1390.486 406.25 12.42 21.735a7.254 7.254 0 0 0 6.3 3.656h20.6a7.254 7.254 0 0 1 6.3 3.655l12.42 21.735" fill="none" stroke="#fff" stroke-miterlimit="10" stroke-width="2" transform="translate(0 .496)"/><path d="m1388.2 407.556a2.632 2.632 0 1 1 3.591.979 2.632 2.632 0 0 1 -3.591-.979z" fill="#fff" transform="translate(0 .496)"/><path d="m1444.984 458.372 6.03 3.517.031-6.98z" fill="#fff"/><path d="m1564.593 355.469 12.42 21.735a7.255 7.255 0 0 0 6.3 3.655h16.687" fill="none" stroke="#01bbbb" stroke-miterlimit="10" stroke-width="2" transform="translate(0 .496)"/><path d="m1562.308 356.775a2.632 2.632 0 1 1 3.591.979 2.632 2.632 0 0 1 -3.591-.979z" fill="#01bbbb" transform="translate(0 .496)"/><path d="m1535.575 355.469-12.452-21.792a7.251 7.251 0 0 1 0-7.2l10.363-18.136a7.254 7.254 0 0 1 6.3-3.655h24.808" fill="none" stroke="#fff" stroke-miterlimit="10" stroke-width="2" transform="translate(0 .496)"/><path d="m1537.86 354.163a2.632 2.632 0 1 1 -3.591-.979 2.632 2.632 0 0 1 3.591.979z" fill="#fff" transform="translate(0 .496)"/><path d="m1563.572 308.674 6.044-3.49-6.044-3.491z" fill="#fff"/><path d="m1564.593 507.812 12.452-21.791a7.251 7.251 0 0 0 0-7.2l-12.452-21.792" fill="none" stroke="#01bbbb" stroke-miterlimit="10" stroke-width="2" transform="translate(0 .496)"/><path d="m1566.878 509.118a2.632 2.632 0 1 1 -.979-3.591 2.632 2.632 0 0 1 .979 3.591z" fill="#01bbbb" transform="translate(0 .496)"/><path d="m1568.13 456.682-6.029-3.516-.032 6.98z" fill="#01bbbb"/><path d="m1390.486 558.594 12.452 21.791a7.258 7.258 0 0 1 0 7.2l-10.364 18.136a7.254 7.254 0 0 1 -6.3 3.655h-24.808" fill="none" stroke="#ff694b" stroke-miterlimit="10" stroke-width="2" transform="translate(0 .496)"/><path d="m1388.2 559.9a2.632 2.632 0 1 1 3.591.979 2.632 2.632 0 0 1 -3.591-.979z" fill="#ff694b" transform="translate(0 .496)"/><path d="m1362.489 606.381-6.045 3.49 6.045 3.491z" fill="#ff694b"/><path d="m926.2 457.031-12.452 21.792a7.251 7.251 0 0 0 0 7.2l12.452 21.789" fill="none" stroke="#01bbbb" stroke-miterlimit="10" stroke-width="2" transform="translate(0 .496)"/><path d="m923.915 455.725a2.632 2.632 0 1 1 .979 3.591 2.633 2.633 0 0 1 -.979-3.591z" fill="#01bbbb" transform="translate(0 .496)"/><path d="m922.663 509.154 6.029 3.516.032-6.98z" fill="#01bbbb"/><path d="m1172.852 380.859 12.42-21.735a7.255 7.255 0 0 1 6.3-3.655h20.6a7.254 7.254 0 0 0 6.3-3.655l12.42-21.736" fill="none" stroke="#ff694b" stroke-miterlimit="10" stroke-width="2" transform="translate(0 .496)"/><path d="m1175.137 382.165a2.632 2.632 0 1 1 -.98-3.591 2.631 2.631 0 0 1 .98 3.591z" fill="#ff694b" transform="translate(0 .496)"/><path d="m1233.411 333.193-.031-6.98-6.03 3.516z" fill="#ff694b"/><path d="m1216.379 355.469 12.421 21.731a7.254 7.254 0 0 0 6.3 3.655h24.808" fill="none" stroke="#ff694b" stroke-miterlimit="10" stroke-width="2" transform="translate(0 .496)"/><path d="m1214.094 356.775a2.632 2.632 0 1 1 3.59.979 2.631 2.631 0 0 1 -3.59-.979z" fill="#ff694b" transform="translate(0 .496)"/><path d="m1258.884 384.846 6.045-3.49-6.045-3.491z" fill="#ff694b"/><path d="m1172.852 380.859 12.42 21.736a7.255 7.255 0 0 0 6.3 3.655h20.6a7.254 7.254 0 0 1 6.3 3.655l12.42 21.736" fill="none" stroke="#ff694b" stroke-miterlimit="10" stroke-width="2" transform="translate(0 .496)"/><path d="m1170.567 382.165a2.632 2.632 0 1 1 3.59.979 2.632 2.632 0 0 1 -3.59-.979z" fill="#ff694b" transform="translate(0 .496)"/><path d="m1227.35 432.982 6.03 3.516.031-6.98z" fill="#ff694b"/><path d="m1187.361 406.25-12.453 21.791a7.258 7.258 0 0 0 0 7.2l12.453 21.791" fill="none" stroke="#ff694b" stroke-miterlimit="10" stroke-width="2" transform="translate(0 .496)"/><path d="m1185.076 404.944a2.632 2.632 0 1 1 .979 3.591 2.632 2.632 0 0 1 -.979-3.591z" fill="#ff694b" transform="translate(0 .496)"/><path d="m1183.823 458.372 6.03 3.517.032-6.98z" fill="#ff694b"/><path d="m795.62 381.356-14.509 25.39" fill="none" stroke="#fff" stroke-miterlimit="10" stroke-width="2"/><path d="m793.335 379.554a2.632 2.632 0 1 1 .979 3.59 2.631 2.631 0 0 1 -.979-3.59z" fill="#fff" transform="translate(0 .496)"/><path d="m778.587 404.128.031 6.98 6.03-3.517z" fill="#fff"/><path d="m1172.852 228.516 12.42-21.736a7.255 7.255 0 0 1 6.3-3.655h20.6a7.254 7.254 0 0 0 6.3-3.655l12.42-21.736" fill="none" stroke="#01bbbb" stroke-miterlimit="10" stroke-width="2" transform="translate(0 .496)"/><path d="m1175.137 229.821a2.632 2.632 0 1 1 -.98-3.59 2.632 2.632 0 0 1 .98 3.59z" fill="#01bbbb" transform="translate(0 .496)"/><path d="m1233.411 180.849-.031-6.98-6.03 3.517z" fill="#01bbbb"/><path d="m1259.905 279.3 12.421-21.736a7.254 7.254 0 0 1 6.3-3.655h20.6a7.255 7.255 0 0 0 6.3-3.655l10.363-18.136a7.253 7.253 0 0 0 0-7.2l-10.363-18.136a7.255 7.255 0 0 0 -6.3-3.655h-20.6a7.254 7.254 0 0 1 -6.3-3.655l-10.364-18.136a7.258 7.258 0 0 1 0-7.2l12.452-21.791" fill="none" stroke="#01bbbb" stroke-miterlimit="10" stroke-width="2" transform="translate(0 .496)"/><path d="m1262.19 280.6a2.632 2.632 0 1 1 -.979-3.591 2.632 2.632 0 0 1 .979 3.591z" fill="#01bbbb" transform="translate(0 .496)"/><path d="m1276.938 155.458-.031-6.98-6.03 3.517z" fill="#01bbbb"/><path d="m1346.959 177.734 12.42-21.734a7.255 7.255 0 0 1 6.3-3.655h20.6a7.254 7.254 0 0 0 6.3-3.655l10.364-18.137a7.256 7.256 0 0 0 0-7.2l-12.452-21.792" fill="none" stroke="#fff" stroke-miterlimit="10" stroke-width="2" transform="translate(0 .496)"/><path d="m1349.244 179.04a2.632 2.632 0 1 1 -.979-3.591 2.631 2.631 0 0 1 .979 3.591z" fill="#fff" transform="translate(0 .496)"/><path d="m1394.023 101.214-6.03-3.517-.031 6.98z" fill="#fff"/><path d="m1216.379 203.125 12.42 21.735a7.252 7.252 0 0 0 6.3 3.656h24.808" fill="none" stroke="#01bbbb" stroke-miterlimit="10" stroke-width="2" transform="translate(0 .496)"/><path d="m1214.094 204.431a2.632 2.632 0 1 1 3.59.979 2.631 2.631 0 0 1 -3.59-.979z" fill="#01bbbb" transform="translate(0 .496)"/><path d="m1258.884 232.502 6.045-3.49-6.045-3.491z" fill="#01bbbb"/><path d="m1346.959 228.516 12.42 21.735a7.255 7.255 0 0 0 6.3 3.655h24.808" fill="none" stroke="#01bbbb" stroke-miterlimit="10" stroke-width="2" transform="translate(0 .496)"/><path d="m1344.674 229.821a2.632 2.632 0 1 1 3.591.98 2.631 2.631 0 0 1 -3.591-.98z" fill="#01bbbb" transform="translate(0 .496)"/><path d="m1389.464 257.893 6.045-3.491-6.045-3.49z" fill="#01bbbb"/><path d="m1303.432 253.906 12.452 21.792a7.251 7.251 0 0 1 0 7.2l-10.395 18.192a7.253 7.253 0 0 0 0 7.2l10.363 18.136a7.256 7.256 0 0 0 6.3 3.655h20.6a7.256 7.256 0 0 1 6.3 3.655l12.42 21.736" fill="none" stroke="#01bbbb" stroke-miterlimit="10" stroke-width="2" transform="translate(0 .496)"/><path d="m1301.147 255.212a2.632 2.632 0 1 1 3.591.979 2.633 2.633 0 0 1 -3.591-.979z" fill="#01bbbb" transform="translate(0 .496)"/><path d="m1357.931 356.81 6.029 3.516.032-6.98z" fill="#01bbbb"/><path d="m1172.852 228.516 12.42 21.735a7.255 7.255 0 0 0 6.3 3.655h20.6a7.254 7.254 0 0 1 6.3 3.655l12.42 21.736" fill="none" stroke="#01bbbb" stroke-miterlimit="10" stroke-width="2" transform="translate(0 .496)"/><path d="m1170.567 229.821a2.632 2.632 0 1 1 3.59.98 2.631 2.631 0 0 1 -3.59-.98z" fill="#01bbbb" transform="translate(0 .496)"/><path d="m1227.35 280.638 6.03 3.517.031-6.98z" fill="#01bbbb"/><path d="m1434.012 228.516 12.421-21.736a7.254 7.254 0 0 1 6.3-3.655h20.6a7.255 7.255 0 0 0 6.3-3.655l10.363-18.136a7.253 7.253 0 0 0 0-7.2l-10.368-18.134a7.255 7.255 0 0 0 -6.3-3.655h-20.6a7.254 7.254 0 0 1 -6.3-3.655l-12.421-21.736" fill="none" stroke="#ff694b" stroke-miterlimit="10" stroke-width="2" transform="translate(0 .496)"/><path d="m1436.3 229.821a2.632 2.632 0 1 1 -.98-3.59 2.632 2.632 0 0 1 .98 3.59z" fill="#ff694b" transform="translate(0 .496)"/><path d="m1437.55 126.604-6.03-3.516-.031 6.98z" fill="#ff694b"/><path d="m1346.959 177.734 12.42 21.736a7.255 7.255 0 0 0 6.3 3.655h20.6a7.254 7.254 0 0 1 6.3 3.655l12.421 21.736" fill="none" stroke="#fff" stroke-miterlimit="10" stroke-width="2" transform="translate(0 .496)"/><path d="m1344.674 179.04a2.632 2.632 0 1 1 3.591.979 2.632 2.632 0 0 1 -3.591-.979z" fill="#fff" transform="translate(0 .496)"/><path d="m1401.457 229.857 6.03 3.516.031-6.98z" fill="#fff"/><path d="m1317.941 177.734-12.452-21.791a7.251 7.251 0 0 1 0-7.2l10.363-18.137a7.256 7.256 0 0 1 6.3-3.655h24.808" fill="none" stroke="#01bbbb" stroke-miterlimit="10" stroke-width="2" transform="translate(0 .496)"/><path d="m1320.226 176.429a2.632 2.632 0 1 1 -3.591-.98 2.631 2.631 0 0 1 3.591.98z" fill="#01bbbb" transform="translate(0 .496)"/><path d="m1345.938 130.94 6.044-3.491-6.044-3.49z" fill="#01bbbb"/><path d="m1317.941 126.953-12.42-21.735a7.254 7.254 0 0 0 -6.3-3.656h-24.808" fill="none" stroke="#01bbbb" stroke-miterlimit="10" stroke-width="2" transform="translate(0 .496)"/><path d="m1320.226 125.647a2.632 2.632 0 1 1 -3.591-.979 2.632 2.632 0 0 1 3.591.979z" fill="#01bbbb" transform="translate(0 .496)"/><path d="m1275.436 98.568-6.045 3.491 6.045 3.49z" fill="#01bbbb"/><path d="m1434.012 76.172h-24.807a7.255 7.255 0 0 1 -6.3-3.655l-12.42-21.736" fill="none" stroke="#01bbbb" stroke-miterlimit="10" stroke-width="2" transform="translate(0 .496)"/><path d="m1434.012 73.54a2.632 2.632 0 1 1 -2.631 2.632 2.632 2.632 0 0 1 2.631-2.632z" fill="#01bbbb" transform="translate(0 .496)"/><path d="m1394.023 50.432-6.03-3.516-.031 6.98z" fill="#01bbbb"/><path d="m1346.959 330.078 12.452-21.791a7.253 7.253 0 0 0 0-7.2l-12.452-21.787" fill="none" stroke="#01bbbb" stroke-miterlimit="10" stroke-width="2" transform="translate(0 .496)"/><path d="m1349.244 331.384a2.632 2.632 0 1 1 -.979-3.591 2.632 2.632 0 0 1 .979 3.591z" fill="#01bbbb" transform="translate(0 .496)"/><path d="m1350.496 278.948-6.029-3.516-.032 6.979z" fill="#01bbbb"/><path d="m1216.379 50.781 12.42-21.735a7.254 7.254 0 0 1 6.3-3.655h20.6a7.253 7.253 0 0 0 6.3-3.656l12.415-21.735" fill="none" stroke="#fff" stroke-miterlimit="10" stroke-width="2" transform="translate(0 .496)"/><path d="m1218.664 52.087a2.632 2.632 0 1 1 -.98-3.591 2.632 2.632 0 0 1 .98 3.591z" fill="#fff" transform="translate(0 .496)"/><path d="m1259.905 25.391 12.421 21.735a7.254 7.254 0 0 0 6.3 3.655h24.808" fill="none" stroke="#fff" stroke-miterlimit="10" stroke-width="2" transform="translate(0 .496)"/><path d="m1257.62 26.7a2.632 2.632 0 1 1 3.591.98 2.631 2.631 0 0 1 -3.591-.98z" fill="#fff" transform="translate(0 .496)"/><path d="m1302.411 54.768 6.044-3.491-6.044-3.49z" fill="#fff"/><path d="m1216.379 50.781 12.452 21.792a7.256 7.256 0 0 1 0 7.2l-10.4 18.192a7.258 7.258 0 0 0 0 7.2l12.452 21.791" fill="none" stroke="#fff" stroke-miterlimit="10" stroke-width="2" transform="translate(0 .496)"/><path d="m1214.094 52.087a2.632 2.632 0 1 1 3.59.979 2.631 2.631 0 0 1 -3.59-.979z" fill="#fff" transform="translate(0 .496)"/><path d="m1227.35 128.294 6.03 3.517.031-6.98z" fill="#fff"/><path d="m1434.012 76.172 12.421-21.736a7.254 7.254 0 0 1 6.3-3.655h20.6a7.255 7.255 0 0 0 6.3-3.655l12.42-21.735" fill="none" stroke="#01bbbb" stroke-miterlimit="10" stroke-width="2" transform="translate(0 .496)"/><path d="m1436.3 77.478a2.632 2.632 0 1 1 -.98-3.591 2.633 2.633 0 0 1 .98 3.591z" fill="#01bbbb" transform="translate(0 .496)"/><path d="m1494.572 28.505-.031-6.98-6.03 3.517z" fill="#01bbbb"/><path d="m1434.012 76.172 12.421 21.735a7.251 7.251 0 0 0 6.3 3.655h20.6a7.254 7.254 0 0 1 6.3 3.656l12.42 21.735" fill="none" stroke="#01bbbb" stroke-miterlimit="10" stroke-width="2" transform="translate(0 .496)"/><path d="m1431.727 77.478a2.632 2.632 0 1 1 3.591.979 2.632 2.632 0 0 1 -3.591-.979z" fill="#01bbbb" transform="translate(0 .496)"/><path d="m1488.511 128.294 6.03 3.517.031-6.98z" fill="#01bbbb"/><path d="m1434.012 228.516 12.453 21.791a7.256 7.256 0 0 1 0 7.2l-10.365 18.135a7.254 7.254 0 0 1 -6.3 3.655h-24.8" fill="none" stroke="#ff694b" stroke-miterlimit="10" stroke-width="2" transform="translate(0 .496)"/><path d="m1431.727 229.821a2.632 2.632 0 1 1 3.591.98 2.631 2.631 0 0 1 -3.591-.98z" fill="#ff694b" transform="translate(0 .496)"/><path d="m1406.016 276.303-6.045 3.49 6.045 3.49z" fill="#ff694b"/><path d="m1274.414 305.184-14.509 25.39" fill="none" stroke="#fff" stroke-miterlimit="10" stroke-width="2"/><path d="m1272.129 303.382a2.632 2.632 0 1 1 .98 3.591 2.632 2.632 0 0 1 -.98-3.591z" fill="#fff" transform="translate(0 .496)"/><path d="m1257.381 327.956.032 6.98 6.03-3.517z" fill="#fff"/><path d="m1143.834 482.918-14.509 25.391" fill="none" stroke="#fff" stroke-miterlimit="10" stroke-width="2"/><path d="m1141.549 481.116a2.632 2.632 0 1 1 .979 3.591 2.632 2.632 0 0 1 -.979-3.591z" fill="#fff" transform="translate(0 .496)"/><path d="m1126.801 505.69.032 6.98 6.029-3.516z" fill="#fff"/><path d="m1361.468 406.25-12.42-21.735a7.255 7.255 0 0 0 -6.3-3.656h-20.6a7.256 7.256 0 0 1 -6.3-3.655l-12.42-21.735" fill="none" stroke="#01bbbb" stroke-miterlimit="10" stroke-width="2" transform="translate(0 .496)"/><path d="m1363.753 404.944a2.632 2.632 0 1 1 -3.591-.979 2.633 2.633 0 0 1 3.591.979z" fill="#01bbbb" transform="translate(0 .496)"/><path d="m1306.969 355.12-6.029-3.517-.032 6.98z" fill="#01bbbb"/><path d="m1390.486 355.469 12.42-21.736a7.255 7.255 0 0 1 6.3-3.655h20.6a7.254 7.254 0 0 0 6.3-3.655l12.42-21.735" fill="none" stroke="#01bbbb" stroke-miterlimit="10" stroke-width="2" transform="translate(0 .496)"/><path d="m1392.771 356.775a2.632 2.632 0 1 1 -.979-3.591 2.633 2.633 0 0 1 .979 3.591z" fill="#01bbbb" transform="translate(0 .496)"/><path d="m1451.045 307.802-.031-6.98-6.03 3.517z" fill="#01bbbb"/><path d="m1317.941 381.356-14.509 25.39" fill="none" stroke="#01bbbb" stroke-miterlimit="10" stroke-width="2"/><path d="m1315.656 379.554a2.632 2.632 0 1 1 .979 3.59 2.632 2.632 0 0 1 -.979-3.59z" fill="#01bbbb" transform="translate(0 .496)"/><path d="m1300.908 404.128.032 6.98 6.029-3.517z" fill="#01bbbb"/><path d="m0 .496h1600v800h-1600z" fill="url(#a)"/><path d="m0 .496h1600v800h-1600z" fill="url(#b)"/></svg>