<svg width="95" height="36" viewBox="0 0 95 36" fill="none" xmlns="http://www.w3.org/2000/svg">
<path d="M61.649 5.56604V30.1411H56.6689V27.6348C56.1481 28.5136 55.3995 29.2297 54.4881 29.6854C53.5116 30.1736 52.4049 30.434 51.2982 30.434C49.9311 30.4666 48.5641 30.076 47.4248 29.2948C46.253 28.5136 45.3416 27.4395 44.7557 26.17C44.1047 24.7053 43.7792 23.1429 43.8118 21.548C43.7792 19.953 44.1047 18.3906 44.7557 16.9584C45.3416 15.7216 46.253 14.6474 47.3923 13.8988C48.5641 13.1501 49.9311 12.7921 51.2982 12.8246C52.3724 12.8246 53.4465 13.0525 54.3905 13.5407C55.3018 13.9964 56.0505 14.68 56.5713 15.5263V7.22608L61.649 5.56604ZM55.6599 25.2912C56.3109 24.4449 56.6689 23.208 56.6689 21.6131C56.6689 20.0181 56.3434 18.8138 55.6599 17.9675C54.9763 17.1212 53.9022 16.6329 52.7955 16.6655C51.6888 16.6004 50.6147 17.0886 49.8986 17.9349C49.215 18.7812 48.857 19.9856 48.857 21.548C48.857 23.1429 49.215 24.3798 49.8986 25.2586C50.5821 26.1375 51.6888 26.6257 52.7955 26.5932C54.0324 26.5932 55.0089 26.1375 55.6599 25.2912Z" fill="white"/>
<path d="M79.4538 13.8662C80.6256 14.6149 81.537 15.689 82.0903 16.9259C82.7413 18.3581 83.0668 19.9205 83.0343 21.5154C83.0668 23.1103 82.7413 24.7053 82.0903 26.1375C81.5044 27.4069 80.593 28.4811 79.4213 29.2622C78.282 30.0109 76.9149 30.4015 75.5478 30.3689C74.4411 30.4015 73.3345 30.1411 72.358 29.6203C71.4466 29.1646 70.6979 28.4485 70.2097 27.5697V30.1085H65.197V7.22608L70.2422 5.56604V15.5914C70.7305 14.7125 71.4791 13.9964 72.3905 13.5407C73.367 13.0199 74.4411 12.7595 75.5478 12.7921C76.9149 12.7595 78.282 13.1501 79.4538 13.8662ZM76.98 25.2586C77.6636 24.3798 77.9891 23.1429 77.9891 21.5154C77.9891 19.953 77.6636 18.7487 76.98 17.9024C76.2965 17.0561 75.3525 16.6329 74.1156 16.6329C73.009 16.5678 71.9348 17.0561 71.2187 17.9349C70.5352 18.8138 70.2097 20.0181 70.2097 21.5805C70.2097 23.1754 70.5352 24.4123 71.2187 25.2586C71.9023 26.1375 72.9764 26.6257 74.1156 26.5606C75.2223 26.6257 76.2965 26.1375 76.98 25.2586Z" fill="white"/>
<path d="M90 16.9909V23.5659C90 24.5099 90.2604 25.1934 90.7161 25.6166C91.2369 26.0723 91.9205 26.3001 92.6366 26.2676C93.1899 26.2676 93.7758 26.1699 94.2966 26.0397V29.9457C93.3527 30.2712 92.3762 30.4339 91.3997 30.4014C89.3165 30.4014 87.7216 29.8155 86.6149 28.6437C85.5082 27.4719 84.9548 25.8119 84.9548 23.6636V9.24406L90 7.61658V13.2151H94.2966V16.9909H90Z" fill="white"/>
<path d="M34.4702 1.49729C35.3165 2.31103 35.8698 3.38517 36 4.55696C36 5.04521 35.8698 5.37071 35.5769 5.98915C35.2839 6.60759 31.6709 12.8571 30.5967 14.5823C29.9783 15.5913 29.6528 16.7957 29.6528 17.9675C29.6528 19.1718 29.9783 20.3436 30.5967 21.3526C31.6709 23.0778 35.2839 29.3599 35.5769 29.9783C35.8698 30.5967 36 30.8897 36 31.3779C35.8698 32.5497 35.349 33.6239 34.5027 34.4051C33.689 35.2514 32.6148 35.8047 31.4756 35.9024C30.9873 35.9024 30.6618 35.7722 30.076 35.4792C29.4901 35.1863 23.1103 31.6709 21.3852 30.5967C21.255 30.5316 21.1248 30.434 20.962 30.3689L12.434 25.3237C12.6293 26.9512 13.3454 28.5136 14.5172 29.6528C14.745 29.8807 14.9729 30.076 15.2333 30.2712C15.038 30.3689 14.8101 30.4665 14.6148 30.5967C12.8897 31.6709 6.60759 35.2839 5.98915 35.5769C5.37071 35.8698 5.07776 36 4.55696 36C3.38517 35.8698 2.31103 35.349 1.52984 34.5027C0.683544 33.689 0.130199 32.6148 0 31.443C0.0325497 30.9548 0.162749 30.4665 0.423146 30.0434C0.716094 29.425 4.32911 23.1429 5.40326 21.4177C6.0217 20.4087 6.3472 19.2369 6.3472 18.0326C6.3472 16.8282 6.0217 15.6564 5.40326 14.6474C4.32911 12.8571 0.683544 6.57505 0.423146 5.9566C0.162749 5.53345 0.0325497 5.04521 0 4.55696C0.130199 3.38517 0.650995 2.31103 1.49729 1.49729C2.31103 0.650995 3.38517 0.130199 4.55696 0C5.04521 0.0325497 5.53345 0.162749 5.98915 0.423146C6.50995 0.650995 11.0995 3.32007 13.5407 4.75226L14.094 5.07776C14.2893 5.20796 14.4521 5.30561 14.5823 5.37071L14.8427 5.53345L23.5335 10.6763C23.3382 8.72333 22.3291 6.93309 20.7667 5.72875C20.962 5.6311 21.1899 5.53345 21.3852 5.40326C23.1103 4.32911 29.3924 0.683544 30.0109 0.423146C30.434 0.162749 30.9222 0.0325497 31.443 0C32.5823 0.130199 33.6564 0.650995 34.4702 1.49729ZM18.4557 20.311L20.311 18.4557C20.5714 18.1953 20.5714 17.8047 20.311 17.5443L18.4557 15.689C18.1953 15.4286 17.8047 15.4286 17.5443 15.689L15.689 17.5443C15.4286 17.8047 15.4286 18.1953 15.689 18.4557L17.5443 20.311C17.7722 20.5389 18.1953 20.5389 18.4557 20.311Z" fill="#FF694A"/>
</svg>
