<svg fill="none" height="90" viewBox="0 0 248 90" width="248" xmlns="http://www.w3.org/2000/svg"><g fill="#fff"><path d="m154.123 13.9151v61.4376h-12.451v-6.2658c-1.302 2.1971-3.173 3.9873-5.452 5.1266-2.441 1.2206-5.208 1.8716-7.974 1.8716-3.418.0814-6.836-.8951-9.684-2.8481-2.929-1.953-5.208-4.6384-6.673-7.812-1.627-3.6618-2.441-7.5678-2.36-11.5551-.081-3.9874.733-7.8933 2.36-11.4738 1.465-3.0922 3.744-5.7776 6.592-7.6492 2.929-1.8716 6.347-2.7667 9.765-2.6853 2.685 0 5.37.5696 7.73 1.7902 2.279 1.1392 4.15 2.8481 5.452 4.9638v-20.7504zm-14.973 49.3128c1.627-2.1157 2.522-5.2079 2.522-9.1953 0-3.9873-.813-6.9982-2.522-9.1139s-4.395-3.3363-7.161-3.255c-2.767-.1627-5.452 1.0579-7.243 3.1736-1.708 2.1158-2.604 5.1266-2.604 9.0326 0 3.9873.896 7.0796 2.604 9.2767 1.709 2.1971 4.476 3.4177 7.243 3.3363 3.092 0 5.533-1.1392 7.161-3.255z"/><path d="m198.635 34.6656c2.929 1.8716 5.208 4.5569 6.591 7.6491 1.627 3.5805 2.441 7.4865 2.36 11.4738.081 3.9874-.733 7.9747-2.36 11.5552-1.465 3.1736-3.743 5.8589-6.673 7.8119-2.848 1.8716-6.266 2.8481-9.683 2.7667-2.767.0814-5.534-.5696-7.975-1.8716-2.278-1.1392-4.15-2.9294-5.371-5.1266v6.3473h-12.531v-57.2062l12.613-4.1501v25.0633c1.22-2.1971 3.092-3.9873 5.37-5.1266 2.442-1.302 5.127-1.953 7.894-1.8716 3.417-.0814 6.835.8951 9.765 2.6854zm-6.185 28.481c1.709-2.1971 2.523-5.2894 2.523-9.3581 0-3.9059-.814-6.9168-2.523-9.0325-1.709-2.1158-4.069-3.1736-7.161-3.1736-2.766-.1628-5.452 1.0578-7.242 3.2549-1.709 2.1972-2.523 5.208-2.523 9.114 0 3.9873.814 7.0795 2.523 9.1953 1.709 2.1971 4.394 3.4177 7.242 3.2549 2.767.1628 5.452-1.0578 7.161-3.2549z"/><path d="m225 42.4775v16.4376c0 2.3598.651 4.0687 1.791 5.1266 1.302 1.1392 3.01 1.7088 4.801 1.6274 1.383 0 2.848-.2441 4.15-.5696v9.7649c-2.36.8138-4.801 1.2207-7.243 1.1393-5.207 0-9.195-1.4648-11.962-4.3942-2.766-2.9295-4.15-7.0796-4.15-12.4503v-36.0488l12.613-4.0687v13.9963h10.742v9.4395z"/></g><path d="m86.1754 3.74322c2.1157 2.03436 3.4991 4.71971 3.8246 7.64918 0 1.2206-.3255 2.0344-1.0579 3.5805-.7323 1.5461-9.7649 17.17-12.4502 21.4828-1.5461 2.5226-2.3599 5.5335-2.3599 8.4629 0 3.0109.8138 5.9404 2.3599 8.463 2.6853 4.3128 11.7179 20.018 12.4502 21.5641.7324 1.5462 1.0579 2.2785 1.0579 3.4991-.3255 2.9295-1.6275 5.6149-3.7432 7.5679-2.0344 2.1157-4.7197 3.4991-7.5678 3.7432-1.2206 0-2.0344-.3255-3.4991-1.0579-1.4648-.7324-17.4141-9.5208-21.727-12.2061-.3255-.1628-.651-.4069-1.0578-.5697l-21.3201-12.613c.4882 4.0687 2.2785 7.9747 5.2079 10.8228.5697.5696 1.1393 1.0579 1.7903 1.5461-.4883.2441-1.0579.4883-1.5461.8138-4.3129 2.6853-20.0181 11.7179-21.5642 12.4502-1.5461.7324-2.2785 1.0579-3.5805 1.0579-2.92947-.3255-5.61482-1.6275-7.56781-3.7432-2.11573-2.0344-3.499093-4.7197-3.82459-7.6492.0813743-1.2206.406872-2.4412 1.05787-3.4991.73237-1.5461 9.76493-17.2514 12.45023-21.5642 1.5461-2.5226 2.3599-5.4521 2.3599-8.4629 0-3.0109-.8138-5.9404-2.3599-8.463-2.6853-4.4755-11.79924-20.1808-12.45023-21.7269-.650998-1.0579-.9764957-2.2785-1.05787-3.4991.325497-2.92947 1.62749-5.61482 3.74322-7.64918 2.03436-2.11573 4.71971-3.417723 7.64918-3.74322 1.2206.0813743 2.4412.406872 3.5805 1.05787 1.302.56962 12.7757 7.24231 18.8788 10.82283l1.3834.8137c.4882.3255.8951.5696 1.2206.7324l.651.4068 21.7269 12.8572c-.4882-4.8825-3.0108-9.3581-6.9168-12.3689.4883-.2441 1.0579-.4883 1.5461-.8138 4.3129-2.6853 20.0181-11.79924 21.5642-12.45023 1.0579-.650998 2.2785-.9764957 3.5805-1.05787 2.8481.325497 5.5335 1.62749 7.5678 3.74322zm-40.0362 47.03438 4.6384-4.6384c.651-.651.651-1.6274 0-2.2784l-4.6384-4.6384c-.651-.651-1.6274-.651-2.2784 0l-4.6384 4.6384c-.651.651-.651 1.6274 0 2.2784l4.6384 4.6384c.5696.5696 1.6274.5696 2.2784 0z" fill="#ff694a"/><path d="m247.079 71.4637-1.433 4.0327h-.532l-1.433-4.0225v4.0225h-.922v-5.4964h1.147l1.474 4.0839 1.474-4.0839h1.146v5.4964h-.921zm-5.128-.6346h-1.505v4.6673h-.931v-4.6673h-1.515v-.8291h3.951z" fill="#fff"/></svg>