<svg width="16" height="16" viewBox="0 0 16 16" fill="none" xmlns="http://www.w3.org/2000/svg">
<style>
    #bit { fill: #fff; }
    #bg { fill: #111827; }
    @media (prefers-color-scheme: dark) { 
      #bit {fill: #111827; }
      #bg { fill: #fff; }
  }
</style>
<rect id="bg" width="16" height="16" rx="2"/>
<path id="bit" d="M13.4904 2.49926C13.7719 2.77037 13.957 3.12889 14 3.51852C14 3.68148 13.957 3.78963 13.8593 3.99556C13.7615 4.20148 12.557 6.28444 12.1985 6.85926C11.9926 7.19556 11.8844 7.59704 11.8844 7.98815C11.8844 8.37926 11.9926 8.78074 12.1985 9.11704C12.557 9.69185 13.7615 11.7867 13.8593 11.9926C13.957 12.1985 14 12.2963 14 12.4593C13.957 12.8504 13.7837 13.2074 13.5007 13.4681C13.2296 13.7496 12.8711 13.9348 12.4919 13.9674C12.3289 13.9674 12.2207 13.9244 12.0252 13.8267C11.8296 13.7289 9.7037 12.557 9.12889 12.1985C9.08593 12.1763 9.04148 12.1437 8.98815 12.123L6.14519 10.4415C6.21037 10.9837 6.44889 11.5052 6.84 11.8844C6.91556 11.96 6.99259 12.0252 7.07852 12.0904C7.01333 12.123 6.93778 12.1556 6.87259 12.1985C6.29778 12.557 4.20296 13.7615 3.99704 13.8593C3.79111 13.957 3.69333 14 3.52 14C3.12889 13.957 2.77185 13.7837 2.51111 13.5007C2.22963 13.2296 2.04444 12.8711 2.00148 12.4815C2.01185 12.3185 2.0563 12.1556 2.14222 12.0148C2.24 11.8089 3.44444 9.71407 3.80296 9.13926C4.00889 8.80296 4.11704 8.41185 4.11704 8.01037C4.11704 7.60889 4.00889 7.21778 3.80296 6.88148C3.44296 6.28593 2.22815 4.19111 2.14074 3.98519C2.05333 3.84444 2.01037 3.68148 2 3.51852C2.04296 3.12889 2.2163 2.77037 2.49926 2.49926C2.77037 2.2163 3.12889 2.04296 3.51852 2C3.68148 2.01037 3.84444 2.05481 3.99556 2.14074C4.16889 2.2163 5.69926 3.10667 6.51259 3.5837L6.69778 3.69185C6.76296 3.73481 6.81778 3.76741 6.86074 3.78963L6.94815 3.84444L9.84444 5.55852C9.77926 4.90815 9.44296 4.31111 8.92148 3.90963C8.98667 3.87704 9.06222 3.84444 9.12741 3.80148C9.70222 3.44296 11.797 2.22815 12.003 2.14074C12.1437 2.05333 12.3067 2.01037 12.48 2C12.8593 2.04296 13.2178 2.2163 13.4889 2.49926H13.4904ZM8.15259 8.77037L8.77037 8.15259C8.85778 8.06519 8.85778 7.9363 8.77037 7.84889L8.15259 7.23111C8.06519 7.1437 7.9363 7.1437 7.84889 7.23111L7.23111 7.84889C7.1437 7.9363 7.1437 8.06519 7.23111 8.15259L7.84889 8.77037C7.92444 8.84593 8.06519 8.84593 8.15259 8.77037ZM13.4904 2.49926C13.7719 2.77037 13.957 3.12889 14 3.51852C14 3.68148 13.957 3.78963 13.8593 3.99556C13.7615 4.20148 12.557 6.28444 12.1985 6.85926C11.9926 7.19556 11.8844 7.59704 11.8844 7.98815C11.8844 8.37926 11.9926 8.78074 12.1985 9.11704C12.557 9.69185 13.7615 11.7867 13.8593 11.9926C13.957 12.1985 14 12.2963 14 12.4593C13.957 12.8504 13.7837 13.2074 13.5007 13.4681C13.2296 13.7496 12.8711 13.9348 12.4919 13.9674C12.3289 13.9674 12.2207 13.9244 12.0252 13.8267C11.8296 13.7289 9.7037 12.557 9.12889 12.1985C9.08593 12.1763 9.04148 12.1437 8.98815 12.123L6.14519 10.4415C6.21037 10.9837 6.44889 11.5052 6.84 11.8844C6.91556 11.96 6.99259 12.0252 7.07852 12.0904C7.01333 12.123 6.93778 12.1556 6.87259 12.1985C6.29778 12.557 4.20296 13.7615 3.99704 13.8593C3.79111 13.957 3.69333 14 3.52 14C3.12889 13.957 2.77185 13.7837 2.51111 13.5007C2.22963 13.2296 2.04444 12.8711 2.00148 12.4815C2.01185 12.3185 2.0563 12.1556 2.14222 12.0148C2.24 11.8089 3.44444 9.71407 3.80296 9.13926C4.00889 8.80296 4.11704 8.41185 4.11704 8.01037C4.11704 7.60889 4.00889 7.21778 3.80296 6.88148C3.44296 6.28593 2.22815 4.19111 2.14074 3.98519C2.05333 3.84444 2.01037 3.68148 2 3.51852C2.04296 3.12889 2.2163 2.77037 2.49926 2.49926C2.77037 2.2163 3.12889 2.04296 3.51852 2C3.68148 2.01037 3.84444 2.05481 3.99556 2.14074C4.16889 2.2163 5.69926 3.10667 6.51259 3.5837L6.69778 3.69185C6.76296 3.73481 6.81778 3.76741 6.86074 3.78963L6.94815 3.84444L9.84444 5.55852C9.77926 4.90815 9.44296 4.31111 8.92148 3.90963C8.98667 3.87704 9.06222 3.84444 9.12741 3.80148C9.70222 3.44296 11.797 2.22815 12.003 2.14074C12.1437 2.05333 12.3067 2.01037 12.48 2C12.8593 2.04296 13.2178 2.2163 13.4889 2.49926H13.4904ZM8.15259 8.77037L8.77037 8.15259C8.85778 8.06519 8.85778 7.9363 8.77037 7.84889L8.15259 7.23111C8.06519 7.1437 7.9363 7.1437 7.84889 7.23111L7.23111 7.84889C7.1437 7.9363 7.1437 8.06519 7.23111 8.15259L7.84889 8.77037C7.92444 8.84593 8.06519 8.84593 8.15259 8.77037Z"/>
</svg>