<svg fill="none" height="20" viewBox="0 0 20 20" width="20" xmlns="http://www.w3.org/2000/svg"><path d="m9.50625 2.71767-6.09494 2.28561c-.54796.20511-.91131.73256-.91131 1.31861v6.59601c0 .5333.30182 1.0197.77652 1.2571l6.09494 3.0475c.39558.1992.86154.1992 1.25704 0l6.095-3.0475c.4776-.2374.7765-.7267.7765-1.2571v-6.59601c0-.58605-.3634-1.11057-.9113-1.31568l-6.095-2.28561c-.3164-.12307-.66805-.12307-.98745-.00293zm.49525 1.81969 5.6261 2.10979v.03223l-5.6261 2.28561-5.62613-2.28561v-.03223zm.9376 10.43174v-4.3632l4.6885-1.90464v3.92364z" fill="#4b5563"/></svg>