<svg fill="none" height="20" viewBox="0 0 20 20" width="20" xmlns="http://www.w3.org/2000/svg"><path d="m17.4139 10.9399-1.886 3.2332c-.1468.2516-.357.4604-.6095.6055-.2526.1451-.5388.2214-.8301.2214h-10.41577c-.48237 0-.78292-.5233-.53987-.9399l1.88604-3.2332c.14678-.2516.35694-.4604.60953-.6055.2526-.1451.53881-.2214.8301-.2214h10.41577c.4823 0 .7829.5233.5398.9399zm-10.95557-1.77323h8.54167v-1.25c0-.69037-.5596-1.25-1.25-1.25h-4.16667l-1.66666-1.66667h-4.16667c-.69036 0-1.25.55964-1.25 1.25v7.2408l1.79888-3.0838c.44628-.76507 1.27375-1.24033 2.15945-1.24033z" fill="#4b5563"/></svg>