<svg fill="none" height="12" viewBox="0 0 12 12" width="12" xmlns="http://www.w3.org/2000/svg"><path d="m6 0c-3.31348 0-6 2.68749-6 6 0 3.31444 2.68652 6 6 6s6-2.68556 6-6c0-3.31251-2.68652-6-6-6zm0 2.66129c.56119 0 1.01613.45494 1.01613 1.01613s-.45494 1.01613-1.01613 1.01613-1.01613-.45494-1.01613-1.01613.45494-1.01613 1.01613-1.01613zm1.35484 6.14516c0 .16033-.12999.29032-.29032.29032h-2.12904c-.16033 0-.29032-.12999-.29032-.29032v-.58064c0-.16033.12999-.29033.29032-.29033h.29033v-1.54838h-.29033c-.16033 0-.29032-.13-.29032-.29033v-.58064c0-.16033.12999-.29032.29032-.29032h1.54839c.16033 0 .29032.12999.29032.29032v2.41935h.29033c.16033 0 .29032.13.29032.29033z" fill="#6b7280"/></svg>