<svg fill="none" height="250" viewBox="0 0 250 250" width="250" xmlns="http://www.w3.org/2000/svg" xmlns:xlink="http://www.w3.org/1999/xlink"><clipPath id="a"><path d="m35 29h180v191h-180z"/></clipPath><g clip-path="url(#a)" clip-rule="evenodd" fill-rule="evenodd"><path d="m124.669 58.8164c0 .1216-.199.2205-.442.2205s-.442.0994-.442.221-.198.2211-.441.2211c-.244 0-.442.0995-.442.2205 0 .1216-.199.221-.442.221s-.442.0752-.442.1669c0 .2134-1.163.7317-1.738.7748-.242.0183-.391.1122-.332.2084.096.1542-.484.2625-.64.1199-.033-.0304-.298.1658-.588.436-.29.2708-.86.6013-1.265.735-.406.1338-.737.3349-.737.4471 0 .1116-.13.2034-.288.2034-.406 0-1.475.5195-1.477.7179-.001.0911-.201.1657-.444.1657s-.441.0995-.441.2205c0 .1216-.199.2211-.442.2211s-.442.0995-.442.2205c0 .1216-.254.221-.565.221s-.512.0868-.446.1935c.066.1061-.265.2547-.736.3299-.474.0757-.914.2912-.988.483-.073.1907-.221.2918-.329.2255-.109-.0669-.432.0574-.72.2768-.586.4466-1.98 1.0534-2.234.9732-.092-.0293-.166.047-.166.168 0 .1216-.153.2211-.341.2211-.187 0-.554.1989-.814.4415-.261.2432-.704.4416-.985.4416s-.51.0995-.51.2211c0 .1215-.199.2205-.442.2205s-.442.0994-.442.221-.199.2211-.441.2211c-.243 0-.442.0746-.443.1652-.001.0912-.547.4145-1.214.7179-.667.3039-1.213.6267-1.214.7178 0 .0912-.2492.1658-.5527.1658-.3034 0-.5521.099-.5521.2205 0 .1216-.1492.2211-.3311.2211-.1824 0-.3316.0995-.3316.2205 0 .1216-.1984.221-.4416.221s-.4416.0995-.4416.2211c0 .121-.199.2205-.4416.2205-.2432 0-.4422.0995-.4422.2211 0 .121-.1984.2205-.4416.2205-.2426 0-.4416.0751-.4416.1669 0 .1757-.8356.5697-1.7669.8333-.3035.0862-.7263.309-.9385.4957-.2128.1868-.3864.2587-.3864.1603s-.1989.0011-.4421.2211c-.2427.2199-.4416.3221-.4416.2282 0-.0945-.1244-.0702-.2758.0542-.5886.4824-5.5696 2.9333-6.041 2.972-.2736.0227-.4493.1194-.3902.215.0912.1481-.0967.1934-.6959.1697-.063-.0028-.3305.1961-.5941.4415-.2631.2454-.5544.4465-.6467.4465s-1.0821.4969-2.1997 1.1042c-1.1181.6074-2.171 1.1042-2.3401 1.1042s-.5207.1984-.7815.4415c-.2609.2426-.7036.4416-.9844.4416s-.5107.0995-.5107.221c0 .1216-.1492.2205-.331.2205-.1824 0-.3317.1056-.3317.2344 0 .1282-.0912.1774-.2028.1083s-.3355.0066-.4969.168c-.1619.1619-.3675.3144-.4571.3393-.09.0254-.289.0868-.4421.137-.1531.0503-.477.1283-.7196.173-.2432.0442-.4146.2067-.3814.3603.0332.1537-.0331.2216-.1476.1504-.1149-.0708-.3432-.0034-.5079.1492-.1647.153-.441.31-.6151.3487-.3394.0751-1.8903.7991-2.4341 1.1362-.1824.1127-1.1264.5825-2.0981 1.0434-2.2616 1.0732-2.6883 1.4346-2.2312 1.8916.1829.183.2714.3946.1962.4698-.0752.0751-.0039.1365.1586.1365.4251 0 3.3118 1.3899 3.3118 1.5943 0 .0951.199.1725.4416.1725.2432 0 .4416.0934.4416.2078 0 .1149.199.1702.4422.1232.2426-.047.4416.0088.4416.1232s.1989.2084.4416.2084c.2432 0 .4416.0989.4416.2205 0 .1215.199.221.4421.221.2427 0 .4416.0995.4416.2205 0 .1216.2045.2211.4544.2211.2503 0 .3935.0995.3183.221-.0752.1211.0437.2238.2631.2277.488.0083 1.2209.5339 1.0219.7323-.079.079.0719.1442.335.1442s.4786.0989.4786.2205.0741.2089.1653.1945c.4836-.0762.9042.0719 1.3298.4681.2603.2432.6367.4416.8356.4416.199 0 .6251.1774.9479.3945.3222.2167.8843.5278 1.2486.6914.8323.3736 1.9825.9544 2.9773 1.5037l.7688.425 1.1861-.6239c.6528-.3432 1.3254-.624 1.4951-.624.1702 0 .3089-.0994.3089-.221 0-.121.199-.2205.4416-.2205.2432 0 .4427-.0746.4439-.1658.0016-.2017 1.0744-.7179 1.4906-.7179.1652 0 .2387-.0989.1641-.2205-.0751-.1216.068-.221.3178-.221.2504 0 .4549-.0995.4549-.2205 0-.1216.199-.2211.4416-.2211.2432 0 .4422-.0995.4422-.221 0-.1211.1785-.2206.3974-.2206.4935 0 1.5862-.4935 1.5884-.7178.0011-.0912.131-.1658.2891-.1658.4062 0 1.4757-.5189 1.4779-.7173.0005-.0912.2559-.1658.5665-.1658.3206 0 .5063-.0956.4289-.2211-.1211-.1956.3432-.3282.8445-.2415.1.0177.1194-.0702.042-.1945-.0768-.1244-.0365-.226.0896-.226.126 0 1.0014-.362 1.9454-.8036.944-.4421 1.7167-.7654 1.7167-.7189 0 .0469.3136-.1382.6966-.4112.383-.2724.905-.4957 1.159-.4957.255 0 .463-.0995.463-.2211 0-.121.199-.2205.442-.2205s.442-.0746.443-.1658c.003-.1934 1.068-.7178 1.46-.7178.148 0 .302-.0791.342-.1763.112-.2675 3.427-2.0321 3.818-2.0321.188 0 .342-.0989.342-.2205 0-.1215.199-.221.441-.221.244 0 .442-.0995.442-.2205 0-.1216.199-.2211.442-.2211s.442-.0994.442-.221c0-.1211.19-.2205.423-.2205s.457-.078.497-.1736c.089-.2089 3.547-1.9347 3.752-1.8723.079.0243.265-.1017.413-.2802.148-.1779.362-.3238.475-.3238.114 0 .79-.2896 1.502-.6433.713-.3531 1.354-.5852 1.423-.515.071.0701.128.0116.128-.1299 0-.142.199-.2581.442-.2581s.442-.0989.442-.2205.198-.221.441-.221.443-.0746.444-.1658c.002-.2012 1.074-.7174 1.491-.7174.165 0 .239-.0994.163-.221-.075-.1216.063-.2205.306-.2205s.503-.0995.578-.2211c.075-.1215.335-.221.578-.221s.381-.0995.305-.2205c-.077-.1255.108-.2211.429-.2211.311 0 .565.0995.565.2211 0 .121.199.2205.442.2205s.441.0995.441.221c0 .1216.199.2211.443.2211.242 0 .441.0989.441.2205s.199.221.442.221.441.0995.441.2205c0 .1216.15.2211.332.2211s.331.0995.331.2211c0 .121.199.2205.442.2205s.441.0994.441.221.199.2205.442.2205.442.0995.442.2211c0 .1215.146.221.326.221.443 0 2.324.9284 2.324 1.1478 0 .0973.174.1774.387.1785.212.0006.671.1498 1.019.3311.348.1812.77.3299.938.3299.169 0 .306.0995.306.221 0 .1211.159.2206.353.2206s.616.1834.938.4072c.323.2239.91.546 1.305.7163.394.1702.717.3846.717.4763 0 .0918.199.1669.442.1669s.442.0995.442.2211c0 .121.198.2205.442.2205.242 0 .441.0995.441.221 0 .1216.143.2205.318.2205.302 0 2.762 1.2545 2.995 1.527.061.0713.26.1613.442.2006.182.0392 1.247.5183 2.366 1.0649 1.12.5466 2.098.9798 2.174.9632.076-.0171.275.1498.442.3703.168.2205.308.3111.311.2017.004-.11.206-.0204.449.1995.243.22.442.3311.442.2476 0-.084.224-.0287.497.1227.273.152.571.2548.662.2288.092-.026.166.0525.166.1741 0 .1215.1.2205.223.2205.336 0 2.306.9472 2.39 1.1489.041.0973.265.1763.497.1763.233 0 .424.0995.424.221 0 .1211.248.2205.552.2205s.552.0995.552.2211.199.2205.441.2205c.244 0 .443.0995.443.221 0 .1216.198.2211.441.2211s.442.0989.442.2205.199.221.441.221c.244 0 .442.0995.442.2206 0 .1215.199.221.442.221s.442.0995.442.2211c0 .121.204.2205.455.2205.25 0 .393.0994.317.221-.074.1216.01.2205.188.2205.377 0 2.208.9163 2.316 1.1594.041.0912.264.1658.497.1658s.423.0995.423.2211c0 .121.199.2205.442.2205s.442.0995.442.221c0 .1216.19.2205.423.2205s.456.0945.497.2095c.04.1155.545-.0304 1.122-.3233.577-.2934 1.049-.4891 1.049-.4355 0 .0542.467-.1978 1.038-.5592.57-.362 1.166-.6577 1.325-.6577.158 0 .288-.0995.288-.221 0-.1216.193-.2211.429-.2211.235 0 .49-.0989.564-.2205.076-.1216.33-.221.566-.221s.429-.0995.429-.2205c0-.1216.204-.2211.454-.2211s.394-.0995.318-.221c-.075-.1211.069-.2206.319-.2206s.455-.0994.455-.221.199-.2205.441-.2205c.243 0 .442-.0995.442-.2211 0-.1215.187-.221.415-.221s.537-.1476.687-.3288c.15-.1807.361-.2741.469-.2078.108.0669.196.016.196-.1128 0-.1287.155-.2337.344-.2337.19 0 .283-.0995.208-.2211-.075-.121.068-.2205.318-.2205s.455-.0873.455-.1934.286-.2503.636-.3205c.35-.0697.775-.2559.944-.414.169-.1575.455-.3199.634-.3603.45-.1017 3.738-1.7408 4.11-2.0486.583-.4841.285-.8035-1.631-1.7507-1.063-.5256-1.982-1.0119-2.043-1.081-.06-.0691-.259-.1575-.441-.1973-.183-.0392-.365-.1636-.405-.2757-.041-.1128-.259-.2045-.484-.2045-.226 0-.467-.0918-.537-.2039-.069-.1122-.423-.2692-.786-.3488-.363-.0795-.66-.2343-.66-.3437 0-.11-.248-.2614-.552-.3377-.304-.0762-.552-.2337-.552-.3498 0-.1155-.183-.1796-.408-.1414-.224.0381-.572-.0675-.773-.2338-.201-.1669-.365-.2343-.365-.1498 0 .084-.157-.0038-.349-.1962-.192-.1917-.441-.2923-.552-.2232-.112.0691-.203.0199-.203-.1083 0-.1288-.149-.2344-.332-.2344-.181 0-.331-.0989-.331-.2205 0-.1215-.199-.221-.441-.221-.244 0-.442-.0995-.442-.2205 0-.1216-.255-.2211-.565-.2211-.321 0-.507-.0956-.429-.221.075-.121-.068-.2205-.319-.2205-.249 0-.454-.0995-.454-.2211s-.199-.2205-.442-.2205-.442-.0995-.442-.221c0-.1216-.198-.2211-.441-.2211s-.442-.0989-.442-.2205-.097-.221-.216-.221c-.445 0-4.18-1.9354-4.028-2.0868.087-.0873.059-.1382-.062-.1138-.521.105-1.01-.0249-.881-.2338.077-.1249.058-.2122-.042-.1951-.49.0851-.915-.0602-1.346-.462-.261-.2431-.624-.4415-.808-.4415-.408 0-1.942-.8395-2.166-1.1854-.089-.1376-.163-.173-.165-.0791-.002.0945-.327-.0005-.721-.2111-.396-.21-.793-.3619-.884-.3365-.091.0248-.165-.0476-.165-.1608 0-.2371-.86-.5687-1.27-.4902-.152.0293-.277-.0509-.277-.1774 0-.1271-.248-.2305-.552-.2305-.303 0-.552-.0995-.552-.221 0-.1216-.199-.2205-.442-.2205-.242 0-.441-.0995-.441-.2211s-.199-.221-.442-.221-.442-.0995-.442-.2205c0-.1216-.199-.2211-.442-.2211-.242 0-.441-.0995-.441-.2205 0-.1216-.199-.2211-.442-.2211s-.442-.0994-.442-.221c0-.121-.204-.2205-.454-.2205s-.394-.0995-.319-.2211c.075-.1215.002-.2205-.163-.2205-.417 0-1.489-.5167-1.492-.7178 0-.0912-.2-.1658-.443-.1658s-.441-.0995-.441-.2205c0-.1216-.199-.2211-.442-.2211s-.442-.0995-.442-.221c0-.1211-.199-.2205-.442-.2205-.242 0-.441-.0995-.441-.2211s-.199-.221-.442-.221-.442-.099-.442-.2205c0-.1216-.119-.2211-.265-.2211-.369 0-5.653-2.62-5.816-2.8842-.073-.1177-.218-.1625-.321-.0984-.103.0636-.326-.0221-.494-.1906-.169-.168-.624-.3758-1.012-.4609s-.705-.2465-.705-.3581c0-.1122-.199-.2034-.442-.2034s-.442-.0995-.442-.2211c0-.121-.199-.2205-.441-.2205-.243 0-.442-.0994-.442-.221s-.199-.2211-.442-.2211-.442-.074-.443-.1652c-.002-.1984-1.072-.7179-1.478-.7179-.158 0-.288-.0995-.288-.221 0-.1211-.198-.2205-.441-.2205s-.442-.0746-.443-.1658c0-.0912-.546-.4139-1.214-.7179-.667-.3034-1.213-.6261-1.213-.7173-.001-.0912-.188-.1658-.416-.1658s-1.161-.3974-2.072-.8831c-1.704-.9085-2.151-1.0462-2.151-.6626zm-.442 28.4872c0 .1216-.199.2211-.442.2211-.242 0-.441.0994-.441.221 0 .121-.199.2205-.442.2205s-.442.0995-.442.2211c0 .1215-.199.2205-.442.2205-.242 0-.441.0994-.441.221s-.199.2211-.442.2211-.442.0989-.442.2205-.199.221-.441.221c-.243 0-.442.0995-.442.2205 0 .1216-.199.2211-.442.2211s-.442.0995-.442.221c0 .1211-.2.2205-.445.2205-.423 0-1.307.3957-1.542.6908-.061.0763-.906.5029-1.878.9489-2.409 1.1047-8.785 4.3249-9.044 4.5681-.115.1078-.438.1967-.717.1967-.28 0-.508.0989-.508.2205s-.199.2211-.442.2211-.443.0746-.444.1652c-.002.1984-1.071.7179-1.478.7179-.158 0-.287.0746-.288.1658 0 .0912-.546.4139-1.213.7179-.668.3034-1.214.6261-1.2146.7173-.0005.0912-.1298.1658-.2879.1658-.4063 0-1.4757.5195-1.4779.7175-.0011.091-.2007.166-.4433.166-.2432 0-.4416.099-.4416.221 0 .121-.199.221-.4422.221-.2426 0-.4416.099-.4416.22 0 .122-.1741.222-.3863.222-.2128.001-.6715.15-1.0192.332-.3482.181-.7279.33-.8439.33-.1161 0-.3615.15-.545.333-.1829.183-.414.283-.5129.222s-.2366.036-.3051.215c-.0713.185-.2719.27-.4648.196-.1868-.071-.3399-.02-.3399.114 0 .135-.2045.245-.4549.245-.2498 0-.393.099-.3178.221.0746.121-.0602.22-.3001.22s-.4737.112-.519.249c-.0459.136-.3521.248-.6809.248h-.5986v8.679 8.679l1.2148.594c.6683.327 1.2149.683 1.2149.789 0 .108.1243.195.2758.194.3493-.002 4.0054 1.817 4.1043 2.042.0409.093.1945.168.3427.168.3918 0 1.4574.524 1.4596.718.0006.091.141.165.3118.165.3167 0 2.14.882 2.3396 1.132.061.076.434.208.828.294.396.085.718.247.718.358 0 .112.142.204.316.204s.468.152.655.339c.186.186.392.334.458.327.354-.035 1.222.293 1.222.462 0 .108.199.197.442.197.242 0 .441.099.441.22 0 .122.199.222.442.222s.442.099.442.22c0 .122.199.221.441.221.243 0 .442.1.442.221s.141.221.313.221.346.08.386.179c.041.098.591.434 1.224.746.631.312 1.079.637.993.723-.085.085-.056.135.066.111.558-.113 1.009.025.862.262-.089.145-.062.196.064.118.24-.148 3.221 1.315 3.344 1.64.04.108.239.196.441.197.203 0 .766.246 1.252.545s1.033.55 1.214.556c.183.006.58.206.884.443.304.238.681.435.837.438.157.002.563.21.901.46.34.251.758.489.931.529.829.195 1.306.409 1.306.587 0 .107.199.195.442.195s.442.099.442.221c0 .121.198.22.442.22.243 0 .441.1.441.221 0 .122.191.221.424.221.232 0 .46.113.507.252.094.284 1.719-.204 1.719-.517 0-.097.181-.177.401-.177.219 0 .613-.198.874-.441s.621-.442.801-.442.387-.095.458-.211c.072-.116.277-.155.455-.087.178.069.324.015.324-.12 0-.134.199-.244.442-.244.246 0 .442-.147.442-.331 0-.183.075-.315.166-.296.37.081 1.503-.354 1.911-.734.239-.223.616-.406.836-.406s.4-.099.4-.221c0-.121.19-.221.423-.221s.457-.074.497-.165c.104-.234 2.834-1.601 3.197-1.601.165 0 .3-.099.3-.221s.149-.221.331-.221.332-.1.332-.221.248-.221.552-.221c.303 0 .552-.099.552-.221 0-.121.204-.22.454-.22.251 0 .394-.1.319-.221-.076-.122.043-.228.263-.237s.697-.204 1.062-.434c.965-.608 3.28-1.754 3.509-1.736.108.008.257-.067.331-.169.132-.181 1.684-.953 1.908-.95.062.001.329-.199.593-.444.263-.246.698-.447.965-.447.268 0 .547-.155.62-.345s.221-.29.33-.224c.108.068.319-.024.468-.203.149-.18.359-.272.467-.206.107.066.195.016.195-.113s.199-.234.442-.234.442-.075.442-.166c0-.179 1.212-.771 1.459-.714.082.019.209-.051.283-.155.191-.269 3.829-2.06 4.179-2.058.159.001.227-.098.152-.219-.075-.122.016-.221.203-.221.185 0 .763-.239 1.282-.531l.945-.53.057-8.504.058-8.504-.664-.295c-.366-.162-.666-.369-.666-.461s-.11-.167-.245-.167c-.4 0-2.405-.976-2.405-1.171 0-.099-.091-.123-.203-.054s-.361-.033-.554-.226-.474-.309-.625-.259c-.151.051-.374-.041-.496-.205-.121-.164-.468-.346-.772-.404-.303-.058-.584-.206-.625-.329-.041-.122-.265-.222-.498-.222s-.424-.1-.424-.221c0-.122-.198-.221-.441-.221s-.442-.075-.444-.166c-.002-.201-1.074-.7175-1.491-.7175-.164 0-.239-.0995-.163-.2211.076-.1243-.103-.2205-.41-.2205-.301 0-.58-.0746-.621-.1658-.106-.2387-1.935-1.1594-2.303-1.1594-.171 0-.31-.0995-.31-.2205 0-.1216-.149-.2211-.332-.2211-.182 0-.331-.116-.331-.2575 0-.142-.062-.1962-.138-.1205-.128.1288-2.273-.8449-2.512-1.1417-.061-.0752-.26-.1658-.442-.2012-.542-.105-2.209-1.024-2.209-1.218 0-.0983-.105-.1133-.235-.0331-.13.0801-.386-.0387-.568-.2631-.184-.2249-.257-.2597-.165-.0774.187.3653-.507-.0851-.85-.552-.09-.1216-.164-.1459-.166-.0542-.002.0912-.475-.0752-1.052-.3697-2.191-1.1191-4.377-2.1155-4.64-2.1155-.151 0-.274-.0995-.274-.221 0-.1216-.199-.2211-.442-.2211s-.442-.0989-.442-.2205-.129-.2211-.287-.2211c-.406 0-1.476-.5194-1.478-.7178-.001-.0907-.201-.1653-.444-.1653-.242 0-.441-.0994-.441-.221s-.199-.2205-.442-.2205-.442-.0995-.442-.2211-.199-.221-.441-.221c-.243 0-.442-.099-.442-.2205 0-.1216-.199-.2211-.442-.2211s-.442-.0995-.442-.2205c0-.1216-.199-.221-.441-.221-.243 0-.442-.0995-.442-.2211 0-.121-.348-.2205-.773-.2205s-.773.0995-.773.2205z" fill="#acccfc"/><path d="m62.166 127.953c0 32.903-.0414 31.563.9777 31.563.1913 0 .3471.099.3471.221 0 .121.199.221.4416.221.2432 0 .4422.099.4422.22 0 .122.1984.221.4416.221.2426 0 .4416.1.4416.221 0 .122.1454.221.3228.221.3764 0 3.949 1.798 4.0573 2.043.0409.091.2001.165.3537.165.1543 0 .7174.23 1.2519.51.5339.28 1.3193.646 1.7443.814s1.1458.537 1.6012.819.8285.442.8285.356c0-.087.1188-.038.2647.108.1459.145.4438.264.6627.264s.3974.1.3974.221.199.221.4422.221c.2426 0 .4416.099.4416.221 0 .121.1984.22.4416.22.2426 0 .4416.1.4416.221 0 .122.1989.221.4416.221.2432 0 .4421.106.4421.236 0 .129.2504.204.5566.166l.5566-.07-.0028-30.586c-.0028-28.919-.0243-30.601-.3913-30.877-.2134-.16-1.8786-1.031-3.7009-1.934-1.8222-.903-3.5616-1.783-3.865-1.957-.304-.173-.8755-.445-1.2701-.605-.3946-.159-.7174-.364-.7174-.455 0-.093-.199-.167-.4421-.167-.2427 0-.4416-.1-.4416-.221 0-.122-.199-.221-.4417-.221-.2431 0-.4416-.099-.4416-.221s-.1989-.221-.4421-.221c-.2427 0-.4416-.081-.4416-.1797 0-.0989-.3477-.3161-.7727-.483-.4256-.1663-.7732-.384-.7732-.4824 0-.0989-.1404-.1796-.3123-.1796s-1.0628-.3979-1.9803-.8837c-.9169-.4857-1.7206-.8831-1.7852-.8831-.0652 0-.1183 13.9195-.1183 30.9325zm125.226-30.728c0 .1304-.248.2371-.552.2371-.303 0-.552.0994-.552.221 0 .121-.199.2205-.442.2205s-.441.0752-.441.1669-.323.3062-.718.4764-.982.4924-1.304.7168c-.323.2238-.7.4067-.838.4067s-.464.1989-.725.4416c-.261.243-.654.442-.874.442s-.4.099-.4.221c0 .121-.134.221-.298.221-.387 0-1.684.63-2.225 1.081-.233.195-.352.229-.263.077.231-.394.058-.341-.522.162-.277.24-.59.383-.696.318-.106-.066-.193-.033-.193.073 0 .105-.72.533-1.601.951-.88.418-1.651.821-1.711.895-.061.074-.483.267-.939.43-.455.163-.828.376-.828.473s-.18.177-.401.177c-.22 0-.617.203-.883.451l-.484.451.055 30.521.056 30.521.497.07c.274.039.497-.036.497-.166 0-.129.14-.236.311-.236.17 0 .692-.191 1.159-.424.467-.234 1.172-.557 1.567-.717.395-.161.718-.377.718-.482s.141-.136.315-.07c.173.067.434-.022.579-.197.146-.175.401-.318.568-.318.168 0 .304-.116.304-.258 0-.141.056-.202.125-.133.068.068.888-.248 1.822-.703.933-.454 2.592-1.258 3.685-1.787 1.094-.53 2.022-1.042 2.062-1.139.04-.096.264-.176.497-.176.232 0 .423-.077.423-.172s.447-.305.994-.466c.547-.162.994-.364.994-.449 0-.086.348-.292.773-.459l.774-.304-.056-30.927c-.053-29.2535-.076-30.9313-.442-31.0015-.213-.0409-.387.0321-.387.1625zm-28.008 34.385c-.524.27-1.191.647-1.483.838-.291.191-.682.347-.869.347-.186 0-.339.1-.339.221s-.124.221-.276.22c-.27 0-2.156.882-2.374 1.111-.061.064-.906.519-1.877 1.012-2.095 1.062-2.434 1.236-3.338 1.705-.377.197-.75.293-.828.216-.077-.078-.141-.037-.141.09 0 .229-2.33 1.478-2.51 1.346-.052-.038-.303.121-.559.352-.255.231-.468.331-.472.221s-.157-.001-.341.242c-.183.242-.362.392-.397.331-.086-.148-2.414.929-2.62 1.212-.089.123-.163.142-.165.043-.002-.1-.292.025-.645.276s-.775.459-.939.462c-.163.002-.546.199-.849.436-.304.238-.677.434-.829.437-.151.003-.275.104-.275.226 0 .121-.157.22-.347.22-.191 0-.497.151-.681.334-.183.183-.425.276-.536.207-.112-.069-.203-.02-.203.109 0 .128-.13.234-.288.234-.406 0-1.475.519-1.478.717 0 .092-.2.166-.443.166s-.443.075-.443.166c-.002.198-1.072.717-1.478.717-.158 0-.287.088-.287.195 0 .21-1.331.827-1.602.741-.091-.028-.165.047-.165.168 0 .122-.205.221-.455.221s-.393.1-.318.222c.075.121-.069.22-.318.22-.251 0-.455.1-.455.221 0 .122-.132.221-.294.221s-.764.238-1.337.528c-.987.499-1.762.541-2.03.108-.066-.107-.313-.194-.549-.194s-.429-.084-.429-.186-.394-.316-.876-.475-.823-.373-.76-.477c.065-.103-.088-.188-.338-.188s-.455-.099-.455-.221c0-.121-.074-.196-.165-.168-.271.086-1.602-.531-1.602-.741 0-.107-.074-.172-.165-.145-.248.073-1.602-.574-1.602-.766 0-.092-.198-.167-.441-.167s-.442-.087-.442-.193-.286-.251-.636-.32c-.35-.07-.785-.277-.967-.459-.183-.183-.378-.286-.435-.229-.055.056-.469-.148-.919-.453-.45-.304-.876-.554-.947-.554-.072 0-1.707-.796-3.635-1.768-1.927-.973-3.507-1.693-3.51-1.601-.004.092-.106-.003-.227-.211-.122-.207-.566-.442-.988-.521-.421-.079-.767-.214-.767-.299s-.347-.292-.772-.458c-.425-.167-.774-.384-.774-.483s-.139-.18-.31-.18c-.368 0-2.1972-.921-2.3028-1.159-.0409-.092-.2051-.166-.3659-.166-.3543 0-2.1815-.928-2.2848-1.159-.0404-.091-.188-.166-.3272-.166-.4217 0-3.0222-1.361-3.0222-1.581 0-.113-.1243-.183-.2763-.157-.3891.067-1.4907-.497-1.4907-.764 0-.122-.0624-.159-.1387-.083-.0757.076-.4189-.007-.7616-.184-1.6376-.847-1.5293-1.559-1.5293 10.012 0 10.765.0088 10.865.928 10.865.2183 0 .3973.081.3973.18s.3477.316.7733.483c.425.167.7726.36.7726.429s.3234.259.718.423c.3946.163 1.0656.441 1.4906.616.425.176.9457.414 1.1568.53.2106.116.5339.21.7174.21.1841 0 .3344.1.3344.221s.1293.221.2874.221c.1575 0 .4112.124.5632.276.1514.152.3454.284.4306.294.5654.066 1.369.394 1.369.558 0 .108.199.197.4421.197.2427 0 .4417.099.4417.221 0 .121.1984.221.4411.221.244 0 .442.08.442.179s.348.316.773.483.773.384.773.483.153.179.339.179c.187 0 1.09.398 2.007.884s1.814.883 1.993.883.264.099.189.221c-.076.122.068.221.318.221s.455.116.455.258c0 .141.064.193.142.114.122-.12 1.42.501 3.281 1.571.395.227 2.038.955 2.319 1.026.383.099 1.927.927 2.171 1.165.162.158.386.23.497.161.112-.069.203-.02.203.109 0 .128.199.233.442.233s.442.1.442.221.129.221.287.221c.406 0 1.476.519 1.478.718.001.091.206.165.456.165.251 0 .394.099.319.221-.078.125.108.221.428.221.311 0 .565.1.565.221s.199.221.442.221.442.099.442.221c0 .121.193.22.428.22.236 0 .491.1.566.221.075.122.329.221.565.221s.429.074.43.165c.007.697 2.292.902 3.09.277.304-.238.657-.435.785-.437.371-.008 1.421-.541 1.422-.723.001-.091.201-.165.444-.165s.442-.1.442-.221.254-.221.565-.221c.32 0 .506-.096.428-.221-.075-.122.068-.221.319-.221.25 0 .455-.099.455-.221 0-.121.19-.221.423-.221s.456-.078.497-.173c.081-.192 2.218-1.243 3-1.475.273-.081.497-.241.497-.354s.124-.204.276-.203c.337.005 3.332-1.424 5.365-2.559.51-.285.991-.456 1.066-.38.077.077.139.023.139-.118 0-.142.199-.258.442-.258s.442-.099.442-.221.198-.221.441-.221.443-.075.444-.165c.002-.194 1.068-.718 1.459-.718.148 0 .302-.075.342-.167.041-.091.77-.513 1.62-.937s1.579-.846 1.62-.938c.041-.091.264-.166.497-.166s.423-.1.423-.221c0-.122.199-.221.442-.221s.442-.099.442-.221.153-.221.34-.221.733-.201 1.215-.446c.48-.245.876-.37.877-.276.002.094.077.06.166-.074.142-.214 2.077-1.167 2.383-1.173.063-.001.272-.16.464-.353.193-.192.636-.407.986-.477s.636-.214.636-.32.199-.194.442-.194.441-.099.441-.22c0-.122.15-.221.332-.221s.331-.1.331-.221.157-.221.347-.221c.982 0 .986-.042.925-11.062-.064-11.657.064-10.893-1.673-9.998z" fill="#649cf4"/><path d="m122.82 29.7809c-.834.4228-1.655.7687-1.822.7687-.168 0-.305.0995-.305.2211 0 .121-.199.2205-.441.2205-.243 0-.442.0879-.442.1951s-.224.268-.497.357-.547.179-.608.2006c-.06.0215-.42.2045-.799.4073-.38.2028-.753.3061-.829.2299-.076-.0763-.138-.0227-.138.1193 0 .1415-.199.2576-.442.2576s-.442.0807-.442.1796-.348.3161-.773.483-.773.3841-.773.483c0 .0984-.15.1796-.334.1796-.361 0-1.24.441-1.453.7284-.071.0972-.342.1928-.601.2122-.259.0199-.523.1702-.586.3343-.063.1642-.215.2371-.337.1614-.123-.0757-.223-.0321-.223.0961 0 .1288-.198.2338-.441.2338s-.442.0995-.442.2211c0 .1215-.174.2232-.386.226-.213.0022-.635.1989-.939.4366-.304.2376-.726.4338-.939.4366-.213.0027-.386.0922-.386.1989 0 .1619-1.182.7753-1.546.803-.061.0044-.383.1906-.716.4134-.334.2227-.761.3454-.95.273-.198-.0763-.287-.0398-.21.0856.125.2017-.183.3172-.632.2371-.103-.0188-.369.1752-.59.4299-.221.2554-.464.4471-.539.4267-.266-.073-1.443.5067-1.443.7107 0 .1138-.085.1547-.188.0906-.104-.0641-.377.0265-.608.2006-.2302.1746-.5928.3205-.805.3244-.2128.0039-.3869.1061-.3869.2277s-.1487.221-.331.221c-.1824 0-.3311.099-.3311.2205 0 .1216-.1492.2211-.3316.2211s-.3328.1243-.3344.2758c-.0028.2166-.0409.2177-.1758.0049-.1265-.1989-.2559-.1553-.4869.1658-.1785.2476-.5704.4366-.9053.4366-.3245 0-.6472.1492-.7174.3316-.0697.1818-.2543.3343-.4101.3388-.4847.0127-1.9549.7869-1.7957.9455.0829.0829-.0647.1509-.3278.1509s-.4786.0995-.4786.221c0 .1211-.2543.2205-.5649.2205-.3205 0-.5063.0956-.4289.2211.0774.1249-.1083.2205-.4283.2205-.3112 0-.5654.0995-.5654.221 0 .1216-.199.2211-.4416.2211-.2432 0-.4416.0989-.4416.2205s-.199.2211-.4422.2211c-.2426 0-.4416.0994-.4416.2205 0 .1215-.1918.221-.4261.221-.2338 0-.5748.1492-.7572.331-.1819.1824-.5864.3316-.8993.3316-.3122 0-.5676.0995-.5676.2205 0 .1216-.1304.2211-.2896.2211s-.5029.1989-.7638.4415c-.2609.2432-.6815.4416-.9341.4416-.2531 0-.6737.1989-.9346.4421-.2609.2426-.6544.4415-.8744.4415-.2199 0-.3996.0995-.3996.2205 0 .1216-.1989.2211-.4421.2211-.2427 0-.4416.0995-.4416.2211 0 .121-.199.2205-.4416.2205-.2432 0-.4416.0994-.4416.221s-.199.2205-.4416.2205c-.2432 0-.4422.0995-.4422.2211 0 .1215-.1984.221-.4416.221-.2426 0-.4416.0989-.4416.2205s-.199.2211-.4416.2211c-.2432 0-.4416.0995-.4416.2205 0 .1216-.199.221-.4422.221-.2426 0-.4421.0746-.4432.1658-.0022.1984-1.0717.7173-1.478.7173-.158 0-.2874.0995-.2874.2211s-.1486.2211-.331.2211-.3322.0746-.3333.1652c-.0017.1984-1.0711.7179-1.4779.7179-.1575 0-.2869.0994-.2869.221 0 .121-.1989.2205-.4416.2205-.2432 0-.4421.0995-.4421.2211s-.1984.2205-.4416.2205c-.2427 0-.4416.0995-.4416.221 0 .1216-.1929.2211-.4289.2211-.2355 0-.4908.1006-.5671.2244-.0763.1232-.2316.1668-.3443.0972-.1133-.0696-.2056-.0215-.2056.1067 0 .1287-.0918.2337-.204.2337-.4968 0-2.4462 1.0224-2.4462 1.2833 0 .1586-.0934.2315-.2067.1613-.1791-.1105-2.1379.6787-2.4441.9848-.2636.2636-1.1258.6626-1.4325.6626-.1835 0-.3344.0995-.3344.2205 0 .1216-.1984.2211-.4416.2211-.2427 0-.4422.0746-.4433.1658-.0022.1984-1.0717.7173-1.4779.7173-.1581 0-.2874.0995-.2874.2211 0 .1215-.2045.221-.4549.221-.2498 0-.3929.0995-.3178.2205.0752.1216-.0685.2211-.3183.2211-.2504 0-.4555.0746-.4566.1658-.0022.1978-1.0716.7173-1.4779.7173-.158 0-.2874.0994-.2874.221s-.1901.2205-.4233.2205c-.2327 0-.456.0989-.4969.2194-.0404.1205-.3394.2404-.6649.2675-.3256.0271-.5433.1271-.4842.2227.0592.0956-.0232.1741-.1829.1741s-1.7764.7455-3.5931 1.6562c-1.8162.9108-3.435 1.6563-3.5964 1.6563-.1619 0-.5079.1989-.7683.4415-.4128.3847-.6135.4598-1.1684.4372-.1066-.0045-.3913.2105-1.0545.7952-.1487.131-.3935.1973-.5444.147s-.2742.0166-.2742.1481-.2028.2393-.451.2393c-.2476 0-.6643.199-.9246.4416-.2609.2431-.6047.4415-.7638.4415-.1598 0-.2897.0995-.2897.2211s-.2487.221-.5521.221c-.304 0-.5521.099-.5521.2205 0 .1216-.1493.2211-.3317.2211-.1818 0-.331.0995-.331.2205 0 .1216-.2487.221-.5522.221-.304 0-.5532.0746-.5538.1658-.0022.1736-1.0507.7174-1.3834.7174-.2233 0-.8235.5636-.8235.7731 0 .2719.6334.7731.9777.7731.1913 0 .3471.0989.3471.2205s.199.2211.4422.2211c.2426 0 .4416.0995.4416.2205 0 .1216.2481.221.5521.221.3035 0 .5522.0995.5522.2211 0 .121.2233.2221.4968.2238.4019.0028.4334.0442.1659.2177-.2582.1669-.1974.2145.2757.2172.3344.0022.6075.1028.6075.2244s.1989.2211.4416.2211c.2432 0 .4416.0989.4416.2205 0 .1215.1492.221.3316.221s.3311.0995.3311.2205c0 .1216.1989.2211.4416.2211.2432 0 .4421.0994.4421.221 0 .121.1294.2205.2869.2205.4068 0 1.4762.5195 1.4779.7179.0011.0912.2006.1658.4438.1658.2426 0 .4416.0989.4416.2205s.1907.221.4234.221.4565.0746.4968.1653c.0404.0912.5704.4001 1.1778.6869.6075.2868 1.3033.6278 1.5459.7582 1.505.8085 2.7873 1.3507 3.0531 1.2904.1006-.0226.1288.0459.063.152-.1221.1973.3051.4482 1.5774.9268.3947.1481.7174.357.7174.4636 0 .1067.199.194.4422.194.2426 0 .4416.0995.4416.2211 0 .1215.1492.221.3311.221.1824 0 .3316-.0995.3316-.221 0-.1216.1984-.2211.4416-.2211.2426 0 .4416-.0989.4416-.2205s.199-.2211.4416-.2211c.2432 0 .4416-.0994.4416-.2205 0-.1215.1741-.2227.3869-.2249.2122-.0022.9208-.2984 1.5735-.6587.6533-.3598 1.2674-.6046 1.3652-.5444.0978.0603.2338.0194.3023-.0917.1769-.2863 1.8438-1.1307 2.2318-1.1307.1785 0 .3244-.0834.3244-.1851 0-.1023.398-.3167.8838-.477.4858-.1608.8832-.3536.8832-.4288s.2736-.2548.6074-.3984c.3339-.1437.7567-.3532.9385-.4659.1824-.1128.8285-.4383 1.4359-.7229s1.1541-.5686 1.2143-.6311c.0608-.0624.2261-.1354.3675-.1624.141-.0266.6191-.2946 1.0623-.5952.4427-.3007.9485-.4919 1.1237-.4245.1746.0669.3178.0122.3178-.1226 0-.1343.205-.2443.4548-.2443.2504 0 .3936-.0995.3184-.2205-.1188-.1923.3288-.3261.8279-.247.0912.0143.1658-.0735.1658-.1951 0-.121.199-.2205.4416-.2205.2432 0 .4422-.0873.4422-.194 0-.1072.3228-.3183.7174-.4697 1.5918-.6113 1.9328-.7765 1.9328-.9362 0-.0917.1547-.1669.3443-.1669.204 0 .2802-.1039.1868-.2548-.1006-.1624-.0602-.195.1106-.0895.2962.1835 1.6155-.2813 1.4696-.5178-.0509-.0818.1741-.1702.4996-.1973.325-.0265.6246-.147.6649-.2675.0404-.1204.2642-.2188.4969-.2188s.4234-.1492.4234-.3316c0-.1818.0746-.3128.1658-.2901.2481.0613 1.8974-.6892 2.0477-.9318.0713-.116.398-.2332.7252-.2603.3272-.027.5952-.1271.5952-.2221 0-.0951.215-.1724.4787-.1724.263 0 .4101-.068.3271-.1515-.1553-.1553 1.7339-1.1378 2.2307-1.161.152-.0072.2764-.1122.2764-.2338 0-.121.2045-.2205.4549-.2205.2498 0 .3929-.0995.3178-.2211-.0774-.1249.1083-.2205.4288-.2205.3107 0 .5655-.0994.5655-.221s.1901-.2211.4228-.2211c.2332 0 .4565-.074.4974-.1652.1056-.2388 1.935-1.1594 2.3031-1.1594.1702 0 .3101-.0995.3101-.2211 0-.121.1989-.2205.4416-.2205.2431 0 .4421-.0928.4421-.2067 0-.1138.3477-.3321.7727-.4863.425-.1536.7732-.3647.7732-.4686 0-.1045.0873-.1354.194-.0697.2355.1454 1.573-.4935 1.573-.7521 0-.1011.1984-.1315.4416-.068.3117.0813.4416.0067.4416-.2547 0-.2034.0768-.3228.1708-.2648.0939.0581.7621-.1845 1.485-.5388.723-.3548 1.442-.6449 1.596-.6449.155 0 .282-.0989.282-.2205s.199-.2211.442-.2211c.242 0 .441-.0994.441-.2205 0-.1215.199-.221.442-.221s.442-.0995.442-.2211c0-.121.149-.2205.331-.2205s.331-.0994.331-.221c0-.121.199-.2205.442-.2205s.442-.0995.442-.2211.198-.221.442-.221c.242 0 .441-.099.441-.2205 0-.1216.199-.2211.442-.2211s.441-.0995.441-.2205c0-.1216.199-.221.443-.221.242 0 .441-.0995.441-.2211 0-.121.156-.2205.347-.2205s.497-.1503.681-.3332c.183-.1835.424-.2769.536-.2078.111.069.203.0199.203-.1083 0-.1288.199-.2344.442-.2344.242 0 .441-.0989.441-.2205 0-.1215.205-.221.455-.221s.393-.0995.319-.2205c-.078-.1255.107-.2211.428-.2211.311 0 .565-.0994.565-.221 0-.1211.162-.2205.361-.2205.369 0 1.906-.855 2.024-1.1269.036-.0828.26-.1005.497-.0386s.431.0022.431-.1338c0-.1359.199-.2464.442-.2464s.441-.0995.441-.2211.109-.2211.243-.2211c.133 0 .507-.189.832-.42.324-.231.787-.4548 1.028-.4968.24-.042.574-.2056.74-.3636.166-.1575.589-.3443.939-.4139.349-.0702.636-.1957.636-.2791 0-.084.348-.2885.773-.4554s.772-.3841.772-.483.199-.1796.443-.1796c.242 0 .441-.0995.441-.2211 0-.121.19-.2205.424-.2205.232 0 .473-.1243.534-.2763.089-.2205.115-.2205.129 0 .01.152.216.2763.459.2763s.442.0995.442.2205c0 .1216.247.2211.55.2211.311 0 .67.1918.827.4416.151.2431.381.4415.512.4415.13 0 .648.199 1.151.4421.503.2426 1.024.4416 1.159.4416.134 0 .173.1144.086.2547-.087.1415-.061.1957.058.1216.119-.0729.493.0111.833.1868.339.1763.712.32.828.32s.361.1503.545.3332c.183.1835.425.2769.536.2078.112-.0691.203-.0199.203.1083 0 .1288.149.2344.331.2344.183 0 .332.1099.332.2448 0 .1497.234.1962.607.1188.334-.0691.483-.0713.331-.0055-.378.1646-.351.6012.029.4553.167-.0641.43 0 .584.1421.219.2022.246.1868.121-.0724-.088-.1824.037-.1078.279.1658.241.273.597.4968.79.4968s.351.0994.351.2205c0 .1216.199.221.441.221.243 0 .442.0752.442.1669 0 .0923.416.2968.924.4554s1.194.4808 1.525.7162c.33.2354.815.4283 1.077.4283.261 0 .425.0823.362.1835-.062.1011.23.3183.65.483s.763.3907.763.5023c0 .1117.135.152.299.0884.164-.063.557.1249.874.4184.316.2929.833.5327 1.149.5327s.52.089.453.1973.119.2575.413.3316c.295.0741.667.262.827.4178.16.1564.73.4134 1.265.5714.536.1581 1.116.4283 1.288.6013.172.1724.405.2575.517.1884.112-.069.203-.0326.203.0813 0 .1144.298.331.663.4819.364.1508.662.3498.662.4426 0 .0923.224.2216.497.2863.857.2039 2.039.6908 2.653 1.0931.324.2122.692.3863.818.3863s.229.0995.229.2205c0 .1216.193.2211.428.2211.236 0 .49.0994.565.2204.076.1216.33.2211.566.2211.235 0 .428.0995.428.2211 0 .121.205.2205.455.2205s.394.0994.318.221c-.079.1288.145.2205.539.2205.372 0 .676.0995.676.2211s.199.221.442.221c.242 0 .441.0995.441.2205 0 .1216.199.2211.442.2211s.442.0995.442.2205c0 .1216.199.221.442.221.242 0 .442.0746.443.1658.002.1984 1.072.7173 1.478.7173.158 0 .287.0995.287.2211s.149.2211.331.2211c.183 0 .331.0994.331.2205 0 .1215.117.221.259.221.399 0 3.275 1.4004 3.275 1.5944 0 .095.199.1724.442.1724s.442.0995.442.2205c0 .1216.139.221.309.221.321 0 2.674 1.1799 3.164 1.5872.155.1288.282.152.282.052 0-.1001.118-.0625.264.0834s.444.2647.663.2647.397.0995.397.2211.199.221.442.221.442.0989.442.2205.199.2211.442.2211c.242 0 .441.0995.441.2205 0 .1216.199.221.442.221s.442.0995.442.2211c0 .121.199.2205.442.2205.242 0 .441.0995.441.221 0 .1211.199.2205.442.2205s.442.0995.442.2211.19.2211.423.2211.457.0746.497.1663c.041.0917.769.5134 1.62.9378.85.4239 1.579.8455 1.619.9373.041.0917.264.1669.497.1669s.423.0989.423.2205.199.221.442.221.442.0995.442.2205c0 .1216.079.1962.176.1658.218-.0685 2.336.987 2.437 1.2147.041.0912.259.1658.485.1658.225 0 .475.1061.556.2354.08.1299.289.1807.466.1133.176-.0679.266-.0353.2.0719-.146.2354.496.515.779.3398.111-.0685.202.0304.202.22 0 .1895.074.3233.165.2973.091-.0254.392.0785.668.231.275.1531.614.2083.751.1232.154-.0945.19-.0558.093.1006-.099.1608.01.2548.297.2548.25 0 .455.0995.455.221 0 .1211.199.2205.442.2205s.441.0752.441.1669c0 .3294 1.419.6151 1.933.3885.273-.1199.497-.294.497-.3868s.199-.1686.442-.1686c.242 0 .441-.0994.441-.2205 0-.1215.199-.221.442-.221s.442-.1056.442-.2338c0-.1287.099-.1724.221-.0972.121.0746.221.0309.221-.0979 0-.1282.198-.2337.441-.2337s.442-.0862.442-.1923c0-.1056.472-.3222 1.049-.4808.577-.1592 1.198-.446 1.381-.6378.181-.1917.629-.4852.993-.6521.365-.1669 1.024-.4891 1.466-.7162.442-.2266.963-.4123 1.159-.4123s.357-.0928.357-.2066c0-.1139.348-.3322.773-.4858.425-.1542.773-.3592.773-.4565 0-.0967.149-.1763.331-.1763s.331-.0995.331-.2205c0-.1216.205-.221.455-.221s.394-.0995.318-.2211c-.077-.1249.109-.2205.429-.2205.311 0 .566-.0746.567-.1658.002-.1984 1.071-.7179 1.478-.7179.158 0 .287-.0928.287-.2061 0-.1138.348-.3327.773-.4863s.773-.3587.773-.4559c0-.0973.199-.1763.442-.1763s.442-.0995.442-.2211.156-.2205.347-.2205c.344 0 .978-.5012.978-.7731 0-.2725-.634-.7731-.978-.7731-.191 0-.347-.0995-.347-.2206 0-.1215-.199-.221-.442-.221s-.442-.0995-.442-.2205c0-.1216-.149-.2211-.331-.2211s-.332-.0994-.332-.221c0-.121-.248-.2205-.552-.2205-.303 0-.552-.0813-.552-.1796 0-.0989-.348-.3161-.773-.483s-.773-.3841-.773-.483c0-.099-.198-.1796-.441-.1796-.244 0-.442-.0995-.442-.2205 0-.1216-.199-.2211-.442-.2211s-.442-.0995-.442-.221c0-.1211-.139-.2205-.31-.2205-.368 0-2.197-.9213-2.303-1.1595-.041-.0912-.245-.1658-.455-.1658s-.583-.1873-.829-.4161c-.245-.2288-.78-.4891-1.188-.5786-.409-.0901-.869-.2752-1.023-.4123-.791-.7013-.993-.8013-1.619-.8013-.4 0-.731-.1359-.806-.331-.07-.1824-.315-.3316-.545-.3316s-.418-.0995-.418-.2205c0-.1216-.199-.2211-.442-.2211s-.442-.0994-.442-.221c0-.121-.199-.2205-.442-.2205s-.441-.0995-.441-.2211c0-.121-.13-.2205-.288-.2205-.406 0-1.475-.5194-1.478-.7178-.001-.0912-.148-.1658-.327-.1658-.334 0-2.707-1.2048-3.087-1.5667-.115-.11-.444-.2001-.73-.2001-.291 0-.461-.0973-.385-.2205.075-.1216-.018-.2211-.208-.2211-.189 0-.344-.0994-.344-.2205 0-.1215-.261-.221-.581-.221-.321 0-.754-.199-.965-.4416-.211-.2431-.645-.4636-.964-.4902-.32-.0259-.582-.1072-.582-.1796 0-.1901-1.751-1.0969-2.119-1.0969-.171 0-.311-.0995-.311-.2211 0-.121-.15-.2205-.335-.2205s-.73-.2487-1.21-.5521c-.481-.3039-1.026-.5521-1.211-.5521-.184 0-.335-.0994-.335-.221s-.13-.2205-.288-.2205c-.406 0-1.475-.5195-1.478-.7179-.001-.0912-.141-.1658-.31-.1658-.17 0-.876-.2979-1.569-.6626-.692-.3642-1.358-.662-1.478-.662s-.472-.199-.78-.4422c-.309-.2426-.701-.4415-.873-.4415-.171 0-.524-.1984-.785-.4416-.261-.2426-.634-.4415-.83-.4415-.195 0-.45-.0862-.565-.1912-.381-.3465-2.647-1.5071-3.479-1.7817-.449-.1487-.817-.372-.817-.4968 0-.1255-.142-.173-.315-.1067s-.434-.0221-.579-.1973c-.145-.1746-.401-.3183-.569-.3183-.167 0-.304-.0785-.304-.1746 0-.0962-.452-.2963-1.005-.4444-.693-.1851-.957-.3537-.848-.5427.086-.1503.079-.2033-.016-.1171-.095.0856-.554-.0387-1.02-.2763-.467-.2377-1.001-.4322-1.188-.4322s-.34-.0995-.34-.221c0-.1211-.199-.2205-.442-.2205s-.442-.0995-.442-.2211-.198-.2205-.441-.2205-.442-.0746-.444-.1658c-.002-.1984-1.071-.7179-1.477-.7179-.159 0-.288-.0806-.288-.1796 0-.0989-.347-.3161-.773-.483-.425-.1663-.773-.3841-.773-.4824 0-.0989-.199-.1796-.441-.1796-.244 0-.442-.0995-.442-.2211s-.255-.221-.565-.221c-.321 0-.507-.0956-.429-.2205.075-.1216-.068-.2211-.318-.2211s-.455-.0995-.455-.2205c0-.1216-.199-.221-.442-.221s-.442-.0995-.442-.2211c0-.121-.198-.2205-.441-.2205s-.442-.0995-.442-.2211c0-.1215-.249-.2205-.552-.2205s-.552-.0878-.552-.195c0-.1973-.716-.5029-1.326-.5648-.181-.0188-.306-.1537-.275-.2996.03-.1464-.138-.2658-.374-.2658-.235 0-.491-.1011-.567-.2243-.076-.1233-.232-.1675-.344-.0973-.114.0696-.206-.0282-.206-.2172 0-.1896-.153-.3443-.339-.3443s-.829-.2487-1.428-.5521c-.599-.3039-1.242-.5521-1.428-.5521s-.339-.0994-.339-.221-.199-.2211-.442-.2211-.441-.0989-.441-.2205c0-.1215-.149-.221-.332-.221-.182 0-.331-.0884-.331-.1962 0-.1083-.447-.3288-.994-.4902-.546-.1614-.994-.3526-.994-.4244 0-.0724-.348-.268-.773-.4349s-.773-.3841-.773-.483c0-.099-.129-.1796-.287-.1796-.406 0-1.476-.5195-1.478-.7174-.001-.0912-.2-.1658-.443-.1658s-.442-.0994-.442-.221-.129-.2205-.287-.2205c-.407 0-1.476-.5195-1.478-.7179-.001-.0912-.195-.1658-.43-.1658-.236 0-.491-.0994-.566-.2205-.075-.1216-.329-.221-.565-.221s-.428-.0995-.428-.2211c0-.121-.154-.2205-.341-.2205s-.554-.1989-.815-.4421c-.26-.2426-.629-.4167-.819-.3863-.189.0304-.32-.0691-.289-.2205.03-.152-.144-.2763-.387-.2763s-.442-.105-.442-.2338c0-.1287-.083-.1823-.184-.1199-.102.063-.644-.1299-1.205-.4283s-1.161-.5427-1.334-.5427-.438-.1492-.59-.3316c-.479-.5775-1.955-.3951-3.615.446zm-87.8196 99.4921c0 48.964-.0503 46.585.9777 46.585.1913 0 .3471.099.3471.221 0 .121.199.22.4422.22.2426 0 .4416.1.4416.221 0 .122.2293.221.5101.221.2813 0 .7241.199.9849.442.2609.243.6832.442.938.442.2553 0 .4029.099.3277.22-.0752.122.0597.221.2996.221.2404 0 .4709.104.5134.231.042.127.2946.247.561.267s.4372.084.3792.142c-.1139.113 1.8515 1.093 2.2356 1.114.1288.007.4499.214.7136.459.2636.246.5339.438.6007.427.2095-.035 1.4343.52 3.7993 1.722 1.2546.637 2.4131 1.159 2.5739 1.159.1603 0 .4554.181.6549.401.1996.221.8611.537 1.4697.703.609.165 1.107.382 1.107.482s.199.181.4416.181c.2432 0 .4422.074.4427.166 0 .09.5466.413 1.2137.717.6672.304 1.2138.627 1.2138.718.0005.091.2001.166.4427.166.2432 0 .4416.099.4416.22 0 .122.199.221.4416.221.2432 0 .4422.1.4422.221s.1984.221.4416.221c.2426 0 .4416.099.4416.221 0 .121.1989.22.4416.22.2432 0 .4416.1.4416.221 0 .122.2487.221.5521.221.304 0 .5522.099.5522.221 0 .121.1492.221.3316.221s.331.099.331.22c0 .122.1907.221.4234.221s.4565.076.4969.167c.0409.091.7693.514 1.6199.938.8501.423 1.5791.846 1.6195.937.0403.092.2476.167.4603.167.2123 0 .461.074.5522.166.0906.09.2316.169.3128.174.0807.005.4654.179.8539.386.3886.208.8606.378 1.0491.378.1884 0 .3421.099.3421.221 0 .121.1989.22.4421.22.2427 0 .4416.1.4416.222 0 .121.1902.22.4234.22.2327 0 .456.075.4969.167.0403.092.7693.513 1.6194.937.8506.425 1.579.846 1.6199.938.0404.092.2637.166.4969.166.2327 0 .4234.1.4234.221 0 .122.2542.221.5648.221.3206 0 .5063.096.4289.221-.0751.122-.0016.221.1636.221.4168 0 1.489.516 1.4912.717.0006.092.2001.166.4433.166.2426 0 .4416.1.4416.221 0 .122.1989.221.4416.221.2432 0 .4421.099.4421.221 0 .121.1487.221.3311.221s.3311.099.3311.22c0 .122.2083.221.4631.221.2543 0 .7263.178 1.0491.394.3222.218.8843.54 1.2485.718.3648.178.7124.373.7732.435.2504.254 1.7808.679 1.9864.552.1222-.075.2222.017.2222.207 0 .189.0746.351.1658.361.7196.071 1.2817.251 1.3436.431.0404.118.2139.215.3863.215.1719 0 .3129.099.3129.22 0 .122.1492.221.331.221.1824 0 .3317.1.3317.221s.1519.221.3382.221c.4952 0 3.4267 1.462 3.262 1.626-.0773.078.1747.141.5594.141.3846 0 .6997.074.6997.166.0005.09.5472.413 1.2143.717s1.2131.627 1.2137.718c.0005.091.1498.165.3322.165.1823 0 .331.1.331.221 0 .122.1791.221.398.221.2183 0 .4919.091.6074.203.4715.457 2.7505 1.497 2.7645 1.262.008-.138.124-.023.259.255.139.29.372.457.545.391.166-.064.358.031.427.21.069.18.219.269.333.199.114-.071.371.004.571.166.311.252.337.247.179-.036-.102-.182.034-.106.302.171.268.275.581.443.695.373s.208-.017.208.119c0 .135.088.192.195.126.108-.067.319.027.469.207.15.181.41.329.577.329.168 0 .304.116.304.258 0 .141.065.193.144.114.149-.149 1.901.721 2.029 1.008.04.091.295.166.565.166.271 0 .706.199.967.441.26.244.624.442.807.442.184 0 .685.199 1.114.442s1.131.64 1.559.883c.429.243.926.442 1.105.442.178 0 .325.074.326.166.002.186 1.062.717 1.434.717.133 0 .367.124.519.276s.346.29.43.306c.578.111 1.149.383 1.149.548 0 .107.146.195.325.195.178 0 .676.197 1.106.439.429.241.805.439.834.44.289.006 1.49.583 1.49.715 0 .095.148.173.331.173.182 0 .331.074.331.166.001.415 1.819.284 2.202-.159.215-.247.538-.449.719-.449.182 0 .684-.24 1.116-.533s.844-.475.914-.405c.071.071.129.013.129-.129s.174-.258.387-.258c.212-.001.711-.2 1.109-.443.398-.242.897-.44 1.111-.44.213 0 .53-.199.705-.442.176-.243.446-.442.601-.442.156 0 .283-.077.283-.172s.273-.195.608-.223c.333-.027.64-.148.681-.269.04-.12.214-.219.386-.219s.313-.099.313-.221c0-.121.24-.22.534-.22.293 0 .566-.075.607-.166.106-.239 1.935-1.16 2.303-1.16.17 0 .31-.099.31-.22 0-.122.199-.221.442-.221s.442-.1.442-.221.198-.221.442-.221c.242 0 .441-.099.441-.221 0-.121.205-.22.455-.22s.393-.1.318-.221c-.075-.122.068-.221.318-.221.251 0 .455-.09.455-.2s.199-.148.442-.085c.243.064.442.017.442-.104 0-.23 1.313-.859 1.601-.768.091.029.165-.046.165-.168s.157-.221.347-.221c.192 0 .497-.149.679-.331.181-.182.597-.396.923-.475.325-.08.641-.204.702-.277.218-.261 1.105-.684 1.433-.684.183 0 .333-.099.333-.22 0-.122.189-.221.419-.221s.475-.15.546-.334c.07-.183.205-.321.299-.307.336.051 1.166-.297 1.166-.489 0-.108.199-.195.442-.195s.442-.075.444-.166c.001-.198 1.071-.718 1.477-.718.158 0 .287-.099.287-.22 0-.122.191-.221.424-.221.232 0 .456-.075.497-.166.103-.234 2.833-1.601 3.196-1.601.166 0 .3-.1.3-.221s.199-.221.442-.221.442-.095.442-.211c0-.115.348-.275.773-.355s.773-.231.773-.336c0-.184 2.059-1.162 2.317-1.1.071.017.282-.123.469-.31.188-.188.433-.285.545-.216.111.069.202.02.202-.109 0-.128.199-.234.443-.234.242 0 .442-.074.443-.165.002-.198 1.072-.718 1.478-.718.158 0 .287-.083.287-.185 0-.245 1.011-.698 1.557-.698.237 0 .431-.099.431-.221 0-.121.141-.221.313-.221s.346-.074.386-.166c.041-.09.968-.597 2.061-1.124 1.094-.527 2.187-1.068 2.43-1.201 1.086-.594 3.008-1.484 3.206-1.484.12 0 .217-.099.217-.22 0-.122.199-.222.442-.222s.442-.105.442-.233c0-.129.088-.18.195-.113.108.066.315-.022.46-.197.145-.174.628-.437 1.074-.583.446-.147 1.181-.499 1.634-.785.454-.285.917-.517 1.031-.517s.257-.125.318-.277c.086-.211.116-.207.129.015.013.207.204.159.659-.165.353-.251.75-.457.883-.457.134 0 .242-.1.242-.221s.193-.221.429-.221.49-.099.565-.221c.075-.121.308-.22.516-.22.21 0 .524-.199.699-.442s.551-.442.835-.442c.288 0 .456-.097.38-.22-.075-.122.068-.221.318-.221s.455-.105.455-.234.091-.178.203-.108c.112.069.365-.037.564-.236.198-.198.598-.361.888-.361s.582-.143.649-.318c.067-.174.222-.255.345-.18.122.076.223.057.223-.041.003-.208 1.059-.731 1.478-.731.158 0 .288-.099.288-.22 0-.122.248-.221.552-.221.303 0 .552-.1.552-.221s.149-.221.331-.221c.183 0 .332-.099.332-.221 0-.121.19-.22.423-.22s.462-.116.509-.256c.047-.141.323-.293.616-.337.292-.045.606-.203.698-.352.093-.148.296-.282.452-.297 1.024-.096 1.733-.391 1.623-.677-.066-.172-.025-.254.092-.182.116.072.5-.018.853-.201.352-.182.703-.285.779-.229.076.055.091.037.033-.041-.123-.166 1.804-1.183 2.241-1.183.162 0 .294-.099.294-.22 0-.122.199-.222.442-.222s.442-.099.442-.22c0-.122.198-.221.441-.221s.442-.1.442-.221.199-.221.442-.221.441-.099.441-.221c0-.121.199-.221.442-.221s.442-.099.442-.22c0-.122.198-.221.442-.221.243 0 .442-.075.442-.166s.547-.414 1.214-.717c.667-.304 1.214-.627 1.214-.718s.15-.166.332-.166.331-.099.331-.221c0-.121.249-.221.553-.221.303 0 .552-.099.552-.22 0-.122.156-.221.347-.221 1.028 0 .978 2.379.978-46.58 0-40.6967-.038-45.949-.331-45.949-.183 0-.332.105-.332.2338 0 .1282-.091.1774-.203.1083s-.355.026-.54.2117c-.186.1857-.417.3155-.515.2885-.098-.0266-.6.1724-1.116.4421-.516.2702-.939.4321-.939.3603 0-.0719-.157.0265-.349.2183-.192.1923-.44.2929-.552.2238-.111-.0691-.203-.0205-.203.1083s-.199.2338-.442.2338c-.242 0-.441.0873-.441.1939 0 .1067-.299.3178-.663.4687s-.663.3404-.663.4216c0 .0807-.222.1636-.493.1841-.272.0204-.529.1409-.571.268-.042.1265-.273.2304-.513.2304s-.375.0995-.3.2211c.077.1243-.102.2205-.41.2205-.301 0-.58.0807-.621.1796-.04.0989-.918.6035-1.951 1.1207-1.032.5173-1.971 1.0329-2.087 1.1451-.115.1127-.444.2045-.73.2045-.292 0-.461.0978-.385.221.075.1216-.018.2211-.208.2211-.189 0-.344.0989-.344.2205s-.199.221-.442.221-.441.0995-.441.2205c0 .1216-.199.2211-.442.2211s-.442.0995-.442.2211c0 .121-.138.2205-.308.2205-.566 0-.575.5714-.579 35.8481-.002 19.332-.076 35.257-.165 35.388-.09.132-.478.376-.865.544-.386.168-.644.399-.573.513.071.115.032.148-.088.074-.119-.073-.698.11-1.286.408-.589.298-1.202.541-1.363.541-.162 0-.294.1-.294.221 0 .122-.193.221-.429.221s-.491.101-.567.225c-.077.123-.214.178-.304.122-.092-.056-.434.146-.761.449-.327.304-.694.491-.815.416-.121-.074-.275.009-.343.185-.073.19-.297.276-.55.209-.235-.061-.428-.001-.428.135s-.149.247-.331.247-.331.099-.331.221c0 .121-.193.22-.429.22s-.49.1-.565.221c-.075.122-.287.221-.471.221-.183 0-.483.15-.667.334-.183.182-.424.276-.537.207-.111-.069-.203-.02-.203.109 0 .128-.198.233-.441.233s-.442.1-.442.221c0 .122-.199.221-.441.221-.243 0-.442.099-.442.221 0 .121-.188.221-.418.221s-.475.147-.544.327c-.071.186-.272.272-.466.198-.186-.072-.339-.021-.339.113 0 .135-.149.245-.332.245-.182 0-.331.1-.331.221s-.199.221-.442.221c-.242 0-.441.099-.441.22 0 .122-.199.221-.442.221s-.442.1-.442.221-.199.221-.441.221c-.243 0-.442.099-.442.221s-.199.22-.442.22-.442.1-.442.222c0 .121-.199.221-.441.221-.243 0-.442.099-.442.22 0 .122-.199.221-.442.221s-.442.075-.443.166c-.002.198-1.072.717-1.478.717-.158 0-.287.1-.287.221 0 .122-.191.221-.423.221-.234 0-.457.074-.498.166-.1.227-1.669.938-2.068.938-.178 0-.324.099-.324.221s-.19.221-.423.221-.457.083-.498.185c-.09.228-4.623 2.465-4.994 2.465-.148 0-.269.099-.269.221 0 .121-.149.22-.332.22-.181 0-.331.1-.331.222 0 .121-.199.22-.441.22-.243 0-.442.1-.442.221 0 .122-.199.221-.442.221s-.442.099-.442.221c0 .121-.19.221-.423.221s-.46.111-.506.248-.352.249-.681.249-.598.086-.598.192c0 .107-.149.194-.331.194-.183 0-.332.099-.332.221 0 .121-.129.22-.287.22-.406 0-1.476.52-1.478.718-.001.091-.2.166-.443.166s-.442.1-.442.221-.248.221-.552.221-.552.08-.552.178c0 .199-1.783 1.049-2.043.974-.091-.027-.166.04-.166.148 0 .109-.249.26-.552.336s-.552.242-.552.369c0 .126-.089.174-.198.107-.108-.068-.254.025-.323.204-.071.185-.272.27-.465.196-.186-.072-.34-.021-.34.114s-.074.228-.165.209c-.272-.059-1.39.454-2.112.968-.388.276-.594.344-.487.16.102-.176-.06-.096-.361.177s-.792.497-1.091.497c-.3 0-.688.199-.863.442-.175.242-.551.441-.835.441-.288 0-.456.098-.38.221.075.121-.068.221-.318.221s-.455.099-.455.221c0 .121-.204.221-.455.221-.25 0-.393.099-.318.221.075.121.002.221-.164.221-.416 0-1.488.516-1.49.717-.001.091-.255.166-.564.166s-.774.199-1.035.441c-.261.243-.654.442-.874.442s-.4.099-.4.221c0 .121-.249.221-.552.221-.304 0-.553.099-.553.22 0 .122-.199.222-.441.222-.243 0-.442.075-.442.166 0 .092-.299.299-.664.461s-.608.383-.541.493c.068.11-.03.141-.217.068-.205-.078-.398.018-.484.242-.099.257-.192.293-.301.117-.114-.184-.255-.159-.506.092-.191.191-.498.348-.681.348-.184 0-.396.099-.471.221-.075.121-.379.22-.676.22-.296 0-.539.1-.539.221 0 .122-.129.221-.287.221s-.411.124-.563.276-.346.28-.431.285c-.327.02-1.709.838-1.866 1.105-.09.154-.364.228-.607.165-.247-.065-.442-.007-.442.131 0 .136-.19.247-.424.247-.232 0-.473.124-.534.276-.089.221-.115.221-.129 0-.01-.152-.216-.276-.459-.276s-.442-.1-.442-.221c0-.122-.149-.221-.331-.221s-.331-.099-.331-.221c0-.121-.14-.221-.311-.221-.369 0-2.197-.921-2.303-1.16-.041-.092-.157-.116-.259-.053-.101.062-.341-.044-.533-.236s-.349-.29-.349-.218-.422-.09-.939-.361c-.516-.269-1.016-.469-1.11-.444-.095.026-.23-.103-.3-.286-.07-.184-.291-.337-.491-.341-.199-.003-.555-.153-.791-.331s-.609-.324-.829-.324c-.219 0-.399-.099-.399-.221 0-.121-.199-.22-.442-.22-.242 0-.441-.1-.441-.222 0-.121-.199-.22-.442-.22s-.442-.1-.442-.221c0-.122-.129-.221-.287-.221-.406 0-1.476-.52-1.478-.717-.001-.092-.201-.166-.443-.166-.243 0-.442-.1-.442-.221s-.249-.221-.552-.221c-.304 0-.552-.099-.552-.221 0-.121-.205-.22-.455-.22s-.394-.1-.318-.221c.075-.122-.068-.221-.319-.221-.25 0-.455-.1-.455-.221 0-.122-.204-.221-.454-.221s-.393-.1-.318-.221-.069-.221-.319-.221-.454-.099-.454-.221c0-.121-.199-.22-.442-.22s-.442-.1-.442-.221c0-.122-.15-.221-.334-.221-.374 0-1.245-.446-1.466-.75-.078-.108-.288-.142-.465-.074-.176.068-.579-.117-.896-.41-.316-.293-.727-.532-.915-.532s-.341-.1-.341-.222c0-.121-.074-.197-.166-.168-.27.086-1.6008-.531-1.6008-.742 0-.106-.1929-.194-.4289-.194-.2355 0-.4908-.101-.5671-.224-.0762-.123-.2315-.168-.3443-.097-.1133.069-.2056.021-.2056-.108 0-.128-.199-.233-.4416-.233-.2432 0-.4422-.1-.4422-.221s-.1984-.221-.4416-.221c-.2426 0-.4416-.099-.4416-.22 0-.122-.1503-.221-.3344-.221-.184 0-.5068-.088-.7179-.195-.2106-.108-.6815-.332-1.0457-.497-.3648-.166-.7124-.351-.7732-.412s-.6307-.359-1.2663-.663c-.6361-.304-1.1579-.627-1.1595-.718-.0022-.091-.2333-.165-.514-.165-.2808 0-.7241-.199-.9849-.442-.2604-.243-.5776-.442-.7042-.442-.1265 0-.2299-.099-.2299-.22 0-.122-.2299-.222-.5107-.222s-.7235-.198-.9843-.441c-.2609-.243-.6716-.442-.912-.442-.241 0-.4996-.099-.5748-.221-.0752-.121-.2869-.221-.4704-.221-.1834 0-.483-.148-.6648-.33-.1824-.183-.5975-.397-.9231-.477-.3255-.081-.7527-.33-.9489-.553-.1968-.223-.5196-.406-.718-.406s-.3603-.096-.3603-.214-.1393-.161-.309-.095c-.1702.065-.3758.011-.4571-.121-.0812-.132-.2404-.183-.3537-.113-.1128.07-.2056.029-.2056-.09 0-.246-1.2353-.913-1.6902-.913-.1636 0-.2973-.099-.2973-.221 0-.121-.1503-.221-.3344-.221-.184 0-.5068-.091-.7179-.202-.2106-.111-.7064-.322-1.101-.469-.3952-.146-.718-.353-.718-.459 0-.107-.1492-.194-.331-.194-.1824 0-.3317-.1-.3317-.221 0-.122-.0779-.197-.1735-.166-.1829.058-3.1714-1.383-3.3599-1.621-.0608-.076-.488-.274-.9484-.438-.4609-.166-1.0286-.477-1.2607-.694-.2327-.217-.6555-.394-.9401-.394-.2847 0-.6284-.111-.7639-.246-.294-.294-.9987-.703-2.0427-1.185-.4206-.194-.8202-.442-.8877-.551-.0668-.109-.3714-.231-.6765-.272-.305-.041-.9489-.314-1.4314-.608-.4825-.293-.9938-.512-1.1364-.486s-.3228-.055-.3996-.179c-.0768-.125-.2902-.227-.4742-.227-.1835 0-.4842-.15-.6671-.333-.1835-.184-.425-.277-.5367-.208-.1116.069-.2028.02-.2028-.108 0-.129-.1294-.235-.2874-.235-.4063 0-1.4757-.519-1.4779-.717-.0011-.091-.131-.166-.2891-.166-.4062 0-1.4757-.519-1.4779-.718-.0006-.09-.1752-.165-.388-.165-.367 0-.3836-1.829-.3294-35.775.0508-31.8857.021-35.7751-.2786-35.7751-.4195 0-2.4025-.9108-2.5026-1.149-.0403-.0967-.2144-.1757-.3863-.1757s-.3128-.0995-.3128-.2211c0-.1215-.2764-.221-.6141-.221-.3604 0-.745-.1824-.9318-.4416-.1752-.2426-.4262-.4415-.5572-.4415-.3681 0-1.427-.5317-1.4292-.7179-.0006-.0912-.2001-.1652-.4433-.1652s-.4416-.0995-.4416-.2211-.1492-.221-.3316-.221c-.1819 0-.3311-.099-.3311-.2205 0-.1216-.199-.2211-.4416-.2211-.2432 0-.4416-.0995-.4416-.2205 0-.1216-.2526-.2211-.5615-.2211-.309 0-.7711-.195-1.0275-.4338-.2559-.2387-.551-.3818-.655-.3177-.1039.0646-.2481-.0382-.3211-.2283-.0729-.1901-.2537-.3454-.4012-.3454-.1476 0-.8838-.2978-1.6366-.662-.7522-.3648-1.4652-.6626-1.5851-.6626-.1194 0-.2172-.0995-.2172-.2211s-.1421-.2205-.3156-.2205-.4466-.1299-.6074-.2885c-.3278-.3244-.933-.5885-1.6719-.7295l-.4969-.095z" fill="#4484f4"/><path d="m167.736 49.7681c0 .1918.857.5355.995.3985.042-.0426-.164-.1918-.459-.3305-.295-.1393-.536-.1697-.536-.068zm-32.451 5.2014c.143.1724.417.3134.608.3134.448 0-.007-.5002-.523-.5764-.274-.0398-.292.0138-.085.263zm-38.886 8.8466c0 .1183-.2736.3299-.6074.4703-.5527.2321-.5577.2437-.0553.1282.6544-.1503 1.0241-.4521.8136-.6626-.0829-.0829-.1509-.0542-.1509.0641zm102.92 1.8458c0 .1216.149.221.331.221s.331-.0994.331-.221c0-.121-.149-.2205-.331-.2205s-.331.0995-.331.2205zm-128.5707 11.0367-.5212.4366.6058-.2708c.3332-.1493.6063-.3454.6074-.4366.0027-.2537-.1249-.2034-.692.2708zm-8.7835 4.4382c-1.1573.6267-1.3657.9649-.2409.3907 1.2192-.6223 1.1987-.6085 1.086-.7135-.0503-.0469-.4311.0979-.8451.3228zm107.4242 55.8542c0 16.701.027 23.533.059 15.183.032-8.351.032-22.015 0-30.365s-.059-1.518-.059 15.182zm-108.4367 30.035c.1934.313 1.6404 1.085 1.736.926.0514-.085-.3427-.367-.8755-.627-.5328-.261-.9202-.395-.8605-.299zm18.6613 9.507c0 .129.0928.177.2056.107.1133-.07.268-.026.3443.098.0763.123.2515.224.3885.224.1377 0 .0575-.146-.1785-.324-.5129-.388-.7599-.422-.7599-.105zm-32.0228 5.22c.0017.181 1.1275.778 1.2453.661.0359-.036-.2305-.239-.5909-.452-.3609-.213-.6555-.307-.6544-.209zm3.7716 1.915c.445.389 1.1695.622.8932.287-.1669-.203-.4565-.368-.6445-.368-.1873 0-.2995.036-.2487.081zm82.8586 10.599c-.561.277-.624.483-.221.715.152.088.206.081.12-.014s.063-.356.331-.58c.546-.456.496-.482-.23-.121zm-45.552 7.865c0 .096.1984.226.4416.29.2426.063.4416.037.4416-.059s-.199-.226-.4416-.29c-.2432-.063-.4416-.037-.4416.059zm53.889 9.243c0 .142-.223.269-.497.284-.409.021-.424.044-.087.131.441.113.984-.272.735-.522-.083-.082-.151-.034-.151.107z" fill="#4484fc"/><g fill="#4884f4"><path d="m80.6046 136.881c0 16.64.0259 23.414.058 15.054.032-8.359.032-21.974 0-30.254-.0321-8.28-.058-1.44-.058 15.2z"/><path d="m80.6046 136.881c0 16.64.0259 23.414.058 15.054.032-8.359.032-21.974 0-30.254-.0321-8.28-.058-1.44-.058 15.2z"/></g></g></svg>