<svg version="1.1" id="Layer_1" xmlns="http://www.w3.org/2000/svg" xmlns:xlink="http://www.w3.org/1999/xlink" x="0px" y="0px"
	 width="100%" viewBox="0 0 177 177" enable-background="new 0 0 177 177" xml:space="preserve">
<path fill="#000000" opacity="1.000000" stroke="none" 
	d="
M94.000000,178.000000 
	C62.666668,178.000000 31.833338,178.000000 1.000004,178.000000 
	C1.000003,119.000008 1.000003,60.000011 1.000001,1.000012 
	C59.999989,1.000008 118.999977,1.000008 177.999969,1.000004 
	C177.999985,59.999989 177.999985,118.999977 178.000000,177.999985 
	C150.166672,178.000000 122.333336,178.000000 94.000000,178.000000 
M143.175385,34.744072 
	C140.486420,31.479324 137.797455,28.214577 134.836273,24.331043 
	C132.238449,22.182638 129.640640,20.034231 126.759216,17.249834 
	C117.902092,11.449027 117.902092,11.449027 115.350861,13.695863 
	C118.316498,19.853323 121.241608,25.926626 124.044220,32.794701 
	C125.391342,38.993633 126.738457,45.192570 128.154007,51.706432 
	C126.190529,51.882256 124.597168,52.024933 122.083504,52.023376 
	C117.724823,52.071472 113.366135,52.119572 108.259743,52.021656 
	C106.201988,50.709457 104.144226,49.397255 102.086472,48.085049 
	C103.391022,46.667713 104.695580,45.250378 106.740440,43.727295 
	C107.160454,43.496555 107.568581,43.090813 108.002258,43.061359 
	C114.370209,42.628906 117.025024,37.881817 116.897560,33.524902 
	C116.707726,27.036531 113.473366,24.778263 105.101501,25.023228 
	C102.068390,25.071100 99.035286,25.118971 95.111061,25.023361 
	C92.407593,25.071043 89.704132,25.118723 86.106560,25.023600 
	C84.113403,25.016006 82.118607,24.952969 80.127403,25.011635 
	C74.981712,25.163242 71.009453,29.095068 71.003433,33.980896 
	C70.995995,40.017879 73.918175,42.957214 80.035576,42.988686 
	C82.356865,43.000629 84.678787,42.888966 87.753952,42.989487 
	C89.167381,44.613911 90.580818,46.238335 91.994255,47.862762 
	C90.309143,49.226330 88.708931,50.721745 86.897087,51.888527 
	C86.173119,52.354748 84.982361,52.096115 83.123550,52.024406 
	C79.417389,51.738930 75.711220,51.453453 71.092644,51.024723 
	C67.396027,51.072105 63.699413,51.119488 59.103371,51.024319 
	C56.069023,51.071674 53.034676,51.119030 49.152874,51.024357 
	C46.754349,51.311146 44.355820,51.597935 41.217571,51.984070 
	C36.380238,53.719982 33.584858,57.659859 34.007053,62.146755 
	C34.356606,65.861649 38.045647,69.409180 42.746868,69.989197 
	C45.014103,70.897652 48.144703,71.782341 46.727734,74.824791 
	C45.980431,76.429367 42.988564,77.026543 40.960453,77.971985 
	C40.399353,78.233551 39.660130,78.113007 38.163837,78.025879 
	C37.498837,78.017792 36.831997,77.973503 36.169117,78.007195 
	C29.097128,78.366722 25.728294,82.005844 26.001360,88.974113 
	C26.225029,94.681801 29.354780,97.073814 36.520550,96.992287 
	C37.348511,96.982872 38.175503,96.887917 39.909542,96.974503 
	C43.273151,96.927414 46.636761,96.880325 50.907410,96.974747 
	C54.272030,96.927605 57.636650,96.880455 61.923950,96.974655 
	C66.615540,96.927643 71.307121,96.880630 76.916138,96.974945 
	C80.943253,96.928017 84.970367,96.881081 89.915161,96.975693 
	C93.942886,96.928474 97.970619,96.881256 102.906151,96.974464 
	C106.272514,96.927071 109.638870,96.879677 113.798492,96.973495 
	C115.365700,96.973495 116.932907,96.973495 118.888779,96.973495 
	C117.440437,99.887939 116.198547,102.386948 114.057854,104.982277 
	C111.038933,105.044044 108.020012,105.105820 104.110275,105.024002 
	C101.407303,105.071640 98.704330,105.119270 95.102310,105.023392 
	C92.068459,105.071617 89.034615,105.119850 85.121170,105.024826 
	C82.746017,105.071831 80.370872,105.118828 77.068710,105.023262 
	C70.049202,105.071541 63.029697,105.119827 55.096405,105.025139 
	C51.399521,105.072502 47.702633,105.119873 43.172634,105.025261 
	C38.936012,104.883896 35.169128,105.466324 32.683250,109.659096 
	C30.514540,113.316917 30.339151,116.698982 32.658150,120.216080 
	C35.461102,124.467209 39.716457,124.216225 44.922295,123.974190 
	C48.951061,123.926987 52.979824,123.879784 57.934605,123.974045 
	C64.607498,124.353127 71.280388,124.732216 78.008011,125.821541 
	C79.606194,128.654175 78.253609,130.552994 75.207710,132.024399 
	C67.513466,132.926620 64.518303,136.280350 65.001884,143.452026 
	C65.373260,148.959702 68.722549,151.207718 76.898949,150.974823 
	C79.932884,150.927612 82.966820,150.880386 86.829735,150.974426 
	C89.481590,150.834610 92.128395,150.704651 93.236320,154.746826 
	C95.533913,159.070740 99.273949,161.202896 104.909470,161.974777 
	C108.273804,161.927612 111.638138,161.880463 115.895172,161.974823 
	C119.597458,162.260925 123.299751,162.547012 127.913879,162.974899 
	C131.610016,162.927734 135.306137,162.880569 139.750870,163.224045 
	C143.167938,163.426865 146.585007,163.629684 150.778320,163.973724 
	C155.691269,162.888184 161.067032,161.815979 162.206894,156.071777 
	C162.911667,152.520172 161.698654,148.596115 161.403076,144.834824 
	C161.227448,142.599609 161.161484,140.355759 161.706207,137.810593 
	C162.803909,135.212204 164.967407,132.523712 164.757126,130.035873 
	C164.415558,125.995102 162.759033,122.194893 166.496613,118.776527 
	C166.987976,118.327118 166.536316,116.234116 165.922852,115.292152 
	C162.765762,110.444305 164.557144,108.211861 169.352432,105.692863 
	C176.992920,101.679260 176.688248,98.015236 169.852249,92.199837 
	C166.258286,89.142448 163.292221,85.346931 159.762131,81.248940 
	C158.170792,77.984360 156.123611,74.855797 155.099060,71.422096 
	C153.696243,66.720726 153.070251,61.787579 152.016922,56.147335 
	C149.215698,49.182411 146.414490,42.217491 143.175385,34.744072 
M48.010555,33.609772 
	C48.321438,34.686810 48.580849,35.781937 48.951935,36.837814 
	C50.753578,41.964176 54.926273,44.123409 60.737598,42.970188 
	C64.900894,42.144012 67.498108,37.685490 66.997688,32.223778 
	C66.561928,27.467787 63.387482,25.290859 57.694794,24.924301 
	C51.767563,24.542639 49.800632,28.394423 48.010555,33.609772 
M43.040745,139.043243 
	C40.980324,147.145615 49.450268,153.512634 56.371799,150.219818 
	C60.254654,148.372589 62.292210,145.248672 61.837349,141.281204 
	C61.298340,136.579742 58.251415,132.890030 53.480732,132.384018 
	C49.189140,131.928848 45.196507,133.740540 43.040745,139.043243 
M5.547656,95.024544 
	C8.494560,95.677406 11.469207,96.966545 14.382110,96.839546 
	C19.198082,96.629570 21.457535,92.331490 20.998056,85.619934 
	C20.743336,81.899292 17.498484,79.142647 13.391613,78.981071 
	C9.625459,78.832901 5.940293,79.059769 4.073558,82.923187 
	C2.190226,86.820953 2.244505,90.796394 5.547656,95.024544 
z"/>
<path fill="#56CACB" opacity="1.000000" stroke="none" 
	d="
M152.111328,56.953770 
	C153.070251,61.787579 153.696243,66.720726 155.099060,71.422096 
	C156.123611,74.855797 158.170792,77.984360 159.893372,82.042725 
	C160.016525,98.984352 159.967377,115.132393 160.046982,131.279800 
	C160.058228,133.560059 160.697586,135.837204 161.046204,138.115799 
	C161.161484,140.355759 161.227448,142.599609 161.403076,144.834824 
	C161.698654,148.596115 162.911667,152.520172 162.206894,156.071777 
	C161.067032,161.815979 155.691269,162.888184 150.389771,163.445099 
	C150.001831,140.333191 150.002426,117.749908 150.332855,95.005470 
	C155.564056,89.430618 155.418320,86.415176 150.113342,79.716248 
	C150.792313,73.493164 152.708069,67.571655 149.095734,61.607662 
	C148.976288,60.156036 148.927963,59.096333 149.215454,57.971806 
	C150.404617,57.589249 151.257965,57.271507 152.111328,56.953770 
z"/>
<path fill="#50C7CE" opacity="1.000000" stroke="none" 
	d="
M150.003021,95.166626 
	C150.002426,117.749908 150.001831,140.333191 150.001648,163.374481 
	C146.585007,163.629684 143.167938,163.426865 139.376068,162.570648 
	C139.001816,149.000412 139.002350,136.083542 139.324463,123.014389 
	C143.427429,121.007004 146.435394,117.983170 145.723312,113.829147 
	C145.075195,110.048103 142.591980,106.977951 137.681732,106.669174 
	C136.037903,106.565804 133.624847,103.933784 133.300812,102.143204 
	C133.027802,100.634552 134.904861,98.100304 136.505890,97.068306 
	C138.101730,96.039642 140.535004,96.289162 142.607147,96.025810 
	C145.069077,95.712914 147.537445,95.450768 150.003021,95.166626 
z"/>
<path fill="#47C1D2" opacity="1.000000" stroke="none" 
	d="
M123.003807,52.167614 
	C124.597168,52.024933 126.190529,51.882256 128.154007,51.706432 
	C126.738457,45.192570 125.391342,38.993633 124.433884,32.210201 
	C125.215340,29.941460 125.716156,28.273743 125.974503,26.569275 
	C126.411362,23.687031 126.694847,20.781540 127.042816,17.885826 
	C129.640640,20.034231 132.238449,22.182638 134.736191,24.986103 
	C134.423859,34.705494 134.211609,43.769829 133.559418,52.906082 
	C131.864639,52.978004 130.609802,52.978004 128.856964,52.978004 
	C128.856964,58.870926 128.856964,64.300468 128.856964,70.166100 
	C131.809311,70.166100 134.905472,70.166100 138.001190,70.605026 
	C138.000717,73.973679 138.000717,76.903412 137.545685,79.905891 
	C133.407974,80.023911 129.725311,80.069176 126.020950,79.807465 
	C125.984795,79.295845 125.970345,79.091194 125.975281,78.477425 
	C125.262398,75.226822 129.631027,70.532852 123.003181,69.375092 
	C123.003105,63.334457 123.003456,57.751034 123.003807,52.167614 
z"/>
<path fill="#36B6D9" opacity="1.000000" stroke="none" 
	d="
M106.000137,43.833046 
	C104.695580,45.250378 103.391022,46.667713 102.086472,48.085052 
	C104.144226,49.397255 106.201988,50.709457 108.632431,52.551689 
	C109.006088,58.665272 109.007057,64.248817 108.548897,69.904922 
	C104.060440,69.929382 100.031113,69.881271 96.001480,69.374962 
	C96.001518,54.333458 96.001846,39.750149 96.002174,25.166842 
	C99.035286,25.118971 102.068390,25.071100 105.550835,25.552401 
	C106.000160,31.998732 106.000145,37.915890 106.000137,43.833046 
z"/>
<path fill="#49C2D1" opacity="1.000000" stroke="none" 
	d="
M139.002869,123.166687 
	C139.002350,136.083542 139.001816,149.000412 139.001770,162.375336 
	C135.306137,162.880569 131.610016,162.927734 127.457504,162.445953 
	C127.001373,149.000259 127.001610,136.083496 127.457809,123.095901 
	C131.610138,123.072273 135.306503,123.119484 139.002869,123.166687 
z"/>
<path fill="#41BED4" opacity="1.000000" stroke="none" 
	d="
M127.001846,123.166733 
	C127.001610,136.083496 127.001373,149.000259 127.001587,162.375061 
	C123.299751,162.547012 119.597458,162.260925 115.448303,161.446014 
	C115.001404,148.333939 115.001366,135.750656 115.457336,123.096550 
	C119.609505,123.072723 123.305672,123.119728 127.001846,123.166733 
z"/>
<path fill="#19A5E5" opacity="1.000000" stroke="none" 
	d="
M50.000328,51.166389 
	C53.034676,51.119030 56.069023,51.071674 59.552658,51.553326 
	C60.014297,58.094112 60.026642,64.105888 59.867691,70.434029 
	C58.840260,72.297951 56.923912,74.380066 57.372513,75.269775 
	C58.073315,76.659698 60.375954,77.241982 61.988228,78.582039 
	C61.651432,84.942863 61.326351,90.888084 61.001270,96.833305 
	C57.636650,96.880455 54.272030,96.927605 50.453785,96.445969 
	C50.000214,81.000252 50.000271,66.083321 50.000328,51.166389 
z"/>
<path fill="#2FB2DB" opacity="1.000000" stroke="none" 
	d="
M95.556618,25.095100 
	C96.001846,39.750149 96.001518,54.333458 95.545441,69.446686 
	C91.394325,69.928589 87.698967,69.880569 84.003235,69.375320 
	C84.003265,63.334541 84.003670,57.750988 84.004082,52.167439 
	C84.982361,52.096115 86.173119,52.354748 86.897087,51.888527 
	C88.708931,50.721745 90.309143,49.226330 91.994255,47.862762 
	C90.580818,46.238335 89.167381,44.613911 87.377045,42.454430 
	C87.000320,36.335052 87.000488,30.750729 87.000664,25.166405 
	C89.704132,25.118723 92.407593,25.071043 95.556618,25.095100 
z"/>
<path fill="#21AAE1" opacity="1.000000" stroke="none" 
	d="
M77.953278,125.111298 
	C71.280388,124.732216 64.607498,124.353127 57.470287,123.446472 
	C56.674046,117.001976 56.342121,111.085037 56.010193,105.168106 
	C63.029697,105.119827 70.049202,105.071541 77.532806,105.552429 
	C77.982361,112.424835 77.967819,118.768066 77.953278,125.111298 
z"/>
<path fill="#13A1E7" opacity="1.000000" stroke="none" 
	d="
M49.576599,51.095375 
	C50.000271,66.083321 50.000214,81.000252 50.000267,96.375214 
	C46.636761,96.880325 43.273151,96.927414 39.455761,96.446083 
	C39.002197,90.001030 39.002415,84.084404 39.002628,78.167770 
	C39.660130,78.113007 40.399353,78.233551 40.960453,77.971985 
	C42.988564,77.026543 45.980431,76.429367 46.727734,74.824791 
	C48.144703,71.782341 45.014103,70.897652 42.373528,69.453865 
	C41.985889,63.240597 41.971592,57.562656 41.957294,51.884720 
	C44.355820,51.597935 46.754349,51.311146 49.576599,51.095375 
z"/>
<path fill="#29AFDE" opacity="1.000000" stroke="none" 
	d="
M77.980644,125.466415 
	C77.967819,118.768066 77.982361,112.424835 77.996307,105.623718 
	C80.370872,105.118828 82.746017,105.071831 85.560822,105.554405 
	C86.000565,121.000381 86.000656,135.916779 86.000755,150.833176 
	C82.966820,150.880386 79.932884,150.927612 76.460808,150.489136 
	C76.015106,144.057846 76.007545,138.112259 75.999985,132.166656 
	C78.253609,130.552994 79.606194,128.654175 77.980644,125.466415 
z"/>
<path fill="#5CCEC9" opacity="1.000000" stroke="none" 
	d="
M161.376205,137.963196 
	C160.697586,135.837204 160.058228,133.560059 160.046982,131.279800 
	C159.967377,115.132393 160.016525,98.984352 160.033630,82.360611 
	C163.292221,85.346931 166.258286,89.142448 169.852249,92.199837 
	C176.688248,98.015236 176.992920,101.679260 169.352432,105.692863 
	C164.557144,108.211861 162.765762,110.444305 165.922852,115.292152 
	C166.536316,116.234116 166.987976,118.327118 166.496613,118.776527 
	C162.759033,122.194893 164.415558,125.995102 164.757126,130.035873 
	C164.967407,132.523712 162.803909,135.212204 161.376205,137.963196 
z"/>
<path fill="#2FB2DB" opacity="1.000000" stroke="none" 
	d="
M86.415245,150.903809 
	C86.000656,135.916779 86.000565,121.000381 86.000618,105.626038 
	C89.034615,105.119850 92.068459,105.071617 95.551575,105.552658 
	C96.001129,111.999069 96.001411,117.916206 95.604523,123.905243 
	C94.394066,124.010994 93.241913,123.714874 92.829147,124.138763 
	C91.426987,125.578690 90.286018,127.272957 89.045288,128.870087 
	C90.821251,129.912689 92.501625,131.243866 94.413208,131.877045 
	C95.379341,132.197067 96.763763,131.254303 97.971970,131.255692 
	C98.002182,132.126465 98.019493,132.624069 97.896713,133.440460 
	C95.946823,137.252365 93.776428,140.618927 92.486755,144.294525 
	C91.885643,146.007706 90.041016,149.153961 93.981003,150.510651 
	C93.625626,151.940857 93.292938,153.028519 92.960251,154.116180 
	C92.128395,150.704651 89.481590,150.834610 86.415245,150.903809 
z"/>
<path fill="#3AB9D6" opacity="1.000000" stroke="none" 
	d="
M115.001335,123.167381 
	C115.001366,135.750656 115.001404,148.333939 115.001953,161.375244 
	C111.638138,161.880463 108.273804,161.927612 104.455688,161.460083 
	C103.655136,157.257797 103.308380,153.570206 103.120872,149.574371 
	C110.434616,144.936295 110.870964,141.000748 105.117210,133.733704 
	C105.516319,129.956329 105.758026,126.561684 106.445320,123.095901 
	C109.594383,123.072304 112.297859,123.119843 115.001335,123.167381 
z"/>
<path fill="#19A5E5" opacity="1.000000" stroke="none" 
	d="
M48.036320,33.210365 
	C49.800632,28.394423 51.767563,24.542639 57.694794,24.924301 
	C63.387482,25.290859 66.561928,27.467787 66.997688,32.223778 
	C67.498108,37.685490 64.900894,42.144012 60.737598,42.970188 
	C54.926273,44.123409 50.753578,41.964176 48.951935,36.837814 
	C48.580849,35.781937 48.321438,34.686810 48.036320,33.210365 
z"/>
<path fill="#21AAE1" opacity="1.000000" stroke="none" 
	d="
M61.462608,96.903976 
	C61.326351,90.888084 61.651432,84.942863 62.448303,78.511383 
	C67.279839,78.072426 71.639580,78.119720 75.999252,78.624695 
	C75.999023,84.999466 75.998871,90.916542 75.998711,96.833626 
	C71.307121,96.880630 66.615540,96.927643 61.462608,96.903976 
z"/>
<path fill="#19A5E5" opacity="1.000000" stroke="none" 
	d="
M43.152351,138.651474 
	C45.196507,133.740540 49.189140,131.928848 53.480732,132.384018 
	C58.251415,132.890030 61.298340,136.579742 61.837349,141.281204 
	C62.292210,145.248672 60.254654,148.372589 56.371799,150.219818 
	C49.450268,153.512634 40.980324,147.145615 43.152351,138.651474 
z"/>
<path fill="#0195EF" opacity="1.000000" stroke="none" 
	d="
M5.259921,94.736237 
	C2.244505,90.796394 2.190226,86.820953 4.073558,82.923187 
	C5.940293,79.059769 9.625459,78.832901 13.391613,78.981071 
	C17.498484,79.142647 20.743336,81.899292 20.998056,85.619934 
	C21.457535,92.331490 19.198082,96.629570 14.382110,96.839546 
	C11.469207,96.966545 8.494560,95.677406 5.259921,94.736237 
z"/>
<path fill="#41BED4" opacity="1.000000" stroke="none" 
	d="
M125.955894,78.886551 
	C125.970345,79.091194 125.984795,79.295845 126.002251,80.203796 
	C124.351234,86.064468 122.697197,91.221840 121.045906,96.370651 
	C125.226135,98.008438 126.569870,101.788300 123.886200,104.534317 
	C121.390923,107.087578 118.294884,107.281334 115.021561,105.806854 
	C114.985558,105.295250 114.971107,105.090607 114.956650,104.885956 
	C116.198547,102.386948 117.440437,99.887939 118.888779,96.973495 
	C116.932907,96.973495 115.365700,96.973495 113.400993,96.445862 
	C113.003906,90.334724 113.004311,84.751236 113.462273,79.096756 
	C117.931847,78.979370 121.943871,78.932961 125.955894,78.886551 
z"/>
<path fill="#29AFDE" opacity="1.000000" stroke="none" 
	d="
M86.553612,25.095001 
	C87.000488,30.750729 87.000320,36.335052 87.000282,42.376511 
	C84.678787,42.888966 82.356865,43.000629 80.035576,42.988686 
	C73.918175,42.957214 70.995995,40.017879 71.003433,33.980896 
	C71.009453,29.095068 74.981712,25.163242 80.127403,25.011635 
	C82.118607,24.952969 84.113403,25.016006 86.553612,25.095001 
z"/>
<path fill="#41BED4" opacity="1.000000" stroke="none" 
	d="
M109.008018,69.832367 
	C109.007057,64.248817 109.006088,58.665272 109.006287,52.624695 
	C113.366135,52.119572 117.724823,52.071472 122.543655,52.095497 
	C123.003456,57.751034 123.003105,63.334457 122.543030,69.447235 
	C117.724876,69.928513 113.366447,69.880440 109.008018,69.832367 
z"/>
<path fill="#29AFDE" opacity="1.000000" stroke="none" 
	d="
M76.457428,96.904282 
	C75.998871,90.916542 75.999023,84.999466 76.457932,78.553856 
	C80.943619,78.072350 84.970551,78.119370 88.997528,78.624115 
	C88.997543,84.999275 88.997513,90.916718 88.997482,96.834152 
	C84.970367,96.881081 80.943253,96.928017 76.457428,96.904282 
z"/>
<path fill="#19A5E5" opacity="1.000000" stroke="none" 
	d="
M55.553299,105.096619 
	C56.342121,111.085037 56.674046,117.001976 57.007278,123.375740 
	C52.979824,123.879784 48.951061,123.926987 44.463165,123.445953 
	C44.004604,117.000885 44.005177,111.084061 44.005749,105.167236 
	C47.702633,105.119873 51.399521,105.072502 55.553299,105.096619 
z"/>
<path fill="#36B6D9" opacity="1.000000" stroke="none" 
	d="
M105.999733,123.167038 
	C105.758026,126.561684 105.516319,129.956329 104.722198,133.683197 
	C102.125458,133.717499 100.081139,133.419571 98.036812,133.121658 
	C98.019493,132.624069 98.002182,132.126465 98.111481,130.938751 
	C99.415924,128.295700 100.593742,126.342789 101.918571,124.146126 
	C99.560532,124.021469 97.781113,123.927406 96.001694,123.833344 
	C96.001411,117.916206 96.001129,111.999069 96.001099,105.624420 
	C98.704330,105.119270 101.407303,105.071640 104.555496,105.544128 
	C105.704079,110.391159 106.407440,114.718063 106.989716,119.337692 
	C106.578995,120.809288 106.289368,121.988159 105.999733,123.167038 
z"/>
<path fill="#2FB2DB" opacity="1.000000" stroke="none" 
	d="
M89.456322,96.904922 
	C88.997513,90.916718 88.997543,84.999275 89.422913,78.553345 
	C93.898369,78.405235 97.948486,78.785614 101.998367,79.623306 
	C101.998199,85.665092 101.998276,91.249565 101.998344,96.834030 
	C97.970619,96.881256 93.942886,96.928474 89.456322,96.904922 
z"/>
<path fill="#21AAE1" opacity="1.000000" stroke="none" 
	d="
M60.038986,70.117668 
	C60.026642,64.105888 60.014297,58.094112 60.002373,51.624603 
	C63.699413,51.119488 67.396027,51.072105 71.548126,51.553787 
	C72.004425,57.999432 72.005234,63.916004 71.550087,69.904099 
	C67.409088,70.022964 63.724041,70.070312 60.038986,70.117668 
z"/>
<path fill="#29AFDE" opacity="1.000000" stroke="none" 
	d="
M72.006035,69.832581 
	C72.005234,63.916004 72.004425,57.999432 72.004333,51.625412 
	C75.711220,51.453453 79.417389,51.738930 83.563812,52.095924 
	C84.003670,57.750988 84.003265,63.334541 83.546951,69.446899 
	C79.396042,69.927994 75.701042,69.880287 72.006035,69.832581 
z"/>
<path fill="#0F9EE9" opacity="1.000000" stroke="none" 
	d="
M38.583233,78.096825 
	C39.002415,84.084404 39.002197,90.001030 39.002460,96.375145 
	C38.175503,96.887917 37.348511,96.982872 36.520550,96.992287 
	C29.354780,97.073814 26.225029,94.681801 26.001360,88.974113 
	C25.728294,82.005844 29.097128,78.366722 36.169117,78.007195 
	C36.831997,77.973503 37.498837,78.017792 38.583233,78.096825 
z"/>
<path fill="#0F9EE9" opacity="1.000000" stroke="none" 
	d="
M43.589191,105.096252 
	C44.005177,111.084061 44.004604,117.000885 44.004967,123.375198 
	C39.716457,124.216225 35.461102,124.467209 32.658150,120.216080 
	C30.339151,116.698982 30.514540,113.316917 32.683250,109.659096 
	C35.169128,105.466324 38.936012,104.883896 43.589191,105.096252 
z"/>
<path fill="#49C2D1" opacity="1.000000" stroke="none" 
	d="
M133.999359,52.834160 
	C134.211609,43.769829 134.423859,34.705494 134.872299,25.295498 
	C137.797455,28.214577 140.486420,31.479324 143.149384,35.412636 
	C142.748154,41.665745 142.372910,47.250290 141.558411,52.907188 
	C138.745895,52.931076 136.372635,52.882618 133.999359,52.834160 
z"/>
<path fill="#3AB9D6" opacity="1.000000" stroke="none" 
	d="
M102.452248,96.904251 
	C101.998276,91.249565 101.998199,85.665092 102.452293,79.553085 
	C106.272545,79.072945 109.638634,79.120338 113.004723,79.167740 
	C113.004311,84.751236 113.003906,90.334724 113.004364,96.375252 
	C109.638870,96.879677 106.272514,96.927071 102.452248,96.904251 
z"/>
<path fill="#21AAE1" opacity="1.000000" stroke="none" 
	d="
M75.603851,132.095520 
	C76.007545,138.112259 76.015106,144.057846 76.011108,150.418518 
	C68.722549,151.207718 65.373260,148.959702 65.001884,143.452026 
	C64.518303,136.280350 67.513466,132.926620 75.603851,132.095520 
z"/>
<path fill="#3AB9D6" opacity="1.000000" stroke="none" 
	d="
M106.370285,43.780170 
	C106.000145,37.915890 106.000160,31.998732 106.000305,25.624016 
	C113.473366,24.778263 116.707726,27.036531 116.897560,33.524902 
	C117.025024,37.881817 114.370209,42.628906 108.002258,43.061359 
	C107.568581,43.090813 107.160454,43.496555 106.370285,43.780170 
z"/>
<path fill="#50C7CE" opacity="1.000000" stroke="none" 
	d="
M141.997681,52.834839 
	C142.372910,47.250290 142.748154,41.665745 143.368332,35.666885 
	C146.414490,42.217491 149.215698,49.182411 152.064117,56.550552 
	C151.257965,57.271507 150.404617,57.589249 148.906754,57.816360 
	C146.174057,56.095436 144.085861,54.465137 141.997681,52.834839 
z"/>
<path fill="#41BED4" opacity="1.000000" stroke="none" 
	d="
M126.901016,17.567829 
	C126.694847,20.781540 126.411362,23.687031 125.974503,26.569275 
	C125.716156,28.273743 125.215340,29.941460 124.495132,31.812817 
	C121.241608,25.926626 118.316498,19.853323 115.350861,13.695863 
	C117.902092,11.449027 117.902092,11.449027 126.901016,17.567829 
z"/>
<path fill="#0F9EE9" opacity="1.000000" stroke="none" 
	d="
M41.587433,51.934395 
	C41.971592,57.562656 41.985889,63.240597 42.000290,69.376007 
	C38.045647,69.409180 34.356606,65.861649 34.007053,62.146755 
	C33.584858,57.659859 36.380238,53.719982 41.587433,51.934395 
z"/>
<path fill="#36B6D9" opacity="1.000000" stroke="none" 
	d="
M102.961617,149.882599 
	C103.308380,153.570206 103.655136,157.257797 104.002365,161.388947 
	C99.273949,161.202896 95.533913,159.070740 93.098282,154.431503 
	C93.292938,153.028519 93.625626,151.940857 94.424530,150.439789 
	C97.581024,149.978455 100.271324,149.930511 102.961617,149.882599 
z"/>
<path fill="#3AB9D6" opacity="1.000000" stroke="none" 
	d="
M107.110802,119.044960 
	C106.407440,114.718063 105.704079,110.391159 105.000908,105.615921 
	C108.020012,105.105820 111.038933,105.044044 114.507248,104.934113 
	C114.971107,105.090607 114.985558,105.295250 114.996429,106.163109 
	C112.365501,110.899208 109.738152,114.972084 107.110802,119.044960 
z"/>
<path fill="#000000" opacity="1.000000" stroke="none" 
	d="
M106.989716,119.337692 
	C109.738152,114.972084 112.365501,110.899208 115.017975,106.470078 
	C118.294884,107.281334 121.390923,107.087578 123.886200,104.534317 
	C126.569870,101.788300 125.226135,98.008438 121.045906,96.370651 
	C122.697197,91.221840 124.351234,86.064468 126.023956,80.510773 
	C129.725311,80.069176 133.407974,80.023911 138.000885,79.976532 
	C142.590897,80.018761 146.270660,80.063110 149.950409,80.107452 
	C155.418320,86.415176 155.564056,89.430618 150.332855,95.005470 
	C147.537445,95.450768 145.069077,95.712914 142.607147,96.025810 
	C140.535004,96.289162 138.101730,96.039642 136.505890,97.068306 
	C134.904861,98.100304 133.027802,100.634552 133.300812,102.143204 
	C133.624847,103.933784 136.037903,106.565804 137.681732,106.669174 
	C142.591980,106.977951 145.075195,110.048103 145.723312,113.829147 
	C146.435394,117.983170 143.427429,121.007004 139.324463,123.014389 
	C135.306503,123.119484 131.610138,123.072273 127.457809,123.095894 
	C123.305672,123.119728 119.609505,123.072723 115.457336,123.096550 
	C112.297859,123.119843 109.594383,123.072304 106.445320,123.095901 
	C106.289368,121.988159 106.578995,120.809288 106.989716,119.337692 
z"/>
<path fill="#000000" opacity="1.000000" stroke="none" 
	d="
M141.558411,52.907188 
	C144.085861,54.465137 146.174057,56.095436 148.570953,57.881180 
	C148.927963,59.096333 148.976288,60.156036 148.937088,61.936497 
	C147.167328,67.953842 142.400833,68.794655 138.001648,70.166100 
	C134.905472,70.166100 131.809311,70.166100 128.856964,70.166100 
	C128.856964,64.300468 128.856964,58.870926 128.856964,52.978004 
	C130.609802,52.978004 131.864639,52.978004 133.559418,52.906082 
	C136.372635,52.882618 138.745895,52.931076 141.558411,52.907188 
z"/>
<path fill="#50C7CE" opacity="1.000000" stroke="none" 
	d="
M138.001190,70.605026 
	C142.400833,68.794655 147.167328,67.953842 149.008209,62.328415 
	C152.708069,67.571655 150.792313,73.493164 150.113342,79.716248 
	C146.270660,80.063110 142.590897,80.018761 138.455933,79.903778 
	C138.000717,76.903412 138.000717,73.973679 138.001190,70.605026 
z"/>
<path fill="#000000" opacity="1.000000" stroke="none" 
	d="
M113.462273,79.096756 
	C109.638634,79.120338 106.272545,79.072945 102.452530,79.095764 
	C97.948486,78.785614 93.898369,78.405235 89.422867,78.095627 
	C84.970551,78.119370 80.943619,78.072350 76.458008,78.096176 
	C71.639580,78.119720 67.279839,78.072426 62.460014,78.095779 
	C60.375954,77.241982 58.073315,76.659698 57.372513,75.269775 
	C56.923912,74.380066 58.840260,72.297951 59.867695,70.434029 
	C63.724041,70.070312 67.409088,70.022964 71.550087,69.904099 
	C75.701042,69.880287 79.396042,69.927994 83.547325,69.904129 
	C87.698967,69.880569 91.394325,69.928589 95.545731,69.904892 
	C100.031113,69.881271 104.060440,69.929382 108.548897,69.904922 
	C113.366447,69.880440 117.724876,69.928513 122.543457,69.904442 
	C129.631027,70.532852 125.262398,75.226822 125.975281,78.477432 
	C121.943871,78.932961 117.931847,78.979370 113.462273,79.096756 
z"/>
<path fill="#000000" opacity="1.000000" stroke="none" 
	d="
M103.120872,149.574356 
	C100.271324,149.930511 97.581024,149.978455 94.447212,150.097244 
	C90.041016,149.153961 91.885643,146.007706 92.486755,144.294525 
	C93.776428,140.618927 95.946823,137.252365 97.896713,133.440460 
	C100.081139,133.419571 102.125458,133.717499 104.564804,134.065918 
	C110.870964,141.000748 110.434616,144.936295 103.120872,149.574356 
z"/>
<path fill="#000000" opacity="1.000000" stroke="none" 
	d="
M95.604523,123.905243 
	C97.781113,123.927406 99.560532,124.021469 101.918571,124.146126 
	C100.593742,126.342789 99.415924,128.295700 98.098579,130.565552 
	C96.763763,131.254303 95.379341,132.197067 94.413208,131.877045 
	C92.501625,131.243866 90.821251,129.912689 89.045288,128.870087 
	C90.286018,127.272957 91.426987,125.578690 92.829147,124.138763 
	C93.241913,123.714874 94.394066,124.010994 95.604523,123.905243 
z"/>
</svg>
