<?xml version="1.0" encoding="UTF-8"?><svg id="Layer_1" xmlns="http://www.w3.org/2000/svg" xmlns:xlink="http://www.w3.org/1999/xlink" viewBox="40 40 210 210"><defs><style>.cls-1{fill:url(#linear-gradient);stroke-width:0px;}</style><linearGradient id="linear-gradient" x1="35.3" y1="117.88" x2="206.6" y2="117.88" gradientUnits="userSpaceOnUse"><stop offset=".06" stop-color="#0095ef"/><stop offset="1" stop-color="#62d2c6"/></linearGradient></defs><path class="cls-1" d="m138,191.53c-10.83-.28-17.76-11.8-12.77-21.41.03-.07.07-.13.1-.2.82-1.57,1.68-3.13,2.59-4.68,2.72-4.64,5.67-9.13,8.65-13.59,2.72-4.06,5.46-8.1,8.09-12.22,2.37-3.71,4.52-7.52,6.43-11.42,3.26-6.66,5.8-13.63,7.44-20.94.12-.53.26-1.06.37-1.6,2.09-10.19,2.09-20.44.47-30.77-.3-1.88-.65-3.74-1.06-5.58-1.98-8.94-5.31-17.31-10.46-25.03h0c-.57-.9.27-2.09,1.26-1.74.4.14.78.36,1.16.56,5.22,2.76,9.86,6.05,13.95,9.84,6.7,6.22,11.93,13.78,15.86,22.57,3.62,8.08,5.01,16.65,5.91,25.33.2,1.95.73,3.77,1.49,5.46.56,1.25,1.25,2.44,2.06,3.57,3.58,5,7.53,9.71,12.56,13.63.27.21.4.33.54.43,5.53,3.9,5.29,6.7-.83,10.81-1.34.9-2.77,1.64-4.19,2.4-2.27,1.22-2.95,2.89-1.95,4.77,3.51,6.57,3.43,7.06-2.04,12.4-.13.53.3.72.6,1,3.47,3.29,3.64,8.06-.12,10.97-2.98,2.31-2.83,4.84-1.83,7.81.53,1.59,1.23,3.13,1.68,4.74,1.96,6.92-1.35,12.35-8.35,14.12-5.12,1.3-10.2.6-15.29.06-4.77-.51-9.53-.81-14.34-.81l-17.99-.46Zm47.56-78.68c-1.95-2.63-4.6-3.68-7.91-3.67-10.73.02-21.45-.03-32.18-.08-14.52-.06-29.04-.14-43.57-.2-2.93-.01-5.86,0-8.79,0-3.31,0-5.35-2.46-4.6-5.51.56-2.28,2.58-3.69,5.36-3.68,6.89.02,13.77.05,20.66.08,7.75.03,15.5.08,23.26.11,8.21.04,16.41.09,24.62.11,3.51.01,7.01.12,10.52-.08,4.73-.27,8.52-4.41,8.59-9.12.08-4.76-3.63-8.54-8.38-8.55-6.6-.03-13.2-.06-19.8-.09-4.99-.02-9.99-.03-14.98-.07-3.11-.03-5.02-2.34-4.43-5.31.43-2.17,2.32-3.67,4.89-3.79,2.42-.12,4.56-.88,6.37-2.66,2.85-2.77,3.68-6.05,2.47-9.56-1.2-3.47-3.83-5.39-7.65-5.48-3.87-.09-7.75-.07-11.63-.09-5.12-.03-10.23-.08-15.35-.05-4.88.03-9.09,3.99-9.33,8.66-.25,5.07,3.36,8.98,8.34,9.04,2.93.03,5.86-.01,8.77.12,2.57.11,4.34,2.16,4.15,4.58-.19,2.49-2.31,4.46-4.92,4.46-8.34,0-16.67-.04-25.01-.06-6.4-.02-12.79-.09-19.19-.01-3.71.05-6.49,2.03-8.12,5.34-2.81,5.71.76,11.85,6.97,12.36,1.03.09,2.16.31,2.99.84,1.73,1.11,2.26,3.2,1.56,5.07-.71,1.91-2.41,3.15-4.57,3.2-2.6.06-5.2-.08-7.8.09-3.64.24-6.33,2.19-7.87,5.51-1.55,3.34-1.09,6.49,1.12,9.2,1.63,2,3.84,2.96,6.52,2.96,5.65,0,11.3.03,16.96.05,12.5.05,25,.12,37.49.17,10.23.04,20.46.06,30.69.14.99,0,2.06.25,2.91.71,1.69.89,2.31,3.16,1.65,5.16-.66,1.96-2.57,3.25-4.92,3.24-7.51-.02-15.01-.07-22.52-.1-12.38-.05-24.75-.09-37.13-.13-6.39-.02-12.78-.14-19.18,0-4.98.11-8.9,4.11-9.08,8.91-.19,4.85,3.34,8.62,8.28,8.75,3.34.08,6.68.05,10.03.07,8.34.04,16.67.06,25.01.11,2.28.01,4.17,1.52,4.48,3.5.46,2.99-1.6,5.47-4.78,5.63-2.23.11-4.27.74-6.02,2.22-2.88,2.46-4.05,6.43-2.97,9.83,1.07,3.36,4.33,5.69,8.04,5.73,1.57.02,3.14,0,4.71,0,7.39.02,14.77.1,22.16.04,5.05-.04,9.24-4.41,9.16-9.33-.08-4.92-3.55-8.31-8.66-8.4-2.68-.05-5.36-.02-8.04-.05-2.93-.04-4.8-1.91-4.63-4.59.17-2.58,2.3-4.53,5.11-4.53,6.85,0,13.7.04,20.55.07,7.68.03,15.35.11,23.03.09,3.72-.01,6.53-1.93,8.24-5.18,3.18-6.07-1.06-12.42-7.26-12.59-2.83-.08-4.67-2.12-4.43-4.68.24-2.63,2.32-4.42,5.2-4.44,1.82-.01,3.63,0,5.44.07,3.5.12,6.52-.89,8.9-3.78,2.32-2.81,2.56-7.62.51-10.39Zm-95.84-40.05c4.87,0,8.82-3.95,8.82-8.82s-3.95-8.82-8.82-8.82-8.82,3.95-8.82,8.82,3.95,8.82,8.82,8.82Zm-5.44,90.17c-4.87,0-8.82,3.95-8.82,8.82s3.95,8.82,8.82,8.82,8.82-3.95,8.82-8.82-3.95-8.82-8.82-8.82Zm-40.15-53.91c-4.87,0-8.82,3.95-8.82,8.82s3.95,8.82,8.82,8.82,8.82-3.95,8.82-8.82-3.95-8.82-8.82-8.82Z"/></svg>
