<svg fill="none" height="27" viewBox="0 0 22 27" width="22" xmlns="http://www.w3.org/2000/svg"><path d="m13.75 3.25919v3.49081c0 .74558.6156 1.35 1.375 1.35h3.5555zm5.5 7.54081h-4.125c-2.2782 0-4.125-1.81325-4.125-4.05v-4.05h-5.5c-1.51878 0-2.75 1.20883-2.75 2.7v16.2c0 1.4912 1.23122 2.7 2.75 2.7h11c1.5188 0 2.75-1.2088 2.75-2.7zm-13.75-10.8h8.8195l7.6805 7.54081v14.05919c0 2.9823-2.4624 5.4-5.5 5.4h-11c-3.03757 0-5.5-2.4177-5.5-5.4v-16.2c0-2.98234 2.46243-5.4 5.5-5.4zm5.5 18.9c-.7594 0-1.375-.6044-1.375-1.35s.6156-1.35 1.375-1.35 1.375.6044 1.375 1.35-.6156 1.35-1.375 1.35zm-4.125 0c-.75939 0-1.375-.6044-1.375-1.35s.61561-1.35 1.375-1.35 1.375.6044 1.375 1.35-.61561 1.35-1.375 1.35zm8.25 0c-.7594 0-1.375-.6044-1.375-1.35s.6156-1.35 1.375-1.35 1.375.6044 1.375 1.35-.6156 1.35-1.375 1.35z" fill="#ff694a"/></svg>