<svg fill="none" height="27" viewBox="0 0 28 27" width="28" xmlns="http://www.w3.org/2000/svg"><path clip-rule="evenodd" d="m.523438 4.05c0-2.23675 1.813242-4.05 4.050002-4.05h13.49996c2.2368 0 4.05 1.81325 4.05 4.05v1.35h1.35c2.2368 0 4.05 1.81325 4.05 4.05v13.5c0 2.2368-1.8132 4.05-4.05 4.05h-13.49996c-2.23676 0-4.05-1.8132-4.05-4.05v-1.35h-1.35c-2.23676 0-4.050002-1.8132-4.050002-4.05zm5.400002 14.85v-9.45c0-2.23675 1.81324-4.05 4.05-4.05h9.44996v-1.35c0-.74558-.6044-1.35-1.35-1.35h-13.49996c-.74559 0-1.35.60442-1.35 1.35v13.5c0 .7456.60441 1.35 1.35 1.35zm4.05-10.8c-.74559 0-1.35.60442-1.35 1.35v13.5c0 .7456.60441 1.35 1.35 1.35h13.49996c.7456 0 1.35-.6044 1.35-1.35v-13.5c0-.74558-.6044-1.35-1.35-1.35z" fill="#ff694a" fill-rule="evenodd"/></svg>