<svg fill="none" height="56" viewBox="0 0 67 56" width="67" xmlns="http://www.w3.org/2000/svg" xmlns:xlink="http://www.w3.org/1999/xlink"><clipPath id="a"><path d="m0 0h67v56h-67z"/></clipPath><g clip-path="url(#a)" fill="#472f85"><path d="m67.2686-.391989v8.203099l-.0122 48.56559h-13.1764v-51.99229l4.1296-4.205103c.1744-.1884996.3874-.337099.6245-.435699s.4926-.144897.7491-.135597z" opacity=".7"/><path clip-rule="evenodd" d="m47.1165 37.9003c-.9296-1.192-1.8569-2.3809-2.7669-3.291-1.6835-1.6775-3.355-3.3669-5.0253-5.055-.8335-.8425-1.6668-1.6846-2.501-2.5248v-5.8429l.0028-.0121c-.0075-.2566.0405-.5117.1406-.748.0667-.1572.1554-.3036.2631-.4349l12.7734-12.2369v.6533 31.2753c-.0008.0441.0008.1963.0029.3916.0047.4532.0119 1.1382-.0029 1.2394-.9538-.9357-1.9216-2.1765-2.8867-3.414z" fill-rule="evenodd" opacity=".7"/><path d="m-.344299 14.7681v18.4323l23.256599 23.1763h18.4947z"/><path d="m-.344299 56.3767h17.094699l-17.094699-17.0322z"/><path d="m47.642 56.3767h18.3132l-55.2324-56.196906c-.1744-.1883001-.3873-.336799-.6243-.435299s-.4925-.144699-.749-.135399h-9.675397v8.194604z"/></g></svg>