<svg enable-background="new 0 0 225 225" viewBox="0 0 225 225" xmlns="http://www.w3.org/2000/svg"><path d="m145 226c-48.333328 0-96.16666 0-143.999994 0-.000002-75-.000002-149.999985-.000004-224.999984 74.99999-.000005 149.999983-.000005 224.999967-.000011.000016 74.99998.000016 149.999964.000031 224.999964-26.833328.000031-53.666672.000031-81 .000031m17.20813-118.667709c1.47261-4.837174 5.508728-4.165718 9.076111-3.986534 4.718017.236984 6.648193-1.768769 6.611618-6.439919-.108246-13.821556-.078522-27.644669-.018845-41.466801.018997-4.398658-1.943466-6.358963-6.372925-6.287227-7.658599.124031-15.323425.155521-22.980041-.01936-3.62349-.082767-5.801529 1.275204-7.4366 4.530888-6.933884 13.806602-14.055595 27.518959-21.127998 41.255813-.624184 1.21238-1.388184 2.352776-2.334397 3.941628-7.766555-15.297882-15.234436-29.948975-22.63433-44.634323-1.416901-2.811898-2.922211-5.105076-6.603943-5.073078-11.15699.096977-22.315407.055416-33.473156.024959-3.978569-.01086-5.76294 1.99408-5.752308 5.85899.015118 5.495605-.004623 10.991298.000225 16.486942.006935 7.857826.546204 8.392906 8.505501 8.499588 5.68943.076271 7.024029 1.35434 7.05936 7.067932.051491 8.326424.031479 16.653458.008629 24.980141-.01757 6.402061-.577209 7.016144-6.847973 7.841186-8.726303 1.14811-8.726635 1.148102-8.726742 10.23285-.000156 13.322799-.065635 26.646255.07156 39.967651.020516 1.992233.992966 3.974686 1.765953 6.454224.328373.116119.656746.232254 1.867993.700882 13.040504-.077408 26.081016-.154801 39.64608-.198914.149788-.090897.299583-.181778 1.000107-.35405.411354-.584991.822708-1.169983 1.476097-2.202774-.016335-.168884-.032662-.337768.202972-1.415329-.067131-8.030731-.134254-16.061477-.107818-24.810547-.327294-.608337-.654595-1.216674-1.582512-2.40422-4.811035-.179367-10.117981 1.35794-13.446648-4.826111-.05278-14.676865-.10556-29.353722.265961-44.408432.862449 1.367485 1.841102 2.676041 2.569275 4.111633 6.822456 13.450478 13.529434 26.960259 20.459076 40.354965 1.288749 2.491105 3.423156 4.544739 5.167274 6.800263 1.785934-2.233032 3.946678-4.261261 5.296944-6.732346 8.734764-15.985168 17.292793-32.066909 26.022682-47.193809-.027771 15.987541-.055542 31.975082-.623398 48.412361-4.128021 3.730606-9.286041 3.116943-14.24968 3.543655-1.308486.112458-2.519203 1.362183-3.978759 3.003266-.012673 4.830002-.153694 9.664139.001411 14.488754.130882 4.071167.605408 8.131317 1.127976 12.887939 1.360366.495194 2.717918 1.411927 4.081543 1.421036 15.329261.102539 30.659462.05423 45.989372.074127 3.7052.004822 5.599609-1.834228 5.62706-5.476577.055282-7.331284.126266-14.665299-.017319-21.994126-.086334-4.407898-2.441849-6.690933-6.359863-5.264984-4.397522 1.600449-6.772934-.126312-9.212998-4.080978-.090179-10.997544-.180359-21.995087-.012527-33.671234z" fill="#c8f169"/><path d="m50.75692 176.075272c-.532078-1.986969-1.504528-3.969422-1.525044-5.961655-.137195-13.321396-.071716-26.644852-.07156-39.967651.000107-9.084748.000439-9.08474 8.726742-10.23285 6.270764-.825042 6.830403-1.439125 6.847973-7.841186.02285-8.326683.042862-16.653717-.008629-24.980141-.035331-5.713592-1.36993-6.991661-7.05936-7.067932-7.959297-.106682-8.498566-.641762-8.505501-8.499588-.004848-5.495644.014893-10.991337-.000225-16.486942-.010632-3.86491 1.773739-5.86985 5.752308-5.85899 11.157749.030457 22.316166.072018 33.473156-.024959 3.681732-.031998 5.187042 2.26118 6.603943 5.073078 7.399894 14.685348 14.867775 29.336441 22.63433 44.634323.946213-1.588852 1.710213-2.729248 2.334397-3.941628 7.072403-13.736854 14.194114-27.449211 21.127998-41.255813 1.635071-3.255684 3.81311-4.613655 7.4366-4.530888 7.656616.174881 15.321442.143391 22.980041.01936 4.429459-.071736 6.391922 1.888569 6.372925 6.287227-.059677 13.822132-.089401 27.645245.018845 41.466801.036575 4.67115-1.893601 6.676903-6.611618 6.439919-3.567383-.179184-7.603501-.85064-9.43573 4.667991-.490174 11.063011-.64444 21.444428-.698014 31.82637-.00357.694092.755967 1.392106 1.160569 2.088303 2.349655 3.02977 4.725067 4.756531 9.122589 3.156082 3.918014-1.425949 6.273529.857086 6.359863 5.264984.143585 7.328827.072601 14.662842.017319 21.994126-.027451 3.642349-1.92186 5.481399-5.62706 5.476577-15.32991-.019897-30.660111.028412-45.989372-.074127-1.363625-.009109-2.721177-.925842-4.166726-2.28125-.336883-9.716827-.588569-18.573456-.840263-27.430069 1.255615-.727493 2.466332-1.977218 3.774818-2.089676 4.963639-.426712 10.121659.186951 14.804642-4.072448.773346-1.315064 1.179825-2.100724 1.182251-2.88765.04335-14.103615.068619-28.207558-.012466-42.310799-.006943-1.205055-.791794-2.405647-1.215271-3.608306-8.615967 16.050087-17.173996 32.131828-25.90876 48.116996-1.350266 2.471085-3.51101 4.499314-5.296944 6.732346-1.744118-2.255524-3.878525-4.309158-5.167274-6.800263-6.929642-13.394706-13.63662-26.904487-20.459076-40.354965-.728173-1.435592-1.706826-2.744148-3.00306-3.576812-.534416 14.712532-.645637 28.890205-.697723 43.068084-.002136.579605.5522 1.161255.847275 1.741944 3.346939 5.247634 8.653885 3.710327 13.791137 4.52594.605065 1.252944.883896 1.869628 1.162728 2.486312.067131 8.030732.134254 16.061478-.032891 24.640152-.419777.79802-.411926 1.053772-.210731 1.315186-.411354.584991-.822708 1.169983-1.638672 1.723205-.719536-.076553-.958015.051545-1.120056.352524-13.040505.077408-26.081017.154801-39.740341-.12062-.909237-.515412-1.199662-.678009-1.490082-.840622z" fill="#06402e"/><path d="m139.778351 93.527458c.366516.741066 1.151367 1.941658 1.15831 3.146713.081085 14.103241.055816 28.207184.012466 42.310799-.002426.786926-.408905 1.572586-.912201 2.662766-.257156-15.683602-.229385-31.671143-.258575-48.120278z" fill="#002e2a"/><path d="m80.044968 141.524994c-.304215-.112488-.858551-.694138-.856415-1.273743.052086-14.177879.163307-28.355552.485573-42.879158.274414 14.330963.327194 29.00782.370842 44.152901z" fill="#002929"/><path d="m162.265869 141.465973c-.359405-.233749-1.118942-.931763-1.115372-1.625855.053574-10.381942.20784-20.763359.569001-31.48706.3208 10.65538.41098 21.652923.546371 33.112915z" fill="#002f2a"/><path d="m121.085449 148.491547c.353661 8.39981.605347 17.256439.842148 26.627472-.337303-3.550614-.811829-7.610764-.942711-11.681931-.155105-4.824615-.014084-9.658752.100563-14.945541z" fill="#002b29"/><path d="m95.036476 148.646271c-.325615-.257508-.604446-.874192-.909195-1.837525.301384.261689.628685.870026.909195 1.837525z" fill="#00322b"/><path d="m94.867088 174.736877c-.322212-.037506-.330063-.293258-.036277-.636962.124633.075302.14096.244186.036277.636962z" fill="#00322b"/><g fill="#00352b"><path d="m50.877373 176.321564c.169967-.083679.460392.078918.928192.418091-.15099.06044-.479363-.055695-.928192-.418091z"/><path d="m92.249619 177.053162c-.100235-.317627.138244-.445725.582412-.328461-.020546.16333-.170341.254211-.582412.328461z"/></g></svg>