<svg version="1.1" id="Layer_1" xmlns="http://www.w3.org/2000/svg"
	xmlns:xlink="http://www.w3.org/1999/xlink" x="0px" y="0px"
	width="100%" viewBox="0 0 126 126" enable-background="new 0 0 126 126" xml:space="preserve">
<path fill="#C74634" opacity="1.000000" stroke="none" 
	d="
M60.000000,127.000000 
	C40.000000,127.000000 20.500000,127.000000 1.000000,127.000000 
	C1.000000,85.000000 1.000000,43.000000 1.000000,1.000000 
	C43.000000,1.000000 85.000000,1.000000 127.000000,1.000000 
	C127.000000,43.000000 127.000000,85.000000 127.000000,127.000000 
	C104.833336,127.000000 82.666664,127.000000 60.000000,127.000000 
M47.128967,85.772408 
	C56.611034,85.854301 66.093124,86.004333 75.575157,86.001595 
	C88.704201,85.997795 98.456627,76.868889 98.856407,64.342850 
	C99.256721,51.800255 89.580482,41.644398 76.427338,41.200432 
	C68.114822,40.919857 59.781925,40.996418 51.464043,41.179558 
	C38.964344,41.454765 30.112797,49.410568 28.727459,61.319256 
	C27.392553,72.794441 34.278793,82.303062 47.128967,85.772408 
z"/>
<path fill="#FDF8F7" opacity="1.000000" stroke="none" 
	d="
M46.708000,85.669083 
	C34.278793,82.303062 27.392553,72.794441 28.727459,61.319256 
	C30.112797,49.410568 38.964344,41.454765 51.464043,41.179558 
	C59.781925,40.996418 68.114822,40.919857 76.427338,41.200432 
	C89.580482,41.644398 99.256721,51.800255 98.856407,64.342850 
	C98.456627,76.868889 88.704201,85.997795 75.575157,86.001595 
	C66.093124,86.004333 56.611034,85.854301 46.708000,85.669083 
M88.728439,69.825180 
	C92.699783,58.510918 86.556770,49.651718 74.610283,49.549343 
	C67.278412,49.486507 59.945305,49.497589 52.613247,49.547638 
	C43.503891,49.609814 37.206696,55.405010 37.190556,63.651329 
	C37.174534,71.837021 43.530010,77.824486 52.587555,77.960236 
	C59.918312,78.070107 67.252037,77.975967 74.584427,77.984901 
	C80.535370,77.992157 85.248596,75.754135 88.728439,69.825180 
z"/>
<path fill="#C74735" opacity="1.000000" stroke="none" 
	d="
M88.517677,70.152954 
	C85.248596,75.754135 80.535370,77.992157 74.584427,77.984901 
	C67.252037,77.975967 59.918312,78.070107 52.587555,77.960236 
	C43.530010,77.824486 37.174534,71.837021 37.190556,63.651329 
	C37.206696,55.405010 43.503891,49.609814 52.613247,49.547638 
	C59.945305,49.497589 67.278412,49.486507 74.610283,49.549343 
	C86.556770,49.651718 92.699783,58.510918 88.517677,70.152954 
z"/>
</svg>