<svg id="ART" xmlns="http://www.w3.org/2000/svg" viewBox="0 0 288 288">
   <defs>
      <style>.cls-1{fill:#312d2a;}</style>
   </defs>
   <path class="cls-1"
      d="M59.68,141H85v8H50.81l.32-4.3A43.76,43.76,0,0,1,74.56,109a13.54,13.54,0,0,0,7-9.37,33,33,0,0,1,35.48-26.52,13,13,0,0,0,10.86-4A40.68,40.68,0,0,1,156.89,56l.11,4-.11-4H158a40.82,40.82,0,0,1,36.69,22.69,13.63,13.63,0,0,0,2.5,3.49,42.31,42.31,0,0,0-8.76,1.7c-.32-.52-.62-1.06-.9-1.61A32.84,32.84,0,0,0,158,64h-.89a32.71,32.71,0,0,0-23.3,10.55,21,21,0,0,1-17.48,6.55A25,25,0,0,0,89.46,101.2a21.48,21.48,0,0,1-11.18,14.91A35.8,35.8,0,0,0,59.68,141ZM197,103.77h7.89L216,142.3h-8.53l-1.86-8.11H196l-1.85,8.11H185.9Zm.47,23.85h6.63l-3.29-14.41Zm-33.4-5.18-7.27-7.27-5.66,5.66L168,137.66l16.83-16.83-5.66-5.66-7,7a29,29,0,0,1,54.42-10.91l5.85-5.85a37,37,0,0,0-68.31,17Zm86.73,6.73L234,112.34l-16.83,16.83,5.66,5.66,7-7a29,29,0,0,1-54.42,10.91l-5.85,5.85a37,37,0,0,0,68.31-17l7.27,7.27Zm-61.83,38a44.09,44.09,0,0,0,8,1.58v45.51c0,5.39-5.7,9.37-17.42,12.18C170,228.74,157.39,230,144,230s-26-1.26-35.58-3.54C96.7,223.65,91,219.67,91,214.28V129c0-5.44,5.73-9.33,17.5-11.88,9.26-2,21.87-3.12,35.5-3.12l2,0v8h-2c-28.48,0-43.17,4.66-45,7.26v.47c1.9,2.92,18.21,8,45,8,5.53,0,10.61-.21,15.21-.58a43.45,43.45,0,0,0,3,7.76c-5.75.54-11.92.82-18.26.82-13.39,0-26-1.26-35.58-3.54A52.63,52.63,0,0,1,99,139.11v18.62c1.9,2.92,18.21,8,45,8,14.81,0,26.42-1.55,34.16-3.43a44,44,0,0,0,10.73,4.87,53.11,53.11,0,0,1-9.31,3c-9.55,2.28-22.19,3.54-35.58,3.54s-26-1.26-35.58-3.54A52.63,52.63,0,0,1,99,167.11V186c1.9,2.93,18.21,8,45,8s43.1-5.07,45-8Zm0,28.16a52.63,52.63,0,0,1-9.42,3.07C170,200.7,157.39,202,144,202s-26-1.26-35.58-3.54A52.63,52.63,0,0,1,99,195.35V214c1.69,2.45,16.47,8,45,8s43.31-5.54,45-8Z" />
</svg>