<svg width="27" height="27" viewBox="0 0 27 27" fill="none" xmlns="http://www.w3.org/2000/svg">
<path d="M7.87487 15.7503H25.8752C26.4934 15.7503 27 15.2437 27 14.625V7.87496C27 7.25673 26.4934 6.75012 25.8752 6.75012H7.87487C7.25664 6.75012 6.75003 7.25675 6.75003 7.87496V10.1251H2.25017V1.12521C2.25017 0.50384 1.74645 0.00012207 1.12509 0.00012207C0.503718 0.00012207 0 0.50384 0 1.12521V20.6251C0 22.282 1.34315 23.6251 3 23.6251H6.75003V25.8753C6.75003 26.4935 7.25666 27.0001 7.87487 27.0001H25.8752C26.4934 27.0001 27 26.4935 27 25.8753V19.1253C27 18.5066 26.4934 18 25.8752 18H7.87487C7.25664 18 6.75003 18.5066 6.75003 19.1253V21.375H2.25017V12.3752H6.75003V14.6248C6.75003 15.2436 7.25666 15.7503 7.87487 15.7503ZM9.0002 9.00028H24.7501V13.5001H9.0002V9.00028ZM9.0002 20.2499H24.7501V24.7497H9.0002V20.2499Z" fill="#FF694A"/>
</svg>
