<svg fill="none" height="27" viewBox="0 0 27 27" width="27" xmlns="http://www.w3.org/2000/svg"><path d="m7.87487 15.7503h18.00033c.6182 0 1.1248-.5066 1.1248-1.1253v-6.75004c0-.61823-.5066-1.12484-1.1248-1.12484h-18.00033c-.61823 0-1.12484.50663-1.12484 1.12484v2.25014h-4.49986v-8.99989c0-.62137-.50372-1.12508793-1.12508-1.12508793-.621372 0-1.12509.50371793-1.12509 1.12508793v19.49989c0 1.6569 1.34315 3 3 3h3.75003v2.2502c0 .6182.50663 1.1248 1.12484 1.1248h18.00033c.6182 0 1.1248-.5066 1.1248-1.1248v-6.75c0-.6187-.5066-1.1253-1.1248-1.1253h-18.00033c-.61823 0-1.12484.5066-1.12484 1.1253v2.2497h-4.49986v-8.9998h4.49986v2.2496c0 .6188.50663 1.1255 1.12484 1.1255zm1.12533-6.75002h15.7499v4.49982h-15.7499zm0 11.24962h15.7499v4.4998h-15.7499z" fill="#ff694a"/></svg>