<svg fill="none" height="28" viewBox="0 0 28 28" width="28" xmlns="http://www.w3.org/2000/svg"><path d="m25.6005 10.2904v11.8359c0 3.0454-2.4688 5.5142-5.5142 5.5142h-13.78548c-3.04541 0-5.514199-2.4688-5.514199-5.5142v-13.78551c0-3.04541 2.468789-5.5142 5.514199-5.5142h4.13568c.7613 0 1.3785.6172 1.3785 1.37855s-.6172 1.37855-1.3785 1.37855h-4.13568c-1.5227 0-2.7571 1.2344-2.7571 2.7571v13.78551c0 1.5227 1.2344 2.7571 2.7571 2.7571h13.78548c1.5227 0 2.7571-1.2344 2.7571-2.7571v-9.0788l-6.3217 6.3217h-5.9474c-.83746 0-1.51637-.6789-1.51637-1.5164v-5.9474l10.45737-10.45736c1.0767-1.076716 2.8224-1.076716 3.8991 0l3.5647 3.56464c1.0767 1.07671 1.0767 2.82241 0 3.89913zm-10.2208 6.3217 9.6498-9.64986-3.5646-3.56464-9.6499 9.6499v3.5646z" fill="#ff694a"/></svg>