<svg height="1000" viewBox="0 0 1000 1000" width="1000" xmlns="http://www.w3.org/2000/svg"><rect fill="#fff" height="100%" width="100%"/><path d="m260 181c-86.666641 0-172.833282 0-258.999942 0-.000019-59.999954-.000019-119.999912-.000039-179.999902 142.666561-.000033 285.333141-.000033 427.999798-.000065.000061 59.999864.000061 119.999761.000122 179.999814-56.166595.000153-112.333283.000153-168.999939.000153m-194.497795-88.001938c-15.432552-15.508911-30.865101-31.017822-46.875229-47.107174v102.156491c9.51643-9.518876 18.347794-18.551926 27.462383-27.289513 1.682015-1.612442 4.485359-2.79187 6.812805-2.866158 9.816288-.313331 19.648343-.132721 29.474629-.132782 2.215965-.000015 4.431938 0 8.114632 0-8.928254-8.833374-16.716744-16.5391-24.98922-24.760864m-28.872826-56.007618c-2.674282 0-5.348566 0-8.964828 0 1.559376 1.708275 2.315176 2.378037 2.881944 3.181194 6.936957 9.830212 16.128001 13.624119 28.234457 12.108929 7.816308-.978256 15.854485-.183842 24.35656-.183842 0 2.472268 0 4.257893.000008 6.043519.000046 10.157539-.035439 20.315322.036712 30.472351.011414 1.607444-.049728 3.725242.875329 4.730049 4.542221 4.933822 9.406242 9.571403 14.664276 14.820427 0-24.199692 0-47.405323 0-71.172665-20.582733 0-40.850991 0-62.084458.000038m306.088913 79.938587c8.346588 4.817887 16.390869 4.368645 24.082611-1.648811.839997 4.606827 2.843048 5.149849 11.839051 3.512886 0-14.439033 0-28.85479 0-43.328957-3.939118 0-7.547272 0-11.09607 0-.329803 1.381417-.597473 2.502663-.910125 3.812294-11.059998-8.815429-26.748078-4.504982-31.771851 8.372445-4.106842 10.527214-1.391327 21.472259 7.856384 29.280143m-184.224975-17.786232c7.350158-4.481536 10.904953-12.008651 9.343795-19.785141-1.498733-7.465629-7.476669-13.367714-15.572036-13.991279-7.738953-.596108-15.559845-.128594-23.494843-.128594v53.860283h11.618225c0-5.797622 0-11.382362 0-16.570831 6.155014-1.035667 11.816651-1.988327 18.104859-3.384438m130.730865-24.552032c-4.299225 1.122391-8.59848 2.244781-13.162414 3.436279 0-3.802933 0-8.204605 0-12.607673-4.136567 0-7.853791 0-11.644074 0v53.662315h11.796936c0-8.22889-.141632-16.20372.042664-24.171021.161438-6.980819 4.836914-10.684455 11.135223-9.116432 4.924072 1.225891 6.336884 4.949768 6.374024 9.448685.06546 7.928535.01831 15.858002.01831 23.802826h12.051148c0-1.953087.002471-3.609062-.000458-5.26503-.012635-7.154938.220123-14.320946-.100312-21.46212-.441741-9.843598-6.121063-15.975075-16.511047-17.727829m-103.353348 1.316933c-3.844116-.30539-7.688232-.610779-11.914993-.946564 0 9.121818-.049622 17.422119.014725 25.72155.057831 7.457001 2.538421 13.776474 9.472107 17.398758 6.853409 3.580314 13.437042 2.741836 19.631439-2.476677.438766 1.412727.800262 2.576629 1.080643 3.479408h11.573333c0-7.38887 0-14.514679 0-21.640488 0-7.273193 0-14.546386 0-22.009239-4.34523 0-8.092682 0-12.404968 0 0 8.162422.065308 16.109383-.020172 24.054718-.071579 6.654251-2.887222 9.72995-8.600098 9.687592-5.552871-.041168-8.537872-3.371765-8.610977-9.86155-.084381-7.492439-.029434-14.986435-.221039-23.407508m72.130539 30.526275c.218537-5.799881-2.899307-9.397728-7.953842-11.395302-3.536682-1.397712-7.329071-2.144638-10.878357-3.515869-1.526382-.589699-2.874542-1.898063-3.960602-3.172325-.242935-.285034.812333-2.465446 1.514237-2.613266 1.826065-.38459 4.84906-.905304 5.520004.006958 3.824265 5.199753 8.857926 2.561928 13.468323 3.058823-.284287-8.219033-5.391922-13.178009-14.548203-14.46875-7.65332-1.078873-15.33052 3.065315-17.467498 9.429069-2.229783 6.640145.293411 12.533058 6.789321 15.068154 3.539994 1.381523 7.440766 1.882713 10.897873 3.414909 1.894455.839623 3.204667 2.997498 4.778321 4.560951-2.230027 1.013565-4.477661 2.839394-6.684708 2.791573-1.86879-.040505-3.685333-2.256584-5.535034-3.494873-1.301605-.871353-2.537827-2.238136-3.949005-2.46109-2.546509-.402321-5.202149-.113793-7.782974-.113793-.340943 8.997116 5.41069 15.334343 14.391799 16.417366 11.897004 1.434632 19.33751-2.983299 21.400345-13.512535m141.387177 11.296463c0-11.130142 0-22.260292 0-33.457367-4.178742 0-7.927307 0-11.877167 0v35.320343c4.054016-.346794 7.905701-.676277 11.877167-1.862976m-12.102997-48.116287v6.057625h11.766388c0-3.688873 0-7.048737 0-10.595162-2.996368 0-5.645416.183602-8.257477-.048858-2.927856-.260575-3.900848.958976-3.508911 4.586395m-67.749359 38.067169c-1.763245 0-3.526489 0-5.380615 0v11.349304h13.017883c0-3.834205 0-7.389396 0-11.349319-2.393555 0-4.517975 0-7.637268.000015z" fill="#fefefe" transform="matrix(7.8445 0 0 7.8445 18.5124 -174.068)"/><path d="m65.744194 93.256081c8.030487 7.963745 15.818977 15.669471 24.747231 24.502845-3.682694 0-5.898667-.000015-8.114632 0-9.826286.000061-19.658341-.180549-29.474629.132782-2.327446.074288-5.13079 1.253716-6.812805 2.866158-9.114589 8.737587-17.945953 17.770637-27.462383 27.289513 0-34.212426 0-67.625992 0-102.156491 16.010128 16.089352 31.442677 31.598263 47.117218 47.365193z" fill="#050505" transform="matrix(7.8445 0 0 7.8445 18.5124 -174.068)"/><path d="m37.111984 36.990425c20.750862-.000019 41.01912-.000019 61.601853-.000019v71.172665c-5.258034-5.249024-10.122055-9.886605-14.664276-14.820427-.925057-1.004807-.863915-3.122605-.875329-4.730049-.072151-10.157029-.036666-20.314812-.036712-30.472351-.000008-1.785626-.000008-3.571251-.000008-6.043519-8.502075 0-16.540252-.794414-24.35656.183842-12.106456 1.51519-21.2975-2.278717-28.234457-12.108929-.566768-.803157-1.322568-1.472919-2.881944-3.181194 3.616262 0 6.290546 0 9.447433-.000019z" fill="#a5b4df" transform="matrix(7.8445 0 0 7.8445 18.5124 -174.068)"/><path d="m342.414062 116.72168c-8.943481-7.600533-11.658996-18.545578-7.552154-29.072792 5.023773-12.877427 20.711853-17.187874 31.771851-8.372445.312652-1.309631.580322-2.430877.910125-3.812294h11.09607v43.328957c-8.996003 1.636963-10.999054 1.093941-11.839051-3.512886-7.691742 6.017456-15.736023 6.466698-24.386841 1.44146m6.555268-28.415894c-1.218323 2.123009-3.556549 4.324066-3.415222 6.352341.270752 3.885444 1.147705 8.216339 3.269256 11.349228 2.161225 3.191421 6.414093 3.821762 10.431824 2.48864 6.379486-2.116791 9.295837-9.234147 6.865173-15.866295-2.319214-6.328018-11.094452-9.132241-17.151031-4.323914z" fill="#060606" transform="matrix(7.8445 0 0 7.8445 18.5124 -174.068)"/><path d="m158.180038 99.364532c-5.974929 1.174378-11.636566 2.127038-17.79158 3.162705v16.570831c-4.033859 0-7.635818 0-11.618225 0 0-17.873474 0-35.720833 0-53.860283 7.934998 0 15.75589-.467514 23.494843.128594 8.095367.623565 14.073303 6.52565 15.572036 13.991279 1.561158 7.77649-1.993637 15.303605-9.657074 20.006874m-4.311599-10.982391c2.284561-2.92292 2.812134-6.160797.656814-9.203346-3.586273-5.062523-8.954406-2.75174-13.945419-3.20855v15.194535c4.518707-.80082 8.615631-1.526886 13.288605-2.782639z" fill="#090909" transform="matrix(7.8445 0 0 7.8445 18.51161555 -174.06878445)"/><path d="m289.617188 74.643524c9.996978 1.699997 15.6763 7.831474 16.118041 17.675072.320435 7.141174.087677 14.307182.100312 21.46212.002929 1.655968.000458 3.311943.000458 5.26503-3.978211 0-7.736695 0-12.051148 0 0-7.944824.04715-15.874291-.01831-23.802826-.03714-4.498917-1.449952-8.222794-6.374024-9.448685-6.298309-1.568023-10.973785 2.135613-11.135223 9.116432-.184296 7.967301-.042664 15.942131-.042664 24.171021-4.06015 0-7.807434 0-11.796936 0 0-17.887283 0-35.60881 0-53.662315h11.644074v12.607673c4.563934-1.191498 8.863189-2.313888 13.55542-3.383522z" fill="#070707" transform="matrix(7.8445 0 0 7.8445 18.5124 -174.06721555)"/><path d="m185.963867 76.371574c.098572 7.957199.043625 15.451195.128006 22.943634.073105 6.489785 3.058106 9.820382 8.610977 9.86155 5.712876.042358 8.528519-3.033341 8.600098-9.687592.08548-7.945335.020172-15.892296.020172-24.054718h12.404968v22.009239 21.640488c-3.989395 0-7.609893 0-11.573333 0-.280381-.902779-.641877-2.066681-1.080643-3.479408-6.194397 5.218513-12.77803 6.056991-19.631439 2.476677-6.933686-3.622284-9.414276-9.941757-9.472107-17.398758-.064347-8.299431-.014725-16.599732-.014725-25.72155 4.226761.335785 8.070877.641174 12.008026 1.410438z" fill="#0a0a0a" transform="matrix(7.8445 0 0 7.8445 18.51318445 -174.068)"/><path d="m257.987061 106.845337c-2.048523 10.117874-9.489029 14.535805-21.386033 13.101173-8.981109-1.083023-14.732742-7.42025-14.391799-16.417366 2.580825 0 5.236465-.288528 7.782974.113793 1.411178.222954 2.6474 1.589737 3.949005 2.46109 1.849701 1.238289 3.666244 3.454368 5.535034 3.494873 2.207047.047821 4.454681-1.778008 6.684708-2.791573-1.573654-1.563453-2.883866-3.721328-4.778321-4.560951-3.457107-1.532196-7.357879-2.033386-10.897873-3.414909-6.49591-2.535096-9.019104-8.428009-6.789321-15.068154 2.136978-6.363754 9.814178-10.507942 17.467498-9.429069 9.156281 1.290741 14.263916 6.249717 14.548203 14.46875-4.610397-.496895-9.644058 2.14093-13.468323-3.058823-.670944-.912262-3.693939-.391548-5.520004-.006958-.701904.14782-1.757172 2.328232-1.514237 2.613266 1.08606 1.274262 2.43422 2.582626 3.960602 3.172325 3.549286 1.371231 7.341675 2.118157 10.878357 3.515869 5.054535 1.997574 8.172379 5.595421 7.93953 11.806664z" fill="#070707" transform="matrix(7.8445 0 0 7.8445 18.5124 -174.068)"/><path d="m399.328674 118.159042c-3.91159.758095-7.763275 1.087578-11.817291 1.434372 0-12.22026 0-23.639938 0-35.320343h11.877167c0 11.197075 0 22.327225-.059876 33.885971z" fill="#0a0a0a" transform="matrix(7.8445 0 0 7.8445 18.5124 -174.06721555)"/><path d="m387.285645 69.158714c-.392029-3.171982.580963-4.391533 3.508819-4.130958 2.612061.23246 5.261109.048858 8.257477.048858v10.595162c-3.614288 0-7.320709 0-11.766388 0 0-1.92965 0-3.993637.000092-6.513062z" fill="#0f0f0f" transform="matrix(7.8445 0 0 7.8445 18.5124 -174.06721555)"/><path d="m320.03363 107.681313c2.621857-.000008 4.746277-.000008 7.139832-.000008v11.349319c-4.329071 0-8.554382 0-13.017883 0 0-3.658691 0-7.238548 0-11.349304 1.854126 0 3.61737 0 5.878051-.000007z" transform="matrix(7.8445 0 0 7.8445 18.5124 -174.068)"/><path d="m349.284363 88.075653c5.741546-4.578194 14.516784-1.773971 16.835998 4.554047 2.430664 6.632148-.485687 13.749504-6.865173 15.866295-4.017731 1.333122-8.270599.702781-10.431824-2.48864-2.121551-3.132889-2.998504-7.463784-3.269256-11.349228-.141327-2.028275 2.196899-4.229332 3.730255-6.582474z" fill="#fafafa" transform="matrix(7.8445 0 0 7.8445 18.5124 -174.068)"/><path d="m153.580414 88.64698c-4.384949.990914-8.481873 1.71698-13.00058 2.5178 0-5.714119 0-10.269905 0-15.194535 4.991013.45681 10.359146-1.853973 13.945419 3.20855 2.15532 3.042549 1.627747 6.280426-.944839 9.468185z" fill="#f0f0f0" transform="matrix(7.8445 0 0 7.8445 18.51161555 -174.068)"/></svg>