<svg xmlns="http://www.w3.org/2000/svg" xmlns:xlink="http://www.w3.org/1999/xlink" version="1.1" width="1000" height="1000" viewBox="0 0 1000 1000" xml:space="preserve">
<desc>Created with Fabric.js 3.5.0</desc>
<defs>
</defs>
<rect x="0" y="0" width="100%" height="100%" fill="#ffffff"/>
<g transform="matrix(7.8445 0 0 7.8445 1697.2354 531.937)" id="545273">
<g style="" vector-effect="non-scaling-stroke">
		<g transform="matrix(1 0 0 1 1 1)" id="Layer_1">
<path style="stroke: none; stroke-width: 1; stroke-dasharray: none; stroke-linecap: butt; stroke-dashoffset: 0; stroke-linejoin: miter; stroke-miterlimit: 4; is-custom-font: none; font-file-url: none; fill: rgb(254,254,254); fill-rule: nonzero; opacity: 1;" transform=" translate(-215, -91)" d="M 260 181 C 173.333359 181 87.166718 181 1.000058 181 C 1.000039 121.000046 1.000039 61.000088 1.000019 1.000098 C 143.66658 1.000065 286.33316 1.000065 428.999817 1.000033 C 428.999878 60.999897 428.999878 120.999794 428.999939 180.999847 C 372.833344 181 316.666656 181 260 181 M 65.502205 92.998062 C 50.069653 77.489151 34.637104 61.98024 18.626976 45.890888 C 18.626976 80.421387 18.626976 113.834953 18.626976 148.047379 C 28.143406 138.528503 36.97477 129.495453 46.089359 120.757866 C 47.771374 119.145424 50.574718 117.965996 52.902164 117.891708 C 62.718452 117.578377 72.550507 117.758987 82.376793 117.758926 C 84.592758 117.758911 86.808731 117.758926 90.491425 117.758926 C 81.563171 108.925552 73.774681 101.219826 65.502205 92.998062 M 36.629379 36.990444 C 33.955097 36.990444 31.280813 36.990444 27.664551 36.990444 C 29.223927 38.698719 29.979727 39.368481 30.546495 40.171638 C 37.483452 50.00185 46.674496 53.795757 58.780952 52.280567 C 66.59726 51.302311 74.635437 52.096725 83.137512 52.096725 C 83.137512 54.568993 83.137512 56.354618 83.13752 58.140244 C 83.137566 68.297783 83.102081 78.455566 83.174232 88.612595 C 83.185646 90.220039 83.124504 92.337837 84.049561 93.342644 C 88.591782 98.276466 93.455803 102.914047 98.713837 108.163071 C 98.713837 83.963379 98.713837 60.757748 98.713837 36.990406 C 78.131104 36.990406 57.862846 36.990406 36.629379 36.990444 M 342.718292 116.929031 C 351.06488 121.746918 359.109161 121.297676 366.800903 115.28022 C 367.6409 119.887047 369.643951 120.430069 378.639954 118.793106 C 378.639954 104.354073 378.639954 89.938316 378.639954 75.464149 C 374.700836 75.464149 371.092682 75.464149 367.543884 75.464149 C 367.214081 76.845566 366.946411 77.966812 366.633759 79.276443 C 355.573761 70.461014 339.885681 74.771461 334.861908 87.648888 C 330.755066 98.176102 333.470581 109.121147 342.718292 116.929031 M 158.493317 99.142799 C 165.843475 94.661263 169.39827 87.134148 167.837112 79.357658 C 166.338379 71.892029 160.360443 65.989944 152.265076 65.366379 C 144.526123 64.770271 136.705231 65.237785 128.770233 65.237785 C 128.770233 83.377235 128.770233 101.224594 128.770233 119.098068 C 132.75264 119.098068 136.354599 119.098068 140.388458 119.098068 C 140.388458 113.300446 140.388458 107.715706 140.388458 102.527237 C 146.543472 101.49157 152.205109 100.53891 158.493317 99.142799 M 289.224182 74.590767 C 284.924957 75.713158 280.625702 76.835548 276.061768 78.027046 C 276.061768 74.224113 276.061768 69.822441 276.061768 65.419373 C 271.925201 65.419373 268.207977 65.419373 264.417694 65.419373 C 264.417694 83.472878 264.417694 101.194405 264.417694 119.081688 C 268.407196 119.081688 272.15448 119.081688 276.21463 119.081688 C 276.21463 110.852798 276.072998 102.877968 276.257294 94.910667 C 276.418732 87.929848 281.094208 84.226212 287.392517 85.794235 C 292.316589 87.020126 293.729401 90.744003 293.766541 95.24292 C 293.832001 103.171455 293.784851 111.100922 293.784851 119.045746 C 298.099304 119.045746 301.857788 119.045746 305.835999 119.045746 C 305.835999 117.092659 305.83847 115.436684 305.835541 113.780716 C 305.822906 106.625778 306.055664 99.45977 305.735229 92.318596 C 305.293488 82.474998 299.614166 76.343521 289.224182 74.590767 M 185.870834 75.9077 C 182.026718 75.60231 178.182602 75.296921 173.955841 74.961136 C 173.955841 84.082954 173.906219 92.383255 173.970566 100.682686 C 174.028397 108.139687 176.508987 114.45916 183.442673 118.081444 C 190.296082 121.661758 196.879715 120.82328 203.074112 115.604767 C 203.512878 117.017494 203.874374 118.181396 204.154755 119.084175 C 208.118195 119.084175 211.738693 119.084175 215.728088 119.084175 C 215.728088 111.695305 215.728088 104.569496 215.728088 97.443687 C 215.728088 90.170494 215.728088 82.897301 215.728088 75.434448 C 211.382858 75.434448 207.635406 75.434448 203.32312 75.434448 C 203.32312 83.59687 203.388428 91.543831 203.302948 99.489166 C 203.231369 106.143417 200.415726 109.219116 194.70285 109.176758 C 189.149979 109.13559 186.164978 105.804993 186.091873 99.315208 C 186.007492 91.822769 186.062439 84.328773 185.870834 75.9077 M 258.001373 106.433975 C 258.21991 100.634094 255.102066 97.036247 250.047531 95.038673 C 246.510849 93.640961 242.71846 92.894035 239.169174 91.522804 C 237.642792 90.933105 236.294632 89.624741 235.208572 88.350479 C 234.965637 88.065445 236.020905 85.885033 236.722809 85.737213 C 238.548874 85.352623 241.571869 84.831909 242.242813 85.744171 C 246.067078 90.943924 251.100739 88.306099 255.711136 88.802994 C 255.426849 80.583961 250.319214 75.624985 241.162933 74.334244 C 233.509613 73.255371 225.832413 77.399559 223.695435 83.763313 C 221.465652 90.403458 223.988846 96.296371 230.484756 98.831467 C 234.02475 100.21299 237.925522 100.71418 241.382629 102.246376 C 243.277084 103.085999 244.587296 105.243874 246.16095 106.807327 C 243.930923 107.820892 241.683289 109.646721 239.476242 109.5989 C 237.607452 109.558395 235.790909 107.342316 233.941208 106.104027 C 232.639603 105.232674 231.403381 103.865891 229.992203 103.642937 C 227.445694 103.240616 224.790054 103.529144 222.209229 103.529144 C 221.868286 112.52626 227.619919 118.863487 236.601028 119.94651 C 248.498032 121.381142 255.938538 116.963211 258.001373 106.433975 M 399.38855 117.730438 C 399.38855 106.600296 399.38855 95.470146 399.38855 84.273071 C 395.209808 84.273071 391.461243 84.273071 387.511383 84.273071 C 387.511383 95.953476 387.511383 107.373154 387.511383 119.593414 C 391.565399 119.24662 395.417084 118.917137 399.38855 117.730438 M 387.285553 69.614151 C 387.285553 71.678139 387.285553 73.742126 387.285553 75.671776 C 391.731232 75.671776 395.437653 75.671776 399.051941 75.671776 C 399.051941 71.982903 399.051941 68.623039 399.051941 65.076614 C 396.055573 65.076614 393.406525 65.260216 390.794464 65.027756 C 387.866608 64.767181 386.893616 65.986732 387.285553 69.614151 M 319.536194 107.68132 C 317.772949 107.68132 316.009705 107.68132 314.155579 107.68132 C 314.155579 111.792076 314.155579 115.371933 314.155579 119.030624 C 318.61908 119.030624 322.844391 119.030624 327.173462 119.030624 C 327.173462 115.196419 327.173462 111.641228 327.173462 107.681305 C 324.779907 107.681305 322.655487 107.681305 319.536194 107.68132 z" stroke-linecap="round"/>
</g>
		<g transform="matrix(1 0 0 1 -159.4408 6.9691)" id="Layer_1">
<path style="stroke: none; stroke-width: 1; stroke-dasharray: none; stroke-linecap: butt; stroke-dashoffset: 0; stroke-linejoin: miter; stroke-miterlimit: 4; is-custom-font: none; font-file-url: none; fill: rgb(5,5,5); fill-rule: nonzero; opacity: 1;" transform=" translate(-54.5592, -96.9691)" d="M 65.744194 93.256081 C 73.774681 101.219826 81.563171 108.925552 90.491425 117.758926 C 86.808731 117.758926 84.592758 117.758911 82.376793 117.758926 C 72.550507 117.758987 62.718452 117.578377 52.902164 117.891708 C 50.574718 117.965996 47.771374 119.145424 46.089359 120.757866 C 36.97477 129.495453 28.143406 138.528503 18.626976 148.047379 C 18.626976 113.834953 18.626976 80.421387 18.626976 45.890888 C 34.637104 61.98024 50.069653 77.489151 65.744194 93.256081 z" stroke-linecap="round"/>
</g>
		<g transform="matrix(1 0 0 1 -150.8108 -17.4233)" id="Layer_1">
<path style="stroke: none; stroke-width: 1; stroke-dasharray: none; stroke-linecap: butt; stroke-dashoffset: 0; stroke-linejoin: miter; stroke-miterlimit: 4; is-custom-font: none; font-file-url: none; fill: rgb(165,180,223); fill-rule: nonzero; opacity: 1;" transform=" translate(-63.1892, -72.5767)" d="M 37.111984 36.990425 C 57.862846 36.990406 78.131104 36.990406 98.713837 36.990406 C 98.713837 60.757748 98.713837 83.963379 98.713837 108.163071 C 93.455803 102.914047 88.591782 98.276466 84.049561 93.342644 C 83.124504 92.337837 83.185646 90.220039 83.174232 88.612595 C 83.102081 78.455566 83.137566 68.297783 83.13752 58.140244 C 83.137512 56.354618 83.137512 54.568993 83.137512 52.096725 C 74.635437 52.096725 66.59726 51.302311 58.780952 52.280567 C 46.674496 53.795757 37.483452 50.00185 30.546495 40.171638 C 29.979727 39.368481 29.223927 38.698719 27.664551 36.990444 C 31.280813 36.990444 33.955097 36.990444 37.111984 36.990425 z" stroke-linecap="round"/>
</g>
		<g transform="matrix(1 0 0 1 141.8156 7.4093)" id="Layer_1">
<path style="stroke: none; stroke-width: 1; stroke-dasharray: none; stroke-linecap: butt; stroke-dashoffset: 0; stroke-linejoin: miter; stroke-miterlimit: 4; is-custom-font: none; font-file-url: none; fill: rgb(6,6,6); fill-rule: nonzero; opacity: 1;" transform=" translate(-355.8156, -97.4093)" d="M 342.414062 116.72168 C 333.470581 109.121147 330.755066 98.176102 334.861908 87.648888 C 339.885681 74.771461 355.573761 70.461014 366.633759 79.276443 C 366.946411 77.966812 367.214081 76.845566 367.543884 75.464149 C 371.092682 75.464149 374.700836 75.464149 378.639954 75.464149 C 378.639954 89.938316 378.639954 104.354073 378.639954 118.793106 C 369.643951 120.430069 367.6409 119.887047 366.800903 115.28022 C 359.109161 121.297676 351.06488 121.746918 342.414062 116.72168 M 348.96933 88.305786 C 347.751007 90.428795 345.412781 92.629852 345.554108 94.658127 C 345.82486 98.543571 346.701813 102.874466 348.823364 106.007355 C 350.984589 109.198776 355.237457 109.829117 359.255188 108.495995 C 365.634674 106.379204 368.551025 99.261848 366.120361 92.6297 C 363.801147 86.301682 355.025909 83.497459 348.96933 88.305786 z" stroke-linecap="round"/>
</g>
		<g transform="matrix(1 0 0 1 -65.5159 2.0807)" id="Layer_1">
<path style="stroke: none; stroke-width: 1; stroke-dasharray: none; stroke-linecap: butt; stroke-dashoffset: 0; stroke-linejoin: miter; stroke-miterlimit: 4; is-custom-font: none; font-file-url: none; fill: rgb(9,9,9); fill-rule: nonzero; opacity: 1;" transform=" translate(-148.4842, -92.0808)" d="M 158.180038 99.364532 C 152.205109 100.53891 146.543472 101.49157 140.388458 102.527237 C 140.388458 107.715706 140.388458 113.300446 140.388458 119.098068 C 136.354599 119.098068 132.75264 119.098068 128.770233 119.098068 C 128.770233 101.224594 128.770233 83.377235 128.770233 65.237785 C 136.705231 65.237785 144.526123 64.770271 152.265076 65.366379 C 160.360443 65.989944 166.338379 71.892029 167.837112 79.357658 C 169.39827 87.134148 165.843475 94.661263 158.180038 99.364532 M 153.868439 88.382141 C 156.153 85.459221 156.680573 82.221344 154.525253 79.178795 C 150.93898 74.116272 145.570847 76.427055 140.579834 75.970245 C 140.579834 80.894875 140.579834 85.450661 140.579834 91.16478 C 145.098541 90.36396 149.195465 89.637894 153.868439 88.382141 z" stroke-linecap="round"/>
</g>
		<g transform="matrix(1 0 0 1 71.1616 2.2506)" id="Layer_1">
<path style="stroke: none; stroke-width: 1; stroke-dasharray: none; stroke-linecap: butt; stroke-dashoffset: 0; stroke-linejoin: miter; stroke-miterlimit: 4; is-custom-font: none; font-file-url: none; fill: rgb(7,7,7); fill-rule: nonzero; opacity: 1;" transform=" translate(-285.1616, -92.2505)" d="M 289.617188 74.643524 C 299.614166 76.343521 305.293488 82.474998 305.735229 92.318596 C 306.055664 99.45977 305.822906 106.625778 305.835541 113.780716 C 305.83847 115.436684 305.835999 117.092659 305.835999 119.045746 C 301.857788 119.045746 298.099304 119.045746 293.784851 119.045746 C 293.784851 111.100922 293.832001 103.171455 293.766541 95.24292 C 293.729401 90.744003 292.316589 87.020126 287.392517 85.794235 C 281.094208 84.226212 276.418732 87.929848 276.257294 94.910667 C 276.072998 102.877968 276.21463 110.852798 276.21463 119.081688 C 272.15448 119.081688 268.407196 119.081688 264.417694 119.081688 C 264.417694 101.194405 264.417694 83.472878 264.417694 65.419373 C 268.207977 65.419373 271.925201 65.419373 276.061768 65.419373 C 276.061768 69.822441 276.061768 74.224113 276.061768 78.027046 C 280.625702 76.835548 284.924957 75.713158 289.617188 74.643524 z" stroke-linecap="round"/>
</g>
		<g transform="matrix(1 0 0 1 -19.1671 7.6104)" id="Layer_1">
<path style="stroke: none; stroke-width: 1; stroke-dasharray: none; stroke-linecap: butt; stroke-dashoffset: 0; stroke-linejoin: miter; stroke-miterlimit: 4; is-custom-font: none; font-file-url: none; fill: rgb(10,10,10); fill-rule: nonzero; opacity: 1;" transform=" translate(-194.8328, -97.6104)" d="M 185.963867 76.371574 C 186.062439 84.328773 186.007492 91.822769 186.091873 99.315208 C 186.164978 105.804993 189.149979 109.13559 194.70285 109.176758 C 200.415726 109.219116 203.231369 106.143417 203.302948 99.489166 C 203.388428 91.543831 203.32312 83.59687 203.32312 75.434448 C 207.635406 75.434448 211.382858 75.434448 215.728088 75.434448 C 215.728088 82.897301 215.728088 90.170494 215.728088 97.443687 C 215.728088 104.569496 215.728088 111.695305 215.728088 119.084175 C 211.738693 119.084175 208.118195 119.084175 204.154755 119.084175 C 203.874374 118.181396 203.512878 117.017494 203.074112 115.604767 C 196.879715 120.82328 190.296082 121.661758 183.442673 118.081444 C 176.508987 114.45916 174.028397 108.139687 173.970566 100.682686 C 173.906219 92.383255 173.955841 84.082954 173.955841 74.961136 C 178.182602 75.296921 182.026718 75.60231 185.963867 76.371574 z" stroke-linecap="round"/>
</g>
		<g transform="matrix(1 0 0 1 26.0971 7.1871)" id="Layer_1">
<path style="stroke: none; stroke-width: 1; stroke-dasharray: none; stroke-linecap: butt; stroke-dashoffset: 0; stroke-linejoin: miter; stroke-miterlimit: 4; is-custom-font: none; font-file-url: none; fill: rgb(7,7,7); fill-rule: nonzero; opacity: 1;" transform=" translate(-240.0971, -97.1871)" d="M 257.987061 106.845337 C 255.938538 116.963211 248.498032 121.381142 236.601028 119.94651 C 227.619919 118.863487 221.868286 112.52626 222.209229 103.529144 C 224.790054 103.529144 227.445694 103.240616 229.992203 103.642937 C 231.403381 103.865891 232.639603 105.232674 233.941208 106.104027 C 235.790909 107.342316 237.607452 109.558395 239.476242 109.5989 C 241.683289 109.646721 243.930923 107.820892 246.16095 106.807327 C 244.587296 105.243874 243.277084 103.085999 241.382629 102.246376 C 237.925522 100.71418 234.02475 100.21299 230.484756 98.831467 C 223.988846 96.296371 221.465652 90.403458 223.695435 83.763313 C 225.832413 77.399559 233.509613 73.255371 241.162933 74.334244 C 250.319214 75.624985 255.426849 80.583961 255.711136 88.802994 C 251.100739 88.306099 246.067078 90.943924 242.242813 85.744171 C 241.571869 84.831909 238.548874 85.352623 236.722809 85.737213 C 236.020905 85.885033 234.965637 88.065445 235.208572 88.350479 C 236.294632 89.624741 237.642792 90.933105 239.169174 91.522804 C 242.71846 92.894035 246.510849 93.640961 250.047531 95.038673 C 255.102066 97.036247 258.21991 100.634094 257.987061 106.845337 z" stroke-linecap="round"/>
</g>
		<g transform="matrix(1 0 0 1 179.45 11.9333)" id="Layer_1">
<path style="stroke: none; stroke-width: 1; stroke-dasharray: none; stroke-linecap: butt; stroke-dashoffset: 0; stroke-linejoin: miter; stroke-miterlimit: 4; is-custom-font: none; font-file-url: none; fill: rgb(10,10,10); fill-rule: nonzero; opacity: 1;" transform=" translate(-393.45, -101.9332)" d="M 399.328674 118.159042 C 395.417084 118.917137 391.565399 119.24662 387.511383 119.593414 C 387.511383 107.373154 387.511383 95.953476 387.511383 84.273071 C 391.461243 84.273071 395.209808 84.273071 399.38855 84.273071 C 399.38855 95.470146 399.38855 106.600296 399.328674 118.159042 z" stroke-linecap="round"/>
</g>
		<g transform="matrix(1 0 0 1 179.1274 -19.6672)" id="Layer_1">
<path style="stroke: none; stroke-width: 1; stroke-dasharray: none; stroke-linecap: butt; stroke-dashoffset: 0; stroke-linejoin: miter; stroke-miterlimit: 4; is-custom-font: none; font-file-url: none; fill: rgb(15,15,15); fill-rule: nonzero; opacity: 1;" transform=" translate(-393.1274, -70.3327)" d="M 387.285645 69.158714 C 386.893616 65.986732 387.866608 64.767181 390.794464 65.027756 C 393.406525 65.260216 396.055573 65.076614 399.051941 65.076614 C 399.051941 68.623039 399.051941 71.982903 399.051941 75.671776 C 395.437653 75.671776 391.731232 75.671776 387.285553 75.671776 C 387.285553 73.742126 387.285553 71.678139 387.285645 69.158714 z" stroke-linecap="round"/>
</g>
		<g transform="matrix(1 0 0 1 106.6645 23.356)" id="Layer_1">
<path style="stroke: none; stroke-width: 1; stroke-dasharray: none; stroke-linecap: butt; stroke-dashoffset: 0; stroke-linejoin: miter; stroke-miterlimit: 4; is-custom-font: none; font-file-url: none; fill: rgb(0,0,0); fill-rule: nonzero; opacity: 1;" transform=" translate(-320.6645, -113.356)" d="M 320.03363 107.681313 C 322.655487 107.681305 324.779907 107.681305 327.173462 107.681305 C 327.173462 111.641228 327.173462 115.196419 327.173462 119.030624 C 322.844391 119.030624 318.61908 119.030624 314.155579 119.030624 C 314.155579 115.371933 314.155579 111.792076 314.155579 107.68132 C 316.009705 107.68132 317.772949 107.68132 320.03363 107.681313 z" stroke-linecap="round"/>
</g>
		<g transform="matrix(1 0 0 1 142.2603 7.4838)" id="Layer_1">
<path style="stroke: none; stroke-width: 1; stroke-dasharray: none; stroke-linecap: butt; stroke-dashoffset: 0; stroke-linejoin: miter; stroke-miterlimit: 4; is-custom-font: none; font-file-url: none; fill: rgb(250,250,250); fill-rule: nonzero; opacity: 1;" transform=" translate(-356.2603, -97.4838)" d="M 349.284363 88.075653 C 355.025909 83.497459 363.801147 86.301682 366.120361 92.6297 C 368.551025 99.261848 365.634674 106.379204 359.255188 108.495995 C 355.237457 109.829117 350.984589 109.198776 348.823364 106.007355 C 346.701813 102.874466 345.82486 98.543571 345.554108 94.658127 C 345.412781 92.629852 347.751007 90.428795 349.284363 88.075653 z" stroke-linecap="round"/>
</g>
		<g transform="matrix(1 0 0 1 -65.7759 -6.5028)" id="Layer_1">
<path style="stroke: none; stroke-width: 1; stroke-dasharray: none; stroke-linecap: butt; stroke-dashoffset: 0; stroke-linejoin: miter; stroke-miterlimit: 4; is-custom-font: none; font-file-url: none; fill: rgb(240,240,240); fill-rule: nonzero; opacity: 1;" transform=" translate(-148.2242, -83.4972)" d="M 153.580414 88.64698 C 149.195465 89.637894 145.098541 90.36396 140.579834 91.16478 C 140.579834 85.450661 140.579834 80.894875 140.579834 75.970245 C 145.570847 76.427055 150.93898 74.116272 154.525253 79.178795 C 156.680573 82.221344 156.153 85.459221 153.580414 88.64698 z" stroke-linecap="round"/>
</g>
</g>
</g>
</svg>