<svg fill="none" height="28" viewBox="0 0 28 28" width="28" xmlns="http://www.w3.org/2000/svg"><path d="m14.524 23.4682c.2299 1.2137-.1614 2.4827-1.0891 3.3802l-.3183.308c-.5126.4959-1.3437.4959-1.8563 0s-.5126-1.2999 0-1.7958l.3183-.308c.3796-.3672.4898-.9209.2783-1.3982-.5074-1.1453-1.5797-2.5285-3.22175-4.117-1.64205-1.5886-3.07175-2.626-4.25562-3.1169-.49333-.2046-1.0657-.098-1.44523.2692l-.31835.308c-.51259.4959-1.34367.4959-1.856261 0-.512593-.4959-.512593-1.3 0-1.7959l.318351-.3079c.92768-.8975 2.23939-1.2761 3.49399-1.0536 2.95511-8.63204 10.41477-12.978636 22.05477-12.978636.7249 0 1.3125.568526 1.3125 1.269846 0 11.26099-4.4928 18.47779-13.4153 21.33669zm-1.0978-2.3256c7.6113-2.3288 11.5477-8.1407 11.8669-17.72082-9.9025.30875-15.91008 4.11705-18.31718 11.48052 1.09894.6849 2.26739 1.6318 3.51548 2.8392 1.2481 1.2075 2.2269 2.3379 2.9348 3.4011zm4.0125-7.5825c-1.4498 0-2.6251-1.1371-2.6251-2.5397 0-1.40263 1.1753-2.53969 2.6251-2.53969 1.4499 0 2.6252 1.13706 2.6252 2.53969 0 1.4026-1.1753 2.5397-2.6252 2.5397zm-12.74128 7.991c.51259-.496 1.34367-.496 1.85626 0 .51259.4959.51259 1.2999 0 1.7958l-2.62515 2.5397c-.51259.4959-1.34367.4959-1.85626 0-.5126-.4959-.5126-1.3 0-1.7959z" fill="#ff694a"/></svg>