<svg fill="none" height="32" viewBox="0 0 32 32" width="32" xmlns="http://www.w3.org/2000/svg"><path clip-rule="evenodd" d="m7.13636 6.06818c0-1.69644 1.37175-3.06818 3.06814-3.06818 1.6965 0 3.0682 1.37174 3.0682 3.06818v1.84091c0 .6778-.5494 1.22727-1.2272 1.22727h-1.841c-1.69639 0-3.06814-1.37174-3.06814-3.06818zm3.06814-.61363c-.34079 0-.61359.2728-.61359.61363s.2728.61364.61359.61364h.6137v-.61364c0-.34083-.2728-.61363-.6137-.61363zm7.3637 0c-.3409 0-.6137.2728-.6137.61363v6.13632c0 .3409.2728.6137.6137.6137.3408 0 .6136-.2728.6136-.6137v-6.13632c0-.34083-.2728-.61363-.6136-.61363zm-3.0682.61363c0-1.69644 1.3717-3.06818 3.0682-3.06818 1.6964 0 3.0682 1.37174 3.0682 3.06818v6.13632c0 1.6965-1.3718 3.0682-3.0682 3.0682-1.6965 0-3.0682-1.3717-3.0682-3.0682zm10.4318 5.52272c-.3408 0-.6136.2728-.6136.6136v.6137h.6136c.3409 0 .6137-.2728.6137-.6137 0-.3408-.2728-.6136-.6137-.6136zm-3.0682.6136c0-1.6964 1.3718-3.06814 3.0682-3.06814 1.6965 0 3.0682 1.37174 3.0682 3.06814 0 1.6965-1.3717 3.0682-3.0682 3.0682h-1.8409c-.6778 0-1.2273-.5494-1.2273-1.2272zm-20.8636 1.2273c0-1.6964 1.37174-3.0682 3.06818-3.0682h6.13632c1.6965 0 3.0682 1.3718 3.0682 3.0682 0 1.6965-1.3717 3.0682-3.0682 3.0682h-6.13632c-1.69644 0-3.06818-1.3717-3.06818-3.0682zm3.06818-.6136c-.34083 0-.61363.2728-.61363.6136 0 .3409.2728.6137.61363.6137h6.13632c.3409 0 .6137-.2728.6137-.6137 0-.3408-.2728-.6136-.6137-.6136zm14.72732 6.1363c-.3409 0-.6137.2728-.6137.6137 0 .3408.2728.6136.6137.6136h6.1363c.3409 0 .6137-.2728.6137-.6136 0-.3409-.2728-.6137-.6137-.6137zm-3.0682.6137c0-1.6965 1.3717-3.0682 3.0682-3.0682h6.1363c1.6965 0 3.0682 1.3717 3.0682 3.0682 0 1.6964-1.3717 3.0682-3.0682 3.0682h-6.1363c-1.6965 0-3.0682-1.3718-3.0682-3.0682zm-11.65912.6136c-.34083 0-.61363.2728-.61363.6137 0 .3408.2728.6136.61363.6136s.61364-.2728.61364-.6136v-.6137zm-3.06818.6137c0-1.6965 1.37174-3.0682 3.06818-3.0682h1.84091c.6778 0 1.22727.5494 1.22727 1.2272v1.841c0 1.6964-1.37174 3.0681-3.06818 3.0681s-3.06818-1.3717-3.06818-3.0681zm10.4318-.6137c-.3408 0-.6136.2728-.6136.6137v6.1363c0 .3409.2728.6137.6136.6137.3409 0 .6137-.2728.6137-.6137v-6.1363c0-.3409-.2728-.6137-.6137-.6137zm-3.06816.6137c0-1.6965 1.37174-3.0682 3.06816-3.0682 1.6965 0 3.0682 1.3717 3.0682 3.0682v6.1363c0 1.6965-1.3717 3.0682-3.0682 3.0682-1.69642 0-3.06816-1.3717-3.06816-3.0682zm7.36366 4.2954c0-.6778.5494-1.2273 1.2272-1.2273h1.841c1.6964 0 3.0681 1.3718 3.0681 3.0682 0 1.6965-1.3717 3.0682-3.0681 3.0682-1.6965 0-3.0682-1.3717-3.0682-3.0682zm2.4545 1.2273v.6136c0 .3409.2728.6137.6137.6137.3408 0 .6136-.2728.6136-.6137 0-.3408-.2728-.6136-.6136-.6136z" fill="#ff694a" fill-rule="evenodd"/></svg>