<svg fill="none" height="27" viewBox="0 0 27 27" width="27" xmlns="http://www.w3.org/2000/svg"><path d="m16.686 16.5105c-.9024.7276-2.0268 1.1244-3.186 1.1244s-2.2835-.3968-3.186-1.1244c-.2757-.2292-.63112-.3394-.98809-.3065-.35698.0329-.68626.2063-.9154.482-.22915.2757-.3394.6311-.30648.9881.03291.357.20628.6862.48197.9154 1.37881 1.151 3.1179 1.7815 4.914 1.7815s3.5352-.6305 4.914-1.7815c.2757-.2292.4491-.5584.482-.9154s-.0773-.7124-.3065-.9881c-.1135-.1365-.2527-.2493-.4098-.332-.157-.0827-.3288-.1337-.5056-.15-.357-.0329-.7124.0773-.9881.3065zm-7.236-4.3605c.26701 0 .52802-.0792.75-.2275.222-.1484.3951-.3592.4972-.6059.1022-.2467.129-.5181.0769-.78-.0521-.2618-.1807-.5024-.3695-.6912s-.42935-.31737-.69122-.36946c-.26188-.05209-.53332-.02536-.78.07682s-.45752.27521-.60586.49724c-.14834.222-.22752.483-.22752.75 0 .358.14224.7014.39541.9546s.59655.3954.95459.3954zm8.1-2.7c-.267 0-.528.07917-.75.22751s-.3951.35919-.4972.60589c-.1022.2467-.1289.5181-.0769.78.0521.2618.1807.5024.3695.6912s.4294.3174.6912.3695c.2619.052.5333.0253.78-.0769.2467-.1021.4575-.2752.6059-.4972.1483-.222.2275-.483.2275-.75 0-.358-.1422-.7014-.3954-.9546-.2532-.25317-.5966-.3954-.9546-.3954zm-4.05-9.45c-2.67 0-5.28013.791761-7.50019 2.27516-2.22007 1.4834-3.95039 3.59181-4.97218 6.05861-1.02178067 2.46683-1.289126 5.18123-.768225 7.79993.5209 2.6188 1.806655 5.0242 3.694655 6.9122 1.88801 1.888 4.29348 3.1738 6.91224 3.6947 2.6187.5209 5.3331.2536 7.7999-.7682s4.5752-2.7521 6.0586-4.9722 2.2752-4.8302 2.2752-7.5002c0-1.7728-.3492-3.52833-1.0276-5.16623-.6785-1.63789-1.6729-3.12612-2.9265-4.37971-1.2535-1.25359-2.7418-2.248-4.3797-2.92643-1.6379-.678442-3.3934-1.02763-5.1662-1.02763zm0 24.3c-2.136 0-4.2241-.6334-6.00015-1.8201-1.77605-1.1868-3.16032-2.8735-3.97774-4.8469-.81743-1.9735-1.03131-4.145-.61458-6.24.41672-2.09497 1.44531-4.01935 2.95572-5.52975 1.51041-1.51041 3.43478-2.53901 5.52975-2.95573 2.095-.41672 4.2665-.20285 6.24.61458 1.9734.81743 3.6602 2.20169 4.8469 3.97774s1.8201 3.86416 1.8201 6.00016c0 2.8643-1.1379 5.6114-3.1632 7.6367-2.0254 2.0254-4.7725 3.1633-7.6368 3.1633z" fill="#ff694a"/></svg>