<svg fill="none" height="64" viewBox="0 0 64 64" width="64" xmlns="http://www.w3.org/2000/svg"><path d="m42.2484 29.2851c-.251.0837-.502.1673-.7111.2928l-14.1386-28.23526c1.5059-.20915 3.0536-.33464 4.6013-.33464h.0418zm-2.2589 1.2968-23.6339-25.64187c-1.4641.79477-2.8445 1.71502-4.1831 2.71894l27.2733 23.46663c.1673-.2091.3346-.3764.5437-.5437zm-1.5895 2.0078-34.25882-15.9791c-.8366 1.4222-1.58955 2.9699-2.17517 4.5177l36.14119 12.1725c.0836-.251.1673-.502.2928-.7111zm-.6693 2.8444c0-.1254.0419-.2509.0419-.3764l-37.7726-2.0915c.0418301 1.6732.20915 3.3045.543791 4.9359l37.228809-2.0915c-.0419-.1255-.0419-.251-.0419-.3765zm.3765 2.1334-33.08759 11.1268c.87843 1.3385 1.88235 2.5934 2.96993 3.7647l30.45226-14.2222c-.1673-.2092-.251-.4602-.3346-.6693zm1.3386 2.1751-22.6719 19.5347c1.2967.6693 2.6771 1.2549 4.0993 1.7568l19.1163-20.7477c-.2091-.1673-.3764-.3346-.5437-.5438zm2.0915 1.5478-10.834 21.6261c.4183 0 .8784.0837 1.2967.0837.8784 0 1.715-.0419 2.5516-.1255l7.6968-21.2915c-.251-.1255-.4602-.2092-.7111-.2928z" fill="#00b7c9"/><path d="m44.4653 41.9596c.1255 0 .251-.0418.3765-.0418l1.0876 17.987c-.9621.4601-1.966.8784-2.9699 1.213l1.1294-19.2c.1255 0 .251.0418.3764.0418zm4.4759-1.6732 9.0771 9.8301c.4601-.6274.8784-1.2549 1.2967-1.8823l-9.8301-8.4497c-.1673.1673-.3346.3346-.5437.5019zm2.2588-5.2287c0 .1255.0418.251.0418.3765s-.0418.2509-.0418.3764l12.549.7111c.1255-.7111.2092-1.4222.251-2.1751zm-1.7151-3.9739 12.2981-10.583c-.3765-.8784-.753-1.715-1.2131-2.5516l-11.6706 12.6327c.251.1673.4183.3346.5856.5019zm-5.396-2.1751c.1255 0 .251-.0419.3764-.0419.1255 0 .251.0419.3765.0419l1.4641-24.67977c-1.2131-.58562-2.5098-1.12942-3.8066-1.54772zm2.5934 12.6326 5.2706 14.6824c.7111-.5438 1.3804-1.1294 2.0497-1.715l-6.6092-13.2183c-.2091.0836-.4601.1673-.7111.2509zm3.8484-3.3045 11.2523 5.2706c.2928-.6693.5438-1.3386.7529-2.0079l-11.7124-3.932c-.0836.2091-.1673.4601-.2928.6693zm.2928-4.936 13.1347-4.434c-.0837-.7947-.2092-1.5895-.3765-2.3843l-13.051 6.1072c.1255.2092.2092.4601.2928.7111zm5.4798-21.5425c-.753-.8366-1.5896-1.6732-2.4262-2.42611l-7.1948 19.95291c.251.0837.502.1674.7111.2929z" fill="#1e384b"/></svg>