<svg height="240pt" preserveAspectRatio="xMidYMid meet" viewBox="0 0 480 240" width="480pt" xmlns="http://www.w3.org/2000/svg"><g transform="matrix(.1 0 0 -.1 0 240)"><path d="m1203 1793c3-32 11-159 17-283 7-124 15-234 19-244s13 86 20 215c6 129 14 259 17 289l6 55-34 13c-19 6-38 12-43 12-4 0-5-26-2-57z"/><path d="m1432 1614c-17-49-53-152-81-229-27-77-48-141-46-143s50 88 107 202l103 206-26 26-27 26z"/><path d="m1483 1349c-72-79-130-145-128-147 5-5 285 239 285 247 0 4-6 15-13 25-12 17-25 6-144-125z"/><path d="m1605 1256c-38-18-103-48-143-66s-70-35-68-37 70 17 150 44c130 43 146 50 146 71 0 28 0 28-85-12z"/><path d="m1508 1103c-117-4-132-23-19-23 43 0 106-3 140-6 58-7 61-6 61 15 0 18-5 21-42 19-24-1-87-4-140-5z"/><path d="m1390 1031c1-3 57-32 127-65 100-46 127-56 134-45 5 8 9 16 9 19s-61 26-135 51-135 43-135 40z"/><path d="m1386 938c174-186 173-186 185-172 6 7 9 17 7 22-5 12-215 192-224 192-5 0 10-19 32-42z"/><path d="m1301 947c-2-16 107-316 119-330 4-4 14 1 22 10 15 17 10 30-62 173-44 85-79 151-79 147z"/><path d="m1238 920c-4-8-9-82-12-165-4-82-9-176-13-208l-6-59 32 17 32 16-6 102c-16 250-22 311-27 297z"/></g></svg>