<svg version="1.1" id="Layer_1" xmlns="http://www.w3.org/2000/svg" xmlns:xlink="http://www.w3.org/1999/xlink" x="0px" y="0px"
	 width="100%" viewBox="0 0 192 192" enable-background="new 0 0 192 192" xml:space="preserve">
<path fill="#000000" opacity="1.000000" stroke="none" 
	d="
M144.908508,153.958221 
	C134.160736,162.722946 122.187965,167.830994 108.783020,169.245789 
	C101.637695,169.999924 99.734436,168.029434 99.709663,160.920761 
	C99.659752,146.592133 99.719856,132.263092 99.658875,117.934555 
	C99.650909,116.064079 100.455170,113.610344 97.937836,112.710121 
	C95.777664,111.937637 94.681267,114.006279 93.453194,115.226585 
	C82.935066,125.678192 72.489296,136.202545 61.989761,146.672943 
	C56.717167,151.930923 53.461552,151.880692 48.768269,146.117569 
	C31.701342,125.160233 27.258619,101.679924 36.705284,76.393295 
	C45.853092,51.906643 64.337418,37.492306 89.826141,32.994865 
	C129.108429,26.063581 165.543274,54.443562 169.387650,94.324722 
	C171.699829,118.311104 163.285492,138.013000 144.908508,153.958221 
M71.671249,56.164833 
	C42.672165,75.648262 42.147381,113.029953 56.810574,129.504990 
	C58.250614,128.146805 59.719578,126.828423 61.114044,125.435455 
	C72.063560,114.497749 82.978584,103.525444 93.946991,92.606750 
	C99.444298,87.134346 102.419334,87.098541 107.848885,92.494354 
	C119.064003,103.639771 130.200333,114.864494 141.419189,126.006126 
	C142.761368,127.339058 143.777710,129.330536 146.484818,129.205582 
	C153.246475,118.665955 156.231491,106.949821 154.320297,94.602211 
	C148.098465,54.404781 107.218597,35.214325 71.671249,56.164833 
z"/>
</svg>
